G75*
%MOIN*%
%OFA0B0*%
%FSLAX25Y25*%
%IPPOS*%
%LPD*%
%AMOC8*
5,1,8,0,0,1.08239X$1,22.5*
%
%ADD10C,0.00000*%
%ADD11R,0.08661X0.02362*%
%ADD12R,0.05118X0.06299*%
%ADD13R,0.06299X0.05118*%
%ADD14R,0.04724X0.04724*%
%ADD15R,0.08000X0.02600*%
%ADD16R,0.05118X0.05906*%
%ADD17R,0.01200X0.03900*%
%ADD18R,0.05906X0.05118*%
%ADD19R,0.05512X0.11811*%
%ADD20R,0.07677X0.09843*%
%ADD21R,0.06300X0.04600*%
%ADD22R,0.03900X0.01200*%
%ADD23R,0.05800X0.01400*%
D10*
X0005500Y0014811D02*
X0005500Y0075835D01*
X0005502Y0075959D01*
X0005508Y0076082D01*
X0005517Y0076206D01*
X0005531Y0076328D01*
X0005548Y0076451D01*
X0005570Y0076573D01*
X0005595Y0076694D01*
X0005624Y0076814D01*
X0005656Y0076933D01*
X0005693Y0077052D01*
X0005733Y0077169D01*
X0005776Y0077284D01*
X0005824Y0077399D01*
X0005875Y0077511D01*
X0005929Y0077622D01*
X0005987Y0077732D01*
X0006048Y0077839D01*
X0006113Y0077945D01*
X0006181Y0078048D01*
X0006252Y0078149D01*
X0006326Y0078248D01*
X0006403Y0078345D01*
X0006484Y0078439D01*
X0006567Y0078530D01*
X0006653Y0078619D01*
X0006742Y0078705D01*
X0006833Y0078788D01*
X0006927Y0078869D01*
X0007024Y0078946D01*
X0007123Y0079020D01*
X0007224Y0079091D01*
X0007327Y0079159D01*
X0007433Y0079224D01*
X0007540Y0079285D01*
X0007650Y0079343D01*
X0007761Y0079397D01*
X0007873Y0079448D01*
X0007988Y0079496D01*
X0008103Y0079539D01*
X0008220Y0079579D01*
X0008339Y0079616D01*
X0008458Y0079648D01*
X0008578Y0079677D01*
X0008699Y0079702D01*
X0008821Y0079724D01*
X0008944Y0079741D01*
X0009066Y0079755D01*
X0009190Y0079764D01*
X0009313Y0079770D01*
X0009437Y0079772D01*
X0021248Y0079772D01*
X0021372Y0079774D01*
X0021495Y0079780D01*
X0021619Y0079789D01*
X0021741Y0079803D01*
X0021864Y0079820D01*
X0021986Y0079842D01*
X0022107Y0079867D01*
X0022227Y0079896D01*
X0022346Y0079928D01*
X0022465Y0079965D01*
X0022582Y0080005D01*
X0022697Y0080048D01*
X0022812Y0080096D01*
X0022924Y0080147D01*
X0023035Y0080201D01*
X0023145Y0080259D01*
X0023252Y0080320D01*
X0023358Y0080385D01*
X0023461Y0080453D01*
X0023562Y0080524D01*
X0023661Y0080598D01*
X0023758Y0080675D01*
X0023852Y0080756D01*
X0023943Y0080839D01*
X0024032Y0080925D01*
X0024118Y0081014D01*
X0024201Y0081105D01*
X0024282Y0081199D01*
X0024359Y0081296D01*
X0024433Y0081395D01*
X0024504Y0081496D01*
X0024572Y0081599D01*
X0024637Y0081705D01*
X0024698Y0081812D01*
X0024756Y0081922D01*
X0024810Y0082033D01*
X0024861Y0082145D01*
X0024909Y0082260D01*
X0024952Y0082375D01*
X0024992Y0082492D01*
X0025029Y0082611D01*
X0025061Y0082730D01*
X0025090Y0082850D01*
X0025115Y0082971D01*
X0025137Y0083093D01*
X0025154Y0083216D01*
X0025168Y0083338D01*
X0025177Y0083462D01*
X0025183Y0083585D01*
X0025185Y0083709D01*
X0025185Y0142764D01*
X0025183Y0142888D01*
X0025177Y0143011D01*
X0025168Y0143135D01*
X0025154Y0143257D01*
X0025137Y0143380D01*
X0025115Y0143502D01*
X0025090Y0143623D01*
X0025061Y0143743D01*
X0025029Y0143862D01*
X0024992Y0143981D01*
X0024952Y0144098D01*
X0024909Y0144213D01*
X0024861Y0144328D01*
X0024810Y0144440D01*
X0024756Y0144551D01*
X0024698Y0144661D01*
X0024637Y0144768D01*
X0024572Y0144874D01*
X0024504Y0144977D01*
X0024433Y0145078D01*
X0024359Y0145177D01*
X0024282Y0145274D01*
X0024201Y0145368D01*
X0024118Y0145459D01*
X0024032Y0145548D01*
X0023943Y0145634D01*
X0023852Y0145717D01*
X0023758Y0145798D01*
X0023661Y0145875D01*
X0023562Y0145949D01*
X0023461Y0146020D01*
X0023358Y0146088D01*
X0023252Y0146153D01*
X0023145Y0146214D01*
X0023035Y0146272D01*
X0022924Y0146326D01*
X0022812Y0146377D01*
X0022697Y0146425D01*
X0022582Y0146468D01*
X0022465Y0146508D01*
X0022346Y0146545D01*
X0022227Y0146577D01*
X0022107Y0146606D01*
X0021986Y0146631D01*
X0021864Y0146653D01*
X0021741Y0146670D01*
X0021619Y0146684D01*
X0021495Y0146693D01*
X0021372Y0146699D01*
X0021248Y0146701D01*
X0009437Y0146701D01*
X0009313Y0146703D01*
X0009190Y0146709D01*
X0009066Y0146718D01*
X0008944Y0146732D01*
X0008821Y0146749D01*
X0008699Y0146771D01*
X0008578Y0146796D01*
X0008458Y0146825D01*
X0008339Y0146857D01*
X0008220Y0146894D01*
X0008103Y0146934D01*
X0007988Y0146977D01*
X0007873Y0147025D01*
X0007761Y0147076D01*
X0007650Y0147130D01*
X0007540Y0147188D01*
X0007433Y0147249D01*
X0007327Y0147314D01*
X0007224Y0147382D01*
X0007123Y0147453D01*
X0007024Y0147527D01*
X0006927Y0147604D01*
X0006833Y0147685D01*
X0006742Y0147768D01*
X0006653Y0147854D01*
X0006567Y0147943D01*
X0006484Y0148034D01*
X0006403Y0148128D01*
X0006326Y0148225D01*
X0006252Y0148324D01*
X0006181Y0148425D01*
X0006113Y0148528D01*
X0006048Y0148634D01*
X0005987Y0148741D01*
X0005929Y0148851D01*
X0005875Y0148962D01*
X0005824Y0149074D01*
X0005776Y0149189D01*
X0005733Y0149304D01*
X0005693Y0149421D01*
X0005656Y0149540D01*
X0005624Y0149659D01*
X0005595Y0149779D01*
X0005570Y0149900D01*
X0005548Y0150022D01*
X0005531Y0150145D01*
X0005517Y0150267D01*
X0005508Y0150391D01*
X0005502Y0150514D01*
X0005500Y0150638D01*
X0005500Y0211661D01*
X0005503Y0211946D01*
X0005514Y0212232D01*
X0005531Y0212517D01*
X0005555Y0212801D01*
X0005586Y0213085D01*
X0005624Y0213368D01*
X0005669Y0213649D01*
X0005720Y0213930D01*
X0005778Y0214210D01*
X0005843Y0214488D01*
X0005915Y0214764D01*
X0005993Y0215038D01*
X0006078Y0215311D01*
X0006170Y0215581D01*
X0006268Y0215849D01*
X0006372Y0216115D01*
X0006483Y0216378D01*
X0006600Y0216638D01*
X0006723Y0216896D01*
X0006853Y0217150D01*
X0006989Y0217401D01*
X0007130Y0217649D01*
X0007278Y0217893D01*
X0007431Y0218134D01*
X0007591Y0218370D01*
X0007756Y0218603D01*
X0007926Y0218832D01*
X0008102Y0219057D01*
X0008284Y0219277D01*
X0008470Y0219493D01*
X0008662Y0219704D01*
X0008859Y0219911D01*
X0009061Y0220113D01*
X0009268Y0220310D01*
X0009479Y0220502D01*
X0009695Y0220688D01*
X0009915Y0220870D01*
X0010140Y0221046D01*
X0010369Y0221216D01*
X0010602Y0221381D01*
X0010838Y0221541D01*
X0011079Y0221694D01*
X0011323Y0221842D01*
X0011571Y0221983D01*
X0011822Y0222119D01*
X0012076Y0222249D01*
X0012334Y0222372D01*
X0012594Y0222489D01*
X0012857Y0222600D01*
X0013123Y0222704D01*
X0013391Y0222802D01*
X0013661Y0222894D01*
X0013934Y0222979D01*
X0014208Y0223057D01*
X0014484Y0223129D01*
X0014762Y0223194D01*
X0015042Y0223252D01*
X0015323Y0223303D01*
X0015604Y0223348D01*
X0015887Y0223386D01*
X0016171Y0223417D01*
X0016455Y0223441D01*
X0016740Y0223458D01*
X0017026Y0223469D01*
X0017311Y0223472D01*
X0249594Y0223472D01*
X0249879Y0223469D01*
X0250165Y0223458D01*
X0250450Y0223441D01*
X0250734Y0223417D01*
X0251018Y0223386D01*
X0251301Y0223348D01*
X0251582Y0223303D01*
X0251863Y0223252D01*
X0252143Y0223194D01*
X0252421Y0223129D01*
X0252697Y0223057D01*
X0252971Y0222979D01*
X0253244Y0222894D01*
X0253514Y0222802D01*
X0253782Y0222704D01*
X0254048Y0222600D01*
X0254311Y0222489D01*
X0254571Y0222372D01*
X0254829Y0222249D01*
X0255083Y0222119D01*
X0255334Y0221983D01*
X0255582Y0221842D01*
X0255826Y0221694D01*
X0256067Y0221541D01*
X0256303Y0221381D01*
X0256536Y0221216D01*
X0256765Y0221046D01*
X0256990Y0220870D01*
X0257210Y0220688D01*
X0257426Y0220502D01*
X0257637Y0220310D01*
X0257844Y0220113D01*
X0258046Y0219911D01*
X0258243Y0219704D01*
X0258435Y0219493D01*
X0258621Y0219277D01*
X0258803Y0219057D01*
X0258979Y0218832D01*
X0259149Y0218603D01*
X0259314Y0218370D01*
X0259474Y0218134D01*
X0259627Y0217893D01*
X0259775Y0217649D01*
X0259916Y0217401D01*
X0260052Y0217150D01*
X0260182Y0216896D01*
X0260305Y0216638D01*
X0260422Y0216378D01*
X0260533Y0216115D01*
X0260637Y0215849D01*
X0260735Y0215581D01*
X0260827Y0215311D01*
X0260912Y0215038D01*
X0260990Y0214764D01*
X0261062Y0214488D01*
X0261127Y0214210D01*
X0261185Y0213930D01*
X0261236Y0213649D01*
X0261281Y0213368D01*
X0261319Y0213085D01*
X0261350Y0212801D01*
X0261374Y0212517D01*
X0261391Y0212232D01*
X0261402Y0211946D01*
X0261405Y0211661D01*
X0261406Y0211661D02*
X0261406Y0014811D01*
X0261405Y0014811D02*
X0261402Y0014526D01*
X0261391Y0014240D01*
X0261374Y0013955D01*
X0261350Y0013671D01*
X0261319Y0013387D01*
X0261281Y0013104D01*
X0261236Y0012823D01*
X0261185Y0012542D01*
X0261127Y0012262D01*
X0261062Y0011984D01*
X0260990Y0011708D01*
X0260912Y0011434D01*
X0260827Y0011161D01*
X0260735Y0010891D01*
X0260637Y0010623D01*
X0260533Y0010357D01*
X0260422Y0010094D01*
X0260305Y0009834D01*
X0260182Y0009576D01*
X0260052Y0009322D01*
X0259916Y0009071D01*
X0259775Y0008823D01*
X0259627Y0008579D01*
X0259474Y0008338D01*
X0259314Y0008102D01*
X0259149Y0007869D01*
X0258979Y0007640D01*
X0258803Y0007415D01*
X0258621Y0007195D01*
X0258435Y0006979D01*
X0258243Y0006768D01*
X0258046Y0006561D01*
X0257844Y0006359D01*
X0257637Y0006162D01*
X0257426Y0005970D01*
X0257210Y0005784D01*
X0256990Y0005602D01*
X0256765Y0005426D01*
X0256536Y0005256D01*
X0256303Y0005091D01*
X0256067Y0004931D01*
X0255826Y0004778D01*
X0255582Y0004630D01*
X0255334Y0004489D01*
X0255083Y0004353D01*
X0254829Y0004223D01*
X0254571Y0004100D01*
X0254311Y0003983D01*
X0254048Y0003872D01*
X0253782Y0003768D01*
X0253514Y0003670D01*
X0253244Y0003578D01*
X0252971Y0003493D01*
X0252697Y0003415D01*
X0252421Y0003343D01*
X0252143Y0003278D01*
X0251863Y0003220D01*
X0251582Y0003169D01*
X0251301Y0003124D01*
X0251018Y0003086D01*
X0250734Y0003055D01*
X0250450Y0003031D01*
X0250165Y0003014D01*
X0249879Y0003003D01*
X0249594Y0003000D01*
X0017311Y0003000D01*
X0017026Y0003003D01*
X0016740Y0003014D01*
X0016455Y0003031D01*
X0016171Y0003055D01*
X0015887Y0003086D01*
X0015604Y0003124D01*
X0015323Y0003169D01*
X0015042Y0003220D01*
X0014762Y0003278D01*
X0014484Y0003343D01*
X0014208Y0003415D01*
X0013934Y0003493D01*
X0013661Y0003578D01*
X0013391Y0003670D01*
X0013123Y0003768D01*
X0012857Y0003872D01*
X0012594Y0003983D01*
X0012334Y0004100D01*
X0012076Y0004223D01*
X0011822Y0004353D01*
X0011571Y0004489D01*
X0011323Y0004630D01*
X0011079Y0004778D01*
X0010838Y0004931D01*
X0010602Y0005091D01*
X0010369Y0005256D01*
X0010140Y0005426D01*
X0009915Y0005602D01*
X0009695Y0005784D01*
X0009479Y0005970D01*
X0009268Y0006162D01*
X0009061Y0006359D01*
X0008859Y0006561D01*
X0008662Y0006768D01*
X0008470Y0006979D01*
X0008284Y0007195D01*
X0008102Y0007415D01*
X0007926Y0007640D01*
X0007756Y0007869D01*
X0007591Y0008102D01*
X0007431Y0008338D01*
X0007278Y0008579D01*
X0007130Y0008823D01*
X0006989Y0009071D01*
X0006853Y0009322D01*
X0006723Y0009576D01*
X0006600Y0009834D01*
X0006483Y0010094D01*
X0006372Y0010357D01*
X0006268Y0010623D01*
X0006170Y0010891D01*
X0006078Y0011161D01*
X0005993Y0011434D01*
X0005915Y0011708D01*
X0005843Y0011984D01*
X0005778Y0012262D01*
X0005720Y0012542D01*
X0005669Y0012823D01*
X0005624Y0013104D01*
X0005586Y0013387D01*
X0005555Y0013671D01*
X0005531Y0013955D01*
X0005514Y0014240D01*
X0005503Y0014526D01*
X0005500Y0014811D01*
X0013768Y0016780D02*
X0013770Y0016928D01*
X0013776Y0017076D01*
X0013786Y0017224D01*
X0013800Y0017371D01*
X0013818Y0017518D01*
X0013839Y0017664D01*
X0013865Y0017810D01*
X0013895Y0017955D01*
X0013928Y0018099D01*
X0013966Y0018242D01*
X0014007Y0018384D01*
X0014052Y0018525D01*
X0014100Y0018665D01*
X0014153Y0018804D01*
X0014209Y0018941D01*
X0014269Y0019076D01*
X0014332Y0019210D01*
X0014399Y0019342D01*
X0014470Y0019472D01*
X0014544Y0019600D01*
X0014621Y0019726D01*
X0014702Y0019850D01*
X0014786Y0019972D01*
X0014873Y0020091D01*
X0014964Y0020208D01*
X0015058Y0020323D01*
X0015154Y0020435D01*
X0015254Y0020545D01*
X0015356Y0020651D01*
X0015462Y0020755D01*
X0015570Y0020856D01*
X0015681Y0020954D01*
X0015794Y0021050D01*
X0015910Y0021142D01*
X0016028Y0021231D01*
X0016149Y0021316D01*
X0016272Y0021399D01*
X0016397Y0021478D01*
X0016524Y0021554D01*
X0016653Y0021626D01*
X0016784Y0021695D01*
X0016917Y0021760D01*
X0017052Y0021821D01*
X0017188Y0021879D01*
X0017325Y0021934D01*
X0017464Y0021984D01*
X0017605Y0022031D01*
X0017746Y0022074D01*
X0017889Y0022114D01*
X0018033Y0022149D01*
X0018177Y0022181D01*
X0018323Y0022208D01*
X0018469Y0022232D01*
X0018616Y0022252D01*
X0018763Y0022268D01*
X0018910Y0022280D01*
X0019058Y0022288D01*
X0019206Y0022292D01*
X0019354Y0022292D01*
X0019502Y0022288D01*
X0019650Y0022280D01*
X0019797Y0022268D01*
X0019944Y0022252D01*
X0020091Y0022232D01*
X0020237Y0022208D01*
X0020383Y0022181D01*
X0020527Y0022149D01*
X0020671Y0022114D01*
X0020814Y0022074D01*
X0020955Y0022031D01*
X0021096Y0021984D01*
X0021235Y0021934D01*
X0021372Y0021879D01*
X0021508Y0021821D01*
X0021643Y0021760D01*
X0021776Y0021695D01*
X0021907Y0021626D01*
X0022036Y0021554D01*
X0022163Y0021478D01*
X0022288Y0021399D01*
X0022411Y0021316D01*
X0022532Y0021231D01*
X0022650Y0021142D01*
X0022766Y0021050D01*
X0022879Y0020954D01*
X0022990Y0020856D01*
X0023098Y0020755D01*
X0023204Y0020651D01*
X0023306Y0020545D01*
X0023406Y0020435D01*
X0023502Y0020323D01*
X0023596Y0020208D01*
X0023687Y0020091D01*
X0023774Y0019972D01*
X0023858Y0019850D01*
X0023939Y0019726D01*
X0024016Y0019600D01*
X0024090Y0019472D01*
X0024161Y0019342D01*
X0024228Y0019210D01*
X0024291Y0019076D01*
X0024351Y0018941D01*
X0024407Y0018804D01*
X0024460Y0018665D01*
X0024508Y0018525D01*
X0024553Y0018384D01*
X0024594Y0018242D01*
X0024632Y0018099D01*
X0024665Y0017955D01*
X0024695Y0017810D01*
X0024721Y0017664D01*
X0024742Y0017518D01*
X0024760Y0017371D01*
X0024774Y0017224D01*
X0024784Y0017076D01*
X0024790Y0016928D01*
X0024792Y0016780D01*
X0024790Y0016632D01*
X0024784Y0016484D01*
X0024774Y0016336D01*
X0024760Y0016189D01*
X0024742Y0016042D01*
X0024721Y0015896D01*
X0024695Y0015750D01*
X0024665Y0015605D01*
X0024632Y0015461D01*
X0024594Y0015318D01*
X0024553Y0015176D01*
X0024508Y0015035D01*
X0024460Y0014895D01*
X0024407Y0014756D01*
X0024351Y0014619D01*
X0024291Y0014484D01*
X0024228Y0014350D01*
X0024161Y0014218D01*
X0024090Y0014088D01*
X0024016Y0013960D01*
X0023939Y0013834D01*
X0023858Y0013710D01*
X0023774Y0013588D01*
X0023687Y0013469D01*
X0023596Y0013352D01*
X0023502Y0013237D01*
X0023406Y0013125D01*
X0023306Y0013015D01*
X0023204Y0012909D01*
X0023098Y0012805D01*
X0022990Y0012704D01*
X0022879Y0012606D01*
X0022766Y0012510D01*
X0022650Y0012418D01*
X0022532Y0012329D01*
X0022411Y0012244D01*
X0022288Y0012161D01*
X0022163Y0012082D01*
X0022036Y0012006D01*
X0021907Y0011934D01*
X0021776Y0011865D01*
X0021643Y0011800D01*
X0021508Y0011739D01*
X0021372Y0011681D01*
X0021235Y0011626D01*
X0021096Y0011576D01*
X0020955Y0011529D01*
X0020814Y0011486D01*
X0020671Y0011446D01*
X0020527Y0011411D01*
X0020383Y0011379D01*
X0020237Y0011352D01*
X0020091Y0011328D01*
X0019944Y0011308D01*
X0019797Y0011292D01*
X0019650Y0011280D01*
X0019502Y0011272D01*
X0019354Y0011268D01*
X0019206Y0011268D01*
X0019058Y0011272D01*
X0018910Y0011280D01*
X0018763Y0011292D01*
X0018616Y0011308D01*
X0018469Y0011328D01*
X0018323Y0011352D01*
X0018177Y0011379D01*
X0018033Y0011411D01*
X0017889Y0011446D01*
X0017746Y0011486D01*
X0017605Y0011529D01*
X0017464Y0011576D01*
X0017325Y0011626D01*
X0017188Y0011681D01*
X0017052Y0011739D01*
X0016917Y0011800D01*
X0016784Y0011865D01*
X0016653Y0011934D01*
X0016524Y0012006D01*
X0016397Y0012082D01*
X0016272Y0012161D01*
X0016149Y0012244D01*
X0016028Y0012329D01*
X0015910Y0012418D01*
X0015794Y0012510D01*
X0015681Y0012606D01*
X0015570Y0012704D01*
X0015462Y0012805D01*
X0015356Y0012909D01*
X0015254Y0013015D01*
X0015154Y0013125D01*
X0015058Y0013237D01*
X0014964Y0013352D01*
X0014873Y0013469D01*
X0014786Y0013588D01*
X0014702Y0013710D01*
X0014621Y0013834D01*
X0014544Y0013960D01*
X0014470Y0014088D01*
X0014399Y0014218D01*
X0014332Y0014350D01*
X0014269Y0014484D01*
X0014209Y0014619D01*
X0014153Y0014756D01*
X0014100Y0014895D01*
X0014052Y0015035D01*
X0014007Y0015176D01*
X0013966Y0015318D01*
X0013928Y0015461D01*
X0013895Y0015605D01*
X0013865Y0015750D01*
X0013839Y0015896D01*
X0013818Y0016042D01*
X0013800Y0016189D01*
X0013786Y0016336D01*
X0013776Y0016484D01*
X0013770Y0016632D01*
X0013768Y0016780D01*
X0178728Y0018787D02*
X0178728Y0077803D01*
X0178730Y0077927D01*
X0178736Y0078050D01*
X0178745Y0078174D01*
X0178759Y0078296D01*
X0178776Y0078419D01*
X0178798Y0078541D01*
X0178823Y0078662D01*
X0178852Y0078782D01*
X0178884Y0078901D01*
X0178921Y0079020D01*
X0178961Y0079137D01*
X0179004Y0079252D01*
X0179052Y0079367D01*
X0179103Y0079479D01*
X0179157Y0079590D01*
X0179215Y0079700D01*
X0179276Y0079807D01*
X0179341Y0079913D01*
X0179409Y0080016D01*
X0179480Y0080117D01*
X0179554Y0080216D01*
X0179631Y0080313D01*
X0179712Y0080407D01*
X0179795Y0080498D01*
X0179881Y0080587D01*
X0179970Y0080673D01*
X0180061Y0080756D01*
X0180155Y0080837D01*
X0180252Y0080914D01*
X0180351Y0080988D01*
X0180452Y0081059D01*
X0180555Y0081127D01*
X0180661Y0081192D01*
X0180768Y0081253D01*
X0180878Y0081311D01*
X0180989Y0081365D01*
X0181101Y0081416D01*
X0181216Y0081464D01*
X0181331Y0081507D01*
X0181448Y0081547D01*
X0181567Y0081584D01*
X0181686Y0081616D01*
X0181806Y0081645D01*
X0181927Y0081670D01*
X0182049Y0081692D01*
X0182172Y0081709D01*
X0182294Y0081723D01*
X0182418Y0081732D01*
X0182541Y0081738D01*
X0182665Y0081740D01*
X0182789Y0081738D01*
X0182912Y0081732D01*
X0183036Y0081723D01*
X0183158Y0081709D01*
X0183281Y0081692D01*
X0183403Y0081670D01*
X0183524Y0081645D01*
X0183644Y0081616D01*
X0183763Y0081584D01*
X0183882Y0081547D01*
X0183999Y0081507D01*
X0184114Y0081464D01*
X0184229Y0081416D01*
X0184341Y0081365D01*
X0184452Y0081311D01*
X0184562Y0081253D01*
X0184669Y0081192D01*
X0184775Y0081127D01*
X0184878Y0081059D01*
X0184979Y0080988D01*
X0185078Y0080914D01*
X0185175Y0080837D01*
X0185269Y0080756D01*
X0185360Y0080673D01*
X0185449Y0080587D01*
X0185535Y0080498D01*
X0185618Y0080407D01*
X0185699Y0080313D01*
X0185776Y0080216D01*
X0185850Y0080117D01*
X0185921Y0080016D01*
X0185989Y0079913D01*
X0186054Y0079807D01*
X0186115Y0079700D01*
X0186173Y0079590D01*
X0186227Y0079479D01*
X0186278Y0079367D01*
X0186326Y0079252D01*
X0186369Y0079137D01*
X0186409Y0079020D01*
X0186446Y0078901D01*
X0186478Y0078782D01*
X0186507Y0078662D01*
X0186532Y0078541D01*
X0186554Y0078419D01*
X0186571Y0078296D01*
X0186585Y0078174D01*
X0186594Y0078050D01*
X0186600Y0077927D01*
X0186602Y0077803D01*
X0186602Y0018787D01*
X0186600Y0018663D01*
X0186594Y0018540D01*
X0186585Y0018416D01*
X0186571Y0018294D01*
X0186554Y0018171D01*
X0186532Y0018049D01*
X0186507Y0017928D01*
X0186478Y0017808D01*
X0186446Y0017689D01*
X0186409Y0017570D01*
X0186369Y0017453D01*
X0186326Y0017338D01*
X0186278Y0017223D01*
X0186227Y0017111D01*
X0186173Y0017000D01*
X0186115Y0016890D01*
X0186054Y0016783D01*
X0185989Y0016677D01*
X0185921Y0016574D01*
X0185850Y0016473D01*
X0185776Y0016374D01*
X0185699Y0016277D01*
X0185618Y0016183D01*
X0185535Y0016092D01*
X0185449Y0016003D01*
X0185360Y0015917D01*
X0185269Y0015834D01*
X0185175Y0015753D01*
X0185078Y0015676D01*
X0184979Y0015602D01*
X0184878Y0015531D01*
X0184775Y0015463D01*
X0184669Y0015398D01*
X0184562Y0015337D01*
X0184452Y0015279D01*
X0184341Y0015225D01*
X0184229Y0015174D01*
X0184114Y0015126D01*
X0183999Y0015083D01*
X0183882Y0015043D01*
X0183763Y0015006D01*
X0183644Y0014974D01*
X0183524Y0014945D01*
X0183403Y0014920D01*
X0183281Y0014898D01*
X0183158Y0014881D01*
X0183036Y0014867D01*
X0182912Y0014858D01*
X0182789Y0014852D01*
X0182665Y0014850D01*
X0182541Y0014852D01*
X0182418Y0014858D01*
X0182294Y0014867D01*
X0182172Y0014881D01*
X0182049Y0014898D01*
X0181927Y0014920D01*
X0181806Y0014945D01*
X0181686Y0014974D01*
X0181567Y0015006D01*
X0181448Y0015043D01*
X0181331Y0015083D01*
X0181216Y0015126D01*
X0181101Y0015174D01*
X0180989Y0015225D01*
X0180878Y0015279D01*
X0180768Y0015337D01*
X0180661Y0015398D01*
X0180555Y0015463D01*
X0180452Y0015531D01*
X0180351Y0015602D01*
X0180252Y0015676D01*
X0180155Y0015753D01*
X0180061Y0015834D01*
X0179970Y0015917D01*
X0179881Y0016003D01*
X0179795Y0016092D01*
X0179712Y0016183D01*
X0179631Y0016277D01*
X0179554Y0016374D01*
X0179480Y0016473D01*
X0179409Y0016574D01*
X0179341Y0016677D01*
X0179276Y0016783D01*
X0179215Y0016890D01*
X0179157Y0017000D01*
X0179103Y0017111D01*
X0179052Y0017223D01*
X0179004Y0017338D01*
X0178961Y0017453D01*
X0178921Y0017570D01*
X0178884Y0017689D01*
X0178852Y0017808D01*
X0178823Y0017928D01*
X0178798Y0018049D01*
X0178776Y0018171D01*
X0178759Y0018294D01*
X0178745Y0018416D01*
X0178736Y0018540D01*
X0178730Y0018663D01*
X0178728Y0018787D01*
X0242114Y0016780D02*
X0242116Y0016928D01*
X0242122Y0017076D01*
X0242132Y0017224D01*
X0242146Y0017371D01*
X0242164Y0017518D01*
X0242185Y0017664D01*
X0242211Y0017810D01*
X0242241Y0017955D01*
X0242274Y0018099D01*
X0242312Y0018242D01*
X0242353Y0018384D01*
X0242398Y0018525D01*
X0242446Y0018665D01*
X0242499Y0018804D01*
X0242555Y0018941D01*
X0242615Y0019076D01*
X0242678Y0019210D01*
X0242745Y0019342D01*
X0242816Y0019472D01*
X0242890Y0019600D01*
X0242967Y0019726D01*
X0243048Y0019850D01*
X0243132Y0019972D01*
X0243219Y0020091D01*
X0243310Y0020208D01*
X0243404Y0020323D01*
X0243500Y0020435D01*
X0243600Y0020545D01*
X0243702Y0020651D01*
X0243808Y0020755D01*
X0243916Y0020856D01*
X0244027Y0020954D01*
X0244140Y0021050D01*
X0244256Y0021142D01*
X0244374Y0021231D01*
X0244495Y0021316D01*
X0244618Y0021399D01*
X0244743Y0021478D01*
X0244870Y0021554D01*
X0244999Y0021626D01*
X0245130Y0021695D01*
X0245263Y0021760D01*
X0245398Y0021821D01*
X0245534Y0021879D01*
X0245671Y0021934D01*
X0245810Y0021984D01*
X0245951Y0022031D01*
X0246092Y0022074D01*
X0246235Y0022114D01*
X0246379Y0022149D01*
X0246523Y0022181D01*
X0246669Y0022208D01*
X0246815Y0022232D01*
X0246962Y0022252D01*
X0247109Y0022268D01*
X0247256Y0022280D01*
X0247404Y0022288D01*
X0247552Y0022292D01*
X0247700Y0022292D01*
X0247848Y0022288D01*
X0247996Y0022280D01*
X0248143Y0022268D01*
X0248290Y0022252D01*
X0248437Y0022232D01*
X0248583Y0022208D01*
X0248729Y0022181D01*
X0248873Y0022149D01*
X0249017Y0022114D01*
X0249160Y0022074D01*
X0249301Y0022031D01*
X0249442Y0021984D01*
X0249581Y0021934D01*
X0249718Y0021879D01*
X0249854Y0021821D01*
X0249989Y0021760D01*
X0250122Y0021695D01*
X0250253Y0021626D01*
X0250382Y0021554D01*
X0250509Y0021478D01*
X0250634Y0021399D01*
X0250757Y0021316D01*
X0250878Y0021231D01*
X0250996Y0021142D01*
X0251112Y0021050D01*
X0251225Y0020954D01*
X0251336Y0020856D01*
X0251444Y0020755D01*
X0251550Y0020651D01*
X0251652Y0020545D01*
X0251752Y0020435D01*
X0251848Y0020323D01*
X0251942Y0020208D01*
X0252033Y0020091D01*
X0252120Y0019972D01*
X0252204Y0019850D01*
X0252285Y0019726D01*
X0252362Y0019600D01*
X0252436Y0019472D01*
X0252507Y0019342D01*
X0252574Y0019210D01*
X0252637Y0019076D01*
X0252697Y0018941D01*
X0252753Y0018804D01*
X0252806Y0018665D01*
X0252854Y0018525D01*
X0252899Y0018384D01*
X0252940Y0018242D01*
X0252978Y0018099D01*
X0253011Y0017955D01*
X0253041Y0017810D01*
X0253067Y0017664D01*
X0253088Y0017518D01*
X0253106Y0017371D01*
X0253120Y0017224D01*
X0253130Y0017076D01*
X0253136Y0016928D01*
X0253138Y0016780D01*
X0253136Y0016632D01*
X0253130Y0016484D01*
X0253120Y0016336D01*
X0253106Y0016189D01*
X0253088Y0016042D01*
X0253067Y0015896D01*
X0253041Y0015750D01*
X0253011Y0015605D01*
X0252978Y0015461D01*
X0252940Y0015318D01*
X0252899Y0015176D01*
X0252854Y0015035D01*
X0252806Y0014895D01*
X0252753Y0014756D01*
X0252697Y0014619D01*
X0252637Y0014484D01*
X0252574Y0014350D01*
X0252507Y0014218D01*
X0252436Y0014088D01*
X0252362Y0013960D01*
X0252285Y0013834D01*
X0252204Y0013710D01*
X0252120Y0013588D01*
X0252033Y0013469D01*
X0251942Y0013352D01*
X0251848Y0013237D01*
X0251752Y0013125D01*
X0251652Y0013015D01*
X0251550Y0012909D01*
X0251444Y0012805D01*
X0251336Y0012704D01*
X0251225Y0012606D01*
X0251112Y0012510D01*
X0250996Y0012418D01*
X0250878Y0012329D01*
X0250757Y0012244D01*
X0250634Y0012161D01*
X0250509Y0012082D01*
X0250382Y0012006D01*
X0250253Y0011934D01*
X0250122Y0011865D01*
X0249989Y0011800D01*
X0249854Y0011739D01*
X0249718Y0011681D01*
X0249581Y0011626D01*
X0249442Y0011576D01*
X0249301Y0011529D01*
X0249160Y0011486D01*
X0249017Y0011446D01*
X0248873Y0011411D01*
X0248729Y0011379D01*
X0248583Y0011352D01*
X0248437Y0011328D01*
X0248290Y0011308D01*
X0248143Y0011292D01*
X0247996Y0011280D01*
X0247848Y0011272D01*
X0247700Y0011268D01*
X0247552Y0011268D01*
X0247404Y0011272D01*
X0247256Y0011280D01*
X0247109Y0011292D01*
X0246962Y0011308D01*
X0246815Y0011328D01*
X0246669Y0011352D01*
X0246523Y0011379D01*
X0246379Y0011411D01*
X0246235Y0011446D01*
X0246092Y0011486D01*
X0245951Y0011529D01*
X0245810Y0011576D01*
X0245671Y0011626D01*
X0245534Y0011681D01*
X0245398Y0011739D01*
X0245263Y0011800D01*
X0245130Y0011865D01*
X0244999Y0011934D01*
X0244870Y0012006D01*
X0244743Y0012082D01*
X0244618Y0012161D01*
X0244495Y0012244D01*
X0244374Y0012329D01*
X0244256Y0012418D01*
X0244140Y0012510D01*
X0244027Y0012606D01*
X0243916Y0012704D01*
X0243808Y0012805D01*
X0243702Y0012909D01*
X0243600Y0013015D01*
X0243500Y0013125D01*
X0243404Y0013237D01*
X0243310Y0013352D01*
X0243219Y0013469D01*
X0243132Y0013588D01*
X0243048Y0013710D01*
X0242967Y0013834D01*
X0242890Y0013960D01*
X0242816Y0014088D01*
X0242745Y0014218D01*
X0242678Y0014350D01*
X0242615Y0014484D01*
X0242555Y0014619D01*
X0242499Y0014756D01*
X0242446Y0014895D01*
X0242398Y0015035D01*
X0242353Y0015176D01*
X0242312Y0015318D01*
X0242274Y0015461D01*
X0242241Y0015605D01*
X0242211Y0015750D01*
X0242185Y0015896D01*
X0242164Y0016042D01*
X0242146Y0016189D01*
X0242132Y0016336D01*
X0242122Y0016484D01*
X0242116Y0016632D01*
X0242114Y0016780D01*
X0221828Y0162754D02*
X0221830Y0162842D01*
X0221836Y0162930D01*
X0221846Y0163018D01*
X0221860Y0163106D01*
X0221877Y0163192D01*
X0221899Y0163278D01*
X0221924Y0163362D01*
X0221954Y0163446D01*
X0221986Y0163528D01*
X0222023Y0163608D01*
X0222063Y0163687D01*
X0222107Y0163764D01*
X0222154Y0163839D01*
X0222204Y0163911D01*
X0222258Y0163982D01*
X0222314Y0164049D01*
X0222374Y0164115D01*
X0222436Y0164177D01*
X0222502Y0164237D01*
X0222569Y0164293D01*
X0222640Y0164347D01*
X0222712Y0164397D01*
X0222787Y0164444D01*
X0222864Y0164488D01*
X0222943Y0164528D01*
X0223023Y0164565D01*
X0223105Y0164597D01*
X0223189Y0164627D01*
X0223273Y0164652D01*
X0223359Y0164674D01*
X0223445Y0164691D01*
X0223533Y0164705D01*
X0223621Y0164715D01*
X0223709Y0164721D01*
X0223797Y0164723D01*
X0223885Y0164721D01*
X0223973Y0164715D01*
X0224061Y0164705D01*
X0224149Y0164691D01*
X0224235Y0164674D01*
X0224321Y0164652D01*
X0224405Y0164627D01*
X0224489Y0164597D01*
X0224571Y0164565D01*
X0224651Y0164528D01*
X0224730Y0164488D01*
X0224807Y0164444D01*
X0224882Y0164397D01*
X0224954Y0164347D01*
X0225025Y0164293D01*
X0225092Y0164237D01*
X0225158Y0164177D01*
X0225220Y0164115D01*
X0225280Y0164049D01*
X0225336Y0163982D01*
X0225390Y0163911D01*
X0225440Y0163839D01*
X0225487Y0163764D01*
X0225531Y0163687D01*
X0225571Y0163608D01*
X0225608Y0163528D01*
X0225640Y0163446D01*
X0225670Y0163362D01*
X0225695Y0163278D01*
X0225717Y0163192D01*
X0225734Y0163106D01*
X0225748Y0163018D01*
X0225758Y0162930D01*
X0225764Y0162842D01*
X0225766Y0162754D01*
X0225764Y0162666D01*
X0225758Y0162578D01*
X0225748Y0162490D01*
X0225734Y0162402D01*
X0225717Y0162316D01*
X0225695Y0162230D01*
X0225670Y0162146D01*
X0225640Y0162062D01*
X0225608Y0161980D01*
X0225571Y0161900D01*
X0225531Y0161821D01*
X0225487Y0161744D01*
X0225440Y0161669D01*
X0225390Y0161597D01*
X0225336Y0161526D01*
X0225280Y0161459D01*
X0225220Y0161393D01*
X0225158Y0161331D01*
X0225092Y0161271D01*
X0225025Y0161215D01*
X0224954Y0161161D01*
X0224882Y0161111D01*
X0224807Y0161064D01*
X0224730Y0161020D01*
X0224651Y0160980D01*
X0224571Y0160943D01*
X0224489Y0160911D01*
X0224405Y0160881D01*
X0224321Y0160856D01*
X0224235Y0160834D01*
X0224149Y0160817D01*
X0224061Y0160803D01*
X0223973Y0160793D01*
X0223885Y0160787D01*
X0223797Y0160785D01*
X0223709Y0160787D01*
X0223621Y0160793D01*
X0223533Y0160803D01*
X0223445Y0160817D01*
X0223359Y0160834D01*
X0223273Y0160856D01*
X0223189Y0160881D01*
X0223105Y0160911D01*
X0223023Y0160943D01*
X0222943Y0160980D01*
X0222864Y0161020D01*
X0222787Y0161064D01*
X0222712Y0161111D01*
X0222640Y0161161D01*
X0222569Y0161215D01*
X0222502Y0161271D01*
X0222436Y0161331D01*
X0222374Y0161393D01*
X0222314Y0161459D01*
X0222258Y0161526D01*
X0222204Y0161597D01*
X0222154Y0161669D01*
X0222107Y0161744D01*
X0222063Y0161821D01*
X0222023Y0161900D01*
X0221986Y0161980D01*
X0221954Y0162062D01*
X0221924Y0162146D01*
X0221899Y0162230D01*
X0221877Y0162316D01*
X0221860Y0162402D01*
X0221846Y0162490D01*
X0221836Y0162578D01*
X0221830Y0162666D01*
X0221828Y0162754D01*
X0191809Y0162754D02*
X0191811Y0162853D01*
X0191817Y0162952D01*
X0191827Y0163051D01*
X0191841Y0163149D01*
X0191859Y0163246D01*
X0191881Y0163343D01*
X0191906Y0163439D01*
X0191936Y0163533D01*
X0191969Y0163627D01*
X0192006Y0163719D01*
X0192047Y0163809D01*
X0192091Y0163898D01*
X0192139Y0163984D01*
X0192190Y0164069D01*
X0192245Y0164152D01*
X0192303Y0164232D01*
X0192364Y0164310D01*
X0192428Y0164386D01*
X0192495Y0164459D01*
X0192565Y0164529D01*
X0192638Y0164596D01*
X0192714Y0164660D01*
X0192792Y0164721D01*
X0192872Y0164779D01*
X0192955Y0164834D01*
X0193039Y0164885D01*
X0193126Y0164933D01*
X0193215Y0164977D01*
X0193305Y0165018D01*
X0193397Y0165055D01*
X0193491Y0165088D01*
X0193585Y0165118D01*
X0193681Y0165143D01*
X0193778Y0165165D01*
X0193875Y0165183D01*
X0193973Y0165197D01*
X0194072Y0165207D01*
X0194171Y0165213D01*
X0194270Y0165215D01*
X0194369Y0165213D01*
X0194468Y0165207D01*
X0194567Y0165197D01*
X0194665Y0165183D01*
X0194762Y0165165D01*
X0194859Y0165143D01*
X0194955Y0165118D01*
X0195049Y0165088D01*
X0195143Y0165055D01*
X0195235Y0165018D01*
X0195325Y0164977D01*
X0195414Y0164933D01*
X0195500Y0164885D01*
X0195585Y0164834D01*
X0195668Y0164779D01*
X0195748Y0164721D01*
X0195826Y0164660D01*
X0195902Y0164596D01*
X0195975Y0164529D01*
X0196045Y0164459D01*
X0196112Y0164386D01*
X0196176Y0164310D01*
X0196237Y0164232D01*
X0196295Y0164152D01*
X0196350Y0164069D01*
X0196401Y0163985D01*
X0196449Y0163898D01*
X0196493Y0163809D01*
X0196534Y0163719D01*
X0196571Y0163627D01*
X0196604Y0163533D01*
X0196634Y0163439D01*
X0196659Y0163343D01*
X0196681Y0163246D01*
X0196699Y0163149D01*
X0196713Y0163051D01*
X0196723Y0162952D01*
X0196729Y0162853D01*
X0196731Y0162754D01*
X0196729Y0162655D01*
X0196723Y0162556D01*
X0196713Y0162457D01*
X0196699Y0162359D01*
X0196681Y0162262D01*
X0196659Y0162165D01*
X0196634Y0162069D01*
X0196604Y0161975D01*
X0196571Y0161881D01*
X0196534Y0161789D01*
X0196493Y0161699D01*
X0196449Y0161610D01*
X0196401Y0161524D01*
X0196350Y0161439D01*
X0196295Y0161356D01*
X0196237Y0161276D01*
X0196176Y0161198D01*
X0196112Y0161122D01*
X0196045Y0161049D01*
X0195975Y0160979D01*
X0195902Y0160912D01*
X0195826Y0160848D01*
X0195748Y0160787D01*
X0195668Y0160729D01*
X0195585Y0160674D01*
X0195501Y0160623D01*
X0195414Y0160575D01*
X0195325Y0160531D01*
X0195235Y0160490D01*
X0195143Y0160453D01*
X0195049Y0160420D01*
X0194955Y0160390D01*
X0194859Y0160365D01*
X0194762Y0160343D01*
X0194665Y0160325D01*
X0194567Y0160311D01*
X0194468Y0160301D01*
X0194369Y0160295D01*
X0194270Y0160293D01*
X0194171Y0160295D01*
X0194072Y0160301D01*
X0193973Y0160311D01*
X0193875Y0160325D01*
X0193778Y0160343D01*
X0193681Y0160365D01*
X0193585Y0160390D01*
X0193491Y0160420D01*
X0193397Y0160453D01*
X0193305Y0160490D01*
X0193215Y0160531D01*
X0193126Y0160575D01*
X0193040Y0160623D01*
X0192955Y0160674D01*
X0192872Y0160729D01*
X0192792Y0160787D01*
X0192714Y0160848D01*
X0192638Y0160912D01*
X0192565Y0160979D01*
X0192495Y0161049D01*
X0192428Y0161122D01*
X0192364Y0161198D01*
X0192303Y0161276D01*
X0192245Y0161356D01*
X0192190Y0161439D01*
X0192139Y0161523D01*
X0192091Y0161610D01*
X0192047Y0161699D01*
X0192006Y0161789D01*
X0191969Y0161881D01*
X0191936Y0161975D01*
X0191906Y0162069D01*
X0191881Y0162165D01*
X0191859Y0162262D01*
X0191841Y0162359D01*
X0191827Y0162457D01*
X0191817Y0162556D01*
X0191811Y0162655D01*
X0191809Y0162754D01*
X0242114Y0209693D02*
X0242116Y0209841D01*
X0242122Y0209989D01*
X0242132Y0210137D01*
X0242146Y0210284D01*
X0242164Y0210431D01*
X0242185Y0210577D01*
X0242211Y0210723D01*
X0242241Y0210868D01*
X0242274Y0211012D01*
X0242312Y0211155D01*
X0242353Y0211297D01*
X0242398Y0211438D01*
X0242446Y0211578D01*
X0242499Y0211717D01*
X0242555Y0211854D01*
X0242615Y0211989D01*
X0242678Y0212123D01*
X0242745Y0212255D01*
X0242816Y0212385D01*
X0242890Y0212513D01*
X0242967Y0212639D01*
X0243048Y0212763D01*
X0243132Y0212885D01*
X0243219Y0213004D01*
X0243310Y0213121D01*
X0243404Y0213236D01*
X0243500Y0213348D01*
X0243600Y0213458D01*
X0243702Y0213564D01*
X0243808Y0213668D01*
X0243916Y0213769D01*
X0244027Y0213867D01*
X0244140Y0213963D01*
X0244256Y0214055D01*
X0244374Y0214144D01*
X0244495Y0214229D01*
X0244618Y0214312D01*
X0244743Y0214391D01*
X0244870Y0214467D01*
X0244999Y0214539D01*
X0245130Y0214608D01*
X0245263Y0214673D01*
X0245398Y0214734D01*
X0245534Y0214792D01*
X0245671Y0214847D01*
X0245810Y0214897D01*
X0245951Y0214944D01*
X0246092Y0214987D01*
X0246235Y0215027D01*
X0246379Y0215062D01*
X0246523Y0215094D01*
X0246669Y0215121D01*
X0246815Y0215145D01*
X0246962Y0215165D01*
X0247109Y0215181D01*
X0247256Y0215193D01*
X0247404Y0215201D01*
X0247552Y0215205D01*
X0247700Y0215205D01*
X0247848Y0215201D01*
X0247996Y0215193D01*
X0248143Y0215181D01*
X0248290Y0215165D01*
X0248437Y0215145D01*
X0248583Y0215121D01*
X0248729Y0215094D01*
X0248873Y0215062D01*
X0249017Y0215027D01*
X0249160Y0214987D01*
X0249301Y0214944D01*
X0249442Y0214897D01*
X0249581Y0214847D01*
X0249718Y0214792D01*
X0249854Y0214734D01*
X0249989Y0214673D01*
X0250122Y0214608D01*
X0250253Y0214539D01*
X0250382Y0214467D01*
X0250509Y0214391D01*
X0250634Y0214312D01*
X0250757Y0214229D01*
X0250878Y0214144D01*
X0250996Y0214055D01*
X0251112Y0213963D01*
X0251225Y0213867D01*
X0251336Y0213769D01*
X0251444Y0213668D01*
X0251550Y0213564D01*
X0251652Y0213458D01*
X0251752Y0213348D01*
X0251848Y0213236D01*
X0251942Y0213121D01*
X0252033Y0213004D01*
X0252120Y0212885D01*
X0252204Y0212763D01*
X0252285Y0212639D01*
X0252362Y0212513D01*
X0252436Y0212385D01*
X0252507Y0212255D01*
X0252574Y0212123D01*
X0252637Y0211989D01*
X0252697Y0211854D01*
X0252753Y0211717D01*
X0252806Y0211578D01*
X0252854Y0211438D01*
X0252899Y0211297D01*
X0252940Y0211155D01*
X0252978Y0211012D01*
X0253011Y0210868D01*
X0253041Y0210723D01*
X0253067Y0210577D01*
X0253088Y0210431D01*
X0253106Y0210284D01*
X0253120Y0210137D01*
X0253130Y0209989D01*
X0253136Y0209841D01*
X0253138Y0209693D01*
X0253136Y0209545D01*
X0253130Y0209397D01*
X0253120Y0209249D01*
X0253106Y0209102D01*
X0253088Y0208955D01*
X0253067Y0208809D01*
X0253041Y0208663D01*
X0253011Y0208518D01*
X0252978Y0208374D01*
X0252940Y0208231D01*
X0252899Y0208089D01*
X0252854Y0207948D01*
X0252806Y0207808D01*
X0252753Y0207669D01*
X0252697Y0207532D01*
X0252637Y0207397D01*
X0252574Y0207263D01*
X0252507Y0207131D01*
X0252436Y0207001D01*
X0252362Y0206873D01*
X0252285Y0206747D01*
X0252204Y0206623D01*
X0252120Y0206501D01*
X0252033Y0206382D01*
X0251942Y0206265D01*
X0251848Y0206150D01*
X0251752Y0206038D01*
X0251652Y0205928D01*
X0251550Y0205822D01*
X0251444Y0205718D01*
X0251336Y0205617D01*
X0251225Y0205519D01*
X0251112Y0205423D01*
X0250996Y0205331D01*
X0250878Y0205242D01*
X0250757Y0205157D01*
X0250634Y0205074D01*
X0250509Y0204995D01*
X0250382Y0204919D01*
X0250253Y0204847D01*
X0250122Y0204778D01*
X0249989Y0204713D01*
X0249854Y0204652D01*
X0249718Y0204594D01*
X0249581Y0204539D01*
X0249442Y0204489D01*
X0249301Y0204442D01*
X0249160Y0204399D01*
X0249017Y0204359D01*
X0248873Y0204324D01*
X0248729Y0204292D01*
X0248583Y0204265D01*
X0248437Y0204241D01*
X0248290Y0204221D01*
X0248143Y0204205D01*
X0247996Y0204193D01*
X0247848Y0204185D01*
X0247700Y0204181D01*
X0247552Y0204181D01*
X0247404Y0204185D01*
X0247256Y0204193D01*
X0247109Y0204205D01*
X0246962Y0204221D01*
X0246815Y0204241D01*
X0246669Y0204265D01*
X0246523Y0204292D01*
X0246379Y0204324D01*
X0246235Y0204359D01*
X0246092Y0204399D01*
X0245951Y0204442D01*
X0245810Y0204489D01*
X0245671Y0204539D01*
X0245534Y0204594D01*
X0245398Y0204652D01*
X0245263Y0204713D01*
X0245130Y0204778D01*
X0244999Y0204847D01*
X0244870Y0204919D01*
X0244743Y0204995D01*
X0244618Y0205074D01*
X0244495Y0205157D01*
X0244374Y0205242D01*
X0244256Y0205331D01*
X0244140Y0205423D01*
X0244027Y0205519D01*
X0243916Y0205617D01*
X0243808Y0205718D01*
X0243702Y0205822D01*
X0243600Y0205928D01*
X0243500Y0206038D01*
X0243404Y0206150D01*
X0243310Y0206265D01*
X0243219Y0206382D01*
X0243132Y0206501D01*
X0243048Y0206623D01*
X0242967Y0206747D01*
X0242890Y0206873D01*
X0242816Y0207001D01*
X0242745Y0207131D01*
X0242678Y0207263D01*
X0242615Y0207397D01*
X0242555Y0207532D01*
X0242499Y0207669D01*
X0242446Y0207808D01*
X0242398Y0207948D01*
X0242353Y0208089D01*
X0242312Y0208231D01*
X0242274Y0208374D01*
X0242241Y0208518D01*
X0242211Y0208663D01*
X0242185Y0208809D01*
X0242164Y0208955D01*
X0242146Y0209102D01*
X0242132Y0209249D01*
X0242122Y0209397D01*
X0242116Y0209545D01*
X0242114Y0209693D01*
X0013768Y0209693D02*
X0013770Y0209841D01*
X0013776Y0209989D01*
X0013786Y0210137D01*
X0013800Y0210284D01*
X0013818Y0210431D01*
X0013839Y0210577D01*
X0013865Y0210723D01*
X0013895Y0210868D01*
X0013928Y0211012D01*
X0013966Y0211155D01*
X0014007Y0211297D01*
X0014052Y0211438D01*
X0014100Y0211578D01*
X0014153Y0211717D01*
X0014209Y0211854D01*
X0014269Y0211989D01*
X0014332Y0212123D01*
X0014399Y0212255D01*
X0014470Y0212385D01*
X0014544Y0212513D01*
X0014621Y0212639D01*
X0014702Y0212763D01*
X0014786Y0212885D01*
X0014873Y0213004D01*
X0014964Y0213121D01*
X0015058Y0213236D01*
X0015154Y0213348D01*
X0015254Y0213458D01*
X0015356Y0213564D01*
X0015462Y0213668D01*
X0015570Y0213769D01*
X0015681Y0213867D01*
X0015794Y0213963D01*
X0015910Y0214055D01*
X0016028Y0214144D01*
X0016149Y0214229D01*
X0016272Y0214312D01*
X0016397Y0214391D01*
X0016524Y0214467D01*
X0016653Y0214539D01*
X0016784Y0214608D01*
X0016917Y0214673D01*
X0017052Y0214734D01*
X0017188Y0214792D01*
X0017325Y0214847D01*
X0017464Y0214897D01*
X0017605Y0214944D01*
X0017746Y0214987D01*
X0017889Y0215027D01*
X0018033Y0215062D01*
X0018177Y0215094D01*
X0018323Y0215121D01*
X0018469Y0215145D01*
X0018616Y0215165D01*
X0018763Y0215181D01*
X0018910Y0215193D01*
X0019058Y0215201D01*
X0019206Y0215205D01*
X0019354Y0215205D01*
X0019502Y0215201D01*
X0019650Y0215193D01*
X0019797Y0215181D01*
X0019944Y0215165D01*
X0020091Y0215145D01*
X0020237Y0215121D01*
X0020383Y0215094D01*
X0020527Y0215062D01*
X0020671Y0215027D01*
X0020814Y0214987D01*
X0020955Y0214944D01*
X0021096Y0214897D01*
X0021235Y0214847D01*
X0021372Y0214792D01*
X0021508Y0214734D01*
X0021643Y0214673D01*
X0021776Y0214608D01*
X0021907Y0214539D01*
X0022036Y0214467D01*
X0022163Y0214391D01*
X0022288Y0214312D01*
X0022411Y0214229D01*
X0022532Y0214144D01*
X0022650Y0214055D01*
X0022766Y0213963D01*
X0022879Y0213867D01*
X0022990Y0213769D01*
X0023098Y0213668D01*
X0023204Y0213564D01*
X0023306Y0213458D01*
X0023406Y0213348D01*
X0023502Y0213236D01*
X0023596Y0213121D01*
X0023687Y0213004D01*
X0023774Y0212885D01*
X0023858Y0212763D01*
X0023939Y0212639D01*
X0024016Y0212513D01*
X0024090Y0212385D01*
X0024161Y0212255D01*
X0024228Y0212123D01*
X0024291Y0211989D01*
X0024351Y0211854D01*
X0024407Y0211717D01*
X0024460Y0211578D01*
X0024508Y0211438D01*
X0024553Y0211297D01*
X0024594Y0211155D01*
X0024632Y0211012D01*
X0024665Y0210868D01*
X0024695Y0210723D01*
X0024721Y0210577D01*
X0024742Y0210431D01*
X0024760Y0210284D01*
X0024774Y0210137D01*
X0024784Y0209989D01*
X0024790Y0209841D01*
X0024792Y0209693D01*
X0024790Y0209545D01*
X0024784Y0209397D01*
X0024774Y0209249D01*
X0024760Y0209102D01*
X0024742Y0208955D01*
X0024721Y0208809D01*
X0024695Y0208663D01*
X0024665Y0208518D01*
X0024632Y0208374D01*
X0024594Y0208231D01*
X0024553Y0208089D01*
X0024508Y0207948D01*
X0024460Y0207808D01*
X0024407Y0207669D01*
X0024351Y0207532D01*
X0024291Y0207397D01*
X0024228Y0207263D01*
X0024161Y0207131D01*
X0024090Y0207001D01*
X0024016Y0206873D01*
X0023939Y0206747D01*
X0023858Y0206623D01*
X0023774Y0206501D01*
X0023687Y0206382D01*
X0023596Y0206265D01*
X0023502Y0206150D01*
X0023406Y0206038D01*
X0023306Y0205928D01*
X0023204Y0205822D01*
X0023098Y0205718D01*
X0022990Y0205617D01*
X0022879Y0205519D01*
X0022766Y0205423D01*
X0022650Y0205331D01*
X0022532Y0205242D01*
X0022411Y0205157D01*
X0022288Y0205074D01*
X0022163Y0204995D01*
X0022036Y0204919D01*
X0021907Y0204847D01*
X0021776Y0204778D01*
X0021643Y0204713D01*
X0021508Y0204652D01*
X0021372Y0204594D01*
X0021235Y0204539D01*
X0021096Y0204489D01*
X0020955Y0204442D01*
X0020814Y0204399D01*
X0020671Y0204359D01*
X0020527Y0204324D01*
X0020383Y0204292D01*
X0020237Y0204265D01*
X0020091Y0204241D01*
X0019944Y0204221D01*
X0019797Y0204205D01*
X0019650Y0204193D01*
X0019502Y0204185D01*
X0019354Y0204181D01*
X0019206Y0204181D01*
X0019058Y0204185D01*
X0018910Y0204193D01*
X0018763Y0204205D01*
X0018616Y0204221D01*
X0018469Y0204241D01*
X0018323Y0204265D01*
X0018177Y0204292D01*
X0018033Y0204324D01*
X0017889Y0204359D01*
X0017746Y0204399D01*
X0017605Y0204442D01*
X0017464Y0204489D01*
X0017325Y0204539D01*
X0017188Y0204594D01*
X0017052Y0204652D01*
X0016917Y0204713D01*
X0016784Y0204778D01*
X0016653Y0204847D01*
X0016524Y0204919D01*
X0016397Y0204995D01*
X0016272Y0205074D01*
X0016149Y0205157D01*
X0016028Y0205242D01*
X0015910Y0205331D01*
X0015794Y0205423D01*
X0015681Y0205519D01*
X0015570Y0205617D01*
X0015462Y0205718D01*
X0015356Y0205822D01*
X0015254Y0205928D01*
X0015154Y0206038D01*
X0015058Y0206150D01*
X0014964Y0206265D01*
X0014873Y0206382D01*
X0014786Y0206501D01*
X0014702Y0206623D01*
X0014621Y0206747D01*
X0014544Y0206873D01*
X0014470Y0207001D01*
X0014399Y0207131D01*
X0014332Y0207263D01*
X0014269Y0207397D01*
X0014209Y0207532D01*
X0014153Y0207669D01*
X0014100Y0207808D01*
X0014052Y0207948D01*
X0014007Y0208089D01*
X0013966Y0208231D01*
X0013928Y0208374D01*
X0013895Y0208518D01*
X0013865Y0208663D01*
X0013839Y0208809D01*
X0013818Y0208955D01*
X0013800Y0209102D01*
X0013786Y0209249D01*
X0013776Y0209397D01*
X0013770Y0209545D01*
X0013768Y0209693D01*
D11*
X0149093Y0187193D03*
X0149093Y0182193D03*
X0149093Y0177193D03*
X0149093Y0172193D03*
X0175313Y0172193D03*
X0175313Y0177193D03*
X0175313Y0182193D03*
X0175313Y0187193D03*
D12*
X0176115Y0194875D03*
X0168635Y0194875D03*
X0155490Y0194875D03*
X0148010Y0194875D03*
X0150313Y0165500D03*
X0158187Y0165500D03*
X0191760Y0172375D03*
X0199240Y0172375D03*
X0199240Y0151750D03*
X0191760Y0151750D03*
X0129240Y0095500D03*
X0121760Y0095500D03*
X0121760Y0088000D03*
X0129240Y0088000D03*
X0129240Y0070500D03*
X0121760Y0070500D03*
X0121760Y0063000D03*
X0129240Y0063000D03*
X0129240Y0045500D03*
X0121760Y0045500D03*
X0121760Y0038000D03*
X0129240Y0038000D03*
X0129240Y0020500D03*
X0121760Y0020500D03*
X0121760Y0013000D03*
X0129240Y0013000D03*
X0234260Y0038000D03*
X0241740Y0038000D03*
X0241740Y0045500D03*
X0234260Y0045500D03*
X0234260Y0063000D03*
X0241740Y0063000D03*
X0241740Y0070500D03*
X0234260Y0070500D03*
X0234260Y0083000D03*
X0241740Y0083000D03*
X0241740Y0090500D03*
X0234260Y0090500D03*
D13*
X0253000Y0103010D03*
X0253000Y0110490D03*
X0253000Y0116760D03*
X0253000Y0124240D03*
X0252119Y0186135D03*
X0252119Y0193615D03*
X0242000Y0193615D03*
X0242000Y0186135D03*
X0139875Y0175490D03*
X0139875Y0168010D03*
D14*
X0176991Y0151750D03*
X0185259Y0151750D03*
D15*
X0190122Y0179703D03*
X0190122Y0184703D03*
X0190122Y0189703D03*
X0190122Y0194703D03*
X0214322Y0194703D03*
X0214322Y0189703D03*
X0214322Y0184703D03*
X0214322Y0179703D03*
D16*
X0151233Y0128369D03*
X0143753Y0128369D03*
X0134240Y0107375D03*
X0126760Y0107375D03*
X0174260Y0106125D03*
X0181740Y0106125D03*
X0184240Y0119250D03*
X0176760Y0119250D03*
X0199260Y0119250D03*
X0206740Y0119250D03*
X0209260Y0105500D03*
X0216740Y0105500D03*
X0230510Y0105500D03*
X0237990Y0105500D03*
X0141115Y0157375D03*
X0133635Y0157375D03*
D17*
X0118620Y0161153D03*
X0116061Y0161153D03*
X0113502Y0161153D03*
X0110943Y0161153D03*
X0108384Y0161153D03*
X0105825Y0161153D03*
X0103266Y0161153D03*
X0100707Y0161153D03*
X0098148Y0161153D03*
X0095589Y0161153D03*
X0095589Y0184128D03*
X0098148Y0184128D03*
X0100707Y0184128D03*
X0103266Y0184128D03*
X0105825Y0184128D03*
X0108384Y0184128D03*
X0110943Y0184128D03*
X0113502Y0184128D03*
X0116061Y0184128D03*
X0118620Y0184128D03*
D18*
X0123875Y0181760D03*
X0123875Y0189240D03*
X0124250Y0170490D03*
X0124250Y0163010D03*
X0118625Y0132990D03*
X0118625Y0125510D03*
X0128875Y0121740D03*
X0128875Y0114260D03*
X0185500Y0166760D03*
X0185500Y0174240D03*
X0245500Y0137990D03*
X0245500Y0130510D03*
X0245500Y0118615D03*
X0245500Y0111135D03*
D19*
X0079516Y0158443D03*
X0079516Y0177341D03*
D20*
X0160594Y0130131D03*
X0172601Y0130131D03*
X0225121Y0136125D03*
X0237129Y0136125D03*
D21*
X0206878Y0165620D03*
X0206878Y0171620D03*
D22*
X0146987Y0150677D03*
X0146987Y0148118D03*
X0146987Y0145559D03*
X0146987Y0143000D03*
X0146987Y0140441D03*
X0146987Y0137882D03*
X0146987Y0135323D03*
X0124013Y0135323D03*
X0124013Y0137882D03*
X0124013Y0140441D03*
X0124013Y0143000D03*
X0124013Y0145559D03*
X0124013Y0148118D03*
X0124013Y0150677D03*
D23*
X0144400Y0121950D03*
X0144400Y0119350D03*
X0144400Y0116850D03*
X0144400Y0114250D03*
X0144400Y0111650D03*
X0144400Y0109150D03*
X0144400Y0106550D03*
X0166600Y0106550D03*
X0166600Y0109150D03*
X0166600Y0111650D03*
X0166600Y0114250D03*
X0166600Y0116850D03*
X0166600Y0119350D03*
X0166600Y0121950D03*
X0215650Y0121850D03*
X0215650Y0124350D03*
X0215650Y0126950D03*
X0215650Y0119250D03*
X0215650Y0116650D03*
X0215650Y0114150D03*
X0215650Y0111550D03*
X0237850Y0111550D03*
X0237850Y0114150D03*
X0237850Y0116650D03*
X0237850Y0119250D03*
X0237850Y0121850D03*
X0237850Y0124350D03*
X0237850Y0126950D03*
M02*
