%
M48
M72
T01C0.02362
T02C0.03150
T03C0.03200
T04C0.03937
T05C0.04000
T06C0.04921
T07C0.05200
T08C0.11024
%
T01
X49250Y63625
X62375Y71750
X66125Y75500
X65500Y65500
X69875Y65500
X100500Y64250
X136125Y81750
X140500Y96750
X134250Y101750
X149500Y109250
X158000Y107375
X158000Y111750
X167375Y98000
X176750Y99250
X182375Y89250
X197375Y98000
X176750Y114250
X201750Y124875
X209250Y124875
X221750Y119250
X227750Y119250
X232687Y126750
X223625Y106750
X216125Y93625
X226125Y75500
X216125Y68000
X230500Y56750
X215500Y44250
X182375Y9250
X160500Y22375
X162375Y43625
X162375Y68625
X155500Y81125
X134875Y118000
X135500Y125500
X128625Y136750
X118625Y138000
X113625Y141125
X111750Y134250
X106125Y138000
X117375Y148000
X129250Y163000
X134250Y163000
X144250Y163000
X147375Y153625
X151750Y148625
X155500Y150500
X159250Y148625
X163000Y150500
X171125Y149250
X171125Y144875
X163625Y163000
X183000Y179875
X196750Y188000
X202375Y180500
X208000Y151750
X231125Y149875
X227375Y184875
X193625Y199875
X183625Y201125
X164250Y182375
X143625Y201125
X144875Y220500
X103000Y179250
X98625Y179250
X89875Y181750
X101125Y166125
X110500Y166125
X117375Y172375
X129250Y174875
X98000Y156750
X93000Y128000
X105500Y100500
X58625Y144250
X52375Y142375
X63625Y154875
X50500Y119875
X49875Y95500
X56750Y33625
X56750Y25500
X98000Y25500
X98000Y33000
X246750Y103000
X43625Y220500
T02
X18000Y64811
X18000Y56937
X18000Y49063
X18000Y41189
X37439Y58000
X45313Y58000
X53187Y58000
X61061Y58000
X81189Y58000
X89063Y58000
X96937Y58000
X104811Y58000
X103625Y37311
X103625Y29437
X103625Y21563
X103625Y13689
X77375Y13689
X77375Y21563
X77375Y29437
X77375Y37311
X51125Y37311
X51125Y29437
X51125Y21563
X51125Y13689
X37439Y83000
X45313Y83000
X53187Y83000
X61061Y83000
X81189Y83000
X89063Y83000
X96937Y83000
X104811Y83000
X104811Y108000
X96937Y108000
X89063Y108000
X81189Y108000
X61061Y108000
X53187Y108000
X45313Y108000
X37439Y108000
X37439Y133000
X45313Y133000
X53187Y133000
X61061Y133000
X81189Y133000
X89063Y133000
X96937Y133000
X104811Y133000
X143689Y88000
X151563Y88000
X159437Y88000
X167311Y88000
X197439Y88000
X205313Y88000
X213187Y88000
X221061Y88000
X221061Y63000
X213187Y63000
X205313Y63000
X197439Y63000
X197439Y38000
X205313Y38000
X213187Y38000
X221061Y38000
X221061Y13000
X213187Y13000
X205313Y13000
X197439Y13000
X167311Y13000
X159437Y13000
X151563Y13000
X143689Y13000
X143689Y38000
X151563Y38000
X159437Y38000
X167311Y38000
X167311Y63000
X159437Y63000
X151563Y63000
X143689Y63000
X48472Y155776
X36661Y174673
T03
X242035Y147281
X252035Y147281
X242035Y177281
X252035Y177281
X232281Y194826
X222281Y194826
T04
X223797Y162754
X60283Y174673
T05
X216750Y161750
X216750Y171750
X188453Y204693
X198453Y204693
X208453Y204693
X218453Y204693
X228453Y204693
X228453Y214693
X218453Y214693
X208453Y214693
X198453Y214693
X188453Y214693
X178453Y214693
X168453Y214693
X158453Y214693
X148453Y214693
X138453Y214693
X128453Y214693
X118453Y214693
X108453Y214693
X98453Y214693
X88453Y214693
X78453Y214693
X68453Y214693
X58453Y214693
X48453Y214693
X38453Y214693
X38453Y204693
X48453Y204693
X58453Y204693
X68453Y204693
X78453Y204693
X88453Y204693
X98453Y204693
X108453Y204693
X118453Y204693
X128453Y204693
X138453Y204693
X148453Y204693
X158453Y204693
X168453Y204693
X178453Y204693
X138000Y194250
X138000Y184250
T06
X194270Y162754
T07
X253000Y36750
X23846Y180244
X23719Y159619
T08
X19280Y16780
X247626Y16780
X247626Y209693
X19280Y209693
M30
