G75*
G70*
%OFA0B0*%
%FSLAX24Y24*%
%IPPOS*%
%LPD*%
%AMOC8*
5,1,8,0,0,1.08239X$1,22.5*
%
%ADD10R,0.0552X0.0552*%
%ADD11R,0.0592X0.0710*%
%ADD12C,0.0050*%
%ADD13R,0.0674X0.0674*%
%ADD14C,0.0740*%
%ADD15C,0.0674*%
%ADD16C,0.0000*%
%ADD17C,0.1261*%
%ADD18R,0.0340X0.0880*%
%ADD19C,0.0600*%
%ADD20R,0.0592X0.0671*%
%ADD21R,0.0200X0.0470*%
%ADD22R,0.0671X0.0592*%
%ADD23R,0.1640X0.1640*%
%ADD24C,0.1330*%
%ADD25R,0.0946X0.0316*%
%ADD26C,0.0940*%
%ADD27C,0.0600*%
%ADD28R,0.0710X0.0592*%
%ADD29R,0.0595X0.0595*%
%ADD30C,0.0595*%
%ADD31R,0.0631X0.1261*%
%ADD32R,0.1261X0.0631*%
%ADD33OC8,0.0930*%
%ADD34OC8,0.1330*%
%ADD35R,0.0848X0.1064*%
%ADD36C,0.0476*%
%ADD37C,0.0480*%
D10*
X007689Y015621D03*
X008515Y015621D03*
D11*
X009353Y015621D03*
X010101Y015621D03*
X005851Y014121D03*
X005103Y014121D03*
X005103Y013121D03*
X005851Y013121D03*
X018728Y007996D03*
X019476Y007996D03*
X019353Y005996D03*
X020101Y005996D03*
X026290Y007496D03*
X027038Y007496D03*
X027038Y008371D03*
X026290Y008371D03*
X025601Y013621D03*
X024853Y013621D03*
D12*
X000157Y022448D02*
X000157Y000401D01*
X033622Y000401D01*
X033622Y022448D01*
X000157Y022448D01*
D13*
X001102Y020371D03*
D14*
X001102Y021371D03*
X003102Y021371D03*
D15*
X004102Y021371D03*
X005102Y021371D03*
X006102Y021371D03*
X007102Y021371D03*
X008102Y021371D03*
X009102Y021371D03*
X010102Y021371D03*
X011102Y021371D03*
X012102Y021371D03*
X013102Y021371D03*
X013102Y020371D03*
X012102Y020371D03*
X011102Y020371D03*
X010102Y020371D03*
X009102Y020371D03*
X008102Y020371D03*
X007102Y020371D03*
X006102Y020371D03*
X005102Y020371D03*
X004102Y020371D03*
X003102Y020371D03*
X002102Y020371D03*
X002102Y021371D03*
D16*
X009573Y007496D02*
X009575Y007544D01*
X009581Y007592D01*
X009591Y007639D01*
X009604Y007685D01*
X009622Y007730D01*
X009642Y007774D01*
X009667Y007816D01*
X009695Y007855D01*
X009725Y007892D01*
X009759Y007926D01*
X009796Y007958D01*
X009834Y007987D01*
X009875Y008012D01*
X009918Y008034D01*
X009963Y008052D01*
X010009Y008066D01*
X010056Y008077D01*
X010104Y008084D01*
X010152Y008087D01*
X010200Y008086D01*
X010248Y008081D01*
X010296Y008072D01*
X010342Y008060D01*
X010387Y008043D01*
X010431Y008023D01*
X010473Y008000D01*
X010513Y007973D01*
X010551Y007943D01*
X010586Y007910D01*
X010618Y007874D01*
X010648Y007836D01*
X010674Y007795D01*
X010696Y007752D01*
X010716Y007708D01*
X010731Y007663D01*
X010743Y007616D01*
X010751Y007568D01*
X010755Y007520D01*
X010755Y007472D01*
X010751Y007424D01*
X010743Y007376D01*
X010731Y007329D01*
X010716Y007284D01*
X010696Y007240D01*
X010674Y007197D01*
X010648Y007156D01*
X010618Y007118D01*
X010586Y007082D01*
X010551Y007049D01*
X010513Y007019D01*
X010473Y006992D01*
X010431Y006969D01*
X010387Y006949D01*
X010342Y006932D01*
X010296Y006920D01*
X010248Y006911D01*
X010200Y006906D01*
X010152Y006905D01*
X010104Y006908D01*
X010056Y006915D01*
X010009Y006926D01*
X009963Y006940D01*
X009918Y006958D01*
X009875Y006980D01*
X009834Y007005D01*
X009796Y007034D01*
X009759Y007066D01*
X009725Y007100D01*
X009695Y007137D01*
X009667Y007176D01*
X009642Y007218D01*
X009622Y007262D01*
X009604Y007307D01*
X009591Y007353D01*
X009581Y007400D01*
X009575Y007448D01*
X009573Y007496D01*
X031136Y017496D02*
X031138Y017544D01*
X031144Y017592D01*
X031154Y017639D01*
X031167Y017685D01*
X031185Y017730D01*
X031205Y017774D01*
X031230Y017816D01*
X031258Y017855D01*
X031288Y017892D01*
X031322Y017926D01*
X031359Y017958D01*
X031397Y017987D01*
X031438Y018012D01*
X031481Y018034D01*
X031526Y018052D01*
X031572Y018066D01*
X031619Y018077D01*
X031667Y018084D01*
X031715Y018087D01*
X031763Y018086D01*
X031811Y018081D01*
X031859Y018072D01*
X031905Y018060D01*
X031950Y018043D01*
X031994Y018023D01*
X032036Y018000D01*
X032076Y017973D01*
X032114Y017943D01*
X032149Y017910D01*
X032181Y017874D01*
X032211Y017836D01*
X032237Y017795D01*
X032259Y017752D01*
X032279Y017708D01*
X032294Y017663D01*
X032306Y017616D01*
X032314Y017568D01*
X032318Y017520D01*
X032318Y017472D01*
X032314Y017424D01*
X032306Y017376D01*
X032294Y017329D01*
X032279Y017284D01*
X032259Y017240D01*
X032237Y017197D01*
X032211Y017156D01*
X032181Y017118D01*
X032149Y017082D01*
X032114Y017049D01*
X032076Y017019D01*
X032036Y016992D01*
X031994Y016969D01*
X031950Y016949D01*
X031905Y016932D01*
X031859Y016920D01*
X031811Y016911D01*
X031763Y016906D01*
X031715Y016905D01*
X031667Y016908D01*
X031619Y016915D01*
X031572Y016926D01*
X031526Y016940D01*
X031481Y016958D01*
X031438Y016980D01*
X031397Y017005D01*
X031359Y017034D01*
X031322Y017066D01*
X031288Y017100D01*
X031258Y017137D01*
X031230Y017176D01*
X031205Y017218D01*
X031185Y017262D01*
X031167Y017307D01*
X031154Y017353D01*
X031144Y017400D01*
X031138Y017448D01*
X031136Y017496D01*
D17*
X031727Y017496D03*
X010164Y007496D03*
D18*
X026727Y014536D03*
X027227Y014536D03*
X027727Y014536D03*
X028227Y014536D03*
X028227Y016956D03*
X027727Y016956D03*
X027227Y016956D03*
X026727Y016956D03*
D19*
X028852Y017371D03*
X029852Y017371D03*
D20*
X027476Y013371D03*
X026728Y013371D03*
X023101Y008496D03*
X022353Y008496D03*
X020976Y006871D03*
X020228Y006871D03*
X025603Y006371D03*
X026351Y006371D03*
X021601Y018121D03*
X020853Y018121D03*
D21*
X021950Y017520D03*
X022206Y017520D03*
X022462Y017520D03*
X022718Y017520D03*
X022974Y017520D03*
X023230Y017520D03*
X023486Y017520D03*
X023742Y017520D03*
X023998Y017520D03*
X024254Y017520D03*
X024254Y015223D03*
X023998Y015223D03*
X023742Y015223D03*
X023486Y015223D03*
X023230Y015223D03*
X022974Y015223D03*
X022718Y015223D03*
X022462Y015223D03*
X022206Y015223D03*
X021950Y015223D03*
D22*
X021102Y014745D03*
X021102Y013997D03*
X021227Y008745D03*
X021227Y007997D03*
X025352Y007747D03*
X025352Y008495D03*
D23*
X030477Y010746D03*
D24*
X030477Y008146D03*
X030477Y013346D03*
D25*
X024376Y007746D03*
X024376Y007246D03*
X024376Y006746D03*
X024376Y006246D03*
X024376Y005746D03*
X024376Y005246D03*
X024376Y004746D03*
X022328Y004746D03*
X022328Y005246D03*
X022328Y005746D03*
X022328Y006246D03*
X022328Y006746D03*
X022328Y007246D03*
X022328Y007746D03*
D26*
X005533Y007691D02*
X005533Y008551D01*
X003171Y008551D02*
X003171Y007691D01*
X003922Y006232D02*
X004782Y006232D01*
D27*
X004237Y013121D02*
X003717Y013121D01*
X003717Y014121D02*
X004237Y014121D01*
X001237Y014121D02*
X000717Y014121D01*
X000717Y013121D02*
X001237Y013121D01*
D28*
X020352Y008745D03*
X020352Y007997D03*
X020977Y005995D03*
X020977Y005247D03*
X025727Y005495D03*
X026602Y005495D03*
X026602Y004747D03*
X025727Y004747D03*
D29*
X027783Y003496D03*
X032283Y003496D03*
X023283Y003496D03*
X018783Y003496D03*
X012783Y003496D03*
X008283Y003496D03*
X003783Y003496D03*
X016421Y019371D03*
X020921Y019371D03*
X025421Y019371D03*
X029921Y019371D03*
D30*
X030708Y019371D03*
X031496Y019371D03*
X032283Y019371D03*
X027783Y019371D03*
X026996Y019371D03*
X026208Y019371D03*
X023283Y019371D03*
X022496Y019371D03*
X021708Y019371D03*
X018783Y019371D03*
X017996Y019371D03*
X017208Y019371D03*
X017208Y003496D03*
X016421Y003496D03*
X017996Y003496D03*
X020921Y003496D03*
X021708Y003496D03*
X022496Y003496D03*
X025421Y003496D03*
X026208Y003496D03*
X026996Y003496D03*
X029921Y003496D03*
X030708Y003496D03*
X031496Y003496D03*
X011996Y003496D03*
X011208Y003496D03*
X010421Y003496D03*
X007496Y003496D03*
X006708Y003496D03*
X005921Y003496D03*
X002996Y003496D03*
X002208Y003496D03*
X001421Y003496D03*
D31*
X007602Y006177D03*
X007602Y008066D03*
D32*
X003547Y017746D03*
X001657Y017746D03*
D33*
X001102Y011121D03*
D34*
X001852Y008371D03*
X001852Y006371D03*
D35*
X024877Y010121D03*
X026077Y010121D03*
D36*
X023602Y010496D03*
X023227Y010121D03*
X023477Y013121D03*
X023477Y013621D03*
X023352Y014371D03*
X022477Y013996D03*
X019727Y014871D03*
X019227Y014371D03*
X015727Y017996D03*
X023477Y018121D03*
X025477Y017996D03*
X026102Y015371D03*
X010852Y005621D03*
X023102Y004746D03*
X024352Y004371D03*
X024352Y001621D03*
X004852Y015871D03*
X004602Y020871D03*
X002602Y020871D03*
D37*
X022352Y014496D03*
X024352Y014371D03*
X025102Y014371D03*
X025664Y014371D03*
X024477Y012871D03*
X024477Y011371D03*
X027727Y012621D03*
X024102Y008496D03*
X025102Y005746D03*
X025102Y005246D03*
M02*
