%
M48
M72
T01C0.0236
T02C0.0315
T03C0.0320
T04C0.0394
T05C0.0520
T06C0.0787
T07C0.1181
%
T01
X10852Y5621
X23102Y4746
X24352Y4371
X25102Y5246
X25102Y5746
X24102Y8496
X23227Y10121
X23602Y10496
X24477Y11371
X24477Y12871
X23477Y13121
X23477Y13621
X23352Y14371
X22477Y13996
X22352Y14496
X24352Y14371
X25102Y14371
X25664Y14371
X26102Y15371
X25477Y17996
X23477Y18121
X19727Y14871
X19227Y14371
X15727Y17996
X4852Y15871
X4602Y20871
X2602Y20871
X27727Y12621
X24352Y1621
T02
X1421Y3496
X2208Y3496
X2996Y3496
X3783Y3496
X5921Y3496
X6708Y3496
X7496Y3496
X8283Y3496
X10421Y3496
X11208Y3496
X11996Y3496
X12783Y3496
X16421Y3496
X17208Y3496
X17996Y3496
X18783Y3496
X20921Y3496
X21708Y3496
X22496Y3496
X23283Y3496
X25421Y3496
X26208Y3496
X26996Y3496
X27783Y3496
X29921Y3496
X30708Y3496
X31496Y3496
X32283Y3496
X30477Y10746
X30708Y19371
X29921Y19371
X31496Y19371
X32283Y19371
X27783Y19371
X26996Y19371
X26208Y19371
X25421Y19371
X23283Y19371
X22496Y19371
X21708Y19371
X20921Y19371
X18783Y19371
X17996Y19371
X17208Y19371
X16421Y19371
X3171Y8121
X4352Y6232
T03
X3977Y13121
X3977Y14121
X977Y14121
X977Y13121
X28852Y17371
X29852Y17371
T04
X13102Y20371
X12102Y20371
X11102Y20371
X10102Y20371
X9102Y20371
X8102Y20371
X7102Y20371
X6102Y20371
X5102Y20371
X4102Y20371
X3102Y20371
X2102Y20371
X1102Y20371
X1102Y21371
X2102Y21371
X3102Y21371
X4102Y21371
X5102Y21371
X6102Y21371
X7102Y21371
X8102Y21371
X9102Y21371
X10102Y21371
X11102Y21371
X12102Y21371
X13102Y21371
X5533Y8121
T05
X1852Y8371
X1852Y6371
X1102Y11121
T06
X30477Y13346
X30477Y8146
T07
X31727Y17496
X10164Y7496
M30
