G75*
%MOIN*%
%OFA0B0*%
%FSLAX25Y25*%
%IPPOS*%
%LPD*%
%AMOC8*
5,1,8,0,0,1.08239X$1,22.5*
%
%ADD10C,0.00000*%
%ADD11C,0.00400*%
%ADD12R,0.80000X0.13750*%
%ADD13C,0.00300*%
%ADD14C,0.00600*%
%ADD15C,0.00800*%
D10*
X0005500Y0014811D02*
X0005500Y0075835D01*
X0005502Y0075959D01*
X0005508Y0076082D01*
X0005517Y0076206D01*
X0005531Y0076328D01*
X0005548Y0076451D01*
X0005570Y0076573D01*
X0005595Y0076694D01*
X0005624Y0076814D01*
X0005656Y0076933D01*
X0005693Y0077052D01*
X0005733Y0077169D01*
X0005776Y0077284D01*
X0005824Y0077399D01*
X0005875Y0077511D01*
X0005929Y0077622D01*
X0005987Y0077732D01*
X0006048Y0077839D01*
X0006113Y0077945D01*
X0006181Y0078048D01*
X0006252Y0078149D01*
X0006326Y0078248D01*
X0006403Y0078345D01*
X0006484Y0078439D01*
X0006567Y0078530D01*
X0006653Y0078619D01*
X0006742Y0078705D01*
X0006833Y0078788D01*
X0006927Y0078869D01*
X0007024Y0078946D01*
X0007123Y0079020D01*
X0007224Y0079091D01*
X0007327Y0079159D01*
X0007433Y0079224D01*
X0007540Y0079285D01*
X0007650Y0079343D01*
X0007761Y0079397D01*
X0007873Y0079448D01*
X0007988Y0079496D01*
X0008103Y0079539D01*
X0008220Y0079579D01*
X0008339Y0079616D01*
X0008458Y0079648D01*
X0008578Y0079677D01*
X0008699Y0079702D01*
X0008821Y0079724D01*
X0008944Y0079741D01*
X0009066Y0079755D01*
X0009190Y0079764D01*
X0009313Y0079770D01*
X0009437Y0079772D01*
X0021248Y0079772D01*
X0021372Y0079774D01*
X0021495Y0079780D01*
X0021619Y0079789D01*
X0021741Y0079803D01*
X0021864Y0079820D01*
X0021986Y0079842D01*
X0022107Y0079867D01*
X0022227Y0079896D01*
X0022346Y0079928D01*
X0022465Y0079965D01*
X0022582Y0080005D01*
X0022697Y0080048D01*
X0022812Y0080096D01*
X0022924Y0080147D01*
X0023035Y0080201D01*
X0023145Y0080259D01*
X0023252Y0080320D01*
X0023358Y0080385D01*
X0023461Y0080453D01*
X0023562Y0080524D01*
X0023661Y0080598D01*
X0023758Y0080675D01*
X0023852Y0080756D01*
X0023943Y0080839D01*
X0024032Y0080925D01*
X0024118Y0081014D01*
X0024201Y0081105D01*
X0024282Y0081199D01*
X0024359Y0081296D01*
X0024433Y0081395D01*
X0024504Y0081496D01*
X0024572Y0081599D01*
X0024637Y0081705D01*
X0024698Y0081812D01*
X0024756Y0081922D01*
X0024810Y0082033D01*
X0024861Y0082145D01*
X0024909Y0082260D01*
X0024952Y0082375D01*
X0024992Y0082492D01*
X0025029Y0082611D01*
X0025061Y0082730D01*
X0025090Y0082850D01*
X0025115Y0082971D01*
X0025137Y0083093D01*
X0025154Y0083216D01*
X0025168Y0083338D01*
X0025177Y0083462D01*
X0025183Y0083585D01*
X0025185Y0083709D01*
X0025185Y0142764D01*
X0025183Y0142888D01*
X0025177Y0143011D01*
X0025168Y0143135D01*
X0025154Y0143257D01*
X0025137Y0143380D01*
X0025115Y0143502D01*
X0025090Y0143623D01*
X0025061Y0143743D01*
X0025029Y0143862D01*
X0024992Y0143981D01*
X0024952Y0144098D01*
X0024909Y0144213D01*
X0024861Y0144328D01*
X0024810Y0144440D01*
X0024756Y0144551D01*
X0024698Y0144661D01*
X0024637Y0144768D01*
X0024572Y0144874D01*
X0024504Y0144977D01*
X0024433Y0145078D01*
X0024359Y0145177D01*
X0024282Y0145274D01*
X0024201Y0145368D01*
X0024118Y0145459D01*
X0024032Y0145548D01*
X0023943Y0145634D01*
X0023852Y0145717D01*
X0023758Y0145798D01*
X0023661Y0145875D01*
X0023562Y0145949D01*
X0023461Y0146020D01*
X0023358Y0146088D01*
X0023252Y0146153D01*
X0023145Y0146214D01*
X0023035Y0146272D01*
X0022924Y0146326D01*
X0022812Y0146377D01*
X0022697Y0146425D01*
X0022582Y0146468D01*
X0022465Y0146508D01*
X0022346Y0146545D01*
X0022227Y0146577D01*
X0022107Y0146606D01*
X0021986Y0146631D01*
X0021864Y0146653D01*
X0021741Y0146670D01*
X0021619Y0146684D01*
X0021495Y0146693D01*
X0021372Y0146699D01*
X0021248Y0146701D01*
X0009437Y0146701D01*
X0009313Y0146703D01*
X0009190Y0146709D01*
X0009066Y0146718D01*
X0008944Y0146732D01*
X0008821Y0146749D01*
X0008699Y0146771D01*
X0008578Y0146796D01*
X0008458Y0146825D01*
X0008339Y0146857D01*
X0008220Y0146894D01*
X0008103Y0146934D01*
X0007988Y0146977D01*
X0007873Y0147025D01*
X0007761Y0147076D01*
X0007650Y0147130D01*
X0007540Y0147188D01*
X0007433Y0147249D01*
X0007327Y0147314D01*
X0007224Y0147382D01*
X0007123Y0147453D01*
X0007024Y0147527D01*
X0006927Y0147604D01*
X0006833Y0147685D01*
X0006742Y0147768D01*
X0006653Y0147854D01*
X0006567Y0147943D01*
X0006484Y0148034D01*
X0006403Y0148128D01*
X0006326Y0148225D01*
X0006252Y0148324D01*
X0006181Y0148425D01*
X0006113Y0148528D01*
X0006048Y0148634D01*
X0005987Y0148741D01*
X0005929Y0148851D01*
X0005875Y0148962D01*
X0005824Y0149074D01*
X0005776Y0149189D01*
X0005733Y0149304D01*
X0005693Y0149421D01*
X0005656Y0149540D01*
X0005624Y0149659D01*
X0005595Y0149779D01*
X0005570Y0149900D01*
X0005548Y0150022D01*
X0005531Y0150145D01*
X0005517Y0150267D01*
X0005508Y0150391D01*
X0005502Y0150514D01*
X0005500Y0150638D01*
X0005500Y0211661D01*
X0005503Y0211946D01*
X0005514Y0212232D01*
X0005531Y0212517D01*
X0005555Y0212801D01*
X0005586Y0213085D01*
X0005624Y0213368D01*
X0005669Y0213649D01*
X0005720Y0213930D01*
X0005778Y0214210D01*
X0005843Y0214488D01*
X0005915Y0214764D01*
X0005993Y0215038D01*
X0006078Y0215311D01*
X0006170Y0215581D01*
X0006268Y0215849D01*
X0006372Y0216115D01*
X0006483Y0216378D01*
X0006600Y0216638D01*
X0006723Y0216896D01*
X0006853Y0217150D01*
X0006989Y0217401D01*
X0007130Y0217649D01*
X0007278Y0217893D01*
X0007431Y0218134D01*
X0007591Y0218370D01*
X0007756Y0218603D01*
X0007926Y0218832D01*
X0008102Y0219057D01*
X0008284Y0219277D01*
X0008470Y0219493D01*
X0008662Y0219704D01*
X0008859Y0219911D01*
X0009061Y0220113D01*
X0009268Y0220310D01*
X0009479Y0220502D01*
X0009695Y0220688D01*
X0009915Y0220870D01*
X0010140Y0221046D01*
X0010369Y0221216D01*
X0010602Y0221381D01*
X0010838Y0221541D01*
X0011079Y0221694D01*
X0011323Y0221842D01*
X0011571Y0221983D01*
X0011822Y0222119D01*
X0012076Y0222249D01*
X0012334Y0222372D01*
X0012594Y0222489D01*
X0012857Y0222600D01*
X0013123Y0222704D01*
X0013391Y0222802D01*
X0013661Y0222894D01*
X0013934Y0222979D01*
X0014208Y0223057D01*
X0014484Y0223129D01*
X0014762Y0223194D01*
X0015042Y0223252D01*
X0015323Y0223303D01*
X0015604Y0223348D01*
X0015887Y0223386D01*
X0016171Y0223417D01*
X0016455Y0223441D01*
X0016740Y0223458D01*
X0017026Y0223469D01*
X0017311Y0223472D01*
X0249594Y0223472D01*
X0249879Y0223469D01*
X0250165Y0223458D01*
X0250450Y0223441D01*
X0250734Y0223417D01*
X0251018Y0223386D01*
X0251301Y0223348D01*
X0251582Y0223303D01*
X0251863Y0223252D01*
X0252143Y0223194D01*
X0252421Y0223129D01*
X0252697Y0223057D01*
X0252971Y0222979D01*
X0253244Y0222894D01*
X0253514Y0222802D01*
X0253782Y0222704D01*
X0254048Y0222600D01*
X0254311Y0222489D01*
X0254571Y0222372D01*
X0254829Y0222249D01*
X0255083Y0222119D01*
X0255334Y0221983D01*
X0255582Y0221842D01*
X0255826Y0221694D01*
X0256067Y0221541D01*
X0256303Y0221381D01*
X0256536Y0221216D01*
X0256765Y0221046D01*
X0256990Y0220870D01*
X0257210Y0220688D01*
X0257426Y0220502D01*
X0257637Y0220310D01*
X0257844Y0220113D01*
X0258046Y0219911D01*
X0258243Y0219704D01*
X0258435Y0219493D01*
X0258621Y0219277D01*
X0258803Y0219057D01*
X0258979Y0218832D01*
X0259149Y0218603D01*
X0259314Y0218370D01*
X0259474Y0218134D01*
X0259627Y0217893D01*
X0259775Y0217649D01*
X0259916Y0217401D01*
X0260052Y0217150D01*
X0260182Y0216896D01*
X0260305Y0216638D01*
X0260422Y0216378D01*
X0260533Y0216115D01*
X0260637Y0215849D01*
X0260735Y0215581D01*
X0260827Y0215311D01*
X0260912Y0215038D01*
X0260990Y0214764D01*
X0261062Y0214488D01*
X0261127Y0214210D01*
X0261185Y0213930D01*
X0261236Y0213649D01*
X0261281Y0213368D01*
X0261319Y0213085D01*
X0261350Y0212801D01*
X0261374Y0212517D01*
X0261391Y0212232D01*
X0261402Y0211946D01*
X0261405Y0211661D01*
X0261406Y0211661D02*
X0261406Y0014811D01*
X0261405Y0014811D02*
X0261402Y0014526D01*
X0261391Y0014240D01*
X0261374Y0013955D01*
X0261350Y0013671D01*
X0261319Y0013387D01*
X0261281Y0013104D01*
X0261236Y0012823D01*
X0261185Y0012542D01*
X0261127Y0012262D01*
X0261062Y0011984D01*
X0260990Y0011708D01*
X0260912Y0011434D01*
X0260827Y0011161D01*
X0260735Y0010891D01*
X0260637Y0010623D01*
X0260533Y0010357D01*
X0260422Y0010094D01*
X0260305Y0009834D01*
X0260182Y0009576D01*
X0260052Y0009322D01*
X0259916Y0009071D01*
X0259775Y0008823D01*
X0259627Y0008579D01*
X0259474Y0008338D01*
X0259314Y0008102D01*
X0259149Y0007869D01*
X0258979Y0007640D01*
X0258803Y0007415D01*
X0258621Y0007195D01*
X0258435Y0006979D01*
X0258243Y0006768D01*
X0258046Y0006561D01*
X0257844Y0006359D01*
X0257637Y0006162D01*
X0257426Y0005970D01*
X0257210Y0005784D01*
X0256990Y0005602D01*
X0256765Y0005426D01*
X0256536Y0005256D01*
X0256303Y0005091D01*
X0256067Y0004931D01*
X0255826Y0004778D01*
X0255582Y0004630D01*
X0255334Y0004489D01*
X0255083Y0004353D01*
X0254829Y0004223D01*
X0254571Y0004100D01*
X0254311Y0003983D01*
X0254048Y0003872D01*
X0253782Y0003768D01*
X0253514Y0003670D01*
X0253244Y0003578D01*
X0252971Y0003493D01*
X0252697Y0003415D01*
X0252421Y0003343D01*
X0252143Y0003278D01*
X0251863Y0003220D01*
X0251582Y0003169D01*
X0251301Y0003124D01*
X0251018Y0003086D01*
X0250734Y0003055D01*
X0250450Y0003031D01*
X0250165Y0003014D01*
X0249879Y0003003D01*
X0249594Y0003000D01*
X0017311Y0003000D01*
X0017026Y0003003D01*
X0016740Y0003014D01*
X0016455Y0003031D01*
X0016171Y0003055D01*
X0015887Y0003086D01*
X0015604Y0003124D01*
X0015323Y0003169D01*
X0015042Y0003220D01*
X0014762Y0003278D01*
X0014484Y0003343D01*
X0014208Y0003415D01*
X0013934Y0003493D01*
X0013661Y0003578D01*
X0013391Y0003670D01*
X0013123Y0003768D01*
X0012857Y0003872D01*
X0012594Y0003983D01*
X0012334Y0004100D01*
X0012076Y0004223D01*
X0011822Y0004353D01*
X0011571Y0004489D01*
X0011323Y0004630D01*
X0011079Y0004778D01*
X0010838Y0004931D01*
X0010602Y0005091D01*
X0010369Y0005256D01*
X0010140Y0005426D01*
X0009915Y0005602D01*
X0009695Y0005784D01*
X0009479Y0005970D01*
X0009268Y0006162D01*
X0009061Y0006359D01*
X0008859Y0006561D01*
X0008662Y0006768D01*
X0008470Y0006979D01*
X0008284Y0007195D01*
X0008102Y0007415D01*
X0007926Y0007640D01*
X0007756Y0007869D01*
X0007591Y0008102D01*
X0007431Y0008338D01*
X0007278Y0008579D01*
X0007130Y0008823D01*
X0006989Y0009071D01*
X0006853Y0009322D01*
X0006723Y0009576D01*
X0006600Y0009834D01*
X0006483Y0010094D01*
X0006372Y0010357D01*
X0006268Y0010623D01*
X0006170Y0010891D01*
X0006078Y0011161D01*
X0005993Y0011434D01*
X0005915Y0011708D01*
X0005843Y0011984D01*
X0005778Y0012262D01*
X0005720Y0012542D01*
X0005669Y0012823D01*
X0005624Y0013104D01*
X0005586Y0013387D01*
X0005555Y0013671D01*
X0005531Y0013955D01*
X0005514Y0014240D01*
X0005503Y0014526D01*
X0005500Y0014811D01*
X0013768Y0016780D02*
X0013770Y0016928D01*
X0013776Y0017076D01*
X0013786Y0017224D01*
X0013800Y0017371D01*
X0013818Y0017518D01*
X0013839Y0017664D01*
X0013865Y0017810D01*
X0013895Y0017955D01*
X0013928Y0018099D01*
X0013966Y0018242D01*
X0014007Y0018384D01*
X0014052Y0018525D01*
X0014100Y0018665D01*
X0014153Y0018804D01*
X0014209Y0018941D01*
X0014269Y0019076D01*
X0014332Y0019210D01*
X0014399Y0019342D01*
X0014470Y0019472D01*
X0014544Y0019600D01*
X0014621Y0019726D01*
X0014702Y0019850D01*
X0014786Y0019972D01*
X0014873Y0020091D01*
X0014964Y0020208D01*
X0015058Y0020323D01*
X0015154Y0020435D01*
X0015254Y0020545D01*
X0015356Y0020651D01*
X0015462Y0020755D01*
X0015570Y0020856D01*
X0015681Y0020954D01*
X0015794Y0021050D01*
X0015910Y0021142D01*
X0016028Y0021231D01*
X0016149Y0021316D01*
X0016272Y0021399D01*
X0016397Y0021478D01*
X0016524Y0021554D01*
X0016653Y0021626D01*
X0016784Y0021695D01*
X0016917Y0021760D01*
X0017052Y0021821D01*
X0017188Y0021879D01*
X0017325Y0021934D01*
X0017464Y0021984D01*
X0017605Y0022031D01*
X0017746Y0022074D01*
X0017889Y0022114D01*
X0018033Y0022149D01*
X0018177Y0022181D01*
X0018323Y0022208D01*
X0018469Y0022232D01*
X0018616Y0022252D01*
X0018763Y0022268D01*
X0018910Y0022280D01*
X0019058Y0022288D01*
X0019206Y0022292D01*
X0019354Y0022292D01*
X0019502Y0022288D01*
X0019650Y0022280D01*
X0019797Y0022268D01*
X0019944Y0022252D01*
X0020091Y0022232D01*
X0020237Y0022208D01*
X0020383Y0022181D01*
X0020527Y0022149D01*
X0020671Y0022114D01*
X0020814Y0022074D01*
X0020955Y0022031D01*
X0021096Y0021984D01*
X0021235Y0021934D01*
X0021372Y0021879D01*
X0021508Y0021821D01*
X0021643Y0021760D01*
X0021776Y0021695D01*
X0021907Y0021626D01*
X0022036Y0021554D01*
X0022163Y0021478D01*
X0022288Y0021399D01*
X0022411Y0021316D01*
X0022532Y0021231D01*
X0022650Y0021142D01*
X0022766Y0021050D01*
X0022879Y0020954D01*
X0022990Y0020856D01*
X0023098Y0020755D01*
X0023204Y0020651D01*
X0023306Y0020545D01*
X0023406Y0020435D01*
X0023502Y0020323D01*
X0023596Y0020208D01*
X0023687Y0020091D01*
X0023774Y0019972D01*
X0023858Y0019850D01*
X0023939Y0019726D01*
X0024016Y0019600D01*
X0024090Y0019472D01*
X0024161Y0019342D01*
X0024228Y0019210D01*
X0024291Y0019076D01*
X0024351Y0018941D01*
X0024407Y0018804D01*
X0024460Y0018665D01*
X0024508Y0018525D01*
X0024553Y0018384D01*
X0024594Y0018242D01*
X0024632Y0018099D01*
X0024665Y0017955D01*
X0024695Y0017810D01*
X0024721Y0017664D01*
X0024742Y0017518D01*
X0024760Y0017371D01*
X0024774Y0017224D01*
X0024784Y0017076D01*
X0024790Y0016928D01*
X0024792Y0016780D01*
X0024790Y0016632D01*
X0024784Y0016484D01*
X0024774Y0016336D01*
X0024760Y0016189D01*
X0024742Y0016042D01*
X0024721Y0015896D01*
X0024695Y0015750D01*
X0024665Y0015605D01*
X0024632Y0015461D01*
X0024594Y0015318D01*
X0024553Y0015176D01*
X0024508Y0015035D01*
X0024460Y0014895D01*
X0024407Y0014756D01*
X0024351Y0014619D01*
X0024291Y0014484D01*
X0024228Y0014350D01*
X0024161Y0014218D01*
X0024090Y0014088D01*
X0024016Y0013960D01*
X0023939Y0013834D01*
X0023858Y0013710D01*
X0023774Y0013588D01*
X0023687Y0013469D01*
X0023596Y0013352D01*
X0023502Y0013237D01*
X0023406Y0013125D01*
X0023306Y0013015D01*
X0023204Y0012909D01*
X0023098Y0012805D01*
X0022990Y0012704D01*
X0022879Y0012606D01*
X0022766Y0012510D01*
X0022650Y0012418D01*
X0022532Y0012329D01*
X0022411Y0012244D01*
X0022288Y0012161D01*
X0022163Y0012082D01*
X0022036Y0012006D01*
X0021907Y0011934D01*
X0021776Y0011865D01*
X0021643Y0011800D01*
X0021508Y0011739D01*
X0021372Y0011681D01*
X0021235Y0011626D01*
X0021096Y0011576D01*
X0020955Y0011529D01*
X0020814Y0011486D01*
X0020671Y0011446D01*
X0020527Y0011411D01*
X0020383Y0011379D01*
X0020237Y0011352D01*
X0020091Y0011328D01*
X0019944Y0011308D01*
X0019797Y0011292D01*
X0019650Y0011280D01*
X0019502Y0011272D01*
X0019354Y0011268D01*
X0019206Y0011268D01*
X0019058Y0011272D01*
X0018910Y0011280D01*
X0018763Y0011292D01*
X0018616Y0011308D01*
X0018469Y0011328D01*
X0018323Y0011352D01*
X0018177Y0011379D01*
X0018033Y0011411D01*
X0017889Y0011446D01*
X0017746Y0011486D01*
X0017605Y0011529D01*
X0017464Y0011576D01*
X0017325Y0011626D01*
X0017188Y0011681D01*
X0017052Y0011739D01*
X0016917Y0011800D01*
X0016784Y0011865D01*
X0016653Y0011934D01*
X0016524Y0012006D01*
X0016397Y0012082D01*
X0016272Y0012161D01*
X0016149Y0012244D01*
X0016028Y0012329D01*
X0015910Y0012418D01*
X0015794Y0012510D01*
X0015681Y0012606D01*
X0015570Y0012704D01*
X0015462Y0012805D01*
X0015356Y0012909D01*
X0015254Y0013015D01*
X0015154Y0013125D01*
X0015058Y0013237D01*
X0014964Y0013352D01*
X0014873Y0013469D01*
X0014786Y0013588D01*
X0014702Y0013710D01*
X0014621Y0013834D01*
X0014544Y0013960D01*
X0014470Y0014088D01*
X0014399Y0014218D01*
X0014332Y0014350D01*
X0014269Y0014484D01*
X0014209Y0014619D01*
X0014153Y0014756D01*
X0014100Y0014895D01*
X0014052Y0015035D01*
X0014007Y0015176D01*
X0013966Y0015318D01*
X0013928Y0015461D01*
X0013895Y0015605D01*
X0013865Y0015750D01*
X0013839Y0015896D01*
X0013818Y0016042D01*
X0013800Y0016189D01*
X0013786Y0016336D01*
X0013776Y0016484D01*
X0013770Y0016632D01*
X0013768Y0016780D01*
X0178728Y0018787D02*
X0178728Y0077803D01*
X0178730Y0077927D01*
X0178736Y0078050D01*
X0178745Y0078174D01*
X0178759Y0078296D01*
X0178776Y0078419D01*
X0178798Y0078541D01*
X0178823Y0078662D01*
X0178852Y0078782D01*
X0178884Y0078901D01*
X0178921Y0079020D01*
X0178961Y0079137D01*
X0179004Y0079252D01*
X0179052Y0079367D01*
X0179103Y0079479D01*
X0179157Y0079590D01*
X0179215Y0079700D01*
X0179276Y0079807D01*
X0179341Y0079913D01*
X0179409Y0080016D01*
X0179480Y0080117D01*
X0179554Y0080216D01*
X0179631Y0080313D01*
X0179712Y0080407D01*
X0179795Y0080498D01*
X0179881Y0080587D01*
X0179970Y0080673D01*
X0180061Y0080756D01*
X0180155Y0080837D01*
X0180252Y0080914D01*
X0180351Y0080988D01*
X0180452Y0081059D01*
X0180555Y0081127D01*
X0180661Y0081192D01*
X0180768Y0081253D01*
X0180878Y0081311D01*
X0180989Y0081365D01*
X0181101Y0081416D01*
X0181216Y0081464D01*
X0181331Y0081507D01*
X0181448Y0081547D01*
X0181567Y0081584D01*
X0181686Y0081616D01*
X0181806Y0081645D01*
X0181927Y0081670D01*
X0182049Y0081692D01*
X0182172Y0081709D01*
X0182294Y0081723D01*
X0182418Y0081732D01*
X0182541Y0081738D01*
X0182665Y0081740D01*
X0182789Y0081738D01*
X0182912Y0081732D01*
X0183036Y0081723D01*
X0183158Y0081709D01*
X0183281Y0081692D01*
X0183403Y0081670D01*
X0183524Y0081645D01*
X0183644Y0081616D01*
X0183763Y0081584D01*
X0183882Y0081547D01*
X0183999Y0081507D01*
X0184114Y0081464D01*
X0184229Y0081416D01*
X0184341Y0081365D01*
X0184452Y0081311D01*
X0184562Y0081253D01*
X0184669Y0081192D01*
X0184775Y0081127D01*
X0184878Y0081059D01*
X0184979Y0080988D01*
X0185078Y0080914D01*
X0185175Y0080837D01*
X0185269Y0080756D01*
X0185360Y0080673D01*
X0185449Y0080587D01*
X0185535Y0080498D01*
X0185618Y0080407D01*
X0185699Y0080313D01*
X0185776Y0080216D01*
X0185850Y0080117D01*
X0185921Y0080016D01*
X0185989Y0079913D01*
X0186054Y0079807D01*
X0186115Y0079700D01*
X0186173Y0079590D01*
X0186227Y0079479D01*
X0186278Y0079367D01*
X0186326Y0079252D01*
X0186369Y0079137D01*
X0186409Y0079020D01*
X0186446Y0078901D01*
X0186478Y0078782D01*
X0186507Y0078662D01*
X0186532Y0078541D01*
X0186554Y0078419D01*
X0186571Y0078296D01*
X0186585Y0078174D01*
X0186594Y0078050D01*
X0186600Y0077927D01*
X0186602Y0077803D01*
X0186602Y0018787D01*
X0186600Y0018663D01*
X0186594Y0018540D01*
X0186585Y0018416D01*
X0186571Y0018294D01*
X0186554Y0018171D01*
X0186532Y0018049D01*
X0186507Y0017928D01*
X0186478Y0017808D01*
X0186446Y0017689D01*
X0186409Y0017570D01*
X0186369Y0017453D01*
X0186326Y0017338D01*
X0186278Y0017223D01*
X0186227Y0017111D01*
X0186173Y0017000D01*
X0186115Y0016890D01*
X0186054Y0016783D01*
X0185989Y0016677D01*
X0185921Y0016574D01*
X0185850Y0016473D01*
X0185776Y0016374D01*
X0185699Y0016277D01*
X0185618Y0016183D01*
X0185535Y0016092D01*
X0185449Y0016003D01*
X0185360Y0015917D01*
X0185269Y0015834D01*
X0185175Y0015753D01*
X0185078Y0015676D01*
X0184979Y0015602D01*
X0184878Y0015531D01*
X0184775Y0015463D01*
X0184669Y0015398D01*
X0184562Y0015337D01*
X0184452Y0015279D01*
X0184341Y0015225D01*
X0184229Y0015174D01*
X0184114Y0015126D01*
X0183999Y0015083D01*
X0183882Y0015043D01*
X0183763Y0015006D01*
X0183644Y0014974D01*
X0183524Y0014945D01*
X0183403Y0014920D01*
X0183281Y0014898D01*
X0183158Y0014881D01*
X0183036Y0014867D01*
X0182912Y0014858D01*
X0182789Y0014852D01*
X0182665Y0014850D01*
X0182541Y0014852D01*
X0182418Y0014858D01*
X0182294Y0014867D01*
X0182172Y0014881D01*
X0182049Y0014898D01*
X0181927Y0014920D01*
X0181806Y0014945D01*
X0181686Y0014974D01*
X0181567Y0015006D01*
X0181448Y0015043D01*
X0181331Y0015083D01*
X0181216Y0015126D01*
X0181101Y0015174D01*
X0180989Y0015225D01*
X0180878Y0015279D01*
X0180768Y0015337D01*
X0180661Y0015398D01*
X0180555Y0015463D01*
X0180452Y0015531D01*
X0180351Y0015602D01*
X0180252Y0015676D01*
X0180155Y0015753D01*
X0180061Y0015834D01*
X0179970Y0015917D01*
X0179881Y0016003D01*
X0179795Y0016092D01*
X0179712Y0016183D01*
X0179631Y0016277D01*
X0179554Y0016374D01*
X0179480Y0016473D01*
X0179409Y0016574D01*
X0179341Y0016677D01*
X0179276Y0016783D01*
X0179215Y0016890D01*
X0179157Y0017000D01*
X0179103Y0017111D01*
X0179052Y0017223D01*
X0179004Y0017338D01*
X0178961Y0017453D01*
X0178921Y0017570D01*
X0178884Y0017689D01*
X0178852Y0017808D01*
X0178823Y0017928D01*
X0178798Y0018049D01*
X0178776Y0018171D01*
X0178759Y0018294D01*
X0178745Y0018416D01*
X0178736Y0018540D01*
X0178730Y0018663D01*
X0178728Y0018787D01*
X0242114Y0016780D02*
X0242116Y0016928D01*
X0242122Y0017076D01*
X0242132Y0017224D01*
X0242146Y0017371D01*
X0242164Y0017518D01*
X0242185Y0017664D01*
X0242211Y0017810D01*
X0242241Y0017955D01*
X0242274Y0018099D01*
X0242312Y0018242D01*
X0242353Y0018384D01*
X0242398Y0018525D01*
X0242446Y0018665D01*
X0242499Y0018804D01*
X0242555Y0018941D01*
X0242615Y0019076D01*
X0242678Y0019210D01*
X0242745Y0019342D01*
X0242816Y0019472D01*
X0242890Y0019600D01*
X0242967Y0019726D01*
X0243048Y0019850D01*
X0243132Y0019972D01*
X0243219Y0020091D01*
X0243310Y0020208D01*
X0243404Y0020323D01*
X0243500Y0020435D01*
X0243600Y0020545D01*
X0243702Y0020651D01*
X0243808Y0020755D01*
X0243916Y0020856D01*
X0244027Y0020954D01*
X0244140Y0021050D01*
X0244256Y0021142D01*
X0244374Y0021231D01*
X0244495Y0021316D01*
X0244618Y0021399D01*
X0244743Y0021478D01*
X0244870Y0021554D01*
X0244999Y0021626D01*
X0245130Y0021695D01*
X0245263Y0021760D01*
X0245398Y0021821D01*
X0245534Y0021879D01*
X0245671Y0021934D01*
X0245810Y0021984D01*
X0245951Y0022031D01*
X0246092Y0022074D01*
X0246235Y0022114D01*
X0246379Y0022149D01*
X0246523Y0022181D01*
X0246669Y0022208D01*
X0246815Y0022232D01*
X0246962Y0022252D01*
X0247109Y0022268D01*
X0247256Y0022280D01*
X0247404Y0022288D01*
X0247552Y0022292D01*
X0247700Y0022292D01*
X0247848Y0022288D01*
X0247996Y0022280D01*
X0248143Y0022268D01*
X0248290Y0022252D01*
X0248437Y0022232D01*
X0248583Y0022208D01*
X0248729Y0022181D01*
X0248873Y0022149D01*
X0249017Y0022114D01*
X0249160Y0022074D01*
X0249301Y0022031D01*
X0249442Y0021984D01*
X0249581Y0021934D01*
X0249718Y0021879D01*
X0249854Y0021821D01*
X0249989Y0021760D01*
X0250122Y0021695D01*
X0250253Y0021626D01*
X0250382Y0021554D01*
X0250509Y0021478D01*
X0250634Y0021399D01*
X0250757Y0021316D01*
X0250878Y0021231D01*
X0250996Y0021142D01*
X0251112Y0021050D01*
X0251225Y0020954D01*
X0251336Y0020856D01*
X0251444Y0020755D01*
X0251550Y0020651D01*
X0251652Y0020545D01*
X0251752Y0020435D01*
X0251848Y0020323D01*
X0251942Y0020208D01*
X0252033Y0020091D01*
X0252120Y0019972D01*
X0252204Y0019850D01*
X0252285Y0019726D01*
X0252362Y0019600D01*
X0252436Y0019472D01*
X0252507Y0019342D01*
X0252574Y0019210D01*
X0252637Y0019076D01*
X0252697Y0018941D01*
X0252753Y0018804D01*
X0252806Y0018665D01*
X0252854Y0018525D01*
X0252899Y0018384D01*
X0252940Y0018242D01*
X0252978Y0018099D01*
X0253011Y0017955D01*
X0253041Y0017810D01*
X0253067Y0017664D01*
X0253088Y0017518D01*
X0253106Y0017371D01*
X0253120Y0017224D01*
X0253130Y0017076D01*
X0253136Y0016928D01*
X0253138Y0016780D01*
X0253136Y0016632D01*
X0253130Y0016484D01*
X0253120Y0016336D01*
X0253106Y0016189D01*
X0253088Y0016042D01*
X0253067Y0015896D01*
X0253041Y0015750D01*
X0253011Y0015605D01*
X0252978Y0015461D01*
X0252940Y0015318D01*
X0252899Y0015176D01*
X0252854Y0015035D01*
X0252806Y0014895D01*
X0252753Y0014756D01*
X0252697Y0014619D01*
X0252637Y0014484D01*
X0252574Y0014350D01*
X0252507Y0014218D01*
X0252436Y0014088D01*
X0252362Y0013960D01*
X0252285Y0013834D01*
X0252204Y0013710D01*
X0252120Y0013588D01*
X0252033Y0013469D01*
X0251942Y0013352D01*
X0251848Y0013237D01*
X0251752Y0013125D01*
X0251652Y0013015D01*
X0251550Y0012909D01*
X0251444Y0012805D01*
X0251336Y0012704D01*
X0251225Y0012606D01*
X0251112Y0012510D01*
X0250996Y0012418D01*
X0250878Y0012329D01*
X0250757Y0012244D01*
X0250634Y0012161D01*
X0250509Y0012082D01*
X0250382Y0012006D01*
X0250253Y0011934D01*
X0250122Y0011865D01*
X0249989Y0011800D01*
X0249854Y0011739D01*
X0249718Y0011681D01*
X0249581Y0011626D01*
X0249442Y0011576D01*
X0249301Y0011529D01*
X0249160Y0011486D01*
X0249017Y0011446D01*
X0248873Y0011411D01*
X0248729Y0011379D01*
X0248583Y0011352D01*
X0248437Y0011328D01*
X0248290Y0011308D01*
X0248143Y0011292D01*
X0247996Y0011280D01*
X0247848Y0011272D01*
X0247700Y0011268D01*
X0247552Y0011268D01*
X0247404Y0011272D01*
X0247256Y0011280D01*
X0247109Y0011292D01*
X0246962Y0011308D01*
X0246815Y0011328D01*
X0246669Y0011352D01*
X0246523Y0011379D01*
X0246379Y0011411D01*
X0246235Y0011446D01*
X0246092Y0011486D01*
X0245951Y0011529D01*
X0245810Y0011576D01*
X0245671Y0011626D01*
X0245534Y0011681D01*
X0245398Y0011739D01*
X0245263Y0011800D01*
X0245130Y0011865D01*
X0244999Y0011934D01*
X0244870Y0012006D01*
X0244743Y0012082D01*
X0244618Y0012161D01*
X0244495Y0012244D01*
X0244374Y0012329D01*
X0244256Y0012418D01*
X0244140Y0012510D01*
X0244027Y0012606D01*
X0243916Y0012704D01*
X0243808Y0012805D01*
X0243702Y0012909D01*
X0243600Y0013015D01*
X0243500Y0013125D01*
X0243404Y0013237D01*
X0243310Y0013352D01*
X0243219Y0013469D01*
X0243132Y0013588D01*
X0243048Y0013710D01*
X0242967Y0013834D01*
X0242890Y0013960D01*
X0242816Y0014088D01*
X0242745Y0014218D01*
X0242678Y0014350D01*
X0242615Y0014484D01*
X0242555Y0014619D01*
X0242499Y0014756D01*
X0242446Y0014895D01*
X0242398Y0015035D01*
X0242353Y0015176D01*
X0242312Y0015318D01*
X0242274Y0015461D01*
X0242241Y0015605D01*
X0242211Y0015750D01*
X0242185Y0015896D01*
X0242164Y0016042D01*
X0242146Y0016189D01*
X0242132Y0016336D01*
X0242122Y0016484D01*
X0242116Y0016632D01*
X0242114Y0016780D01*
X0221828Y0162754D02*
X0221830Y0162842D01*
X0221836Y0162930D01*
X0221846Y0163018D01*
X0221860Y0163106D01*
X0221877Y0163192D01*
X0221899Y0163278D01*
X0221924Y0163362D01*
X0221954Y0163446D01*
X0221986Y0163528D01*
X0222023Y0163608D01*
X0222063Y0163687D01*
X0222107Y0163764D01*
X0222154Y0163839D01*
X0222204Y0163911D01*
X0222258Y0163982D01*
X0222314Y0164049D01*
X0222374Y0164115D01*
X0222436Y0164177D01*
X0222502Y0164237D01*
X0222569Y0164293D01*
X0222640Y0164347D01*
X0222712Y0164397D01*
X0222787Y0164444D01*
X0222864Y0164488D01*
X0222943Y0164528D01*
X0223023Y0164565D01*
X0223105Y0164597D01*
X0223189Y0164627D01*
X0223273Y0164652D01*
X0223359Y0164674D01*
X0223445Y0164691D01*
X0223533Y0164705D01*
X0223621Y0164715D01*
X0223709Y0164721D01*
X0223797Y0164723D01*
X0223885Y0164721D01*
X0223973Y0164715D01*
X0224061Y0164705D01*
X0224149Y0164691D01*
X0224235Y0164674D01*
X0224321Y0164652D01*
X0224405Y0164627D01*
X0224489Y0164597D01*
X0224571Y0164565D01*
X0224651Y0164528D01*
X0224730Y0164488D01*
X0224807Y0164444D01*
X0224882Y0164397D01*
X0224954Y0164347D01*
X0225025Y0164293D01*
X0225092Y0164237D01*
X0225158Y0164177D01*
X0225220Y0164115D01*
X0225280Y0164049D01*
X0225336Y0163982D01*
X0225390Y0163911D01*
X0225440Y0163839D01*
X0225487Y0163764D01*
X0225531Y0163687D01*
X0225571Y0163608D01*
X0225608Y0163528D01*
X0225640Y0163446D01*
X0225670Y0163362D01*
X0225695Y0163278D01*
X0225717Y0163192D01*
X0225734Y0163106D01*
X0225748Y0163018D01*
X0225758Y0162930D01*
X0225764Y0162842D01*
X0225766Y0162754D01*
X0225764Y0162666D01*
X0225758Y0162578D01*
X0225748Y0162490D01*
X0225734Y0162402D01*
X0225717Y0162316D01*
X0225695Y0162230D01*
X0225670Y0162146D01*
X0225640Y0162062D01*
X0225608Y0161980D01*
X0225571Y0161900D01*
X0225531Y0161821D01*
X0225487Y0161744D01*
X0225440Y0161669D01*
X0225390Y0161597D01*
X0225336Y0161526D01*
X0225280Y0161459D01*
X0225220Y0161393D01*
X0225158Y0161331D01*
X0225092Y0161271D01*
X0225025Y0161215D01*
X0224954Y0161161D01*
X0224882Y0161111D01*
X0224807Y0161064D01*
X0224730Y0161020D01*
X0224651Y0160980D01*
X0224571Y0160943D01*
X0224489Y0160911D01*
X0224405Y0160881D01*
X0224321Y0160856D01*
X0224235Y0160834D01*
X0224149Y0160817D01*
X0224061Y0160803D01*
X0223973Y0160793D01*
X0223885Y0160787D01*
X0223797Y0160785D01*
X0223709Y0160787D01*
X0223621Y0160793D01*
X0223533Y0160803D01*
X0223445Y0160817D01*
X0223359Y0160834D01*
X0223273Y0160856D01*
X0223189Y0160881D01*
X0223105Y0160911D01*
X0223023Y0160943D01*
X0222943Y0160980D01*
X0222864Y0161020D01*
X0222787Y0161064D01*
X0222712Y0161111D01*
X0222640Y0161161D01*
X0222569Y0161215D01*
X0222502Y0161271D01*
X0222436Y0161331D01*
X0222374Y0161393D01*
X0222314Y0161459D01*
X0222258Y0161526D01*
X0222204Y0161597D01*
X0222154Y0161669D01*
X0222107Y0161744D01*
X0222063Y0161821D01*
X0222023Y0161900D01*
X0221986Y0161980D01*
X0221954Y0162062D01*
X0221924Y0162146D01*
X0221899Y0162230D01*
X0221877Y0162316D01*
X0221860Y0162402D01*
X0221846Y0162490D01*
X0221836Y0162578D01*
X0221830Y0162666D01*
X0221828Y0162754D01*
X0191809Y0162754D02*
X0191811Y0162853D01*
X0191817Y0162952D01*
X0191827Y0163051D01*
X0191841Y0163149D01*
X0191859Y0163246D01*
X0191881Y0163343D01*
X0191906Y0163439D01*
X0191936Y0163533D01*
X0191969Y0163627D01*
X0192006Y0163719D01*
X0192047Y0163809D01*
X0192091Y0163898D01*
X0192139Y0163984D01*
X0192190Y0164069D01*
X0192245Y0164152D01*
X0192303Y0164232D01*
X0192364Y0164310D01*
X0192428Y0164386D01*
X0192495Y0164459D01*
X0192565Y0164529D01*
X0192638Y0164596D01*
X0192714Y0164660D01*
X0192792Y0164721D01*
X0192872Y0164779D01*
X0192955Y0164834D01*
X0193039Y0164885D01*
X0193126Y0164933D01*
X0193215Y0164977D01*
X0193305Y0165018D01*
X0193397Y0165055D01*
X0193491Y0165088D01*
X0193585Y0165118D01*
X0193681Y0165143D01*
X0193778Y0165165D01*
X0193875Y0165183D01*
X0193973Y0165197D01*
X0194072Y0165207D01*
X0194171Y0165213D01*
X0194270Y0165215D01*
X0194369Y0165213D01*
X0194468Y0165207D01*
X0194567Y0165197D01*
X0194665Y0165183D01*
X0194762Y0165165D01*
X0194859Y0165143D01*
X0194955Y0165118D01*
X0195049Y0165088D01*
X0195143Y0165055D01*
X0195235Y0165018D01*
X0195325Y0164977D01*
X0195414Y0164933D01*
X0195500Y0164885D01*
X0195585Y0164834D01*
X0195668Y0164779D01*
X0195748Y0164721D01*
X0195826Y0164660D01*
X0195902Y0164596D01*
X0195975Y0164529D01*
X0196045Y0164459D01*
X0196112Y0164386D01*
X0196176Y0164310D01*
X0196237Y0164232D01*
X0196295Y0164152D01*
X0196350Y0164069D01*
X0196401Y0163985D01*
X0196449Y0163898D01*
X0196493Y0163809D01*
X0196534Y0163719D01*
X0196571Y0163627D01*
X0196604Y0163533D01*
X0196634Y0163439D01*
X0196659Y0163343D01*
X0196681Y0163246D01*
X0196699Y0163149D01*
X0196713Y0163051D01*
X0196723Y0162952D01*
X0196729Y0162853D01*
X0196731Y0162754D01*
X0196729Y0162655D01*
X0196723Y0162556D01*
X0196713Y0162457D01*
X0196699Y0162359D01*
X0196681Y0162262D01*
X0196659Y0162165D01*
X0196634Y0162069D01*
X0196604Y0161975D01*
X0196571Y0161881D01*
X0196534Y0161789D01*
X0196493Y0161699D01*
X0196449Y0161610D01*
X0196401Y0161524D01*
X0196350Y0161439D01*
X0196295Y0161356D01*
X0196237Y0161276D01*
X0196176Y0161198D01*
X0196112Y0161122D01*
X0196045Y0161049D01*
X0195975Y0160979D01*
X0195902Y0160912D01*
X0195826Y0160848D01*
X0195748Y0160787D01*
X0195668Y0160729D01*
X0195585Y0160674D01*
X0195501Y0160623D01*
X0195414Y0160575D01*
X0195325Y0160531D01*
X0195235Y0160490D01*
X0195143Y0160453D01*
X0195049Y0160420D01*
X0194955Y0160390D01*
X0194859Y0160365D01*
X0194762Y0160343D01*
X0194665Y0160325D01*
X0194567Y0160311D01*
X0194468Y0160301D01*
X0194369Y0160295D01*
X0194270Y0160293D01*
X0194171Y0160295D01*
X0194072Y0160301D01*
X0193973Y0160311D01*
X0193875Y0160325D01*
X0193778Y0160343D01*
X0193681Y0160365D01*
X0193585Y0160390D01*
X0193491Y0160420D01*
X0193397Y0160453D01*
X0193305Y0160490D01*
X0193215Y0160531D01*
X0193126Y0160575D01*
X0193040Y0160623D01*
X0192955Y0160674D01*
X0192872Y0160729D01*
X0192792Y0160787D01*
X0192714Y0160848D01*
X0192638Y0160912D01*
X0192565Y0160979D01*
X0192495Y0161049D01*
X0192428Y0161122D01*
X0192364Y0161198D01*
X0192303Y0161276D01*
X0192245Y0161356D01*
X0192190Y0161439D01*
X0192139Y0161523D01*
X0192091Y0161610D01*
X0192047Y0161699D01*
X0192006Y0161789D01*
X0191969Y0161881D01*
X0191936Y0161975D01*
X0191906Y0162069D01*
X0191881Y0162165D01*
X0191859Y0162262D01*
X0191841Y0162359D01*
X0191827Y0162457D01*
X0191817Y0162556D01*
X0191811Y0162655D01*
X0191809Y0162754D01*
X0242114Y0209693D02*
X0242116Y0209841D01*
X0242122Y0209989D01*
X0242132Y0210137D01*
X0242146Y0210284D01*
X0242164Y0210431D01*
X0242185Y0210577D01*
X0242211Y0210723D01*
X0242241Y0210868D01*
X0242274Y0211012D01*
X0242312Y0211155D01*
X0242353Y0211297D01*
X0242398Y0211438D01*
X0242446Y0211578D01*
X0242499Y0211717D01*
X0242555Y0211854D01*
X0242615Y0211989D01*
X0242678Y0212123D01*
X0242745Y0212255D01*
X0242816Y0212385D01*
X0242890Y0212513D01*
X0242967Y0212639D01*
X0243048Y0212763D01*
X0243132Y0212885D01*
X0243219Y0213004D01*
X0243310Y0213121D01*
X0243404Y0213236D01*
X0243500Y0213348D01*
X0243600Y0213458D01*
X0243702Y0213564D01*
X0243808Y0213668D01*
X0243916Y0213769D01*
X0244027Y0213867D01*
X0244140Y0213963D01*
X0244256Y0214055D01*
X0244374Y0214144D01*
X0244495Y0214229D01*
X0244618Y0214312D01*
X0244743Y0214391D01*
X0244870Y0214467D01*
X0244999Y0214539D01*
X0245130Y0214608D01*
X0245263Y0214673D01*
X0245398Y0214734D01*
X0245534Y0214792D01*
X0245671Y0214847D01*
X0245810Y0214897D01*
X0245951Y0214944D01*
X0246092Y0214987D01*
X0246235Y0215027D01*
X0246379Y0215062D01*
X0246523Y0215094D01*
X0246669Y0215121D01*
X0246815Y0215145D01*
X0246962Y0215165D01*
X0247109Y0215181D01*
X0247256Y0215193D01*
X0247404Y0215201D01*
X0247552Y0215205D01*
X0247700Y0215205D01*
X0247848Y0215201D01*
X0247996Y0215193D01*
X0248143Y0215181D01*
X0248290Y0215165D01*
X0248437Y0215145D01*
X0248583Y0215121D01*
X0248729Y0215094D01*
X0248873Y0215062D01*
X0249017Y0215027D01*
X0249160Y0214987D01*
X0249301Y0214944D01*
X0249442Y0214897D01*
X0249581Y0214847D01*
X0249718Y0214792D01*
X0249854Y0214734D01*
X0249989Y0214673D01*
X0250122Y0214608D01*
X0250253Y0214539D01*
X0250382Y0214467D01*
X0250509Y0214391D01*
X0250634Y0214312D01*
X0250757Y0214229D01*
X0250878Y0214144D01*
X0250996Y0214055D01*
X0251112Y0213963D01*
X0251225Y0213867D01*
X0251336Y0213769D01*
X0251444Y0213668D01*
X0251550Y0213564D01*
X0251652Y0213458D01*
X0251752Y0213348D01*
X0251848Y0213236D01*
X0251942Y0213121D01*
X0252033Y0213004D01*
X0252120Y0212885D01*
X0252204Y0212763D01*
X0252285Y0212639D01*
X0252362Y0212513D01*
X0252436Y0212385D01*
X0252507Y0212255D01*
X0252574Y0212123D01*
X0252637Y0211989D01*
X0252697Y0211854D01*
X0252753Y0211717D01*
X0252806Y0211578D01*
X0252854Y0211438D01*
X0252899Y0211297D01*
X0252940Y0211155D01*
X0252978Y0211012D01*
X0253011Y0210868D01*
X0253041Y0210723D01*
X0253067Y0210577D01*
X0253088Y0210431D01*
X0253106Y0210284D01*
X0253120Y0210137D01*
X0253130Y0209989D01*
X0253136Y0209841D01*
X0253138Y0209693D01*
X0253136Y0209545D01*
X0253130Y0209397D01*
X0253120Y0209249D01*
X0253106Y0209102D01*
X0253088Y0208955D01*
X0253067Y0208809D01*
X0253041Y0208663D01*
X0253011Y0208518D01*
X0252978Y0208374D01*
X0252940Y0208231D01*
X0252899Y0208089D01*
X0252854Y0207948D01*
X0252806Y0207808D01*
X0252753Y0207669D01*
X0252697Y0207532D01*
X0252637Y0207397D01*
X0252574Y0207263D01*
X0252507Y0207131D01*
X0252436Y0207001D01*
X0252362Y0206873D01*
X0252285Y0206747D01*
X0252204Y0206623D01*
X0252120Y0206501D01*
X0252033Y0206382D01*
X0251942Y0206265D01*
X0251848Y0206150D01*
X0251752Y0206038D01*
X0251652Y0205928D01*
X0251550Y0205822D01*
X0251444Y0205718D01*
X0251336Y0205617D01*
X0251225Y0205519D01*
X0251112Y0205423D01*
X0250996Y0205331D01*
X0250878Y0205242D01*
X0250757Y0205157D01*
X0250634Y0205074D01*
X0250509Y0204995D01*
X0250382Y0204919D01*
X0250253Y0204847D01*
X0250122Y0204778D01*
X0249989Y0204713D01*
X0249854Y0204652D01*
X0249718Y0204594D01*
X0249581Y0204539D01*
X0249442Y0204489D01*
X0249301Y0204442D01*
X0249160Y0204399D01*
X0249017Y0204359D01*
X0248873Y0204324D01*
X0248729Y0204292D01*
X0248583Y0204265D01*
X0248437Y0204241D01*
X0248290Y0204221D01*
X0248143Y0204205D01*
X0247996Y0204193D01*
X0247848Y0204185D01*
X0247700Y0204181D01*
X0247552Y0204181D01*
X0247404Y0204185D01*
X0247256Y0204193D01*
X0247109Y0204205D01*
X0246962Y0204221D01*
X0246815Y0204241D01*
X0246669Y0204265D01*
X0246523Y0204292D01*
X0246379Y0204324D01*
X0246235Y0204359D01*
X0246092Y0204399D01*
X0245951Y0204442D01*
X0245810Y0204489D01*
X0245671Y0204539D01*
X0245534Y0204594D01*
X0245398Y0204652D01*
X0245263Y0204713D01*
X0245130Y0204778D01*
X0244999Y0204847D01*
X0244870Y0204919D01*
X0244743Y0204995D01*
X0244618Y0205074D01*
X0244495Y0205157D01*
X0244374Y0205242D01*
X0244256Y0205331D01*
X0244140Y0205423D01*
X0244027Y0205519D01*
X0243916Y0205617D01*
X0243808Y0205718D01*
X0243702Y0205822D01*
X0243600Y0205928D01*
X0243500Y0206038D01*
X0243404Y0206150D01*
X0243310Y0206265D01*
X0243219Y0206382D01*
X0243132Y0206501D01*
X0243048Y0206623D01*
X0242967Y0206747D01*
X0242890Y0206873D01*
X0242816Y0207001D01*
X0242745Y0207131D01*
X0242678Y0207263D01*
X0242615Y0207397D01*
X0242555Y0207532D01*
X0242499Y0207669D01*
X0242446Y0207808D01*
X0242398Y0207948D01*
X0242353Y0208089D01*
X0242312Y0208231D01*
X0242274Y0208374D01*
X0242241Y0208518D01*
X0242211Y0208663D01*
X0242185Y0208809D01*
X0242164Y0208955D01*
X0242146Y0209102D01*
X0242132Y0209249D01*
X0242122Y0209397D01*
X0242116Y0209545D01*
X0242114Y0209693D01*
X0013768Y0209693D02*
X0013770Y0209841D01*
X0013776Y0209989D01*
X0013786Y0210137D01*
X0013800Y0210284D01*
X0013818Y0210431D01*
X0013839Y0210577D01*
X0013865Y0210723D01*
X0013895Y0210868D01*
X0013928Y0211012D01*
X0013966Y0211155D01*
X0014007Y0211297D01*
X0014052Y0211438D01*
X0014100Y0211578D01*
X0014153Y0211717D01*
X0014209Y0211854D01*
X0014269Y0211989D01*
X0014332Y0212123D01*
X0014399Y0212255D01*
X0014470Y0212385D01*
X0014544Y0212513D01*
X0014621Y0212639D01*
X0014702Y0212763D01*
X0014786Y0212885D01*
X0014873Y0213004D01*
X0014964Y0213121D01*
X0015058Y0213236D01*
X0015154Y0213348D01*
X0015254Y0213458D01*
X0015356Y0213564D01*
X0015462Y0213668D01*
X0015570Y0213769D01*
X0015681Y0213867D01*
X0015794Y0213963D01*
X0015910Y0214055D01*
X0016028Y0214144D01*
X0016149Y0214229D01*
X0016272Y0214312D01*
X0016397Y0214391D01*
X0016524Y0214467D01*
X0016653Y0214539D01*
X0016784Y0214608D01*
X0016917Y0214673D01*
X0017052Y0214734D01*
X0017188Y0214792D01*
X0017325Y0214847D01*
X0017464Y0214897D01*
X0017605Y0214944D01*
X0017746Y0214987D01*
X0017889Y0215027D01*
X0018033Y0215062D01*
X0018177Y0215094D01*
X0018323Y0215121D01*
X0018469Y0215145D01*
X0018616Y0215165D01*
X0018763Y0215181D01*
X0018910Y0215193D01*
X0019058Y0215201D01*
X0019206Y0215205D01*
X0019354Y0215205D01*
X0019502Y0215201D01*
X0019650Y0215193D01*
X0019797Y0215181D01*
X0019944Y0215165D01*
X0020091Y0215145D01*
X0020237Y0215121D01*
X0020383Y0215094D01*
X0020527Y0215062D01*
X0020671Y0215027D01*
X0020814Y0214987D01*
X0020955Y0214944D01*
X0021096Y0214897D01*
X0021235Y0214847D01*
X0021372Y0214792D01*
X0021508Y0214734D01*
X0021643Y0214673D01*
X0021776Y0214608D01*
X0021907Y0214539D01*
X0022036Y0214467D01*
X0022163Y0214391D01*
X0022288Y0214312D01*
X0022411Y0214229D01*
X0022532Y0214144D01*
X0022650Y0214055D01*
X0022766Y0213963D01*
X0022879Y0213867D01*
X0022990Y0213769D01*
X0023098Y0213668D01*
X0023204Y0213564D01*
X0023306Y0213458D01*
X0023406Y0213348D01*
X0023502Y0213236D01*
X0023596Y0213121D01*
X0023687Y0213004D01*
X0023774Y0212885D01*
X0023858Y0212763D01*
X0023939Y0212639D01*
X0024016Y0212513D01*
X0024090Y0212385D01*
X0024161Y0212255D01*
X0024228Y0212123D01*
X0024291Y0211989D01*
X0024351Y0211854D01*
X0024407Y0211717D01*
X0024460Y0211578D01*
X0024508Y0211438D01*
X0024553Y0211297D01*
X0024594Y0211155D01*
X0024632Y0211012D01*
X0024665Y0210868D01*
X0024695Y0210723D01*
X0024721Y0210577D01*
X0024742Y0210431D01*
X0024760Y0210284D01*
X0024774Y0210137D01*
X0024784Y0209989D01*
X0024790Y0209841D01*
X0024792Y0209693D01*
X0024790Y0209545D01*
X0024784Y0209397D01*
X0024774Y0209249D01*
X0024760Y0209102D01*
X0024742Y0208955D01*
X0024721Y0208809D01*
X0024695Y0208663D01*
X0024665Y0208518D01*
X0024632Y0208374D01*
X0024594Y0208231D01*
X0024553Y0208089D01*
X0024508Y0207948D01*
X0024460Y0207808D01*
X0024407Y0207669D01*
X0024351Y0207532D01*
X0024291Y0207397D01*
X0024228Y0207263D01*
X0024161Y0207131D01*
X0024090Y0207001D01*
X0024016Y0206873D01*
X0023939Y0206747D01*
X0023858Y0206623D01*
X0023774Y0206501D01*
X0023687Y0206382D01*
X0023596Y0206265D01*
X0023502Y0206150D01*
X0023406Y0206038D01*
X0023306Y0205928D01*
X0023204Y0205822D01*
X0023098Y0205718D01*
X0022990Y0205617D01*
X0022879Y0205519D01*
X0022766Y0205423D01*
X0022650Y0205331D01*
X0022532Y0205242D01*
X0022411Y0205157D01*
X0022288Y0205074D01*
X0022163Y0204995D01*
X0022036Y0204919D01*
X0021907Y0204847D01*
X0021776Y0204778D01*
X0021643Y0204713D01*
X0021508Y0204652D01*
X0021372Y0204594D01*
X0021235Y0204539D01*
X0021096Y0204489D01*
X0020955Y0204442D01*
X0020814Y0204399D01*
X0020671Y0204359D01*
X0020527Y0204324D01*
X0020383Y0204292D01*
X0020237Y0204265D01*
X0020091Y0204241D01*
X0019944Y0204221D01*
X0019797Y0204205D01*
X0019650Y0204193D01*
X0019502Y0204185D01*
X0019354Y0204181D01*
X0019206Y0204181D01*
X0019058Y0204185D01*
X0018910Y0204193D01*
X0018763Y0204205D01*
X0018616Y0204221D01*
X0018469Y0204241D01*
X0018323Y0204265D01*
X0018177Y0204292D01*
X0018033Y0204324D01*
X0017889Y0204359D01*
X0017746Y0204399D01*
X0017605Y0204442D01*
X0017464Y0204489D01*
X0017325Y0204539D01*
X0017188Y0204594D01*
X0017052Y0204652D01*
X0016917Y0204713D01*
X0016784Y0204778D01*
X0016653Y0204847D01*
X0016524Y0204919D01*
X0016397Y0204995D01*
X0016272Y0205074D01*
X0016149Y0205157D01*
X0016028Y0205242D01*
X0015910Y0205331D01*
X0015794Y0205423D01*
X0015681Y0205519D01*
X0015570Y0205617D01*
X0015462Y0205718D01*
X0015356Y0205822D01*
X0015254Y0205928D01*
X0015154Y0206038D01*
X0015058Y0206150D01*
X0014964Y0206265D01*
X0014873Y0206382D01*
X0014786Y0206501D01*
X0014702Y0206623D01*
X0014621Y0206747D01*
X0014544Y0206873D01*
X0014470Y0207001D01*
X0014399Y0207131D01*
X0014332Y0207263D01*
X0014269Y0207397D01*
X0014209Y0207532D01*
X0014153Y0207669D01*
X0014100Y0207808D01*
X0014052Y0207948D01*
X0014007Y0208089D01*
X0013966Y0208231D01*
X0013928Y0208374D01*
X0013895Y0208518D01*
X0013865Y0208663D01*
X0013839Y0208809D01*
X0013818Y0208955D01*
X0013800Y0209102D01*
X0013786Y0209249D01*
X0013776Y0209397D01*
X0013770Y0209545D01*
X0013768Y0209693D01*
D11*
X0041984Y0197920D02*
X0041984Y0193583D01*
X0042852Y0192715D01*
X0043719Y0192715D01*
X0044586Y0194450D02*
X0041984Y0194450D01*
X0044586Y0194450D02*
X0045454Y0195317D01*
X0045454Y0197052D01*
X0044586Y0197920D01*
X0041984Y0197920D01*
X0047149Y0197920D02*
X0048016Y0197920D01*
X0049751Y0196185D01*
X0049751Y0194450D02*
X0049751Y0197920D01*
X0051438Y0197052D02*
X0051438Y0195317D01*
X0052305Y0194450D01*
X0054040Y0194450D01*
X0054907Y0195317D01*
X0054907Y0197052D01*
X0054040Y0197920D01*
X0052305Y0197920D01*
X0051438Y0197052D01*
X0056618Y0195317D02*
X0056618Y0194450D01*
X0057485Y0194450D01*
X0057485Y0195317D01*
X0056618Y0195317D01*
X0059188Y0194450D02*
X0060056Y0195317D01*
X0060056Y0198787D01*
X0060923Y0197920D02*
X0059188Y0197920D01*
X0062626Y0194450D02*
X0064361Y0194450D01*
X0063493Y0194450D02*
X0063493Y0197920D01*
X0064361Y0197920D01*
X0066055Y0197920D02*
X0066923Y0197920D01*
X0068658Y0196185D01*
X0068658Y0194450D02*
X0068658Y0197920D01*
X0071228Y0197920D02*
X0071228Y0194450D01*
X0072095Y0194450D02*
X0070360Y0194450D01*
X0071228Y0197920D02*
X0072095Y0197920D01*
X0073782Y0197052D02*
X0073782Y0195317D01*
X0074649Y0194450D01*
X0077252Y0194450D01*
X0077252Y0192715D02*
X0077252Y0197920D01*
X0074649Y0197920D01*
X0073782Y0197052D01*
X0071228Y0199654D02*
X0071228Y0200522D01*
X0078938Y0197920D02*
X0081541Y0197920D01*
X0082408Y0197052D01*
X0081541Y0196185D01*
X0079806Y0196185D01*
X0078938Y0195317D01*
X0079806Y0194450D01*
X0082408Y0194450D01*
X0084111Y0194450D02*
X0085846Y0194450D01*
X0084978Y0194450D02*
X0084978Y0199654D01*
X0085846Y0199654D01*
X0088400Y0197920D02*
X0087532Y0197052D01*
X0087532Y0194450D01*
X0090135Y0194450D01*
X0091002Y0195317D01*
X0090135Y0196185D01*
X0087532Y0196185D01*
X0088400Y0197920D02*
X0090135Y0197920D01*
X0092705Y0197920D02*
X0094440Y0197920D01*
X0093572Y0198787D02*
X0093572Y0195317D01*
X0092705Y0194450D01*
X0096142Y0194450D02*
X0097877Y0194450D01*
X0097010Y0194450D02*
X0097010Y0197920D01*
X0097877Y0197920D01*
X0099564Y0197920D02*
X0102166Y0197920D01*
X0103034Y0197052D01*
X0103034Y0195317D01*
X0102166Y0194450D01*
X0099564Y0194450D01*
X0099564Y0193583D02*
X0099564Y0197920D01*
X0097010Y0199654D02*
X0097010Y0200522D01*
X0099564Y0193583D02*
X0100431Y0192715D01*
X0101299Y0192715D01*
X0100517Y0190304D02*
X0100517Y0185700D01*
X0102051Y0185700D02*
X0098982Y0185700D01*
X0102051Y0188769D02*
X0100517Y0190304D01*
X0105121Y0190304D02*
X0105121Y0185700D01*
X0106655Y0185700D02*
X0103586Y0185700D01*
X0106655Y0188769D02*
X0105121Y0190304D01*
X0108190Y0190304D02*
X0111259Y0185700D01*
X0113561Y0185700D02*
X0113561Y0190304D01*
X0115863Y0188002D01*
X0112794Y0188002D01*
X0117398Y0185700D02*
X0120467Y0185700D01*
X0118933Y0185700D02*
X0118933Y0190304D01*
X0120467Y0188769D01*
X0122002Y0189537D02*
X0122002Y0186467D01*
X0122769Y0185700D01*
X0124304Y0185700D01*
X0125071Y0186467D01*
X0122002Y0189537D01*
X0122769Y0190304D01*
X0124304Y0190304D01*
X0125071Y0189537D01*
X0125071Y0186467D01*
X0126606Y0185700D02*
X0129675Y0185700D01*
X0126606Y0188769D01*
X0126606Y0189537D01*
X0127373Y0190304D01*
X0128908Y0190304D01*
X0129675Y0189537D01*
X0128808Y0194450D02*
X0127940Y0195317D01*
X0127073Y0194450D01*
X0126205Y0195317D01*
X0126205Y0197920D01*
X0124519Y0197920D02*
X0124519Y0195317D01*
X0123651Y0194450D01*
X0122784Y0195317D01*
X0121916Y0194450D01*
X0121049Y0195317D01*
X0121049Y0197920D01*
X0119362Y0197920D02*
X0119362Y0195317D01*
X0118495Y0194450D01*
X0117627Y0195317D01*
X0116760Y0194450D01*
X0115893Y0195317D01*
X0115893Y0197920D01*
X0114206Y0195317D02*
X0113338Y0195317D01*
X0113338Y0194450D01*
X0114206Y0194450D01*
X0114206Y0195317D01*
X0111628Y0195317D02*
X0111628Y0197052D01*
X0110760Y0197920D01*
X0108158Y0197920D01*
X0106471Y0197920D02*
X0105604Y0197920D01*
X0105604Y0194450D01*
X0106471Y0194450D02*
X0104736Y0194450D01*
X0108158Y0194450D02*
X0108158Y0199654D01*
X0105604Y0199654D02*
X0105604Y0200522D01*
X0108158Y0194450D02*
X0110760Y0194450D01*
X0111628Y0195317D01*
X0128808Y0194450D02*
X0129675Y0195317D01*
X0129675Y0197920D01*
X0063493Y0199654D02*
X0063493Y0200522D01*
X0128079Y0119679D02*
X0128079Y0115075D01*
X0129613Y0115075D02*
X0126544Y0115075D01*
X0129613Y0118144D02*
X0128079Y0119679D01*
X0131148Y0118912D02*
X0131148Y0117377D01*
X0131915Y0116610D01*
X0134217Y0116610D01*
X0132683Y0116610D02*
X0131148Y0115075D01*
X0134217Y0115075D02*
X0134217Y0119679D01*
X0131915Y0119679D01*
X0131148Y0118912D01*
X0135752Y0118912D02*
X0135752Y0115842D01*
X0136519Y0115075D01*
X0138821Y0115075D01*
X0138821Y0119679D01*
X0136519Y0119679D01*
X0135752Y0118912D01*
X0140356Y0118144D02*
X0140356Y0115075D01*
X0140356Y0117377D02*
X0143425Y0117377D01*
X0143425Y0118144D02*
X0141890Y0119679D01*
X0140356Y0118144D01*
X0143425Y0118144D02*
X0143425Y0115075D01*
X0141890Y0104054D02*
X0140356Y0102519D01*
X0140356Y0099450D01*
X0138821Y0099450D02*
X0136519Y0099450D01*
X0135752Y0100217D01*
X0135752Y0103287D01*
X0136519Y0104054D01*
X0138821Y0104054D01*
X0138821Y0099450D01*
X0140356Y0101752D02*
X0143425Y0101752D01*
X0143425Y0102519D02*
X0141890Y0104054D01*
X0143425Y0102519D02*
X0143425Y0099450D01*
X0134217Y0099450D02*
X0134217Y0104054D01*
X0131915Y0104054D01*
X0131148Y0103287D01*
X0131148Y0101752D01*
X0131915Y0100985D01*
X0134217Y0100985D01*
X0132683Y0100985D02*
X0131148Y0099450D01*
X0129613Y0100217D02*
X0126544Y0103287D01*
X0126544Y0100217D01*
X0127311Y0099450D01*
X0128846Y0099450D01*
X0129613Y0100217D01*
X0129613Y0103287D01*
X0128846Y0104054D01*
X0127311Y0104054D01*
X0126544Y0103287D01*
X0235919Y0112575D02*
X0238988Y0112575D01*
X0235919Y0115644D01*
X0235919Y0116412D01*
X0236686Y0117179D01*
X0238221Y0117179D01*
X0238988Y0116412D01*
X0240523Y0116412D02*
X0240523Y0114877D01*
X0241290Y0114110D01*
X0243592Y0114110D01*
X0242058Y0114110D02*
X0240523Y0112575D01*
X0243592Y0112575D02*
X0243592Y0117179D01*
X0241290Y0117179D01*
X0240523Y0116412D01*
X0245127Y0116412D02*
X0245127Y0113342D01*
X0245894Y0112575D01*
X0248196Y0112575D01*
X0248196Y0117179D01*
X0245894Y0117179D01*
X0245127Y0116412D01*
X0249731Y0115644D02*
X0249731Y0112575D01*
X0249731Y0114877D02*
X0252800Y0114877D01*
X0252800Y0115644D02*
X0252800Y0112575D01*
X0252800Y0115644D02*
X0251265Y0117179D01*
X0249731Y0115644D01*
X0249731Y0123200D02*
X0249731Y0126269D01*
X0251265Y0127804D01*
X0252800Y0126269D01*
X0252800Y0123200D01*
X0252800Y0125502D02*
X0249731Y0125502D01*
X0248196Y0127804D02*
X0245894Y0127804D01*
X0245127Y0127037D01*
X0245127Y0123967D01*
X0245894Y0123200D01*
X0248196Y0123200D01*
X0248196Y0127804D01*
X0243592Y0127804D02*
X0243592Y0123200D01*
X0243592Y0124735D02*
X0241290Y0124735D01*
X0240523Y0125502D01*
X0240523Y0127037D01*
X0241290Y0127804D01*
X0243592Y0127804D01*
X0242058Y0124735D02*
X0240523Y0123200D01*
X0238988Y0123967D02*
X0238221Y0123200D01*
X0236686Y0123200D01*
X0235919Y0123967D01*
X0235919Y0124735D01*
X0236686Y0125502D01*
X0237454Y0125502D01*
X0236686Y0125502D02*
X0235919Y0126269D01*
X0235919Y0127037D01*
X0236686Y0127804D01*
X0238221Y0127804D01*
X0238988Y0127037D01*
D12*
X0114875Y0144250D03*
X0114875Y0158000D03*
X0114875Y0173000D03*
D13*
X0082850Y0129978D02*
X0081616Y0129978D01*
X0082233Y0129978D02*
X0082233Y0126275D01*
X0082850Y0126275D02*
X0081616Y0126275D01*
X0080395Y0126892D02*
X0079777Y0126275D01*
X0078543Y0126275D01*
X0077926Y0126892D01*
X0077926Y0129361D01*
X0078543Y0129978D01*
X0079777Y0129978D01*
X0080395Y0129361D01*
X0080395Y0126892D01*
X0076711Y0128127D02*
X0074243Y0128127D01*
X0074860Y0129978D02*
X0074860Y0126275D01*
X0076711Y0128127D02*
X0074860Y0129978D01*
X0074243Y0114978D02*
X0076711Y0114978D01*
X0076711Y0113127D01*
X0075477Y0113744D01*
X0074860Y0113744D01*
X0074243Y0113127D01*
X0074243Y0111892D01*
X0074860Y0111275D01*
X0076094Y0111275D01*
X0076711Y0111892D01*
X0077926Y0111892D02*
X0077926Y0114361D01*
X0078543Y0114978D01*
X0079777Y0114978D01*
X0080395Y0114361D01*
X0080395Y0111892D01*
X0079777Y0111275D01*
X0078543Y0111275D01*
X0077926Y0111892D01*
X0081616Y0111275D02*
X0082850Y0111275D01*
X0082233Y0111275D02*
X0082233Y0114978D01*
X0082850Y0114978D02*
X0081616Y0114978D01*
X0081616Y0089978D02*
X0082850Y0089978D01*
X0082233Y0089978D02*
X0082233Y0086275D01*
X0082850Y0086275D02*
X0081616Y0086275D01*
X0080395Y0086892D02*
X0079777Y0086275D01*
X0078543Y0086275D01*
X0077926Y0086892D01*
X0077926Y0089361D01*
X0078543Y0089978D01*
X0079777Y0089978D01*
X0080395Y0089361D01*
X0080395Y0086892D01*
X0076711Y0086892D02*
X0076711Y0088127D01*
X0074860Y0088127D01*
X0074243Y0087509D01*
X0074243Y0086892D01*
X0074860Y0086275D01*
X0076094Y0086275D01*
X0076711Y0086892D01*
X0076711Y0088127D02*
X0075477Y0089361D01*
X0074243Y0089978D01*
X0074243Y0064978D02*
X0074243Y0064361D01*
X0076711Y0061892D01*
X0076711Y0061275D01*
X0077926Y0061892D02*
X0077926Y0064361D01*
X0078543Y0064978D01*
X0079777Y0064978D01*
X0080395Y0064361D01*
X0080395Y0061892D01*
X0079777Y0061275D01*
X0078543Y0061275D01*
X0077926Y0061892D01*
X0076711Y0064978D02*
X0074243Y0064978D01*
X0081616Y0064978D02*
X0082850Y0064978D01*
X0082233Y0064978D02*
X0082233Y0061275D01*
X0082850Y0061275D02*
X0081616Y0061275D01*
X0040350Y0061275D02*
X0039116Y0061275D01*
X0039733Y0061275D02*
X0039733Y0064978D01*
X0040350Y0064978D02*
X0039116Y0064978D01*
X0037895Y0064361D02*
X0037895Y0061892D01*
X0037277Y0061275D01*
X0036043Y0061275D01*
X0035426Y0061892D01*
X0035426Y0064361D01*
X0036043Y0064978D01*
X0037277Y0064978D01*
X0037895Y0064361D01*
X0034211Y0064361D02*
X0033594Y0064978D01*
X0032360Y0064978D01*
X0031743Y0064361D01*
X0031743Y0063744D01*
X0032360Y0063127D01*
X0031743Y0062509D01*
X0031743Y0061892D01*
X0032360Y0061275D01*
X0033594Y0061275D01*
X0034211Y0061892D01*
X0032977Y0063127D02*
X0032360Y0063127D01*
X0028475Y0063150D02*
X0028475Y0066853D01*
X0026623Y0066853D01*
X0026006Y0066236D01*
X0026006Y0065002D01*
X0026623Y0064384D01*
X0028475Y0064384D01*
X0027241Y0064384D02*
X0026006Y0063150D01*
X0024792Y0063150D02*
X0022323Y0066853D01*
X0022300Y0068150D02*
X0021065Y0068150D01*
X0022300Y0068150D02*
X0022917Y0068767D01*
X0022917Y0070002D01*
X0022300Y0070619D01*
X0021065Y0070619D01*
X0020448Y0070002D01*
X0020448Y0069384D01*
X0022917Y0069384D01*
X0024131Y0069384D02*
X0024748Y0070002D01*
X0025983Y0070002D01*
X0026600Y0070619D01*
X0026600Y0071236D01*
X0025983Y0071853D01*
X0024748Y0071853D01*
X0024131Y0071236D01*
X0024131Y0069384D02*
X0024131Y0068767D01*
X0024748Y0068150D01*
X0025983Y0068150D01*
X0026600Y0068767D01*
X0024792Y0066853D02*
X0022323Y0063150D01*
X0022323Y0059353D02*
X0024792Y0055650D01*
X0027241Y0055650D02*
X0027241Y0059353D01*
X0028475Y0059353D02*
X0026006Y0059353D01*
X0024792Y0059353D02*
X0022323Y0055650D01*
X0019234Y0068150D02*
X0019234Y0070619D01*
X0019234Y0069384D02*
X0017999Y0070619D01*
X0017382Y0070619D01*
X0016164Y0070619D02*
X0015547Y0070619D01*
X0015547Y0068150D01*
X0016164Y0068150D02*
X0014930Y0068150D01*
X0013709Y0068767D02*
X0013092Y0069384D01*
X0011240Y0069384D01*
X0011240Y0070002D02*
X0011240Y0068150D01*
X0013092Y0068150D01*
X0013709Y0068767D01*
X0013092Y0070619D02*
X0011857Y0070619D01*
X0011240Y0070002D01*
X0010026Y0071853D02*
X0009409Y0071853D01*
X0009409Y0068150D01*
X0010026Y0068150D02*
X0008791Y0068150D01*
X0015547Y0071853D02*
X0015547Y0072470D01*
X0031743Y0086275D02*
X0034211Y0086275D01*
X0031743Y0088744D01*
X0031743Y0089361D01*
X0032360Y0089978D01*
X0033594Y0089978D01*
X0034211Y0089361D01*
X0035426Y0089361D02*
X0035426Y0086892D01*
X0036043Y0086275D01*
X0037277Y0086275D01*
X0037895Y0086892D01*
X0037895Y0089361D01*
X0037277Y0089978D01*
X0036043Y0089978D01*
X0035426Y0089361D01*
X0039116Y0089978D02*
X0040350Y0089978D01*
X0039733Y0089978D02*
X0039733Y0086275D01*
X0040350Y0086275D02*
X0039116Y0086275D01*
X0039116Y0111275D02*
X0040350Y0111275D01*
X0039733Y0111275D02*
X0039733Y0114978D01*
X0040350Y0114978D02*
X0039116Y0114978D01*
X0037895Y0114361D02*
X0037895Y0111892D01*
X0037277Y0111275D01*
X0036043Y0111275D01*
X0035426Y0111892D01*
X0035426Y0114361D01*
X0036043Y0114978D01*
X0037277Y0114978D01*
X0037895Y0114361D01*
X0034211Y0113744D02*
X0032977Y0114978D01*
X0032977Y0111275D01*
X0034211Y0111275D02*
X0031743Y0111275D01*
X0032360Y0136275D02*
X0033594Y0136275D01*
X0034211Y0136892D01*
X0031743Y0139361D01*
X0031743Y0136892D01*
X0032360Y0136275D01*
X0034211Y0136892D02*
X0034211Y0139361D01*
X0033594Y0139978D01*
X0032360Y0139978D01*
X0031743Y0139361D01*
X0035426Y0139361D02*
X0035426Y0136892D01*
X0036043Y0136275D01*
X0037277Y0136275D01*
X0037895Y0136892D01*
X0037895Y0139361D01*
X0037277Y0139978D01*
X0036043Y0139978D01*
X0035426Y0139361D01*
X0039116Y0139978D02*
X0040350Y0139978D01*
X0039733Y0139978D02*
X0039733Y0136275D01*
X0040350Y0136275D02*
X0039116Y0136275D01*
X0138015Y0094361D02*
X0138015Y0091892D01*
X0138632Y0091275D01*
X0139867Y0091275D01*
X0140484Y0091892D01*
X0138015Y0094361D01*
X0138632Y0094978D01*
X0139867Y0094978D01*
X0140484Y0094361D01*
X0140484Y0091892D01*
X0141698Y0091275D02*
X0141698Y0094978D01*
X0144167Y0094978D02*
X0141698Y0091275D01*
X0144167Y0091275D02*
X0144167Y0094978D01*
X0145381Y0093744D02*
X0145381Y0091275D01*
X0145381Y0093127D02*
X0147850Y0093127D01*
X0147850Y0093744D02*
X0146616Y0094978D01*
X0145381Y0093744D01*
X0147850Y0093744D02*
X0147850Y0091275D01*
X0146616Y0069978D02*
X0145381Y0068744D01*
X0145381Y0066275D01*
X0144167Y0066275D02*
X0144167Y0069978D01*
X0141698Y0066275D01*
X0141698Y0069978D01*
X0140484Y0068744D02*
X0139249Y0069978D01*
X0139249Y0066275D01*
X0138015Y0066275D02*
X0140484Y0066275D01*
X0145381Y0068127D02*
X0147850Y0068127D01*
X0147850Y0068744D02*
X0146616Y0069978D01*
X0147850Y0068744D02*
X0147850Y0066275D01*
X0146616Y0044978D02*
X0145381Y0043744D01*
X0145381Y0041275D01*
X0144167Y0041275D02*
X0144167Y0044978D01*
X0141698Y0041275D01*
X0141698Y0044978D01*
X0140484Y0044361D02*
X0139867Y0044978D01*
X0138632Y0044978D01*
X0138015Y0044361D01*
X0138015Y0043744D01*
X0140484Y0041275D01*
X0138015Y0041275D01*
X0145381Y0043127D02*
X0147850Y0043127D01*
X0147850Y0043744D02*
X0146616Y0044978D01*
X0147850Y0043744D02*
X0147850Y0041275D01*
X0146616Y0019978D02*
X0145381Y0018744D01*
X0145381Y0016275D01*
X0144167Y0016275D02*
X0144167Y0019978D01*
X0141698Y0016275D01*
X0141698Y0019978D01*
X0140484Y0019361D02*
X0139867Y0019978D01*
X0138632Y0019978D01*
X0138015Y0019361D01*
X0138015Y0018744D01*
X0138632Y0018127D01*
X0138015Y0017509D01*
X0138015Y0016892D01*
X0138632Y0016275D01*
X0139867Y0016275D01*
X0140484Y0016892D01*
X0139249Y0018127D02*
X0138632Y0018127D01*
X0145381Y0018127D02*
X0147850Y0018127D01*
X0147850Y0018744D02*
X0146616Y0019978D01*
X0147850Y0018744D02*
X0147850Y0016275D01*
X0106600Y0009353D02*
X0105366Y0009353D01*
X0105983Y0009353D02*
X0105983Y0005650D01*
X0106600Y0005650D02*
X0105366Y0005650D01*
X0104145Y0005650D02*
X0101676Y0008119D01*
X0101676Y0008736D01*
X0102293Y0009353D01*
X0103527Y0009353D01*
X0104145Y0008736D01*
X0104145Y0005650D02*
X0101676Y0005650D01*
X0100461Y0006267D02*
X0099844Y0005650D01*
X0098610Y0005650D01*
X0097993Y0006267D01*
X0100461Y0006267D02*
X0100461Y0008736D01*
X0099844Y0009353D01*
X0098610Y0009353D01*
X0097993Y0008736D01*
X0081600Y0009353D02*
X0080366Y0009353D01*
X0080983Y0009353D02*
X0080983Y0005650D01*
X0081600Y0005650D02*
X0080366Y0005650D01*
X0079145Y0005650D02*
X0076676Y0008119D01*
X0076676Y0008736D01*
X0077293Y0009353D01*
X0078527Y0009353D01*
X0079145Y0008736D01*
X0079145Y0005650D02*
X0076676Y0005650D01*
X0075461Y0006267D02*
X0075461Y0008736D01*
X0074844Y0009353D01*
X0073610Y0009353D01*
X0072993Y0008736D01*
X0072993Y0006267D02*
X0073610Y0005650D01*
X0074844Y0005650D01*
X0075461Y0006267D01*
X0056600Y0005650D02*
X0055366Y0005650D01*
X0055983Y0005650D02*
X0055983Y0009353D01*
X0056600Y0009353D02*
X0055366Y0009353D01*
X0054145Y0008736D02*
X0053527Y0009353D01*
X0052293Y0009353D01*
X0051676Y0008736D01*
X0051676Y0008119D01*
X0054145Y0005650D01*
X0051676Y0005650D01*
X0050461Y0006267D02*
X0049844Y0005650D01*
X0048610Y0005650D01*
X0047993Y0006267D01*
X0050461Y0006267D02*
X0050461Y0008736D01*
X0049844Y0009353D01*
X0048610Y0009353D01*
X0047993Y0008736D01*
X0044100Y0012517D02*
X0043483Y0011900D01*
X0042248Y0011900D01*
X0041631Y0012517D01*
X0041631Y0013134D01*
X0042248Y0013752D01*
X0043483Y0013752D01*
X0044100Y0014369D01*
X0044100Y0014986D01*
X0043483Y0015603D01*
X0042248Y0015603D01*
X0041631Y0014986D01*
X0040417Y0014986D02*
X0040417Y0012517D01*
X0039800Y0011900D01*
X0038565Y0011900D01*
X0037948Y0012517D01*
X0036734Y0011900D02*
X0036734Y0015603D01*
X0037948Y0014986D02*
X0038565Y0015603D01*
X0039800Y0015603D01*
X0040417Y0014986D01*
X0040417Y0019400D02*
X0038565Y0019400D01*
X0037948Y0020017D01*
X0037948Y0022486D01*
X0038565Y0023103D01*
X0040417Y0023103D01*
X0040417Y0019400D01*
X0041631Y0020017D02*
X0042248Y0019400D01*
X0043483Y0019400D01*
X0044100Y0020017D01*
X0043483Y0021252D02*
X0042248Y0021252D01*
X0041631Y0020634D01*
X0041631Y0020017D01*
X0043483Y0021252D02*
X0044100Y0021869D01*
X0044100Y0022486D01*
X0043483Y0023103D01*
X0042248Y0023103D01*
X0041631Y0022486D01*
X0036734Y0021869D02*
X0036734Y0019400D01*
X0036734Y0021252D02*
X0034265Y0021252D01*
X0034265Y0021869D02*
X0034265Y0019400D01*
X0034265Y0021869D02*
X0035499Y0023103D01*
X0036734Y0021869D01*
X0036734Y0011900D02*
X0034265Y0011900D01*
X0172522Y0127384D02*
X0172522Y0129319D01*
X0174457Y0127384D01*
X0173973Y0126900D01*
X0173006Y0126900D01*
X0172522Y0127384D01*
X0172522Y0129319D02*
X0173006Y0129802D01*
X0173973Y0129802D01*
X0174457Y0129319D01*
X0174457Y0127384D01*
X0175469Y0126900D02*
X0177403Y0126900D01*
X0176436Y0126900D02*
X0176436Y0129802D01*
X0177403Y0128835D01*
X0178415Y0129319D02*
X0178899Y0129802D01*
X0179866Y0129802D01*
X0180350Y0129319D01*
X0180350Y0127384D01*
X0179866Y0126900D01*
X0178899Y0126900D01*
X0178415Y0127384D01*
X0190379Y0110427D02*
X0191347Y0109944D01*
X0192314Y0108976D01*
X0190863Y0108976D01*
X0190379Y0108492D01*
X0190379Y0108009D01*
X0190863Y0107525D01*
X0191830Y0107525D01*
X0192314Y0108009D01*
X0192314Y0108976D01*
X0193326Y0108009D02*
X0193809Y0107525D01*
X0194777Y0107525D01*
X0195261Y0108009D01*
X0195261Y0109944D01*
X0194777Y0110427D01*
X0193809Y0110427D01*
X0193326Y0109944D01*
X0196258Y0110427D02*
X0197225Y0110427D01*
X0196741Y0110427D02*
X0196741Y0107525D01*
X0196258Y0107525D02*
X0197225Y0107525D01*
X0197917Y0094978D02*
X0195448Y0091275D01*
X0195448Y0094978D01*
X0194234Y0093127D02*
X0191765Y0093127D01*
X0192382Y0094978D02*
X0192382Y0091275D01*
X0194234Y0093127D02*
X0192382Y0094978D01*
X0197917Y0094978D02*
X0197917Y0091275D01*
X0199131Y0091275D02*
X0199131Y0093744D01*
X0200366Y0094978D01*
X0201600Y0093744D01*
X0201600Y0091275D01*
X0201600Y0093127D02*
X0199131Y0093127D01*
X0197917Y0069978D02*
X0195448Y0066275D01*
X0195448Y0069978D01*
X0194234Y0069978D02*
X0194234Y0068127D01*
X0192999Y0068744D01*
X0192382Y0068744D01*
X0191765Y0068127D01*
X0191765Y0066892D01*
X0192382Y0066275D01*
X0193617Y0066275D01*
X0194234Y0066892D01*
X0194234Y0069978D02*
X0191765Y0069978D01*
X0197917Y0069978D02*
X0197917Y0066275D01*
X0199131Y0066275D02*
X0199131Y0068744D01*
X0200366Y0069978D01*
X0201600Y0068744D01*
X0201600Y0066275D01*
X0201600Y0068127D02*
X0199131Y0068127D01*
X0197917Y0044978D02*
X0195448Y0041275D01*
X0195448Y0044978D01*
X0194234Y0043127D02*
X0194234Y0041892D01*
X0193617Y0041275D01*
X0192382Y0041275D01*
X0191765Y0041892D01*
X0191765Y0042509D01*
X0192382Y0043127D01*
X0194234Y0043127D01*
X0192999Y0044361D01*
X0191765Y0044978D01*
X0197917Y0044978D02*
X0197917Y0041275D01*
X0199131Y0041275D02*
X0199131Y0043744D01*
X0200366Y0044978D01*
X0201600Y0043744D01*
X0201600Y0041275D01*
X0201600Y0043127D02*
X0199131Y0043127D01*
X0197917Y0019978D02*
X0195448Y0016275D01*
X0195448Y0019978D01*
X0194234Y0019978D02*
X0191765Y0019978D01*
X0191765Y0019361D01*
X0194234Y0016892D01*
X0194234Y0016275D01*
X0197917Y0016275D02*
X0197917Y0019978D01*
X0199131Y0018744D02*
X0199131Y0016275D01*
X0199131Y0018127D02*
X0201600Y0018127D01*
X0201600Y0018744D02*
X0200366Y0019978D01*
X0199131Y0018744D01*
X0201600Y0018744D02*
X0201600Y0016275D01*
D14*
X0226400Y0065900D02*
X0230500Y0068600D01*
X0232200Y0067800D01*
X0235300Y0075400D01*
X0232300Y0078400D01*
X0232400Y0083500D01*
X0236300Y0087000D01*
X0241000Y0086900D01*
X0244400Y0083400D01*
X0244500Y0078200D01*
X0241700Y0075200D01*
X0244500Y0067800D01*
X0246500Y0068900D01*
X0250600Y0065900D01*
X0253600Y0068800D01*
X0250600Y0073100D01*
X0252600Y0077900D01*
X0257900Y0078900D01*
X0257800Y0083100D01*
X0252400Y0084100D01*
X0250500Y0088800D01*
X0253400Y0093200D01*
X0250500Y0095800D01*
X0246200Y0092800D01*
X0241600Y0094700D01*
X0240500Y0100100D01*
X0236400Y0100200D01*
X0235500Y0094700D01*
X0230800Y0093000D01*
X0226300Y0095900D01*
X0223500Y0093000D01*
X0226600Y0088600D01*
X0224400Y0083900D01*
X0219200Y0082900D01*
X0219300Y0078800D01*
X0224500Y0077900D01*
X0226200Y0073000D01*
X0223400Y0068700D01*
X0226400Y0065900D01*
X0225819Y0066442D02*
X0227223Y0066442D01*
X0228132Y0067041D02*
X0225178Y0067041D01*
X0224537Y0067639D02*
X0229041Y0067639D01*
X0229950Y0068238D02*
X0223895Y0068238D01*
X0223489Y0068836D02*
X0232623Y0068836D01*
X0232379Y0068238D02*
X0231270Y0068238D01*
X0232867Y0069435D02*
X0223878Y0069435D01*
X0224268Y0070033D02*
X0233111Y0070033D01*
X0233355Y0070632D02*
X0224658Y0070632D01*
X0225048Y0071230D02*
X0233599Y0071230D01*
X0233843Y0071829D02*
X0225437Y0071829D01*
X0225827Y0072427D02*
X0234087Y0072427D01*
X0234332Y0073026D02*
X0226191Y0073026D01*
X0225983Y0073624D02*
X0234576Y0073624D01*
X0234820Y0074223D02*
X0225776Y0074223D01*
X0225568Y0074821D02*
X0235064Y0074821D01*
X0235280Y0075420D02*
X0225360Y0075420D01*
X0225153Y0076018D02*
X0234682Y0076018D01*
X0234083Y0076617D02*
X0224945Y0076617D01*
X0224738Y0077215D02*
X0233485Y0077215D01*
X0232886Y0077814D02*
X0224530Y0077814D01*
X0221539Y0078412D02*
X0232300Y0078412D01*
X0232312Y0079011D02*
X0219295Y0079011D01*
X0219280Y0079609D02*
X0232324Y0079609D01*
X0232335Y0080208D02*
X0219266Y0080208D01*
X0219251Y0080806D02*
X0232347Y0080806D01*
X0232359Y0081405D02*
X0219236Y0081405D01*
X0219222Y0082003D02*
X0232371Y0082003D01*
X0232382Y0082602D02*
X0219207Y0082602D01*
X0220763Y0083201D02*
X0232394Y0083201D01*
X0232733Y0083799D02*
X0223875Y0083799D01*
X0224633Y0084398D02*
X0233400Y0084398D01*
X0234067Y0084996D02*
X0224913Y0084996D01*
X0225193Y0085595D02*
X0234734Y0085595D01*
X0235401Y0086193D02*
X0225473Y0086193D01*
X0225754Y0086792D02*
X0236068Y0086792D01*
X0241105Y0086792D02*
X0251312Y0086792D01*
X0251070Y0087390D02*
X0226034Y0087390D01*
X0226314Y0087989D02*
X0250828Y0087989D01*
X0250586Y0088587D02*
X0226594Y0088587D01*
X0226187Y0089186D02*
X0250754Y0089186D01*
X0251149Y0089784D02*
X0225766Y0089784D01*
X0225344Y0090383D02*
X0251543Y0090383D01*
X0251938Y0090981D02*
X0224922Y0090981D01*
X0224501Y0091580D02*
X0252332Y0091580D01*
X0252727Y0092178D02*
X0224079Y0092178D01*
X0223657Y0092777D02*
X0253121Y0092777D01*
X0253205Y0093375D02*
X0247024Y0093375D01*
X0247882Y0093974D02*
X0252537Y0093974D01*
X0251869Y0094572D02*
X0248740Y0094572D01*
X0249598Y0095171D02*
X0251202Y0095171D01*
X0250534Y0095769D02*
X0250456Y0095769D01*
X0244807Y0093375D02*
X0231837Y0093375D01*
X0230218Y0093375D02*
X0223862Y0093375D01*
X0224440Y0093974D02*
X0229289Y0093974D01*
X0228360Y0094572D02*
X0225018Y0094572D01*
X0225596Y0095171D02*
X0227432Y0095171D01*
X0226503Y0095769D02*
X0226174Y0095769D01*
X0233492Y0093974D02*
X0243358Y0093974D01*
X0241909Y0094572D02*
X0235147Y0094572D01*
X0235577Y0095171D02*
X0241504Y0095171D01*
X0241382Y0095769D02*
X0235675Y0095769D01*
X0235773Y0096368D02*
X0241260Y0096368D01*
X0241138Y0096966D02*
X0235871Y0096966D01*
X0235969Y0097565D02*
X0241016Y0097565D01*
X0240895Y0098163D02*
X0236067Y0098163D01*
X0236165Y0098762D02*
X0240773Y0098762D01*
X0240651Y0099360D02*
X0236263Y0099360D01*
X0236361Y0099959D02*
X0240529Y0099959D01*
X0230250Y0110250D02*
X0213250Y0110250D01*
X0213190Y0110252D01*
X0213129Y0110257D01*
X0213070Y0110266D01*
X0213011Y0110279D01*
X0212952Y0110295D01*
X0212895Y0110315D01*
X0212840Y0110338D01*
X0212785Y0110365D01*
X0212733Y0110394D01*
X0212682Y0110427D01*
X0212633Y0110463D01*
X0212587Y0110501D01*
X0212543Y0110543D01*
X0212501Y0110587D01*
X0212463Y0110633D01*
X0212427Y0110682D01*
X0212394Y0110733D01*
X0212365Y0110785D01*
X0212338Y0110840D01*
X0212315Y0110895D01*
X0212295Y0110952D01*
X0212279Y0111011D01*
X0212266Y0111070D01*
X0212257Y0111129D01*
X0212252Y0111190D01*
X0212250Y0111250D01*
X0212250Y0117250D01*
X0212252Y0117310D01*
X0212257Y0117371D01*
X0212266Y0117430D01*
X0212279Y0117489D01*
X0212295Y0117548D01*
X0212315Y0117605D01*
X0212338Y0117660D01*
X0212365Y0117715D01*
X0212394Y0117767D01*
X0212427Y0117818D01*
X0212463Y0117867D01*
X0212501Y0117913D01*
X0212543Y0117957D01*
X0212587Y0117999D01*
X0212633Y0118037D01*
X0212682Y0118073D01*
X0212733Y0118106D01*
X0212785Y0118135D01*
X0212840Y0118162D01*
X0212895Y0118185D01*
X0212952Y0118205D01*
X0213011Y0118221D01*
X0213070Y0118234D01*
X0213129Y0118243D01*
X0213190Y0118248D01*
X0213250Y0118250D01*
X0230250Y0118250D01*
X0230310Y0118248D01*
X0230371Y0118243D01*
X0230430Y0118234D01*
X0230489Y0118221D01*
X0230548Y0118205D01*
X0230605Y0118185D01*
X0230660Y0118162D01*
X0230715Y0118135D01*
X0230767Y0118106D01*
X0230818Y0118073D01*
X0230867Y0118037D01*
X0230913Y0117999D01*
X0230957Y0117957D01*
X0230999Y0117913D01*
X0231037Y0117867D01*
X0231073Y0117818D01*
X0231106Y0117767D01*
X0231135Y0117715D01*
X0231162Y0117660D01*
X0231185Y0117605D01*
X0231205Y0117548D01*
X0231221Y0117489D01*
X0231234Y0117430D01*
X0231243Y0117371D01*
X0231248Y0117310D01*
X0231250Y0117250D01*
X0231250Y0111250D01*
X0231248Y0111190D01*
X0231243Y0111129D01*
X0231234Y0111070D01*
X0231221Y0111011D01*
X0231205Y0110952D01*
X0231185Y0110895D01*
X0231162Y0110840D01*
X0231135Y0110785D01*
X0231106Y0110733D01*
X0231073Y0110682D01*
X0231037Y0110633D01*
X0230999Y0110587D01*
X0230957Y0110543D01*
X0230913Y0110501D01*
X0230867Y0110463D01*
X0230818Y0110427D01*
X0230767Y0110394D01*
X0230715Y0110365D01*
X0230660Y0110338D01*
X0230605Y0110315D01*
X0230548Y0110295D01*
X0230489Y0110279D01*
X0230430Y0110266D01*
X0230371Y0110257D01*
X0230310Y0110252D01*
X0230250Y0110250D01*
X0230250Y0120875D02*
X0213250Y0120875D01*
X0213190Y0120877D01*
X0213129Y0120882D01*
X0213070Y0120891D01*
X0213011Y0120904D01*
X0212952Y0120920D01*
X0212895Y0120940D01*
X0212840Y0120963D01*
X0212785Y0120990D01*
X0212733Y0121019D01*
X0212682Y0121052D01*
X0212633Y0121088D01*
X0212587Y0121126D01*
X0212543Y0121168D01*
X0212501Y0121212D01*
X0212463Y0121258D01*
X0212427Y0121307D01*
X0212394Y0121358D01*
X0212365Y0121410D01*
X0212338Y0121465D01*
X0212315Y0121520D01*
X0212295Y0121577D01*
X0212279Y0121636D01*
X0212266Y0121695D01*
X0212257Y0121754D01*
X0212252Y0121815D01*
X0212250Y0121875D01*
X0212250Y0127875D01*
X0212252Y0127935D01*
X0212257Y0127996D01*
X0212266Y0128055D01*
X0212279Y0128114D01*
X0212295Y0128173D01*
X0212315Y0128230D01*
X0212338Y0128285D01*
X0212365Y0128340D01*
X0212394Y0128392D01*
X0212427Y0128443D01*
X0212463Y0128492D01*
X0212501Y0128538D01*
X0212543Y0128582D01*
X0212587Y0128624D01*
X0212633Y0128662D01*
X0212682Y0128698D01*
X0212733Y0128731D01*
X0212785Y0128760D01*
X0212840Y0128787D01*
X0212895Y0128810D01*
X0212952Y0128830D01*
X0213011Y0128846D01*
X0213070Y0128859D01*
X0213129Y0128868D01*
X0213190Y0128873D01*
X0213250Y0128875D01*
X0230250Y0128875D01*
X0230310Y0128873D01*
X0230371Y0128868D01*
X0230430Y0128859D01*
X0230489Y0128846D01*
X0230548Y0128830D01*
X0230605Y0128810D01*
X0230660Y0128787D01*
X0230715Y0128760D01*
X0230767Y0128731D01*
X0230818Y0128698D01*
X0230867Y0128662D01*
X0230913Y0128624D01*
X0230957Y0128582D01*
X0230999Y0128538D01*
X0231037Y0128492D01*
X0231073Y0128443D01*
X0231106Y0128392D01*
X0231135Y0128340D01*
X0231162Y0128285D01*
X0231185Y0128230D01*
X0231205Y0128173D01*
X0231221Y0128114D01*
X0231234Y0128055D01*
X0231243Y0127996D01*
X0231248Y0127935D01*
X0231250Y0127875D01*
X0231250Y0121875D01*
X0231248Y0121815D01*
X0231243Y0121754D01*
X0231234Y0121695D01*
X0231221Y0121636D01*
X0231205Y0121577D01*
X0231185Y0121520D01*
X0231162Y0121465D01*
X0231135Y0121410D01*
X0231106Y0121358D01*
X0231073Y0121307D01*
X0231037Y0121258D01*
X0230999Y0121212D01*
X0230957Y0121168D01*
X0230913Y0121126D01*
X0230867Y0121088D01*
X0230818Y0121052D01*
X0230767Y0121019D01*
X0230715Y0120990D01*
X0230660Y0120963D01*
X0230605Y0120940D01*
X0230548Y0120920D01*
X0230489Y0120904D01*
X0230430Y0120891D01*
X0230371Y0120882D01*
X0230310Y0120877D01*
X0230250Y0120875D01*
X0201875Y0129375D02*
X0201875Y0135375D01*
X0201873Y0135435D01*
X0201868Y0135496D01*
X0201859Y0135555D01*
X0201846Y0135614D01*
X0201830Y0135673D01*
X0201810Y0135730D01*
X0201787Y0135785D01*
X0201760Y0135840D01*
X0201731Y0135892D01*
X0201698Y0135943D01*
X0201662Y0135992D01*
X0201624Y0136038D01*
X0201582Y0136082D01*
X0201538Y0136124D01*
X0201492Y0136162D01*
X0201443Y0136198D01*
X0201392Y0136231D01*
X0201340Y0136260D01*
X0201285Y0136287D01*
X0201230Y0136310D01*
X0201173Y0136330D01*
X0201114Y0136346D01*
X0201055Y0136359D01*
X0200996Y0136368D01*
X0200935Y0136373D01*
X0200875Y0136375D01*
X0183875Y0136375D01*
X0183815Y0136373D01*
X0183754Y0136368D01*
X0183695Y0136359D01*
X0183636Y0136346D01*
X0183577Y0136330D01*
X0183520Y0136310D01*
X0183465Y0136287D01*
X0183410Y0136260D01*
X0183358Y0136231D01*
X0183307Y0136198D01*
X0183258Y0136162D01*
X0183212Y0136124D01*
X0183168Y0136082D01*
X0183126Y0136038D01*
X0183088Y0135992D01*
X0183052Y0135943D01*
X0183019Y0135892D01*
X0182990Y0135840D01*
X0182963Y0135785D01*
X0182940Y0135730D01*
X0182920Y0135673D01*
X0182904Y0135614D01*
X0182891Y0135555D01*
X0182882Y0135496D01*
X0182877Y0135435D01*
X0182875Y0135375D01*
X0182875Y0129375D01*
X0182877Y0129315D01*
X0182882Y0129254D01*
X0182891Y0129195D01*
X0182904Y0129136D01*
X0182920Y0129077D01*
X0182940Y0129020D01*
X0182963Y0128965D01*
X0182990Y0128910D01*
X0183019Y0128858D01*
X0183052Y0128807D01*
X0183088Y0128758D01*
X0183126Y0128712D01*
X0183168Y0128668D01*
X0183212Y0128626D01*
X0183258Y0128588D01*
X0183307Y0128552D01*
X0183358Y0128519D01*
X0183410Y0128490D01*
X0183465Y0128463D01*
X0183520Y0128440D01*
X0183577Y0128420D01*
X0183636Y0128404D01*
X0183695Y0128391D01*
X0183754Y0128382D01*
X0183815Y0128377D01*
X0183875Y0128375D01*
X0200875Y0128375D01*
X0200935Y0128377D01*
X0200996Y0128382D01*
X0201055Y0128391D01*
X0201114Y0128404D01*
X0201173Y0128420D01*
X0201230Y0128440D01*
X0201285Y0128463D01*
X0201340Y0128490D01*
X0201392Y0128519D01*
X0201443Y0128552D01*
X0201492Y0128588D01*
X0201538Y0128626D01*
X0201582Y0128668D01*
X0201624Y0128712D01*
X0201662Y0128758D01*
X0201698Y0128807D01*
X0201731Y0128858D01*
X0201760Y0128910D01*
X0201787Y0128965D01*
X0201810Y0129020D01*
X0201830Y0129077D01*
X0201846Y0129136D01*
X0201859Y0129195D01*
X0201868Y0129254D01*
X0201873Y0129315D01*
X0201875Y0129375D01*
X0197975Y0123066D02*
X0197602Y0123066D01*
X0197975Y0123066D02*
X0197975Y0116684D01*
X0197602Y0116684D01*
X0194432Y0116684D02*
X0194058Y0116684D01*
X0190692Y0116684D02*
X0190318Y0116684D01*
X0187148Y0116684D02*
X0186775Y0116684D01*
X0186775Y0123066D01*
X0187148Y0123066D01*
X0190318Y0123066D02*
X0194432Y0123066D01*
X0165000Y0120375D02*
X0165000Y0114375D01*
X0164998Y0114315D01*
X0164993Y0114254D01*
X0164984Y0114195D01*
X0164971Y0114136D01*
X0164955Y0114077D01*
X0164935Y0114020D01*
X0164912Y0113965D01*
X0164885Y0113910D01*
X0164856Y0113858D01*
X0164823Y0113807D01*
X0164787Y0113758D01*
X0164749Y0113712D01*
X0164707Y0113668D01*
X0164663Y0113626D01*
X0164617Y0113588D01*
X0164568Y0113552D01*
X0164517Y0113519D01*
X0164465Y0113490D01*
X0164410Y0113463D01*
X0164355Y0113440D01*
X0164298Y0113420D01*
X0164239Y0113404D01*
X0164180Y0113391D01*
X0164121Y0113382D01*
X0164060Y0113377D01*
X0164000Y0113375D01*
X0147000Y0113375D01*
X0146940Y0113377D01*
X0146879Y0113382D01*
X0146820Y0113391D01*
X0146761Y0113404D01*
X0146702Y0113420D01*
X0146645Y0113440D01*
X0146590Y0113463D01*
X0146535Y0113490D01*
X0146483Y0113519D01*
X0146432Y0113552D01*
X0146383Y0113588D01*
X0146337Y0113626D01*
X0146293Y0113668D01*
X0146251Y0113712D01*
X0146213Y0113758D01*
X0146177Y0113807D01*
X0146144Y0113858D01*
X0146115Y0113910D01*
X0146088Y0113965D01*
X0146065Y0114020D01*
X0146045Y0114077D01*
X0146029Y0114136D01*
X0146016Y0114195D01*
X0146007Y0114254D01*
X0146002Y0114315D01*
X0146000Y0114375D01*
X0146000Y0120375D01*
X0146002Y0120435D01*
X0146007Y0120496D01*
X0146016Y0120555D01*
X0146029Y0120614D01*
X0146045Y0120673D01*
X0146065Y0120730D01*
X0146088Y0120785D01*
X0146115Y0120840D01*
X0146144Y0120892D01*
X0146177Y0120943D01*
X0146213Y0120992D01*
X0146251Y0121038D01*
X0146293Y0121082D01*
X0146337Y0121124D01*
X0146383Y0121162D01*
X0146432Y0121198D01*
X0146483Y0121231D01*
X0146535Y0121260D01*
X0146590Y0121287D01*
X0146645Y0121310D01*
X0146702Y0121330D01*
X0146761Y0121346D01*
X0146820Y0121359D01*
X0146879Y0121368D01*
X0146940Y0121373D01*
X0147000Y0121375D01*
X0164000Y0121375D01*
X0164060Y0121373D01*
X0164121Y0121368D01*
X0164180Y0121359D01*
X0164239Y0121346D01*
X0164298Y0121330D01*
X0164355Y0121310D01*
X0164410Y0121287D01*
X0164465Y0121260D01*
X0164517Y0121231D01*
X0164568Y0121198D01*
X0164617Y0121162D01*
X0164663Y0121124D01*
X0164707Y0121082D01*
X0164749Y0121038D01*
X0164787Y0120992D01*
X0164823Y0120943D01*
X0164856Y0120892D01*
X0164885Y0120840D01*
X0164912Y0120785D01*
X0164935Y0120730D01*
X0164955Y0120673D01*
X0164971Y0120614D01*
X0164984Y0120555D01*
X0164993Y0120496D01*
X0164998Y0120435D01*
X0165000Y0120375D01*
X0164000Y0105500D02*
X0147000Y0105500D01*
X0146940Y0105498D01*
X0146879Y0105493D01*
X0146820Y0105484D01*
X0146761Y0105471D01*
X0146702Y0105455D01*
X0146645Y0105435D01*
X0146590Y0105412D01*
X0146535Y0105385D01*
X0146483Y0105356D01*
X0146432Y0105323D01*
X0146383Y0105287D01*
X0146337Y0105249D01*
X0146293Y0105207D01*
X0146251Y0105163D01*
X0146213Y0105117D01*
X0146177Y0105068D01*
X0146144Y0105017D01*
X0146115Y0104965D01*
X0146088Y0104910D01*
X0146065Y0104855D01*
X0146045Y0104798D01*
X0146029Y0104739D01*
X0146016Y0104680D01*
X0146007Y0104621D01*
X0146002Y0104560D01*
X0146000Y0104500D01*
X0146000Y0098500D01*
X0146002Y0098440D01*
X0146007Y0098379D01*
X0146016Y0098320D01*
X0146029Y0098261D01*
X0146045Y0098202D01*
X0146065Y0098145D01*
X0146088Y0098090D01*
X0146115Y0098035D01*
X0146144Y0097983D01*
X0146177Y0097932D01*
X0146213Y0097883D01*
X0146251Y0097837D01*
X0146293Y0097793D01*
X0146337Y0097751D01*
X0146383Y0097713D01*
X0146432Y0097677D01*
X0146483Y0097644D01*
X0146535Y0097615D01*
X0146590Y0097588D01*
X0146645Y0097565D01*
X0146702Y0097545D01*
X0146761Y0097529D01*
X0146820Y0097516D01*
X0146879Y0097507D01*
X0146940Y0097502D01*
X0147000Y0097500D01*
X0164000Y0097500D01*
X0164060Y0097502D01*
X0164121Y0097507D01*
X0164180Y0097516D01*
X0164239Y0097529D01*
X0164298Y0097545D01*
X0164355Y0097565D01*
X0164410Y0097588D01*
X0164465Y0097615D01*
X0164517Y0097644D01*
X0164568Y0097677D01*
X0164617Y0097713D01*
X0164663Y0097751D01*
X0164707Y0097793D01*
X0164749Y0097837D01*
X0164787Y0097883D01*
X0164823Y0097932D01*
X0164856Y0097983D01*
X0164885Y0098035D01*
X0164912Y0098090D01*
X0164935Y0098145D01*
X0164955Y0098202D01*
X0164971Y0098261D01*
X0164984Y0098320D01*
X0164993Y0098379D01*
X0164998Y0098440D01*
X0165000Y0098500D01*
X0165000Y0104500D01*
X0164998Y0104560D01*
X0164993Y0104621D01*
X0164984Y0104680D01*
X0164971Y0104739D01*
X0164955Y0104798D01*
X0164935Y0104855D01*
X0164912Y0104910D01*
X0164885Y0104965D01*
X0164856Y0105017D01*
X0164823Y0105068D01*
X0164787Y0105117D01*
X0164749Y0105163D01*
X0164707Y0105207D01*
X0164663Y0105249D01*
X0164617Y0105287D01*
X0164568Y0105323D01*
X0164517Y0105356D01*
X0164465Y0105385D01*
X0164410Y0105412D01*
X0164355Y0105435D01*
X0164298Y0105455D01*
X0164239Y0105471D01*
X0164180Y0105484D01*
X0164121Y0105493D01*
X0164060Y0105498D01*
X0164000Y0105500D01*
X0116898Y0087413D02*
X0115830Y0087413D01*
X0113695Y0087413D02*
X0109425Y0087413D01*
X0109425Y0086346D02*
X0109425Y0088481D01*
X0110493Y0091710D02*
X0109425Y0092778D01*
X0110493Y0091710D02*
X0114763Y0091710D01*
X0113695Y0090643D02*
X0113695Y0092778D01*
X0110493Y0094940D02*
X0110493Y0096007D01*
X0109425Y0096007D01*
X0109425Y0094940D01*
X0110493Y0094940D01*
X0110493Y0098163D02*
X0109425Y0099230D01*
X0109425Y0101365D01*
X0110493Y0102433D01*
X0112628Y0102433D01*
X0113695Y0101365D01*
X0113695Y0099230D01*
X0112628Y0098163D01*
X0110493Y0098163D01*
X0111560Y0104608D02*
X0113695Y0106743D01*
X0113695Y0107811D01*
X0112628Y0109979D02*
X0110493Y0109979D01*
X0109425Y0111047D01*
X0109425Y0114250D01*
X0108357Y0114250D02*
X0113695Y0114250D01*
X0113695Y0111047D01*
X0112628Y0109979D01*
X0113695Y0104608D02*
X0109425Y0104608D01*
X0107290Y0112114D02*
X0107290Y0113182D01*
X0108357Y0114250D01*
X0113695Y0087413D02*
X0113695Y0086346D01*
X0113695Y0084177D02*
X0113695Y0083110D01*
X0111560Y0080975D01*
X0109425Y0080975D02*
X0113695Y0080975D01*
X0113695Y0077745D02*
X0109425Y0077745D01*
X0109425Y0076678D02*
X0109425Y0078813D01*
X0110493Y0074502D02*
X0109425Y0073435D01*
X0109425Y0070232D01*
X0107290Y0070232D02*
X0113695Y0070232D01*
X0113695Y0073435D01*
X0112628Y0074502D01*
X0110493Y0074502D01*
X0113695Y0076678D02*
X0113695Y0077745D01*
X0115830Y0077745D02*
X0116898Y0077745D01*
X0113695Y0068057D02*
X0113695Y0064854D01*
X0112628Y0063787D01*
X0111560Y0064854D01*
X0111560Y0066989D01*
X0110493Y0068057D01*
X0109425Y0066989D01*
X0109425Y0063787D01*
X0109425Y0061625D02*
X0109425Y0059490D01*
X0109425Y0060557D02*
X0115830Y0060557D01*
X0115830Y0059490D01*
X0112628Y0057314D02*
X0109425Y0057314D01*
X0109425Y0054112D01*
X0110493Y0053044D01*
X0111560Y0054112D01*
X0111560Y0057314D01*
X0112628Y0057314D02*
X0113695Y0056247D01*
X0113695Y0054112D01*
X0113695Y0050882D02*
X0113695Y0048747D01*
X0114763Y0049815D02*
X0110493Y0049815D01*
X0109425Y0050882D01*
X0109425Y0046585D02*
X0109425Y0044450D01*
X0109425Y0045518D02*
X0113695Y0045518D01*
X0113695Y0044450D01*
X0113695Y0042275D02*
X0113695Y0039072D01*
X0112628Y0038005D01*
X0110493Y0038005D01*
X0109425Y0039072D01*
X0109425Y0042275D01*
X0108357Y0042275D02*
X0113695Y0042275D01*
X0115830Y0045518D02*
X0116898Y0045518D01*
X0108357Y0042275D02*
X0107290Y0041207D01*
X0107290Y0040140D01*
X0109425Y0035843D02*
X0109425Y0033708D01*
X0109425Y0034775D02*
X0113695Y0034775D01*
X0113695Y0033708D01*
X0113695Y0031532D02*
X0113695Y0028330D01*
X0112628Y0027262D01*
X0110493Y0027262D01*
X0109425Y0028330D01*
X0109425Y0031532D01*
X0115830Y0031532D01*
X0115830Y0034775D02*
X0116898Y0034775D01*
X0110493Y0025107D02*
X0109425Y0025107D01*
X0109425Y0024039D01*
X0110493Y0024039D01*
X0110493Y0025107D01*
X0110493Y0021864D02*
X0113695Y0021864D01*
X0110493Y0021864D02*
X0109425Y0020797D01*
X0110493Y0019729D01*
X0109425Y0018661D01*
X0110493Y0017594D01*
X0113695Y0017594D01*
X0113695Y0015419D02*
X0110493Y0015419D01*
X0109425Y0014351D01*
X0110493Y0013284D01*
X0109425Y0012216D01*
X0110493Y0011148D01*
X0113695Y0011148D01*
X0113695Y0008973D02*
X0110493Y0008973D01*
X0109425Y0007906D01*
X0110493Y0006838D01*
X0109425Y0005770D01*
X0110493Y0004703D01*
X0113695Y0004703D01*
X0242296Y0073624D02*
X0250818Y0073624D01*
X0250652Y0073026D02*
X0242523Y0073026D01*
X0242749Y0072427D02*
X0251069Y0072427D01*
X0251487Y0071829D02*
X0242976Y0071829D01*
X0243202Y0071230D02*
X0251904Y0071230D01*
X0252322Y0070632D02*
X0243429Y0070632D01*
X0243655Y0070033D02*
X0252740Y0070033D01*
X0253157Y0069435D02*
X0243881Y0069435D01*
X0244108Y0068836D02*
X0246384Y0068836D01*
X0246587Y0068836D02*
X0253575Y0068836D01*
X0253018Y0068238D02*
X0247405Y0068238D01*
X0248223Y0067639D02*
X0252399Y0067639D01*
X0251780Y0067041D02*
X0249041Y0067041D01*
X0249859Y0066442D02*
X0251161Y0066442D01*
X0245296Y0068238D02*
X0244334Y0068238D01*
X0242070Y0074223D02*
X0251068Y0074223D01*
X0251317Y0074821D02*
X0241843Y0074821D01*
X0241905Y0075420D02*
X0251567Y0075420D01*
X0251816Y0076018D02*
X0242464Y0076018D01*
X0243022Y0076617D02*
X0252065Y0076617D01*
X0252315Y0077215D02*
X0243581Y0077215D01*
X0244140Y0077814D02*
X0252564Y0077814D01*
X0255316Y0078412D02*
X0244496Y0078412D01*
X0244484Y0079011D02*
X0257897Y0079011D01*
X0257883Y0079609D02*
X0244473Y0079609D01*
X0244461Y0080208D02*
X0257869Y0080208D01*
X0257855Y0080806D02*
X0244450Y0080806D01*
X0244438Y0081405D02*
X0257840Y0081405D01*
X0257826Y0082003D02*
X0244427Y0082003D01*
X0244415Y0082602D02*
X0257812Y0082602D01*
X0257257Y0083201D02*
X0244404Y0083201D01*
X0244012Y0083799D02*
X0254025Y0083799D01*
X0252280Y0084398D02*
X0243431Y0084398D01*
X0242850Y0084996D02*
X0252038Y0084996D01*
X0251796Y0085595D02*
X0242268Y0085595D01*
X0241687Y0086193D02*
X0251554Y0086193D01*
D15*
X0252700Y0084200D02*
X0258000Y0083200D01*
X0258000Y0078700D01*
X0252800Y0077700D01*
X0250900Y0073100D02*
X0253900Y0068800D01*
X0250600Y0065500D01*
X0246400Y0068400D01*
X0244600Y0067400D01*
X0241300Y0075400D01*
X0235600Y0075400D02*
X0232300Y0067400D01*
X0230500Y0068400D01*
X0226300Y0065600D01*
X0223100Y0068800D01*
X0226000Y0073100D01*
X0224200Y0077700D02*
X0219000Y0078700D01*
X0219000Y0083200D01*
X0224300Y0084200D01*
X0226200Y0088600D02*
X0223100Y0093100D01*
X0226300Y0096300D01*
X0230900Y0093200D01*
X0235200Y0095000D02*
X0236200Y0100400D01*
X0240800Y0100400D01*
X0241800Y0095000D01*
X0246100Y0093200D02*
X0250600Y0096300D01*
X0253900Y0093100D01*
X0250800Y0088600D01*
X0246101Y0093200D02*
X0245791Y0093379D01*
X0245477Y0093549D01*
X0245160Y0093712D01*
X0244838Y0093868D01*
X0244513Y0094015D01*
X0244184Y0094154D01*
X0243852Y0094286D01*
X0243516Y0094409D01*
X0243178Y0094524D01*
X0242837Y0094631D01*
X0242494Y0094729D01*
X0242148Y0094819D01*
X0241801Y0094900D01*
X0250800Y0088600D02*
X0250983Y0088309D01*
X0251159Y0088013D01*
X0251328Y0087714D01*
X0251490Y0087410D01*
X0251644Y0087103D01*
X0251792Y0086793D01*
X0251932Y0086478D01*
X0252064Y0086161D01*
X0252189Y0085841D01*
X0252307Y0085518D01*
X0252417Y0085192D01*
X0252519Y0084863D01*
X0252613Y0084533D01*
X0252700Y0084200D01*
X0235200Y0094900D02*
X0234861Y0094816D01*
X0234523Y0094725D01*
X0234187Y0094625D01*
X0233854Y0094518D01*
X0233524Y0094402D01*
X0233197Y0094279D01*
X0232872Y0094147D01*
X0232551Y0094008D01*
X0232233Y0093862D01*
X0231919Y0093707D01*
X0231609Y0093545D01*
X0231303Y0093376D01*
X0231001Y0093200D01*
X0235600Y0075400D02*
X0235465Y0075475D01*
X0235331Y0075553D01*
X0235200Y0075635D01*
X0235071Y0075720D01*
X0234944Y0075809D01*
X0234819Y0075901D01*
X0234697Y0075996D01*
X0234577Y0076094D01*
X0234460Y0076195D01*
X0234346Y0076299D01*
X0234234Y0076406D01*
X0234125Y0076515D01*
X0234019Y0076628D01*
X0233916Y0076743D01*
X0233815Y0076861D01*
X0233718Y0076982D01*
X0233624Y0077104D01*
X0233533Y0077230D01*
X0233446Y0077357D01*
X0233361Y0077487D01*
X0233281Y0077619D01*
X0233203Y0077753D01*
X0233129Y0077889D01*
X0233059Y0078026D01*
X0232992Y0078166D01*
X0232928Y0078307D01*
X0232869Y0078450D01*
X0232813Y0078594D01*
X0232760Y0078740D01*
X0232712Y0078887D01*
X0232667Y0079035D01*
X0232626Y0079184D01*
X0232589Y0079334D01*
X0232556Y0079485D01*
X0232527Y0079637D01*
X0232501Y0079790D01*
X0232480Y0079943D01*
X0232462Y0080097D01*
X0232449Y0080251D01*
X0232439Y0080405D01*
X0232434Y0080560D01*
X0232432Y0080715D01*
X0232434Y0080869D01*
X0232441Y0081024D01*
X0232451Y0081178D01*
X0232465Y0081332D01*
X0232484Y0081486D01*
X0232506Y0081639D01*
X0232532Y0081792D01*
X0232562Y0081943D01*
X0232596Y0082094D01*
X0232634Y0082244D01*
X0232675Y0082393D01*
X0232721Y0082541D01*
X0232770Y0082688D01*
X0232823Y0082833D01*
X0232880Y0082977D01*
X0232940Y0083120D01*
X0233004Y0083261D01*
X0233072Y0083400D01*
X0233143Y0083537D01*
X0233217Y0083673D01*
X0233296Y0083806D01*
X0233377Y0083938D01*
X0233462Y0084067D01*
X0233550Y0084194D01*
X0233642Y0084319D01*
X0233736Y0084441D01*
X0233834Y0084561D01*
X0233935Y0084679D01*
X0234039Y0084794D01*
X0234145Y0084906D01*
X0234255Y0085015D01*
X0234367Y0085121D01*
X0234482Y0085225D01*
X0234600Y0085325D01*
X0234720Y0085423D01*
X0234843Y0085517D01*
X0234968Y0085608D01*
X0235095Y0085696D01*
X0235225Y0085781D01*
X0235356Y0085862D01*
X0235490Y0085940D01*
X0235626Y0086014D01*
X0235763Y0086085D01*
X0235903Y0086152D01*
X0236044Y0086216D01*
X0236186Y0086276D01*
X0236330Y0086332D01*
X0236476Y0086385D01*
X0236623Y0086434D01*
X0236771Y0086479D01*
X0236920Y0086520D01*
X0237070Y0086558D01*
X0237221Y0086591D01*
X0237373Y0086621D01*
X0237525Y0086647D01*
X0237678Y0086668D01*
X0237832Y0086686D01*
X0237986Y0086700D01*
X0238141Y0086710D01*
X0238295Y0086716D01*
X0238450Y0086718D01*
X0238605Y0086716D01*
X0238759Y0086710D01*
X0238914Y0086700D01*
X0239068Y0086686D01*
X0239222Y0086668D01*
X0239375Y0086647D01*
X0239527Y0086621D01*
X0239679Y0086591D01*
X0239830Y0086558D01*
X0239980Y0086520D01*
X0240129Y0086479D01*
X0240277Y0086434D01*
X0240424Y0086385D01*
X0240570Y0086332D01*
X0240714Y0086276D01*
X0240856Y0086216D01*
X0240997Y0086152D01*
X0241137Y0086085D01*
X0241274Y0086014D01*
X0241410Y0085940D01*
X0241544Y0085862D01*
X0241675Y0085781D01*
X0241805Y0085696D01*
X0241932Y0085608D01*
X0242057Y0085517D01*
X0242180Y0085423D01*
X0242300Y0085325D01*
X0242418Y0085225D01*
X0242533Y0085121D01*
X0242645Y0085015D01*
X0242755Y0084906D01*
X0242861Y0084794D01*
X0242965Y0084679D01*
X0243066Y0084561D01*
X0243164Y0084441D01*
X0243258Y0084319D01*
X0243350Y0084194D01*
X0243438Y0084067D01*
X0243523Y0083938D01*
X0243604Y0083806D01*
X0243683Y0083673D01*
X0243757Y0083537D01*
X0243828Y0083400D01*
X0243896Y0083261D01*
X0243960Y0083120D01*
X0244020Y0082977D01*
X0244077Y0082833D01*
X0244130Y0082688D01*
X0244179Y0082541D01*
X0244225Y0082393D01*
X0244266Y0082244D01*
X0244304Y0082094D01*
X0244338Y0081943D01*
X0244368Y0081792D01*
X0244394Y0081639D01*
X0244416Y0081486D01*
X0244435Y0081332D01*
X0244449Y0081178D01*
X0244459Y0081024D01*
X0244466Y0080869D01*
X0244468Y0080715D01*
X0244466Y0080560D01*
X0244461Y0080405D01*
X0244451Y0080251D01*
X0244438Y0080097D01*
X0244420Y0079943D01*
X0244399Y0079790D01*
X0244373Y0079637D01*
X0244344Y0079485D01*
X0244311Y0079334D01*
X0244274Y0079184D01*
X0244233Y0079035D01*
X0244188Y0078887D01*
X0244140Y0078740D01*
X0244087Y0078594D01*
X0244031Y0078450D01*
X0243972Y0078307D01*
X0243908Y0078166D01*
X0243841Y0078026D01*
X0243771Y0077889D01*
X0243697Y0077753D01*
X0243619Y0077619D01*
X0243539Y0077487D01*
X0243454Y0077357D01*
X0243367Y0077230D01*
X0243276Y0077104D01*
X0243182Y0076982D01*
X0243085Y0076861D01*
X0242984Y0076743D01*
X0242881Y0076628D01*
X0242775Y0076515D01*
X0242666Y0076406D01*
X0242554Y0076299D01*
X0242440Y0076195D01*
X0242323Y0076094D01*
X0242203Y0075996D01*
X0242081Y0075901D01*
X0241956Y0075809D01*
X0241829Y0075720D01*
X0241700Y0075635D01*
X0241569Y0075553D01*
X0241435Y0075475D01*
X0241300Y0075400D01*
X0250900Y0073100D02*
X0251080Y0073406D01*
X0251252Y0073716D01*
X0251416Y0074030D01*
X0251573Y0074348D01*
X0251722Y0074669D01*
X0251864Y0074995D01*
X0251997Y0075323D01*
X0252122Y0075655D01*
X0252239Y0075989D01*
X0252348Y0076327D01*
X0252448Y0076667D01*
X0252541Y0077009D01*
X0252625Y0077354D01*
X0252700Y0077700D01*
X0226200Y0088600D02*
X0226017Y0088308D01*
X0225841Y0088013D01*
X0225673Y0087713D01*
X0225511Y0087410D01*
X0225356Y0087103D01*
X0225209Y0086792D01*
X0225069Y0086478D01*
X0224936Y0086161D01*
X0224811Y0085840D01*
X0224693Y0085517D01*
X0224584Y0085191D01*
X0224481Y0084863D01*
X0224387Y0084532D01*
X0224300Y0084200D01*
X0224200Y0077700D02*
X0224275Y0077354D01*
X0224359Y0077009D01*
X0224452Y0076667D01*
X0224552Y0076327D01*
X0224661Y0075989D01*
X0224778Y0075655D01*
X0224903Y0075323D01*
X0225036Y0074995D01*
X0225178Y0074669D01*
X0225327Y0074348D01*
X0225484Y0074030D01*
X0225648Y0073716D01*
X0225820Y0073406D01*
X0226000Y0073100D01*
M02*
