G75*
%MOIN*%
%OFA0B0*%
%FSLAX25Y25*%
%IPPOS*%
%LPD*%
%AMOC8*
5,1,8,0,0,1.08239X$1,22.5*
%
%ADD10C,0.00600*%
%ADD11C,0.00400*%
%ADD12R,0.80000X0.13750*%
%ADD13C,0.00300*%
%ADD14C,0.00500*%
%ADD15C,0.00000*%
D10*
X0008870Y0012765D02*
X0013141Y0012765D01*
X0013141Y0019170D01*
X0015316Y0017035D02*
X0015316Y0012765D01*
X0015316Y0015967D02*
X0019586Y0015967D01*
X0019586Y0017035D02*
X0019586Y0012765D01*
X0021748Y0012765D02*
X0023883Y0012765D01*
X0022816Y0012765D02*
X0022816Y0019170D01*
X0023883Y0019170D02*
X0021748Y0019170D01*
X0019586Y0017035D02*
X0017451Y0019170D01*
X0015316Y0017035D01*
X0026058Y0018102D02*
X0026058Y0015967D01*
X0027126Y0014900D01*
X0030329Y0014900D01*
X0030329Y0012765D02*
X0030329Y0019170D01*
X0027126Y0019170D01*
X0026058Y0018102D01*
X0028194Y0014900D02*
X0026058Y0012765D01*
X0032504Y0012765D02*
X0036774Y0012765D01*
X0036774Y0019170D01*
X0032504Y0019170D01*
X0034639Y0015967D02*
X0036774Y0015967D01*
X0038949Y0014900D02*
X0038949Y0013832D01*
X0040017Y0012765D01*
X0042152Y0012765D01*
X0043220Y0013832D01*
X0042152Y0015967D02*
X0040017Y0015967D01*
X0038949Y0014900D01*
X0038949Y0018102D02*
X0040017Y0019170D01*
X0042152Y0019170D01*
X0043220Y0018102D01*
X0043220Y0017035D01*
X0042152Y0015967D01*
X0054066Y0013832D02*
X0055133Y0012765D01*
X0057269Y0012765D01*
X0058336Y0013832D01*
X0054066Y0018102D01*
X0054066Y0013832D01*
X0058336Y0013832D02*
X0058336Y0018102D01*
X0057269Y0019170D01*
X0055133Y0019170D01*
X0054066Y0018102D01*
X0066957Y0018102D02*
X0068024Y0019170D01*
X0070160Y0019170D01*
X0071227Y0018102D01*
X0071227Y0013832D01*
X0070160Y0012765D01*
X0068024Y0012765D01*
X0066957Y0013832D01*
X0073402Y0012765D02*
X0077673Y0012765D01*
X0073402Y0017035D01*
X0073402Y0018102D01*
X0074470Y0019170D01*
X0076605Y0019170D01*
X0077673Y0018102D01*
X0079835Y0019170D02*
X0081970Y0019170D01*
X0080902Y0019170D02*
X0080902Y0012765D01*
X0079835Y0012765D02*
X0081970Y0012765D01*
X0099066Y0012765D02*
X0103336Y0012765D01*
X0101201Y0012765D02*
X0101201Y0019170D01*
X0103336Y0017035D01*
X0111957Y0018102D02*
X0113024Y0019170D01*
X0115160Y0019170D01*
X0116227Y0018102D01*
X0116227Y0013832D01*
X0115160Y0012765D01*
X0113024Y0012765D01*
X0111957Y0013832D01*
X0118402Y0012765D02*
X0122673Y0012765D01*
X0118402Y0017035D01*
X0118402Y0018102D01*
X0119470Y0019170D01*
X0121605Y0019170D01*
X0122673Y0018102D01*
X0124835Y0019170D02*
X0126970Y0019170D01*
X0125902Y0019170D02*
X0125902Y0012765D01*
X0124835Y0012765D02*
X0126970Y0012765D01*
X0162113Y0013832D02*
X0163180Y0012765D01*
X0165316Y0012765D01*
X0166383Y0013832D01*
X0162113Y0018102D01*
X0162113Y0013832D01*
X0166383Y0013832D02*
X0166383Y0018102D01*
X0165316Y0019170D01*
X0163180Y0019170D01*
X0162113Y0018102D01*
X0175004Y0019170D02*
X0175004Y0012765D01*
X0179274Y0019170D01*
X0179274Y0012765D01*
X0181449Y0012765D02*
X0181449Y0017035D01*
X0183585Y0019170D01*
X0185720Y0017035D01*
X0185720Y0012765D01*
X0185720Y0015967D02*
X0181449Y0015967D01*
X0207113Y0012765D02*
X0211383Y0012765D01*
X0209248Y0012765D02*
X0209248Y0019170D01*
X0211383Y0017035D01*
X0220004Y0019170D02*
X0220004Y0012765D01*
X0224274Y0019170D01*
X0224274Y0012765D01*
X0226449Y0012765D02*
X0226449Y0017035D01*
X0228585Y0019170D01*
X0230720Y0017035D01*
X0230720Y0012765D01*
X0230720Y0015967D02*
X0226449Y0015967D01*
X0252738Y0017035D02*
X0252738Y0018102D01*
X0253805Y0019170D01*
X0255941Y0019170D01*
X0257008Y0018102D01*
X0252738Y0017035D02*
X0257008Y0012765D01*
X0252738Y0012765D01*
X0265629Y0012765D02*
X0265629Y0019170D01*
X0269899Y0019170D02*
X0265629Y0012765D01*
X0269899Y0012765D02*
X0269899Y0019170D01*
X0272074Y0017035D02*
X0272074Y0012765D01*
X0272074Y0015967D02*
X0276345Y0015967D01*
X0276345Y0017035D02*
X0276345Y0012765D01*
X0276345Y0017035D02*
X0274210Y0019170D01*
X0272074Y0017035D01*
X0297113Y0017035D02*
X0298180Y0015967D01*
X0297113Y0014900D01*
X0297113Y0013832D01*
X0298180Y0012765D01*
X0300316Y0012765D01*
X0301383Y0013832D01*
X0299248Y0015967D02*
X0298180Y0015967D01*
X0297113Y0017035D02*
X0297113Y0018102D01*
X0298180Y0019170D01*
X0300316Y0019170D01*
X0301383Y0018102D01*
X0310004Y0019170D02*
X0310004Y0012765D01*
X0314274Y0019170D01*
X0314274Y0012765D01*
X0316449Y0012765D02*
X0316449Y0017035D01*
X0318585Y0019170D01*
X0320720Y0017035D01*
X0320720Y0012765D01*
X0320720Y0015967D02*
X0316449Y0015967D01*
X0276770Y0043215D02*
X0276770Y0049215D01*
X0276768Y0049275D01*
X0276763Y0049336D01*
X0276754Y0049395D01*
X0276741Y0049454D01*
X0276725Y0049513D01*
X0276705Y0049570D01*
X0276682Y0049625D01*
X0276655Y0049680D01*
X0276626Y0049732D01*
X0276593Y0049783D01*
X0276557Y0049832D01*
X0276519Y0049878D01*
X0276477Y0049922D01*
X0276433Y0049964D01*
X0276387Y0050002D01*
X0276338Y0050038D01*
X0276287Y0050071D01*
X0276235Y0050100D01*
X0276180Y0050127D01*
X0276125Y0050150D01*
X0276068Y0050170D01*
X0276009Y0050186D01*
X0275950Y0050199D01*
X0275891Y0050208D01*
X0275830Y0050213D01*
X0275770Y0050215D01*
X0258770Y0050215D01*
X0258710Y0050213D01*
X0258649Y0050208D01*
X0258590Y0050199D01*
X0258531Y0050186D01*
X0258472Y0050170D01*
X0258415Y0050150D01*
X0258360Y0050127D01*
X0258305Y0050100D01*
X0258253Y0050071D01*
X0258202Y0050038D01*
X0258153Y0050002D01*
X0258107Y0049964D01*
X0258063Y0049922D01*
X0258021Y0049878D01*
X0257983Y0049832D01*
X0257947Y0049783D01*
X0257914Y0049732D01*
X0257885Y0049680D01*
X0257858Y0049625D01*
X0257835Y0049570D01*
X0257815Y0049513D01*
X0257799Y0049454D01*
X0257786Y0049395D01*
X0257777Y0049336D01*
X0257772Y0049275D01*
X0257770Y0049215D01*
X0257770Y0043215D01*
X0257772Y0043155D01*
X0257777Y0043094D01*
X0257786Y0043035D01*
X0257799Y0042976D01*
X0257815Y0042917D01*
X0257835Y0042860D01*
X0257858Y0042805D01*
X0257885Y0042750D01*
X0257914Y0042698D01*
X0257947Y0042647D01*
X0257983Y0042598D01*
X0258021Y0042552D01*
X0258063Y0042508D01*
X0258107Y0042466D01*
X0258153Y0042428D01*
X0258202Y0042392D01*
X0258253Y0042359D01*
X0258305Y0042330D01*
X0258360Y0042303D01*
X0258415Y0042280D01*
X0258472Y0042260D01*
X0258531Y0042244D01*
X0258590Y0042231D01*
X0258649Y0042222D01*
X0258710Y0042217D01*
X0258770Y0042215D01*
X0275770Y0042215D01*
X0275830Y0042217D01*
X0275891Y0042222D01*
X0275950Y0042231D01*
X0276009Y0042244D01*
X0276068Y0042260D01*
X0276125Y0042280D01*
X0276180Y0042303D01*
X0276235Y0042330D01*
X0276287Y0042359D01*
X0276338Y0042392D01*
X0276387Y0042428D01*
X0276433Y0042466D01*
X0276477Y0042508D01*
X0276519Y0042552D01*
X0276557Y0042598D01*
X0276593Y0042647D01*
X0276626Y0042698D01*
X0276655Y0042750D01*
X0276682Y0042805D01*
X0276705Y0042860D01*
X0276725Y0042917D01*
X0276741Y0042976D01*
X0276754Y0043035D01*
X0276763Y0043094D01*
X0276768Y0043155D01*
X0276770Y0043215D01*
X0275770Y0059715D02*
X0258770Y0059715D01*
X0258710Y0059717D01*
X0258649Y0059722D01*
X0258590Y0059731D01*
X0258531Y0059744D01*
X0258472Y0059760D01*
X0258415Y0059780D01*
X0258360Y0059803D01*
X0258305Y0059830D01*
X0258253Y0059859D01*
X0258202Y0059892D01*
X0258153Y0059928D01*
X0258107Y0059966D01*
X0258063Y0060008D01*
X0258021Y0060052D01*
X0257983Y0060098D01*
X0257947Y0060147D01*
X0257914Y0060198D01*
X0257885Y0060250D01*
X0257858Y0060305D01*
X0257835Y0060360D01*
X0257815Y0060417D01*
X0257799Y0060476D01*
X0257786Y0060535D01*
X0257777Y0060594D01*
X0257772Y0060655D01*
X0257770Y0060715D01*
X0257770Y0066715D01*
X0257772Y0066775D01*
X0257777Y0066836D01*
X0257786Y0066895D01*
X0257799Y0066954D01*
X0257815Y0067013D01*
X0257835Y0067070D01*
X0257858Y0067125D01*
X0257885Y0067180D01*
X0257914Y0067232D01*
X0257947Y0067283D01*
X0257983Y0067332D01*
X0258021Y0067378D01*
X0258063Y0067422D01*
X0258107Y0067464D01*
X0258153Y0067502D01*
X0258202Y0067538D01*
X0258253Y0067571D01*
X0258305Y0067600D01*
X0258360Y0067627D01*
X0258415Y0067650D01*
X0258472Y0067670D01*
X0258531Y0067686D01*
X0258590Y0067699D01*
X0258649Y0067708D01*
X0258710Y0067713D01*
X0258770Y0067715D01*
X0275770Y0067715D01*
X0275830Y0067713D01*
X0275891Y0067708D01*
X0275950Y0067699D01*
X0276009Y0067686D01*
X0276068Y0067670D01*
X0276125Y0067650D01*
X0276180Y0067627D01*
X0276235Y0067600D01*
X0276287Y0067571D01*
X0276338Y0067538D01*
X0276387Y0067502D01*
X0276433Y0067464D01*
X0276477Y0067422D01*
X0276519Y0067378D01*
X0276557Y0067332D01*
X0276593Y0067283D01*
X0276626Y0067232D01*
X0276655Y0067180D01*
X0276682Y0067125D01*
X0276705Y0067070D01*
X0276725Y0067013D01*
X0276741Y0066954D01*
X0276754Y0066895D01*
X0276763Y0066836D01*
X0276768Y0066775D01*
X0276770Y0066715D01*
X0276770Y0060715D01*
X0276768Y0060655D01*
X0276763Y0060594D01*
X0276754Y0060535D01*
X0276741Y0060476D01*
X0276725Y0060417D01*
X0276705Y0060360D01*
X0276682Y0060305D01*
X0276655Y0060250D01*
X0276626Y0060198D01*
X0276593Y0060147D01*
X0276557Y0060098D01*
X0276519Y0060052D01*
X0276477Y0060008D01*
X0276433Y0059966D01*
X0276387Y0059928D01*
X0276338Y0059892D01*
X0276287Y0059859D01*
X0276235Y0059830D01*
X0276180Y0059803D01*
X0276125Y0059780D01*
X0276068Y0059760D01*
X0276009Y0059744D01*
X0275950Y0059731D01*
X0275891Y0059722D01*
X0275830Y0059717D01*
X0275770Y0059715D01*
X0316770Y0129715D02*
X0327770Y0129715D01*
X0327830Y0129717D01*
X0327891Y0129722D01*
X0327950Y0129731D01*
X0328009Y0129744D01*
X0328068Y0129760D01*
X0328125Y0129780D01*
X0328180Y0129803D01*
X0328235Y0129830D01*
X0328287Y0129859D01*
X0328338Y0129892D01*
X0328387Y0129928D01*
X0328433Y0129966D01*
X0328477Y0130008D01*
X0328519Y0130052D01*
X0328557Y0130098D01*
X0328593Y0130147D01*
X0328626Y0130198D01*
X0328655Y0130250D01*
X0328682Y0130305D01*
X0328705Y0130360D01*
X0328725Y0130417D01*
X0328741Y0130476D01*
X0328754Y0130535D01*
X0328763Y0130594D01*
X0328768Y0130655D01*
X0328770Y0130715D01*
X0328770Y0136715D01*
X0328768Y0136775D01*
X0328763Y0136836D01*
X0328754Y0136895D01*
X0328741Y0136954D01*
X0328725Y0137013D01*
X0328705Y0137070D01*
X0328682Y0137125D01*
X0328655Y0137180D01*
X0328626Y0137232D01*
X0328593Y0137283D01*
X0328557Y0137332D01*
X0328519Y0137378D01*
X0328477Y0137422D01*
X0328433Y0137464D01*
X0328387Y0137502D01*
X0328338Y0137538D01*
X0328287Y0137571D01*
X0328235Y0137600D01*
X0328180Y0137627D01*
X0328125Y0137650D01*
X0328068Y0137670D01*
X0328009Y0137686D01*
X0327950Y0137699D01*
X0327891Y0137708D01*
X0327830Y0137713D01*
X0327770Y0137715D01*
X0316770Y0137715D01*
X0316710Y0137713D01*
X0316649Y0137708D01*
X0316590Y0137699D01*
X0316531Y0137686D01*
X0316472Y0137670D01*
X0316415Y0137650D01*
X0316360Y0137627D01*
X0316305Y0137600D01*
X0316253Y0137571D01*
X0316202Y0137538D01*
X0316153Y0137502D01*
X0316107Y0137464D01*
X0316063Y0137422D01*
X0316021Y0137378D01*
X0315983Y0137332D01*
X0315947Y0137283D01*
X0315914Y0137232D01*
X0315885Y0137180D01*
X0315858Y0137125D01*
X0315835Y0137070D01*
X0315815Y0137013D01*
X0315799Y0136954D01*
X0315786Y0136895D01*
X0315777Y0136836D01*
X0315772Y0136775D01*
X0315770Y0136715D01*
X0315770Y0130715D01*
X0315772Y0130655D01*
X0315777Y0130594D01*
X0315786Y0130535D01*
X0315799Y0130476D01*
X0315815Y0130417D01*
X0315835Y0130360D01*
X0315858Y0130305D01*
X0315885Y0130250D01*
X0315914Y0130198D01*
X0315947Y0130147D01*
X0315983Y0130098D01*
X0316021Y0130052D01*
X0316063Y0130008D01*
X0316107Y0129966D01*
X0316153Y0129928D01*
X0316202Y0129892D01*
X0316253Y0129859D01*
X0316305Y0129830D01*
X0316360Y0129803D01*
X0316415Y0129780D01*
X0316472Y0129760D01*
X0316531Y0129744D01*
X0316590Y0129731D01*
X0316649Y0129722D01*
X0316710Y0129717D01*
X0316770Y0129715D01*
X0275720Y0207765D02*
X0273585Y0207765D01*
X0274652Y0207765D02*
X0274652Y0214170D01*
X0273585Y0214170D02*
X0275720Y0214170D01*
X0271423Y0213102D02*
X0271423Y0208832D01*
X0270355Y0207765D01*
X0268220Y0207765D01*
X0267152Y0208832D01*
X0267152Y0213102D01*
X0268220Y0214170D01*
X0270355Y0214170D01*
X0271423Y0213102D01*
X0258532Y0213102D02*
X0257464Y0214170D01*
X0255329Y0214170D01*
X0254261Y0213102D01*
X0254261Y0212035D01*
X0258532Y0207765D01*
X0254261Y0207765D01*
X0229470Y0207765D02*
X0227335Y0207765D01*
X0228402Y0207765D02*
X0228402Y0214170D01*
X0227335Y0214170D02*
X0229470Y0214170D01*
X0225173Y0213102D02*
X0225173Y0208832D01*
X0224105Y0207765D01*
X0221970Y0207765D01*
X0220902Y0208832D01*
X0220902Y0213102D01*
X0221970Y0214170D01*
X0224105Y0214170D01*
X0225173Y0213102D01*
X0212282Y0212035D02*
X0210147Y0214170D01*
X0210147Y0207765D01*
X0212282Y0207765D02*
X0208011Y0207765D01*
X0185720Y0207765D02*
X0183585Y0207765D01*
X0184652Y0207765D02*
X0184652Y0214170D01*
X0183585Y0214170D02*
X0185720Y0214170D01*
X0181423Y0213102D02*
X0181423Y0208832D01*
X0180355Y0207765D01*
X0178220Y0207765D01*
X0177152Y0208832D01*
X0177152Y0213102D01*
X0178220Y0214170D01*
X0180355Y0214170D01*
X0181423Y0213102D01*
X0168532Y0213102D02*
X0168532Y0208832D01*
X0164261Y0213102D01*
X0164261Y0208832D01*
X0165329Y0207765D01*
X0167464Y0207765D01*
X0168532Y0208832D01*
X0168532Y0213102D02*
X0167464Y0214170D01*
X0165329Y0214170D01*
X0164261Y0213102D01*
X0299261Y0213285D02*
X0300329Y0212217D01*
X0299261Y0211150D01*
X0299261Y0210082D01*
X0300329Y0209015D01*
X0302464Y0209015D01*
X0303532Y0210082D01*
X0301397Y0212217D02*
X0300329Y0212217D01*
X0299261Y0213285D02*
X0299261Y0214352D01*
X0300329Y0215420D01*
X0302464Y0215420D01*
X0303532Y0214352D01*
X0312152Y0214352D02*
X0312152Y0210082D01*
X0313220Y0209015D01*
X0315355Y0209015D01*
X0316423Y0210082D01*
X0316423Y0214352D01*
X0315355Y0215420D01*
X0313220Y0215420D01*
X0312152Y0214352D01*
X0318585Y0215420D02*
X0320720Y0215420D01*
X0319652Y0215420D02*
X0319652Y0209015D01*
X0318585Y0209015D02*
X0320720Y0209015D01*
D11*
X0125820Y0115784D02*
X0125820Y0113182D01*
X0124952Y0112315D01*
X0124085Y0113182D01*
X0123217Y0112315D01*
X0122350Y0113182D01*
X0122350Y0115784D01*
X0120663Y0115784D02*
X0120663Y0113182D01*
X0119796Y0112315D01*
X0118928Y0113182D01*
X0118061Y0112315D01*
X0117194Y0113182D01*
X0117194Y0115784D01*
X0115507Y0115784D02*
X0115507Y0113182D01*
X0114639Y0112315D01*
X0113772Y0113182D01*
X0112905Y0112315D01*
X0112037Y0113182D01*
X0112037Y0115784D01*
X0110350Y0113182D02*
X0109483Y0113182D01*
X0109483Y0112315D01*
X0110350Y0112315D01*
X0110350Y0113182D01*
X0107772Y0113182D02*
X0107772Y0114917D01*
X0106905Y0115784D01*
X0104303Y0115784D01*
X0102616Y0115784D02*
X0101748Y0115784D01*
X0101748Y0112315D01*
X0100881Y0112315D02*
X0102616Y0112315D01*
X0104303Y0112315D02*
X0106905Y0112315D01*
X0107772Y0113182D01*
X0104303Y0112315D02*
X0104303Y0117519D01*
X0101748Y0117519D02*
X0101748Y0118386D01*
X0098311Y0115784D02*
X0099178Y0114917D01*
X0099178Y0113182D01*
X0098311Y0112315D01*
X0095709Y0112315D01*
X0095709Y0111447D02*
X0095709Y0115784D01*
X0098311Y0115784D01*
X0094022Y0115784D02*
X0093155Y0115784D01*
X0093155Y0112315D01*
X0094022Y0112315D02*
X0092287Y0112315D01*
X0089717Y0113182D02*
X0088849Y0112315D01*
X0089717Y0113182D02*
X0089717Y0116652D01*
X0090584Y0115784D02*
X0088849Y0115784D01*
X0086279Y0115784D02*
X0084544Y0115784D01*
X0083677Y0114917D01*
X0083677Y0112315D01*
X0086279Y0112315D01*
X0087147Y0113182D01*
X0086279Y0114049D01*
X0083677Y0114049D01*
X0081990Y0112315D02*
X0080255Y0112315D01*
X0081123Y0112315D02*
X0081123Y0117519D01*
X0081990Y0117519D01*
X0078553Y0114917D02*
X0077685Y0115784D01*
X0075083Y0115784D01*
X0073396Y0115784D02*
X0070794Y0115784D01*
X0069927Y0114917D01*
X0069927Y0113182D01*
X0070794Y0112315D01*
X0073396Y0112315D01*
X0073396Y0110580D02*
X0073396Y0115784D01*
X0075950Y0114049D02*
X0077685Y0114049D01*
X0078553Y0114917D01*
X0078553Y0112315D02*
X0075950Y0112315D01*
X0075083Y0113182D01*
X0075950Y0114049D01*
X0075107Y0109119D02*
X0073372Y0109119D01*
X0072505Y0108252D01*
X0075975Y0104782D01*
X0075107Y0103915D01*
X0073372Y0103915D01*
X0072505Y0104782D01*
X0072505Y0108252D01*
X0070818Y0107384D02*
X0069083Y0109119D01*
X0069083Y0103915D01*
X0070818Y0103915D02*
X0067348Y0103915D01*
X0065662Y0104782D02*
X0064794Y0103915D01*
X0063059Y0103915D01*
X0062192Y0104782D01*
X0062192Y0105649D01*
X0063059Y0106517D01*
X0063927Y0106517D01*
X0063059Y0106517D02*
X0062192Y0107384D01*
X0062192Y0108252D01*
X0063059Y0109119D01*
X0064794Y0109119D01*
X0065662Y0108252D01*
X0066505Y0112315D02*
X0068240Y0112315D01*
X0067373Y0112315D02*
X0067373Y0115784D01*
X0068240Y0115784D01*
X0067373Y0117519D02*
X0067373Y0118386D01*
X0064802Y0115784D02*
X0064802Y0112315D01*
X0064802Y0114049D02*
X0063068Y0115784D01*
X0062200Y0115784D01*
X0060505Y0115784D02*
X0059638Y0115784D01*
X0059638Y0112315D01*
X0060505Y0112315D02*
X0058771Y0112315D01*
X0056200Y0113182D02*
X0055333Y0112315D01*
X0056200Y0113182D02*
X0056200Y0116652D01*
X0055333Y0115784D02*
X0057068Y0115784D01*
X0059638Y0117519D02*
X0059638Y0118386D01*
X0053630Y0113182D02*
X0052763Y0113182D01*
X0052763Y0112315D01*
X0053630Y0112315D01*
X0053630Y0113182D01*
X0051052Y0113182D02*
X0050185Y0112315D01*
X0048450Y0112315D01*
X0047582Y0113182D01*
X0047582Y0114917D01*
X0048450Y0115784D01*
X0050185Y0115784D01*
X0051052Y0114917D01*
X0051052Y0113182D01*
X0045896Y0114049D02*
X0044161Y0115784D01*
X0043293Y0115784D01*
X0041599Y0114917D02*
X0041599Y0113182D01*
X0040731Y0112315D01*
X0038129Y0112315D01*
X0038129Y0111447D02*
X0038129Y0115784D01*
X0040731Y0115784D01*
X0041599Y0114917D01*
X0045896Y0115784D02*
X0045896Y0112315D01*
X0039864Y0110580D02*
X0038996Y0110580D01*
X0038129Y0111447D01*
X0075107Y0109119D02*
X0075975Y0108252D01*
X0075975Y0104782D01*
X0077661Y0103915D02*
X0081131Y0103915D01*
X0077661Y0107384D01*
X0077661Y0108252D01*
X0078529Y0109119D01*
X0080264Y0109119D01*
X0081131Y0108252D01*
X0082818Y0109119D02*
X0086287Y0103915D01*
X0087974Y0104782D02*
X0088841Y0103915D01*
X0090576Y0103915D01*
X0091444Y0104782D01*
X0087974Y0108252D01*
X0087974Y0104782D01*
X0091444Y0104782D02*
X0091444Y0108252D01*
X0090576Y0109119D01*
X0088841Y0109119D01*
X0087974Y0108252D01*
X0093130Y0103915D02*
X0096600Y0103915D01*
X0094865Y0103915D02*
X0094865Y0109119D01*
X0096600Y0107384D01*
X0096576Y0110580D02*
X0095709Y0111447D01*
X0096576Y0110580D02*
X0097443Y0110580D01*
X0093155Y0117519D02*
X0093155Y0118386D01*
X0106881Y0106517D02*
X0107748Y0107384D01*
X0109483Y0107384D01*
X0110350Y0106517D01*
X0110350Y0104782D01*
X0109483Y0103915D01*
X0107748Y0103915D01*
X0106881Y0104782D01*
X0106881Y0106517D01*
X0104327Y0104782D02*
X0104327Y0103915D01*
X0103459Y0103915D01*
X0103459Y0104782D01*
X0104327Y0104782D01*
X0103459Y0103915D02*
X0105194Y0102180D01*
X0112037Y0103047D02*
X0112037Y0107384D01*
X0114639Y0107384D01*
X0115507Y0106517D01*
X0115507Y0104782D01*
X0114639Y0103915D01*
X0112037Y0103915D01*
X0112037Y0103047D02*
X0112905Y0102180D01*
X0113772Y0102180D01*
X0117194Y0103915D02*
X0117194Y0107384D01*
X0120663Y0107384D02*
X0120663Y0104782D01*
X0119796Y0103915D01*
X0117194Y0103915D01*
X0122350Y0103915D02*
X0122350Y0106517D01*
X0123217Y0107384D01*
X0124952Y0107384D01*
X0125820Y0106517D01*
X0125820Y0109119D02*
X0125820Y0103915D01*
X0280631Y0061415D02*
X0284100Y0061415D01*
X0285787Y0061415D02*
X0287522Y0063149D01*
X0286655Y0063149D02*
X0289257Y0063149D01*
X0289257Y0061415D02*
X0289257Y0066619D01*
X0286655Y0066619D01*
X0285787Y0065752D01*
X0285787Y0064017D01*
X0286655Y0063149D01*
X0284100Y0064884D02*
X0282366Y0066619D01*
X0282366Y0061415D01*
X0290944Y0062282D02*
X0291811Y0061415D01*
X0294413Y0061415D01*
X0294413Y0066619D01*
X0291811Y0066619D01*
X0290944Y0065752D01*
X0290944Y0062282D01*
X0296100Y0061415D02*
X0296100Y0064884D01*
X0297835Y0066619D01*
X0299570Y0064884D01*
X0299570Y0061415D01*
X0299570Y0064017D02*
X0296100Y0064017D01*
X0294413Y0049119D02*
X0291811Y0049119D01*
X0290944Y0048252D01*
X0290944Y0044782D01*
X0291811Y0043915D01*
X0294413Y0043915D01*
X0294413Y0049119D01*
X0296100Y0047384D02*
X0296100Y0043915D01*
X0296100Y0046517D02*
X0299570Y0046517D01*
X0299570Y0047384D02*
X0297835Y0049119D01*
X0296100Y0047384D01*
X0299570Y0047384D02*
X0299570Y0043915D01*
X0289257Y0043915D02*
X0289257Y0049119D01*
X0286655Y0049119D01*
X0285787Y0048252D01*
X0285787Y0046517D01*
X0286655Y0045649D01*
X0289257Y0045649D01*
X0287522Y0045649D02*
X0285787Y0043915D01*
X0284100Y0044782D02*
X0280631Y0048252D01*
X0280631Y0044782D01*
X0281498Y0043915D01*
X0283233Y0043915D01*
X0284100Y0044782D01*
X0284100Y0048252D01*
X0283233Y0049119D01*
X0281498Y0049119D01*
X0280631Y0048252D01*
D12*
X0103520Y0130590D03*
X0103520Y0144340D03*
X0103520Y0159340D03*
D13*
X0163401Y0199482D02*
X0164018Y0198865D01*
X0165252Y0198865D01*
X0165870Y0199482D01*
X0163401Y0201951D01*
X0163401Y0199482D01*
X0163401Y0201951D02*
X0164018Y0202568D01*
X0165252Y0202568D01*
X0165870Y0201951D01*
X0165870Y0199482D01*
X0170901Y0198865D02*
X0173370Y0198865D01*
X0172135Y0198865D02*
X0172135Y0202568D01*
X0173370Y0201333D01*
X0208401Y0198865D02*
X0210870Y0198865D01*
X0209635Y0198865D02*
X0209635Y0202568D01*
X0210870Y0201333D01*
X0215901Y0201333D02*
X0215901Y0201951D01*
X0216518Y0202568D01*
X0217752Y0202568D01*
X0218370Y0201951D01*
X0215901Y0201333D02*
X0218370Y0198865D01*
X0215901Y0198865D01*
X0253401Y0198865D02*
X0255870Y0198865D01*
X0253401Y0201333D01*
X0253401Y0201951D01*
X0254018Y0202568D01*
X0255252Y0202568D01*
X0255870Y0201951D01*
X0260901Y0201951D02*
X0260901Y0201333D01*
X0261518Y0200716D01*
X0260901Y0200099D01*
X0260901Y0199482D01*
X0261518Y0198865D01*
X0262752Y0198865D01*
X0263370Y0199482D01*
X0262135Y0200716D02*
X0261518Y0200716D01*
X0260901Y0201951D02*
X0261518Y0202568D01*
X0262752Y0202568D01*
X0263370Y0201951D01*
X0298401Y0201951D02*
X0298401Y0201333D01*
X0299018Y0200716D01*
X0298401Y0200099D01*
X0298401Y0199482D01*
X0299018Y0198865D01*
X0300252Y0198865D01*
X0300870Y0199482D01*
X0299635Y0200716D02*
X0299018Y0200716D01*
X0298401Y0201951D02*
X0299018Y0202568D01*
X0300252Y0202568D01*
X0300870Y0201951D01*
X0305901Y0201951D02*
X0305901Y0199482D01*
X0306518Y0198865D01*
X0307752Y0198865D01*
X0308370Y0199482D01*
X0305901Y0201951D01*
X0306518Y0202568D01*
X0307752Y0202568D01*
X0308370Y0201951D01*
X0308370Y0199482D01*
X0314018Y0030068D02*
X0313401Y0029451D01*
X0315870Y0026982D01*
X0315252Y0026365D01*
X0314018Y0026365D01*
X0313401Y0026982D01*
X0313401Y0029451D01*
X0314018Y0030068D02*
X0315252Y0030068D01*
X0315870Y0029451D01*
X0315870Y0026982D01*
X0322151Y0026982D02*
X0322768Y0026365D01*
X0324002Y0026365D01*
X0324620Y0026982D01*
X0323385Y0028216D02*
X0322768Y0028216D01*
X0322151Y0027599D01*
X0322151Y0026982D01*
X0322768Y0028216D02*
X0322151Y0028833D01*
X0322151Y0029451D01*
X0322768Y0030068D01*
X0324002Y0030068D01*
X0324620Y0029451D01*
X0279620Y0029451D02*
X0279002Y0030068D01*
X0277768Y0030068D01*
X0277151Y0029451D01*
X0277151Y0028833D01*
X0279620Y0026365D01*
X0277151Y0026365D01*
X0270870Y0026982D02*
X0270252Y0026365D01*
X0269018Y0026365D01*
X0268401Y0026982D01*
X0268401Y0027599D01*
X0269018Y0028216D01*
X0269635Y0028216D01*
X0269018Y0028216D02*
X0268401Y0028833D01*
X0268401Y0029451D01*
X0269018Y0030068D01*
X0270252Y0030068D01*
X0270870Y0029451D01*
X0234620Y0028833D02*
X0233385Y0030068D01*
X0233385Y0026365D01*
X0232151Y0026365D02*
X0234620Y0026365D01*
X0225870Y0026365D02*
X0223401Y0028833D01*
X0223401Y0029451D01*
X0224018Y0030068D01*
X0225252Y0030068D01*
X0225870Y0029451D01*
X0225870Y0026365D02*
X0223401Y0026365D01*
X0189620Y0026982D02*
X0187151Y0029451D01*
X0187151Y0026982D01*
X0187768Y0026365D01*
X0189002Y0026365D01*
X0189620Y0026982D01*
X0189620Y0029451D01*
X0189002Y0030068D01*
X0187768Y0030068D01*
X0187151Y0029451D01*
X0180870Y0028833D02*
X0179635Y0030068D01*
X0179635Y0026365D01*
X0178401Y0026365D02*
X0180870Y0026365D01*
X0132120Y0026848D02*
X0131636Y0026365D01*
X0130668Y0026365D01*
X0130185Y0026848D01*
X0130185Y0027332D01*
X0130668Y0027816D01*
X0131636Y0027816D01*
X0132120Y0028300D01*
X0132120Y0028783D01*
X0131636Y0029267D01*
X0130668Y0029267D01*
X0130185Y0028783D01*
X0129173Y0028783D02*
X0129173Y0026848D01*
X0128689Y0026365D01*
X0127722Y0026365D01*
X0127238Y0026848D01*
X0126227Y0026365D02*
X0124292Y0026365D01*
X0126227Y0026365D02*
X0126227Y0029267D01*
X0127238Y0028783D02*
X0127722Y0029267D01*
X0128689Y0029267D01*
X0129173Y0028783D01*
X0122120Y0028783D02*
X0122120Y0028300D01*
X0121636Y0027816D01*
X0120668Y0027816D01*
X0120185Y0027332D01*
X0120185Y0026848D01*
X0120668Y0026365D01*
X0121636Y0026365D01*
X0122120Y0026848D01*
X0122120Y0028783D02*
X0121636Y0029267D01*
X0120668Y0029267D01*
X0120185Y0028783D01*
X0119173Y0029267D02*
X0117722Y0029267D01*
X0117238Y0028783D01*
X0117238Y0026848D01*
X0117722Y0026365D01*
X0119173Y0026365D01*
X0119173Y0029267D01*
X0116227Y0028300D02*
X0116227Y0026365D01*
X0116227Y0027816D02*
X0114292Y0027816D01*
X0114292Y0028300D02*
X0114292Y0026365D01*
X0114292Y0028300D02*
X0115259Y0029267D01*
X0116227Y0028300D01*
X0087120Y0028300D02*
X0086636Y0027816D01*
X0085668Y0027816D01*
X0085185Y0027332D01*
X0085185Y0026848D01*
X0085668Y0026365D01*
X0086636Y0026365D01*
X0087120Y0026848D01*
X0087120Y0028300D02*
X0087120Y0028783D01*
X0086636Y0029267D01*
X0085668Y0029267D01*
X0085185Y0028783D01*
X0084173Y0028783D02*
X0084173Y0026848D01*
X0083689Y0026365D01*
X0082722Y0026365D01*
X0082238Y0026848D01*
X0081227Y0026365D02*
X0079292Y0026365D01*
X0081227Y0026365D02*
X0081227Y0029267D01*
X0082238Y0028783D02*
X0082722Y0029267D01*
X0083689Y0029267D01*
X0084173Y0028783D01*
X0077120Y0028783D02*
X0077120Y0028300D01*
X0076636Y0027816D01*
X0075668Y0027816D01*
X0075185Y0027332D01*
X0075185Y0026848D01*
X0075668Y0026365D01*
X0076636Y0026365D01*
X0077120Y0026848D01*
X0077120Y0028783D02*
X0076636Y0029267D01*
X0075668Y0029267D01*
X0075185Y0028783D01*
X0074173Y0029267D02*
X0074173Y0026365D01*
X0072722Y0026365D01*
X0072238Y0026848D01*
X0072238Y0028783D01*
X0072722Y0029267D01*
X0074173Y0029267D01*
X0071227Y0028300D02*
X0070259Y0029267D01*
X0069292Y0028300D01*
X0069292Y0026365D01*
X0069292Y0027816D02*
X0071227Y0027816D01*
X0071227Y0028300D02*
X0071227Y0026365D01*
X0040870Y0026365D02*
X0040870Y0029267D01*
X0039418Y0029267D01*
X0038935Y0028783D01*
X0038935Y0027816D01*
X0039418Y0027332D01*
X0040870Y0027332D01*
X0039902Y0027332D02*
X0038935Y0026365D01*
X0037923Y0026365D02*
X0035988Y0029267D01*
X0037923Y0029267D02*
X0035988Y0026365D01*
X0031152Y0026365D02*
X0031152Y0029267D01*
X0030185Y0029267D02*
X0032120Y0029267D01*
X0029173Y0029267D02*
X0027238Y0026365D01*
X0029173Y0026365D02*
X0027238Y0029267D01*
D14*
X0001571Y0004010D02*
X0001571Y0224482D01*
X0336217Y0224482D01*
X0336217Y0004010D01*
X0001571Y0004010D01*
X0316309Y0138465D02*
X0319312Y0138465D01*
X0317811Y0138465D02*
X0317811Y0142968D01*
X0319312Y0141467D01*
X0320913Y0142968D02*
X0322414Y0142968D01*
X0321664Y0142968D02*
X0321664Y0139215D01*
X0322414Y0138465D01*
X0323165Y0138465D01*
X0323916Y0139215D01*
X0325517Y0139215D02*
X0325517Y0139966D01*
X0326268Y0140716D01*
X0327769Y0140716D01*
X0328520Y0141467D01*
X0328520Y0142218D01*
X0327769Y0142968D01*
X0326268Y0142968D01*
X0325517Y0142218D01*
X0325517Y0139215D02*
X0326268Y0138465D01*
X0327769Y0138465D01*
X0328520Y0139215D01*
D15*
X0302309Y0117228D02*
X0302311Y0117327D01*
X0302317Y0117426D01*
X0302327Y0117525D01*
X0302341Y0117623D01*
X0302359Y0117720D01*
X0302381Y0117817D01*
X0302406Y0117913D01*
X0302436Y0118007D01*
X0302469Y0118101D01*
X0302506Y0118193D01*
X0302547Y0118283D01*
X0302591Y0118372D01*
X0302639Y0118458D01*
X0302690Y0118543D01*
X0302745Y0118626D01*
X0302803Y0118706D01*
X0302864Y0118784D01*
X0302928Y0118860D01*
X0302995Y0118933D01*
X0303065Y0119003D01*
X0303138Y0119070D01*
X0303214Y0119134D01*
X0303292Y0119195D01*
X0303372Y0119253D01*
X0303455Y0119308D01*
X0303539Y0119359D01*
X0303626Y0119407D01*
X0303715Y0119451D01*
X0303805Y0119492D01*
X0303897Y0119529D01*
X0303991Y0119562D01*
X0304085Y0119592D01*
X0304181Y0119617D01*
X0304278Y0119639D01*
X0304375Y0119657D01*
X0304473Y0119671D01*
X0304572Y0119681D01*
X0304671Y0119687D01*
X0304770Y0119689D01*
X0304869Y0119687D01*
X0304968Y0119681D01*
X0305067Y0119671D01*
X0305165Y0119657D01*
X0305262Y0119639D01*
X0305359Y0119617D01*
X0305455Y0119592D01*
X0305549Y0119562D01*
X0305643Y0119529D01*
X0305735Y0119492D01*
X0305825Y0119451D01*
X0305914Y0119407D01*
X0306000Y0119359D01*
X0306085Y0119308D01*
X0306168Y0119253D01*
X0306248Y0119195D01*
X0306326Y0119134D01*
X0306402Y0119070D01*
X0306475Y0119003D01*
X0306545Y0118933D01*
X0306612Y0118860D01*
X0306676Y0118784D01*
X0306737Y0118706D01*
X0306795Y0118626D01*
X0306850Y0118543D01*
X0306901Y0118459D01*
X0306949Y0118372D01*
X0306993Y0118283D01*
X0307034Y0118193D01*
X0307071Y0118101D01*
X0307104Y0118007D01*
X0307134Y0117913D01*
X0307159Y0117817D01*
X0307181Y0117720D01*
X0307199Y0117623D01*
X0307213Y0117525D01*
X0307223Y0117426D01*
X0307229Y0117327D01*
X0307231Y0117228D01*
X0307229Y0117129D01*
X0307223Y0117030D01*
X0307213Y0116931D01*
X0307199Y0116833D01*
X0307181Y0116736D01*
X0307159Y0116639D01*
X0307134Y0116543D01*
X0307104Y0116449D01*
X0307071Y0116355D01*
X0307034Y0116263D01*
X0306993Y0116173D01*
X0306949Y0116084D01*
X0306901Y0115998D01*
X0306850Y0115913D01*
X0306795Y0115830D01*
X0306737Y0115750D01*
X0306676Y0115672D01*
X0306612Y0115596D01*
X0306545Y0115523D01*
X0306475Y0115453D01*
X0306402Y0115386D01*
X0306326Y0115322D01*
X0306248Y0115261D01*
X0306168Y0115203D01*
X0306085Y0115148D01*
X0306001Y0115097D01*
X0305914Y0115049D01*
X0305825Y0115005D01*
X0305735Y0114964D01*
X0305643Y0114927D01*
X0305549Y0114894D01*
X0305455Y0114864D01*
X0305359Y0114839D01*
X0305262Y0114817D01*
X0305165Y0114799D01*
X0305067Y0114785D01*
X0304968Y0114775D01*
X0304869Y0114769D01*
X0304770Y0114767D01*
X0304671Y0114769D01*
X0304572Y0114775D01*
X0304473Y0114785D01*
X0304375Y0114799D01*
X0304278Y0114817D01*
X0304181Y0114839D01*
X0304085Y0114864D01*
X0303991Y0114894D01*
X0303897Y0114927D01*
X0303805Y0114964D01*
X0303715Y0115005D01*
X0303626Y0115049D01*
X0303540Y0115097D01*
X0303455Y0115148D01*
X0303372Y0115203D01*
X0303292Y0115261D01*
X0303214Y0115322D01*
X0303138Y0115386D01*
X0303065Y0115453D01*
X0302995Y0115523D01*
X0302928Y0115596D01*
X0302864Y0115672D01*
X0302803Y0115750D01*
X0302745Y0115830D01*
X0302690Y0115913D01*
X0302639Y0115997D01*
X0302591Y0116084D01*
X0302547Y0116173D01*
X0302506Y0116263D01*
X0302469Y0116355D01*
X0302436Y0116449D01*
X0302406Y0116543D01*
X0302381Y0116639D01*
X0302359Y0116736D01*
X0302341Y0116833D01*
X0302327Y0116931D01*
X0302317Y0117030D01*
X0302311Y0117129D01*
X0302309Y0117228D01*
X0302801Y0087701D02*
X0302803Y0087789D01*
X0302809Y0087877D01*
X0302819Y0087965D01*
X0302833Y0088053D01*
X0302850Y0088139D01*
X0302872Y0088225D01*
X0302897Y0088309D01*
X0302927Y0088393D01*
X0302959Y0088475D01*
X0302996Y0088555D01*
X0303036Y0088634D01*
X0303080Y0088711D01*
X0303127Y0088786D01*
X0303177Y0088858D01*
X0303231Y0088929D01*
X0303287Y0088996D01*
X0303347Y0089062D01*
X0303409Y0089124D01*
X0303475Y0089184D01*
X0303542Y0089240D01*
X0303613Y0089294D01*
X0303685Y0089344D01*
X0303760Y0089391D01*
X0303837Y0089435D01*
X0303916Y0089475D01*
X0303996Y0089512D01*
X0304078Y0089544D01*
X0304162Y0089574D01*
X0304246Y0089599D01*
X0304332Y0089621D01*
X0304418Y0089638D01*
X0304506Y0089652D01*
X0304594Y0089662D01*
X0304682Y0089668D01*
X0304770Y0089670D01*
X0304858Y0089668D01*
X0304946Y0089662D01*
X0305034Y0089652D01*
X0305122Y0089638D01*
X0305208Y0089621D01*
X0305294Y0089599D01*
X0305378Y0089574D01*
X0305462Y0089544D01*
X0305544Y0089512D01*
X0305624Y0089475D01*
X0305703Y0089435D01*
X0305780Y0089391D01*
X0305855Y0089344D01*
X0305927Y0089294D01*
X0305998Y0089240D01*
X0306065Y0089184D01*
X0306131Y0089124D01*
X0306193Y0089062D01*
X0306253Y0088996D01*
X0306309Y0088929D01*
X0306363Y0088858D01*
X0306413Y0088786D01*
X0306460Y0088711D01*
X0306504Y0088634D01*
X0306544Y0088555D01*
X0306581Y0088475D01*
X0306613Y0088393D01*
X0306643Y0088309D01*
X0306668Y0088225D01*
X0306690Y0088139D01*
X0306707Y0088053D01*
X0306721Y0087965D01*
X0306731Y0087877D01*
X0306737Y0087789D01*
X0306739Y0087701D01*
X0306737Y0087613D01*
X0306731Y0087525D01*
X0306721Y0087437D01*
X0306707Y0087349D01*
X0306690Y0087263D01*
X0306668Y0087177D01*
X0306643Y0087093D01*
X0306613Y0087009D01*
X0306581Y0086927D01*
X0306544Y0086847D01*
X0306504Y0086768D01*
X0306460Y0086691D01*
X0306413Y0086616D01*
X0306363Y0086544D01*
X0306309Y0086473D01*
X0306253Y0086406D01*
X0306193Y0086340D01*
X0306131Y0086278D01*
X0306065Y0086218D01*
X0305998Y0086162D01*
X0305927Y0086108D01*
X0305855Y0086058D01*
X0305780Y0086011D01*
X0305703Y0085967D01*
X0305624Y0085927D01*
X0305544Y0085890D01*
X0305462Y0085858D01*
X0305378Y0085828D01*
X0305294Y0085803D01*
X0305208Y0085781D01*
X0305122Y0085764D01*
X0305034Y0085750D01*
X0304946Y0085740D01*
X0304858Y0085734D01*
X0304770Y0085732D01*
X0304682Y0085734D01*
X0304594Y0085740D01*
X0304506Y0085750D01*
X0304418Y0085764D01*
X0304332Y0085781D01*
X0304246Y0085803D01*
X0304162Y0085828D01*
X0304078Y0085858D01*
X0303996Y0085890D01*
X0303916Y0085927D01*
X0303837Y0085967D01*
X0303760Y0086011D01*
X0303685Y0086058D01*
X0303613Y0086108D01*
X0303542Y0086162D01*
X0303475Y0086218D01*
X0303409Y0086278D01*
X0303347Y0086340D01*
X0303287Y0086406D01*
X0303231Y0086473D01*
X0303177Y0086544D01*
X0303127Y0086616D01*
X0303080Y0086691D01*
X0303036Y0086768D01*
X0302996Y0086847D01*
X0302959Y0086927D01*
X0302927Y0087009D01*
X0302897Y0087093D01*
X0302872Y0087177D01*
X0302850Y0087263D01*
X0302833Y0087349D01*
X0302819Y0087437D01*
X0302809Y0087525D01*
X0302803Y0087613D01*
X0302801Y0087701D01*
X0311364Y0174965D02*
X0311366Y0175118D01*
X0311372Y0175272D01*
X0311382Y0175425D01*
X0311396Y0175577D01*
X0311414Y0175730D01*
X0311436Y0175881D01*
X0311461Y0176032D01*
X0311491Y0176183D01*
X0311525Y0176333D01*
X0311562Y0176481D01*
X0311603Y0176629D01*
X0311648Y0176775D01*
X0311697Y0176921D01*
X0311750Y0177065D01*
X0311806Y0177207D01*
X0311866Y0177348D01*
X0311930Y0177488D01*
X0311997Y0177626D01*
X0312068Y0177762D01*
X0312143Y0177896D01*
X0312220Y0178028D01*
X0312302Y0178158D01*
X0312386Y0178286D01*
X0312474Y0178412D01*
X0312565Y0178535D01*
X0312659Y0178656D01*
X0312757Y0178774D01*
X0312857Y0178890D01*
X0312961Y0179003D01*
X0313067Y0179114D01*
X0313176Y0179222D01*
X0313288Y0179327D01*
X0313402Y0179428D01*
X0313520Y0179527D01*
X0313639Y0179623D01*
X0313761Y0179716D01*
X0313886Y0179805D01*
X0314013Y0179892D01*
X0314142Y0179974D01*
X0314273Y0180054D01*
X0314406Y0180130D01*
X0314541Y0180203D01*
X0314678Y0180272D01*
X0314817Y0180337D01*
X0314957Y0180399D01*
X0315099Y0180457D01*
X0315242Y0180512D01*
X0315387Y0180563D01*
X0315533Y0180610D01*
X0315680Y0180653D01*
X0315828Y0180692D01*
X0315977Y0180728D01*
X0316127Y0180759D01*
X0316278Y0180787D01*
X0316429Y0180811D01*
X0316582Y0180831D01*
X0316734Y0180847D01*
X0316887Y0180859D01*
X0317040Y0180867D01*
X0317193Y0180871D01*
X0317347Y0180871D01*
X0317500Y0180867D01*
X0317653Y0180859D01*
X0317806Y0180847D01*
X0317958Y0180831D01*
X0318111Y0180811D01*
X0318262Y0180787D01*
X0318413Y0180759D01*
X0318563Y0180728D01*
X0318712Y0180692D01*
X0318860Y0180653D01*
X0319007Y0180610D01*
X0319153Y0180563D01*
X0319298Y0180512D01*
X0319441Y0180457D01*
X0319583Y0180399D01*
X0319723Y0180337D01*
X0319862Y0180272D01*
X0319999Y0180203D01*
X0320134Y0180130D01*
X0320267Y0180054D01*
X0320398Y0179974D01*
X0320527Y0179892D01*
X0320654Y0179805D01*
X0320779Y0179716D01*
X0320901Y0179623D01*
X0321020Y0179527D01*
X0321138Y0179428D01*
X0321252Y0179327D01*
X0321364Y0179222D01*
X0321473Y0179114D01*
X0321579Y0179003D01*
X0321683Y0178890D01*
X0321783Y0178774D01*
X0321881Y0178656D01*
X0321975Y0178535D01*
X0322066Y0178412D01*
X0322154Y0178286D01*
X0322238Y0178158D01*
X0322320Y0178028D01*
X0322397Y0177896D01*
X0322472Y0177762D01*
X0322543Y0177626D01*
X0322610Y0177488D01*
X0322674Y0177348D01*
X0322734Y0177207D01*
X0322790Y0177065D01*
X0322843Y0176921D01*
X0322892Y0176775D01*
X0322937Y0176629D01*
X0322978Y0176481D01*
X0323015Y0176333D01*
X0323049Y0176183D01*
X0323079Y0176032D01*
X0323104Y0175881D01*
X0323126Y0175730D01*
X0323144Y0175577D01*
X0323158Y0175425D01*
X0323168Y0175272D01*
X0323174Y0175118D01*
X0323176Y0174965D01*
X0323174Y0174812D01*
X0323168Y0174658D01*
X0323158Y0174505D01*
X0323144Y0174353D01*
X0323126Y0174200D01*
X0323104Y0174049D01*
X0323079Y0173898D01*
X0323049Y0173747D01*
X0323015Y0173597D01*
X0322978Y0173449D01*
X0322937Y0173301D01*
X0322892Y0173155D01*
X0322843Y0173009D01*
X0322790Y0172865D01*
X0322734Y0172723D01*
X0322674Y0172582D01*
X0322610Y0172442D01*
X0322543Y0172304D01*
X0322472Y0172168D01*
X0322397Y0172034D01*
X0322320Y0171902D01*
X0322238Y0171772D01*
X0322154Y0171644D01*
X0322066Y0171518D01*
X0321975Y0171395D01*
X0321881Y0171274D01*
X0321783Y0171156D01*
X0321683Y0171040D01*
X0321579Y0170927D01*
X0321473Y0170816D01*
X0321364Y0170708D01*
X0321252Y0170603D01*
X0321138Y0170502D01*
X0321020Y0170403D01*
X0320901Y0170307D01*
X0320779Y0170214D01*
X0320654Y0170125D01*
X0320527Y0170038D01*
X0320398Y0169956D01*
X0320267Y0169876D01*
X0320134Y0169800D01*
X0319999Y0169727D01*
X0319862Y0169658D01*
X0319723Y0169593D01*
X0319583Y0169531D01*
X0319441Y0169473D01*
X0319298Y0169418D01*
X0319153Y0169367D01*
X0319007Y0169320D01*
X0318860Y0169277D01*
X0318712Y0169238D01*
X0318563Y0169202D01*
X0318413Y0169171D01*
X0318262Y0169143D01*
X0318111Y0169119D01*
X0317958Y0169099D01*
X0317806Y0169083D01*
X0317653Y0169071D01*
X0317500Y0169063D01*
X0317347Y0169059D01*
X0317193Y0169059D01*
X0317040Y0169063D01*
X0316887Y0169071D01*
X0316734Y0169083D01*
X0316582Y0169099D01*
X0316429Y0169119D01*
X0316278Y0169143D01*
X0316127Y0169171D01*
X0315977Y0169202D01*
X0315828Y0169238D01*
X0315680Y0169277D01*
X0315533Y0169320D01*
X0315387Y0169367D01*
X0315242Y0169418D01*
X0315099Y0169473D01*
X0314957Y0169531D01*
X0314817Y0169593D01*
X0314678Y0169658D01*
X0314541Y0169727D01*
X0314406Y0169800D01*
X0314273Y0169876D01*
X0314142Y0169956D01*
X0314013Y0170038D01*
X0313886Y0170125D01*
X0313761Y0170214D01*
X0313639Y0170307D01*
X0313520Y0170403D01*
X0313402Y0170502D01*
X0313288Y0170603D01*
X0313176Y0170708D01*
X0313067Y0170816D01*
X0312961Y0170927D01*
X0312857Y0171040D01*
X0312757Y0171156D01*
X0312659Y0171274D01*
X0312565Y0171395D01*
X0312474Y0171518D01*
X0312386Y0171644D01*
X0312302Y0171772D01*
X0312220Y0171902D01*
X0312143Y0172034D01*
X0312068Y0172168D01*
X0311997Y0172304D01*
X0311930Y0172442D01*
X0311866Y0172582D01*
X0311806Y0172723D01*
X0311750Y0172865D01*
X0311697Y0173009D01*
X0311648Y0173155D01*
X0311603Y0173301D01*
X0311562Y0173449D01*
X0311525Y0173597D01*
X0311491Y0173747D01*
X0311461Y0173898D01*
X0311436Y0174049D01*
X0311414Y0174200D01*
X0311396Y0174353D01*
X0311382Y0174505D01*
X0311372Y0174658D01*
X0311366Y0174812D01*
X0311364Y0174965D01*
X0095739Y0074965D02*
X0095741Y0075118D01*
X0095747Y0075272D01*
X0095757Y0075425D01*
X0095771Y0075577D01*
X0095789Y0075730D01*
X0095811Y0075881D01*
X0095836Y0076032D01*
X0095866Y0076183D01*
X0095900Y0076333D01*
X0095937Y0076481D01*
X0095978Y0076629D01*
X0096023Y0076775D01*
X0096072Y0076921D01*
X0096125Y0077065D01*
X0096181Y0077207D01*
X0096241Y0077348D01*
X0096305Y0077488D01*
X0096372Y0077626D01*
X0096443Y0077762D01*
X0096518Y0077896D01*
X0096595Y0078028D01*
X0096677Y0078158D01*
X0096761Y0078286D01*
X0096849Y0078412D01*
X0096940Y0078535D01*
X0097034Y0078656D01*
X0097132Y0078774D01*
X0097232Y0078890D01*
X0097336Y0079003D01*
X0097442Y0079114D01*
X0097551Y0079222D01*
X0097663Y0079327D01*
X0097777Y0079428D01*
X0097895Y0079527D01*
X0098014Y0079623D01*
X0098136Y0079716D01*
X0098261Y0079805D01*
X0098388Y0079892D01*
X0098517Y0079974D01*
X0098648Y0080054D01*
X0098781Y0080130D01*
X0098916Y0080203D01*
X0099053Y0080272D01*
X0099192Y0080337D01*
X0099332Y0080399D01*
X0099474Y0080457D01*
X0099617Y0080512D01*
X0099762Y0080563D01*
X0099908Y0080610D01*
X0100055Y0080653D01*
X0100203Y0080692D01*
X0100352Y0080728D01*
X0100502Y0080759D01*
X0100653Y0080787D01*
X0100804Y0080811D01*
X0100957Y0080831D01*
X0101109Y0080847D01*
X0101262Y0080859D01*
X0101415Y0080867D01*
X0101568Y0080871D01*
X0101722Y0080871D01*
X0101875Y0080867D01*
X0102028Y0080859D01*
X0102181Y0080847D01*
X0102333Y0080831D01*
X0102486Y0080811D01*
X0102637Y0080787D01*
X0102788Y0080759D01*
X0102938Y0080728D01*
X0103087Y0080692D01*
X0103235Y0080653D01*
X0103382Y0080610D01*
X0103528Y0080563D01*
X0103673Y0080512D01*
X0103816Y0080457D01*
X0103958Y0080399D01*
X0104098Y0080337D01*
X0104237Y0080272D01*
X0104374Y0080203D01*
X0104509Y0080130D01*
X0104642Y0080054D01*
X0104773Y0079974D01*
X0104902Y0079892D01*
X0105029Y0079805D01*
X0105154Y0079716D01*
X0105276Y0079623D01*
X0105395Y0079527D01*
X0105513Y0079428D01*
X0105627Y0079327D01*
X0105739Y0079222D01*
X0105848Y0079114D01*
X0105954Y0079003D01*
X0106058Y0078890D01*
X0106158Y0078774D01*
X0106256Y0078656D01*
X0106350Y0078535D01*
X0106441Y0078412D01*
X0106529Y0078286D01*
X0106613Y0078158D01*
X0106695Y0078028D01*
X0106772Y0077896D01*
X0106847Y0077762D01*
X0106918Y0077626D01*
X0106985Y0077488D01*
X0107049Y0077348D01*
X0107109Y0077207D01*
X0107165Y0077065D01*
X0107218Y0076921D01*
X0107267Y0076775D01*
X0107312Y0076629D01*
X0107353Y0076481D01*
X0107390Y0076333D01*
X0107424Y0076183D01*
X0107454Y0076032D01*
X0107479Y0075881D01*
X0107501Y0075730D01*
X0107519Y0075577D01*
X0107533Y0075425D01*
X0107543Y0075272D01*
X0107549Y0075118D01*
X0107551Y0074965D01*
X0107549Y0074812D01*
X0107543Y0074658D01*
X0107533Y0074505D01*
X0107519Y0074353D01*
X0107501Y0074200D01*
X0107479Y0074049D01*
X0107454Y0073898D01*
X0107424Y0073747D01*
X0107390Y0073597D01*
X0107353Y0073449D01*
X0107312Y0073301D01*
X0107267Y0073155D01*
X0107218Y0073009D01*
X0107165Y0072865D01*
X0107109Y0072723D01*
X0107049Y0072582D01*
X0106985Y0072442D01*
X0106918Y0072304D01*
X0106847Y0072168D01*
X0106772Y0072034D01*
X0106695Y0071902D01*
X0106613Y0071772D01*
X0106529Y0071644D01*
X0106441Y0071518D01*
X0106350Y0071395D01*
X0106256Y0071274D01*
X0106158Y0071156D01*
X0106058Y0071040D01*
X0105954Y0070927D01*
X0105848Y0070816D01*
X0105739Y0070708D01*
X0105627Y0070603D01*
X0105513Y0070502D01*
X0105395Y0070403D01*
X0105276Y0070307D01*
X0105154Y0070214D01*
X0105029Y0070125D01*
X0104902Y0070038D01*
X0104773Y0069956D01*
X0104642Y0069876D01*
X0104509Y0069800D01*
X0104374Y0069727D01*
X0104237Y0069658D01*
X0104098Y0069593D01*
X0103958Y0069531D01*
X0103816Y0069473D01*
X0103673Y0069418D01*
X0103528Y0069367D01*
X0103382Y0069320D01*
X0103235Y0069277D01*
X0103087Y0069238D01*
X0102938Y0069202D01*
X0102788Y0069171D01*
X0102637Y0069143D01*
X0102486Y0069119D01*
X0102333Y0069099D01*
X0102181Y0069083D01*
X0102028Y0069071D01*
X0101875Y0069063D01*
X0101722Y0069059D01*
X0101568Y0069059D01*
X0101415Y0069063D01*
X0101262Y0069071D01*
X0101109Y0069083D01*
X0100957Y0069099D01*
X0100804Y0069119D01*
X0100653Y0069143D01*
X0100502Y0069171D01*
X0100352Y0069202D01*
X0100203Y0069238D01*
X0100055Y0069277D01*
X0099908Y0069320D01*
X0099762Y0069367D01*
X0099617Y0069418D01*
X0099474Y0069473D01*
X0099332Y0069531D01*
X0099192Y0069593D01*
X0099053Y0069658D01*
X0098916Y0069727D01*
X0098781Y0069800D01*
X0098648Y0069876D01*
X0098517Y0069956D01*
X0098388Y0070038D01*
X0098261Y0070125D01*
X0098136Y0070214D01*
X0098014Y0070307D01*
X0097895Y0070403D01*
X0097777Y0070502D01*
X0097663Y0070603D01*
X0097551Y0070708D01*
X0097442Y0070816D01*
X0097336Y0070927D01*
X0097232Y0071040D01*
X0097132Y0071156D01*
X0097034Y0071274D01*
X0096940Y0071395D01*
X0096849Y0071518D01*
X0096761Y0071644D01*
X0096677Y0071772D01*
X0096595Y0071902D01*
X0096518Y0072034D01*
X0096443Y0072168D01*
X0096372Y0072304D01*
X0096305Y0072442D01*
X0096241Y0072582D01*
X0096181Y0072723D01*
X0096125Y0072865D01*
X0096072Y0073009D01*
X0096023Y0073155D01*
X0095978Y0073301D01*
X0095937Y0073449D01*
X0095900Y0073597D01*
X0095866Y0073747D01*
X0095836Y0073898D01*
X0095811Y0074049D01*
X0095789Y0074200D01*
X0095771Y0074353D01*
X0095757Y0074505D01*
X0095747Y0074658D01*
X0095741Y0074812D01*
X0095739Y0074965D01*
M02*
