%
M48
M72
T01C0.02362
T02C0.03150
T03C0.03200
T04C0.03600
T05C0.03937
T06C0.04921
T07C0.05200
T08C0.07874
T09C0.11811
T10C0.12598
%
T01
X124770Y56215
X171020Y54965
X209770Y41215
X231020Y47465
X243520Y43715
X251020Y52465
X251020Y57465
X241020Y84965
X232270Y101215
X236020Y104965
X244770Y113715
X244770Y128715
X234770Y131215
X234770Y136215
X233520Y143715
X224770Y139965
X223520Y144965
X204770Y148715
X199770Y143715
X243520Y143715
X251020Y143715
X256645Y143715
X261020Y153715
X249770Y173715
X256020Y182465
X194770Y181215
X157270Y179965
X48520Y156215
X46020Y208715
X26020Y208715
X299770Y52465
X277270Y126215
X189770Y23715
X243520Y16215
T02
X14209Y34965
X22083Y34965
X29957Y34965
X37831Y34965
X59209Y34965
X67083Y34965
X74957Y34965
X82831Y34965
X104209Y34965
X112083Y34965
X119957Y34965
X127831Y34965
X164209Y34965
X172083Y34965
X179957Y34965
X187831Y34965
X209209Y34965
X217083Y34965
X224957Y34965
X232831Y34965
X254209Y34965
X262083Y34965
X269957Y34965
X277831Y34965
X299209Y34965
X307083Y34965
X314957Y34965
X322831Y34965
X304770Y107465
X314957Y193715
X322831Y193715
X307083Y193715
X299209Y193715
X277831Y193715
X269957Y193715
X262083Y193715
X254209Y193715
X232831Y193715
X224957Y193715
X217083Y193715
X209209Y193715
X187831Y193715
X179957Y193715
X172083Y193715
X164209Y193715
X43520Y62317
X31709Y81215
T03
X39770Y131215
X39770Y141215
X9770Y141215
X9770Y131215
X298520Y173715
X288520Y173715
T04
X312270Y146215
X312270Y156215
T05
X55331Y81215
X51020Y203715
X61020Y203715
X71020Y203715
X81020Y203715
X91020Y203715
X101020Y203715
X111020Y203715
X121020Y203715
X131020Y203715
X131020Y213715
X121020Y213715
X111020Y213715
X101020Y213715
X91020Y213715
X81020Y213715
X71020Y213715
X61020Y213715
X51020Y213715
X41020Y213715
X31020Y213715
X21020Y213715
X11020Y213715
X11020Y203715
X21020Y203715
X31020Y203715
X41020Y203715
X304770Y87701
T06
X304770Y117228
T07
X18520Y63715
X18520Y83715
X11020Y111215
X132270Y193715
T08
X304770Y81465
X304770Y133465
T09
X101645Y74965
X317270Y174965
T10
X101645Y74965
X317270Y174965
M30
