G75*
%MOIN*%
%OFA0B0*%
%FSLAX24Y24*%
%IPPOS*%
%LPD*%
%AMOC8*
5,1,8,0,0,1.08239X$1,22.5*
%
%ADD10C,0.0050*%
%ADD11R,0.0594X0.0594*%
%ADD12C,0.0660*%
%ADD13C,0.0594*%
%ADD14C,0.0000*%
%ADD15C,0.0520*%
%ADD16R,0.1560X0.1560*%
%ADD17C,0.1250*%
%ADD18C,0.0860*%
%ADD19C,0.0520*%
%ADD20R,0.0515X0.0515*%
%ADD21C,0.0515*%
%ADD22OC8,0.0850*%
%ADD23OC8,0.1250*%
%ADD24R,0.0460X0.0630*%
%ADD25C,0.0560*%
%ADD26C,0.0100*%
%ADD27C,0.0160*%
%ADD28C,0.0396*%
%ADD29C,0.0120*%
%ADD30C,0.2480*%
%ADD31C,0.0400*%
D10*
X000157Y000401D02*
X000157Y022448D01*
X033622Y022448D01*
X033622Y000401D01*
X000157Y000401D01*
D11*
X001102Y020371D03*
D12*
X001102Y021371D03*
X003102Y021371D03*
D13*
X004102Y021371D03*
X005102Y021371D03*
X006102Y021371D03*
X007102Y021371D03*
X008102Y021371D03*
X009102Y021371D03*
X010102Y021371D03*
X011102Y021371D03*
X012102Y021371D03*
X013102Y021371D03*
X013102Y020371D03*
X012102Y020371D03*
X011102Y020371D03*
X010102Y020371D03*
X009102Y020371D03*
X008102Y020371D03*
X007102Y020371D03*
X006102Y020371D03*
X005102Y020371D03*
X004102Y020371D03*
X003102Y020371D03*
X002102Y020371D03*
X002102Y021371D03*
D14*
X009573Y007496D02*
X009575Y007544D01*
X009581Y007592D01*
X009591Y007639D01*
X009604Y007685D01*
X009622Y007730D01*
X009642Y007774D01*
X009667Y007816D01*
X009695Y007855D01*
X009725Y007892D01*
X009759Y007926D01*
X009796Y007958D01*
X009834Y007987D01*
X009875Y008012D01*
X009918Y008034D01*
X009963Y008052D01*
X010009Y008066D01*
X010056Y008077D01*
X010104Y008084D01*
X010152Y008087D01*
X010200Y008086D01*
X010248Y008081D01*
X010296Y008072D01*
X010342Y008060D01*
X010387Y008043D01*
X010431Y008023D01*
X010473Y008000D01*
X010513Y007973D01*
X010551Y007943D01*
X010586Y007910D01*
X010618Y007874D01*
X010648Y007836D01*
X010674Y007795D01*
X010696Y007752D01*
X010716Y007708D01*
X010731Y007663D01*
X010743Y007616D01*
X010751Y007568D01*
X010755Y007520D01*
X010755Y007472D01*
X010751Y007424D01*
X010743Y007376D01*
X010731Y007329D01*
X010716Y007284D01*
X010696Y007240D01*
X010674Y007197D01*
X010648Y007156D01*
X010618Y007118D01*
X010586Y007082D01*
X010551Y007049D01*
X010513Y007019D01*
X010473Y006992D01*
X010431Y006969D01*
X010387Y006949D01*
X010342Y006932D01*
X010296Y006920D01*
X010248Y006911D01*
X010200Y006906D01*
X010152Y006905D01*
X010104Y006908D01*
X010056Y006915D01*
X010009Y006926D01*
X009963Y006940D01*
X009918Y006958D01*
X009875Y006980D01*
X009834Y007005D01*
X009796Y007034D01*
X009759Y007066D01*
X009725Y007100D01*
X009695Y007137D01*
X009667Y007176D01*
X009642Y007218D01*
X009622Y007262D01*
X009604Y007307D01*
X009591Y007353D01*
X009581Y007400D01*
X009575Y007448D01*
X009573Y007496D01*
X031136Y017496D02*
X031138Y017544D01*
X031144Y017592D01*
X031154Y017639D01*
X031167Y017685D01*
X031185Y017730D01*
X031205Y017774D01*
X031230Y017816D01*
X031258Y017855D01*
X031288Y017892D01*
X031322Y017926D01*
X031359Y017958D01*
X031397Y017987D01*
X031438Y018012D01*
X031481Y018034D01*
X031526Y018052D01*
X031572Y018066D01*
X031619Y018077D01*
X031667Y018084D01*
X031715Y018087D01*
X031763Y018086D01*
X031811Y018081D01*
X031859Y018072D01*
X031905Y018060D01*
X031950Y018043D01*
X031994Y018023D01*
X032036Y018000D01*
X032076Y017973D01*
X032114Y017943D01*
X032149Y017910D01*
X032181Y017874D01*
X032211Y017836D01*
X032237Y017795D01*
X032259Y017752D01*
X032279Y017708D01*
X032294Y017663D01*
X032306Y017616D01*
X032314Y017568D01*
X032318Y017520D01*
X032318Y017472D01*
X032314Y017424D01*
X032306Y017376D01*
X032294Y017329D01*
X032279Y017284D01*
X032259Y017240D01*
X032237Y017197D01*
X032211Y017156D01*
X032181Y017118D01*
X032149Y017082D01*
X032114Y017049D01*
X032076Y017019D01*
X032036Y016992D01*
X031994Y016969D01*
X031950Y016949D01*
X031905Y016932D01*
X031859Y016920D01*
X031811Y016911D01*
X031763Y016906D01*
X031715Y016905D01*
X031667Y016908D01*
X031619Y016915D01*
X031572Y016926D01*
X031526Y016940D01*
X031481Y016958D01*
X031438Y016980D01*
X031397Y017005D01*
X031359Y017034D01*
X031322Y017066D01*
X031288Y017100D01*
X031258Y017137D01*
X031230Y017176D01*
X031205Y017218D01*
X031185Y017262D01*
X031167Y017307D01*
X031154Y017353D01*
X031144Y017400D01*
X031138Y017448D01*
X031136Y017496D01*
D15*
X029852Y017371D03*
X028852Y017371D03*
D16*
X030477Y010746D03*
D17*
X030477Y008146D03*
X030477Y013346D03*
D18*
X005533Y008551D02*
X005533Y007691D01*
X004782Y006232D02*
X003922Y006232D01*
X003171Y007691D02*
X003171Y008551D01*
D19*
X003717Y013121D02*
X004237Y013121D01*
X004237Y014121D02*
X003717Y014121D01*
X001237Y014121D02*
X000717Y014121D01*
X000717Y013121D02*
X001237Y013121D01*
D20*
X003783Y003496D03*
X008283Y003496D03*
X012783Y003496D03*
X018783Y003496D03*
X023283Y003496D03*
X027783Y003496D03*
X032283Y003496D03*
X029921Y019371D03*
X025421Y019371D03*
X020921Y019371D03*
X016421Y019371D03*
D21*
X017208Y019371D03*
X017996Y019371D03*
X018783Y019371D03*
X021708Y019371D03*
X022496Y019371D03*
X023283Y019371D03*
X026208Y019371D03*
X026996Y019371D03*
X027783Y019371D03*
X030708Y019371D03*
X031496Y019371D03*
X032283Y019371D03*
X031496Y003496D03*
X030708Y003496D03*
X029921Y003496D03*
X026996Y003496D03*
X026208Y003496D03*
X025421Y003496D03*
X022496Y003496D03*
X021708Y003496D03*
X020921Y003496D03*
X017996Y003496D03*
X017208Y003496D03*
X016421Y003496D03*
X011996Y003496D03*
X011208Y003496D03*
X010421Y003496D03*
X007496Y003496D03*
X006708Y003496D03*
X005921Y003496D03*
X002996Y003496D03*
X002208Y003496D03*
X001421Y003496D03*
D22*
X001102Y011121D03*
X013227Y019371D03*
D23*
X001852Y008371D03*
X001852Y006371D03*
D24*
X026127Y006371D03*
X026727Y006371D03*
X027327Y006371D03*
X027327Y004621D03*
X026727Y004621D03*
X026127Y004621D03*
X031927Y013371D03*
X032527Y013371D03*
D25*
X031507Y014621D02*
X030947Y014621D01*
X030947Y015621D02*
X031507Y015621D01*
D26*
X029977Y005246D02*
X028852Y004121D01*
X028852Y003121D01*
X028602Y002871D01*
X027227Y002871D01*
X026996Y003103D01*
X026996Y003496D01*
X027664Y003996D02*
X027789Y003871D01*
X027789Y003503D01*
X027783Y003496D01*
X027664Y003996D02*
X022727Y003996D01*
X022496Y003765D01*
X022496Y003496D01*
X020977Y004121D02*
X018227Y004121D01*
X017996Y003890D01*
X017996Y003496D01*
X018783Y003496D02*
X018783Y002565D01*
X018977Y002371D01*
X003602Y019996D02*
X003602Y021621D01*
X002602Y021621D02*
X002602Y020871D01*
X002602Y019996D01*
X001602Y019996D02*
X001602Y021621D01*
X001602Y020871D02*
X002602Y020871D01*
X004602Y020871D01*
X004852Y020871D01*
D27*
X004802Y020871D02*
X004775Y020860D01*
X004613Y020698D01*
X004602Y020672D01*
X004591Y020698D01*
X004429Y020860D01*
X004402Y020871D01*
X004429Y020882D01*
X004591Y021045D01*
X004602Y021071D01*
X004613Y021045D01*
X004775Y020882D01*
X004802Y020871D01*
X004733Y020818D02*
X004471Y020818D01*
X004523Y020976D02*
X004681Y020976D01*
X003775Y021860D02*
X003613Y021698D01*
X003566Y021584D01*
X003538Y021639D01*
X003491Y021704D01*
X003434Y021760D01*
X003369Y021808D01*
X003298Y021844D01*
X003221Y021869D01*
X003142Y021881D01*
X003120Y021881D01*
X003120Y021390D01*
X003084Y021390D01*
X003084Y021881D01*
X003062Y021881D01*
X002983Y021869D01*
X002906Y021844D01*
X002835Y021808D01*
X002770Y021760D01*
X002713Y021704D01*
X002666Y021639D01*
X002638Y021584D01*
X002591Y021698D01*
X002429Y021860D01*
X002229Y021943D01*
X003818Y021943D01*
X003814Y021939D01*
X003782Y021863D01*
X003775Y021860D01*
X003809Y021927D02*
X002267Y021927D01*
X002520Y021769D02*
X002781Y021769D01*
X002651Y021610D02*
X002627Y021610D01*
X002638Y021158D02*
X002666Y021104D01*
X002713Y021039D01*
X002770Y020982D01*
X002835Y020935D01*
X002889Y020908D01*
X002775Y020860D01*
X002613Y020698D01*
X002602Y020672D01*
X002591Y020698D01*
X002429Y020860D01*
X002402Y020871D01*
X002429Y020882D01*
X002591Y021045D01*
X002638Y021158D01*
X002628Y021135D02*
X002650Y021135D01*
X002523Y020976D02*
X002778Y020976D01*
X002733Y020818D02*
X002471Y020818D01*
X001802Y020871D02*
X001775Y020860D01*
X001667Y020752D01*
X001636Y020827D01*
X001557Y020906D01*
X001516Y020923D01*
X001619Y021026D01*
X001623Y021035D01*
X001775Y020882D01*
X001802Y020871D01*
X001733Y020818D02*
X001640Y020818D01*
X001681Y020976D02*
X001570Y020976D01*
X001667Y019991D02*
X001775Y019882D01*
X001987Y019795D01*
X002217Y019795D01*
X002429Y019882D01*
X002591Y020045D01*
X002602Y020071D01*
X002613Y020045D01*
X002775Y019882D01*
X002987Y019795D01*
X003217Y019795D01*
X003429Y019882D01*
X003591Y020045D01*
X003602Y020071D01*
X003613Y020045D01*
X003775Y019882D01*
X003782Y019879D01*
X003814Y019804D01*
X003909Y019708D01*
X004159Y019458D01*
X004284Y019406D01*
X005211Y019406D01*
X005262Y019356D01*
X005262Y015881D01*
X005257Y015892D01*
X005123Y016027D01*
X004947Y016100D01*
X004757Y016100D01*
X004581Y016027D01*
X004516Y015961D01*
X001493Y015961D01*
X001317Y016137D01*
X001317Y019356D01*
X001390Y019429D01*
X001442Y019554D01*
X001442Y019795D01*
X001455Y019795D01*
X001557Y019837D01*
X001636Y019916D01*
X001667Y019991D01*
X001587Y019867D02*
X001812Y019867D01*
X001442Y019708D02*
X003909Y019708D01*
X003788Y019867D02*
X003391Y019867D01*
X003572Y020025D02*
X003632Y020025D01*
X004068Y019550D02*
X001440Y019550D01*
X001353Y019391D02*
X005226Y019391D01*
X005262Y019233D02*
X001317Y019233D01*
X001317Y019074D02*
X005262Y019074D01*
X005262Y018916D02*
X001317Y018916D01*
X001317Y018757D02*
X005262Y018757D01*
X005262Y018599D02*
X001317Y018599D01*
X001317Y018440D02*
X005262Y018440D01*
X005262Y018282D02*
X001317Y018282D01*
X001317Y018123D02*
X005262Y018123D01*
X005262Y017965D02*
X001317Y017965D01*
X001317Y017806D02*
X005262Y017806D01*
X005262Y017648D02*
X001317Y017648D01*
X001317Y017489D02*
X005262Y017489D01*
X005262Y017331D02*
X001317Y017331D01*
X001317Y017172D02*
X005262Y017172D01*
X005262Y017014D02*
X001317Y017014D01*
X001317Y016855D02*
X005262Y016855D01*
X005262Y016697D02*
X001317Y016697D01*
X001317Y016538D02*
X005262Y016538D01*
X005262Y016380D02*
X001317Y016380D01*
X001317Y016221D02*
X005262Y016221D01*
X005262Y016063D02*
X005035Y016063D01*
X005245Y015904D02*
X005262Y015904D01*
X005262Y015362D02*
X005262Y014762D01*
X004961Y014461D01*
X004661Y014461D01*
X004543Y014579D01*
X004344Y014661D01*
X003610Y014661D01*
X003411Y014579D01*
X003259Y014427D01*
X003177Y014229D01*
X003177Y014014D01*
X003259Y013816D01*
X003411Y013664D01*
X003513Y013621D01*
X003411Y013579D01*
X003259Y013427D01*
X003177Y013229D01*
X003177Y013014D01*
X003259Y012816D01*
X003411Y012664D01*
X003610Y012581D01*
X004344Y012581D01*
X004543Y012664D01*
X004661Y012781D01*
X005420Y012781D01*
X005545Y012833D01*
X005640Y012929D01*
X006140Y013429D01*
X006192Y013554D01*
X006192Y019356D01*
X006243Y019406D01*
X007295Y019406D01*
X007420Y019458D01*
X007515Y019554D01*
X007795Y019833D01*
X007824Y019862D01*
X007987Y019795D01*
X008217Y019795D01*
X008380Y019862D01*
X008409Y019833D01*
X009034Y019208D01*
X009159Y019156D01*
X011961Y019156D01*
X017159Y013958D01*
X017284Y013906D01*
X018086Y013906D01*
X019034Y012958D01*
X019159Y012906D01*
X022836Y012906D01*
X022906Y012836D01*
X017159Y012836D01*
X017034Y012785D01*
X016939Y012689D01*
X013189Y008939D01*
X013137Y008814D01*
X013137Y006762D01*
X012474Y006100D01*
X012382Y006100D01*
X012206Y006027D01*
X012072Y005892D01*
X011999Y005717D01*
X011999Y005586D01*
X003534Y005586D01*
X003409Y005535D01*
X002707Y004833D01*
X002656Y004708D01*
X002656Y003917D01*
X002602Y003863D01*
X002513Y003952D01*
X002315Y004034D01*
X002101Y004034D01*
X001904Y003952D01*
X001753Y003801D01*
X001747Y003789D01*
X001706Y003830D01*
X001650Y003871D01*
X001589Y003902D01*
X001523Y003923D01*
X001455Y003934D01*
X001421Y003934D01*
X001421Y003496D01*
X001421Y003059D01*
X001455Y003059D01*
X001523Y003070D01*
X001589Y003091D01*
X001650Y003122D01*
X001706Y003163D01*
X001747Y003204D01*
X001753Y003192D01*
X001904Y003041D01*
X002101Y002959D01*
X002315Y002959D01*
X002513Y003041D01*
X002602Y003130D01*
X002691Y003041D01*
X002889Y002959D01*
X003103Y002959D01*
X003300Y003041D01*
X003314Y003055D01*
X003367Y003002D01*
X003470Y002959D01*
X004096Y002959D01*
X004199Y003002D01*
X004278Y003080D01*
X004321Y003183D01*
X004321Y003810D01*
X004278Y003913D01*
X004199Y003991D01*
X004123Y004023D01*
X004123Y004162D01*
X004493Y004531D01*
X007531Y004531D01*
X007189Y004189D01*
X007137Y004064D01*
X007137Y003898D01*
X007102Y003863D01*
X007013Y003952D01*
X006815Y004034D01*
X006601Y004034D01*
X006404Y003952D01*
X006253Y003801D01*
X006247Y003789D01*
X006206Y003830D01*
X006150Y003871D01*
X006089Y003902D01*
X006023Y003923D01*
X005955Y003934D01*
X005921Y003934D01*
X005921Y003496D01*
X005921Y003059D01*
X005955Y003059D01*
X006023Y003070D01*
X006089Y003091D01*
X006150Y003122D01*
X006206Y003163D01*
X006247Y003204D01*
X006253Y003192D01*
X006404Y003041D01*
X006601Y002959D01*
X006815Y002959D01*
X007013Y003041D01*
X007102Y003130D01*
X007191Y003041D01*
X007389Y002959D01*
X007603Y002959D01*
X007800Y003041D01*
X007814Y003055D01*
X007867Y003002D01*
X007970Y002959D01*
X008596Y002959D01*
X008699Y003002D01*
X008778Y003080D01*
X008821Y003183D01*
X008821Y003810D01*
X008778Y003913D01*
X008699Y003991D01*
X008596Y004034D01*
X007995Y004034D01*
X008118Y004156D01*
X011299Y004156D01*
X011496Y003959D01*
X011315Y004034D01*
X011101Y004034D01*
X010904Y003952D01*
X010753Y003801D01*
X010747Y003789D01*
X010706Y003830D01*
X010650Y003871D01*
X010589Y003902D01*
X010523Y003923D01*
X010455Y003934D01*
X010421Y003934D01*
X010421Y003496D01*
X010421Y003059D01*
X010455Y003059D01*
X010523Y003070D01*
X010589Y003091D01*
X010650Y003122D01*
X010706Y003163D01*
X010747Y003204D01*
X010753Y003192D01*
X010904Y003041D01*
X011101Y002959D01*
X011315Y002959D01*
X011513Y003041D01*
X011602Y003130D01*
X011691Y003041D01*
X011889Y002959D01*
X012103Y002959D01*
X012300Y003041D01*
X012314Y003055D01*
X012367Y003002D01*
X012470Y002959D01*
X013096Y002959D01*
X013199Y003002D01*
X013278Y003080D01*
X013321Y003183D01*
X013321Y003810D01*
X013278Y003913D01*
X013199Y003991D01*
X013096Y004034D01*
X012495Y004034D01*
X012618Y004156D01*
X013295Y004156D01*
X013420Y004208D01*
X014890Y005679D01*
X014942Y005804D01*
X014942Y007856D01*
X018118Y011031D01*
X024138Y011031D01*
X024205Y010965D01*
X024381Y010891D01*
X024572Y010891D01*
X024749Y010965D01*
X024884Y011100D01*
X024957Y011276D01*
X024957Y011406D01*
X025795Y011406D01*
X025920Y011458D01*
X027170Y012708D01*
X027265Y012804D01*
X027317Y012929D01*
X027317Y016939D01*
X027265Y017064D01*
X026080Y018249D01*
X026080Y018342D01*
X026007Y018517D01*
X025873Y018652D01*
X025697Y018725D01*
X025507Y018725D01*
X025331Y018652D01*
X025197Y018517D01*
X025124Y018342D01*
X025124Y018151D01*
X025197Y017976D01*
X025331Y017841D01*
X025507Y017768D01*
X025599Y017768D01*
X025656Y017711D01*
X025316Y017711D01*
X025249Y017778D01*
X025072Y017851D01*
X024881Y017851D01*
X024705Y017778D01*
X024570Y017643D01*
X024497Y017467D01*
X024497Y017276D01*
X024570Y017100D01*
X024705Y016965D01*
X024881Y016891D01*
X025072Y016891D01*
X025249Y016965D01*
X025316Y017031D01*
X025836Y017031D01*
X026262Y016606D01*
X026262Y015823D01*
X026197Y015850D01*
X026007Y015850D01*
X025831Y015777D01*
X025697Y015642D01*
X025624Y015467D01*
X025624Y015276D01*
X025697Y015101D01*
X025831Y014966D01*
X025887Y014943D01*
X025887Y014799D01*
X025760Y014851D01*
X025665Y014851D01*
X024982Y015535D01*
X024857Y015586D01*
X018618Y015586D01*
X016205Y017999D01*
X016205Y018092D01*
X016132Y018267D01*
X015998Y018402D01*
X015822Y018475D01*
X015632Y018475D01*
X015456Y018402D01*
X015322Y018267D01*
X015249Y018092D01*
X015249Y017901D01*
X015322Y017726D01*
X015456Y017591D01*
X015632Y017518D01*
X015724Y017518D01*
X018189Y015054D01*
X018281Y014961D01*
X017743Y014961D01*
X014317Y018387D01*
X014317Y021939D01*
X014315Y021943D01*
X033117Y021943D01*
X033117Y012338D01*
X032920Y012535D01*
X032795Y012586D01*
X030997Y012586D01*
X031244Y012834D01*
X031316Y013006D01*
X031417Y013006D01*
X031417Y013001D01*
X031460Y012898D01*
X031538Y012819D01*
X031641Y012776D01*
X032213Y012776D01*
X032316Y012819D01*
X032373Y012876D01*
X032492Y012876D01*
X032492Y013336D01*
X032562Y013336D01*
X032562Y012876D01*
X032781Y012876D01*
X032826Y012889D01*
X032867Y012912D01*
X032901Y012946D01*
X032925Y012987D01*
X032937Y013033D01*
X032937Y013336D01*
X032562Y013336D01*
X032562Y013406D01*
X032937Y013406D01*
X032937Y013710D01*
X032925Y013756D01*
X032901Y013797D01*
X032867Y013830D01*
X032826Y013854D01*
X032781Y013866D01*
X032562Y013866D01*
X032562Y013406D01*
X032492Y013406D01*
X032492Y013866D01*
X032373Y013866D01*
X032316Y013924D01*
X032213Y013966D01*
X031641Y013966D01*
X031538Y013924D01*
X031460Y013845D01*
X031417Y013742D01*
X031417Y013686D01*
X031316Y013686D01*
X031244Y013859D01*
X031042Y014061D01*
X031618Y014061D01*
X031824Y014147D01*
X031982Y014304D01*
X032067Y014510D01*
X032067Y014733D01*
X031982Y014939D01*
X031824Y015096D01*
X031628Y015177D01*
X031684Y015195D01*
X031748Y015228D01*
X031807Y015271D01*
X031858Y015322D01*
X031900Y015380D01*
X031933Y015445D01*
X031956Y015514D01*
X031967Y015585D01*
X031967Y015611D01*
X031237Y015611D01*
X031237Y015631D01*
X031967Y015631D01*
X031967Y015658D01*
X031956Y015729D01*
X031933Y015798D01*
X031900Y015863D01*
X031858Y015921D01*
X031807Y015972D01*
X031748Y016015D01*
X031684Y016048D01*
X031615Y016070D01*
X031543Y016081D01*
X031237Y016081D01*
X031237Y015631D01*
X031217Y015631D01*
X031217Y015611D01*
X030487Y015611D01*
X030487Y015585D01*
X030498Y015514D01*
X030521Y015445D01*
X030554Y015380D01*
X030596Y015322D01*
X030647Y015271D01*
X030706Y015228D01*
X030770Y015195D01*
X030825Y015177D01*
X030630Y015096D01*
X030472Y014939D01*
X030387Y014733D01*
X030387Y014510D01*
X030472Y014304D01*
X030525Y014251D01*
X030297Y014251D01*
X029964Y014114D01*
X029710Y013859D01*
X029572Y013526D01*
X029572Y013166D01*
X029710Y012834D01*
X029957Y012586D01*
X028243Y012586D01*
X028208Y012621D01*
X028515Y012929D01*
X028567Y013054D01*
X028567Y016905D01*
X028745Y016831D01*
X028959Y016831D01*
X029158Y016914D01*
X029310Y017066D01*
X029352Y017167D01*
X029394Y017066D01*
X029546Y016914D01*
X029745Y016831D01*
X029959Y016831D01*
X030158Y016914D01*
X030310Y017066D01*
X030392Y017264D01*
X030392Y017479D01*
X030310Y017677D01*
X030158Y017829D01*
X029959Y017911D01*
X029745Y017911D01*
X029546Y017829D01*
X029394Y017677D01*
X029352Y017575D01*
X029310Y017677D01*
X029158Y017829D01*
X028959Y017911D01*
X028745Y017911D01*
X028546Y017829D01*
X028520Y017803D01*
X028515Y017814D01*
X027357Y018972D01*
X027451Y019067D01*
X027456Y019079D01*
X027498Y019038D01*
X027554Y018997D01*
X027615Y018966D01*
X027681Y018945D01*
X027749Y018934D01*
X027783Y018934D01*
X027783Y019371D01*
X027783Y019371D01*
X027783Y018934D01*
X027818Y018934D01*
X027886Y018945D01*
X027951Y018966D01*
X028012Y018997D01*
X028068Y019038D01*
X028117Y019086D01*
X028157Y019142D01*
X028188Y019204D01*
X028210Y019269D01*
X028221Y019337D01*
X028221Y019371D01*
X027783Y019371D01*
X027783Y019371D01*
X028221Y019371D01*
X028221Y019406D01*
X028210Y019474D01*
X028188Y019539D01*
X028157Y019601D01*
X028117Y019656D01*
X028068Y019705D01*
X028012Y019746D01*
X027951Y019777D01*
X027937Y019781D01*
X029423Y019781D01*
X029383Y019685D01*
X029383Y019058D01*
X029426Y018955D01*
X029505Y018877D01*
X029608Y018834D01*
X030234Y018834D01*
X030337Y018877D01*
X030390Y018930D01*
X030404Y018916D01*
X030601Y018834D01*
X030815Y018834D01*
X031013Y018916D01*
X031191Y018916D01*
X031389Y018834D01*
X031603Y018834D01*
X031800Y018916D01*
X031951Y019067D01*
X031956Y019079D01*
X031998Y019038D01*
X032054Y018997D01*
X032115Y018966D01*
X032181Y018945D01*
X032249Y018934D01*
X032283Y018934D01*
X032283Y019371D01*
X032283Y019371D01*
X032283Y018934D01*
X032318Y018934D01*
X032386Y018945D01*
X032451Y018966D01*
X032512Y018997D01*
X032568Y019038D01*
X032617Y019086D01*
X032657Y019142D01*
X032688Y019204D01*
X032710Y019269D01*
X032721Y019337D01*
X032721Y019371D01*
X032283Y019371D01*
X032283Y019371D01*
X032721Y019371D01*
X032721Y019406D01*
X032710Y019474D01*
X032688Y019539D01*
X032657Y019601D01*
X032617Y019656D01*
X032568Y019705D01*
X032512Y019746D01*
X032451Y019777D01*
X032386Y019798D01*
X032318Y019809D01*
X032283Y019809D01*
X032249Y019809D01*
X032181Y019798D01*
X032115Y019777D01*
X032054Y019746D01*
X031998Y019705D01*
X031956Y019664D01*
X031951Y019676D01*
X031817Y019810D01*
X031817Y019939D01*
X031765Y020064D01*
X031515Y020314D01*
X031420Y020410D01*
X031295Y020461D01*
X027197Y020461D01*
X027072Y020410D01*
X026996Y020334D01*
X026920Y020410D01*
X026795Y020461D01*
X022659Y020461D01*
X022534Y020410D01*
X022477Y020352D01*
X022420Y020410D01*
X022295Y020461D01*
X018159Y020461D01*
X018034Y020410D01*
X017939Y020314D01*
X017707Y020083D01*
X017656Y019958D01*
X017656Y019792D01*
X017602Y019738D01*
X017513Y019827D01*
X017315Y019909D01*
X017101Y019909D01*
X016904Y019827D01*
X016890Y019813D01*
X016837Y019866D01*
X016734Y019909D01*
X016108Y019909D01*
X016005Y019866D01*
X015926Y019788D01*
X015883Y019685D01*
X015883Y019058D01*
X015926Y018955D01*
X016005Y018877D01*
X016108Y018834D01*
X016734Y018834D01*
X016837Y018877D01*
X016880Y018920D01*
X016920Y018823D01*
X017189Y018554D01*
X017284Y018458D01*
X017409Y018406D01*
X020682Y018406D01*
X020807Y018458D01*
X021113Y018764D01*
X021183Y018834D01*
X021234Y018834D01*
X021337Y018877D01*
X021390Y018930D01*
X021404Y018916D01*
X021601Y018834D01*
X021815Y018834D01*
X022013Y018916D01*
X022191Y018916D01*
X022389Y018834D01*
X022603Y018834D01*
X022800Y018916D01*
X022951Y019067D01*
X022956Y019079D01*
X022998Y019038D01*
X023054Y018997D01*
X023115Y018966D01*
X023181Y018945D01*
X023249Y018934D01*
X023283Y018934D01*
X023283Y019371D01*
X023283Y019371D01*
X023283Y018934D01*
X023318Y018934D01*
X023386Y018945D01*
X023451Y018966D01*
X023512Y018997D01*
X023568Y019038D01*
X023617Y019086D01*
X023657Y019142D01*
X023688Y019204D01*
X023710Y019269D01*
X023721Y019337D01*
X023721Y019371D01*
X023283Y019371D01*
X023283Y019371D01*
X023721Y019371D01*
X023721Y019406D01*
X023710Y019474D01*
X023688Y019539D01*
X023657Y019601D01*
X023617Y019656D01*
X023568Y019705D01*
X023512Y019746D01*
X023451Y019777D01*
X023437Y019781D01*
X024923Y019781D01*
X024883Y019685D01*
X024883Y019058D01*
X024926Y018955D01*
X025005Y018877D01*
X025108Y018834D01*
X025734Y018834D01*
X025837Y018877D01*
X025890Y018930D01*
X025904Y018916D01*
X026101Y018834D01*
X026315Y018834D01*
X026513Y018916D01*
X026656Y018916D01*
X026656Y018951D02*
X026656Y018785D01*
X026707Y018660D01*
X027887Y017481D01*
X027887Y013262D01*
X027726Y013101D01*
X027631Y013101D01*
X027455Y013028D01*
X027320Y012893D01*
X027302Y012893D01*
X027320Y012893D02*
X027247Y012717D01*
X027247Y012526D01*
X027320Y012350D01*
X027455Y012215D01*
X027631Y012141D01*
X027726Y012141D01*
X027814Y012054D01*
X027909Y011958D01*
X028034Y011906D01*
X032586Y011906D01*
X032762Y011731D01*
X032762Y005996D01*
X030789Y005996D01*
X027289Y009496D01*
X023942Y009496D01*
X023942Y010160D01*
X024007Y010226D01*
X024080Y010401D01*
X024080Y010592D01*
X024007Y010767D01*
X023873Y010902D01*
X023697Y010975D01*
X023507Y010975D01*
X023331Y010902D01*
X023197Y010767D01*
X023126Y010597D01*
X022956Y010527D01*
X022822Y010392D01*
X022749Y010217D01*
X022749Y010026D01*
X022822Y009851D01*
X022887Y009785D01*
X022887Y009496D01*
X018289Y009496D01*
X015227Y006434D01*
X015227Y000906D01*
X000662Y000906D01*
X000662Y010706D01*
X000851Y010516D01*
X001052Y010516D01*
X001052Y011071D01*
X001152Y011071D01*
X001152Y010516D01*
X001353Y010516D01*
X001707Y010871D01*
X001707Y011071D01*
X001152Y011071D01*
X001152Y011171D01*
X001707Y011171D01*
X001707Y011372D01*
X001353Y011726D01*
X001152Y011726D01*
X001152Y011171D01*
X001052Y011171D01*
X001052Y011726D01*
X000851Y011726D01*
X000662Y011537D01*
X000662Y012581D01*
X001344Y012581D01*
X001543Y012664D01*
X001695Y012816D01*
X001777Y013014D01*
X001777Y013229D01*
X001695Y013427D01*
X001543Y013579D01*
X001441Y013621D01*
X001543Y013664D01*
X001695Y013816D01*
X001777Y014014D01*
X001777Y014229D01*
X001695Y014427D01*
X001543Y014579D01*
X001344Y014661D01*
X001317Y014661D01*
X001317Y015106D01*
X001493Y015281D01*
X004516Y015281D01*
X004581Y015216D01*
X004757Y015143D01*
X004947Y015143D01*
X005123Y015216D01*
X005257Y015351D01*
X005262Y015362D01*
X005262Y015270D02*
X005177Y015270D01*
X005262Y015112D02*
X001323Y015112D01*
X001317Y014953D02*
X005262Y014953D01*
X005262Y014795D02*
X001317Y014795D01*
X001405Y014636D02*
X003549Y014636D01*
X003310Y014478D02*
X001644Y014478D01*
X001739Y014319D02*
X003215Y014319D01*
X003177Y014161D02*
X001777Y014161D01*
X001772Y014002D02*
X003182Y014002D01*
X003247Y013844D02*
X001707Y013844D01*
X001565Y013685D02*
X003389Y013685D01*
X003359Y013527D02*
X001595Y013527D01*
X001719Y013368D02*
X003235Y013368D01*
X003177Y013210D02*
X001777Y013210D01*
X001777Y013051D02*
X003177Y013051D01*
X003227Y012893D02*
X001727Y012893D01*
X001614Y012734D02*
X003340Y012734D01*
X004614Y012734D02*
X016984Y012734D01*
X016826Y012576D02*
X000662Y012576D01*
X000662Y012417D02*
X016667Y012417D01*
X016509Y012259D02*
X000662Y012259D01*
X000662Y012100D02*
X016350Y012100D01*
X016192Y011942D02*
X000662Y011942D01*
X000662Y011783D02*
X016033Y011783D01*
X015875Y011625D02*
X001454Y011625D01*
X001613Y011466D02*
X015716Y011466D01*
X015558Y011308D02*
X001707Y011308D01*
X001707Y010991D02*
X015241Y010991D01*
X015399Y011149D02*
X001152Y011149D01*
X001152Y010991D02*
X001052Y010991D01*
X001052Y010832D02*
X001152Y010832D01*
X001152Y010674D02*
X001052Y010674D01*
X000694Y010674D02*
X000662Y010674D01*
X000662Y010515D02*
X014765Y010515D01*
X014607Y010357D02*
X000662Y010357D01*
X000662Y010198D02*
X014448Y010198D01*
X014290Y010040D02*
X000662Y010040D01*
X000662Y009881D02*
X014131Y009881D01*
X013973Y009723D02*
X000662Y009723D01*
X000662Y009564D02*
X013814Y009564D01*
X013656Y009406D02*
X000662Y009406D01*
X000662Y009247D02*
X001448Y009247D01*
X001477Y009276D02*
X000947Y008746D01*
X000947Y007997D01*
X001477Y007466D01*
X002227Y007466D01*
X002561Y007800D01*
X002561Y007643D01*
X002576Y007549D01*
X002606Y007457D01*
X002649Y007372D01*
X002706Y007294D01*
X002773Y007226D01*
X002851Y007170D01*
X002937Y007126D01*
X003028Y007096D01*
X003123Y007081D01*
X003171Y007081D01*
X003219Y007081D01*
X003314Y007096D01*
X003405Y007126D01*
X003491Y007170D01*
X003568Y007226D01*
X003636Y007294D01*
X003693Y007372D01*
X003736Y007457D01*
X003766Y007549D01*
X003781Y007643D01*
X003781Y008121D01*
X003171Y008121D01*
X003171Y007081D01*
X003171Y008121D01*
X003171Y008121D01*
X003171Y008121D01*
X003781Y008121D01*
X003781Y008599D01*
X003766Y008694D01*
X003736Y008786D01*
X003693Y008871D01*
X003636Y008949D01*
X003568Y009017D01*
X003491Y009073D01*
X003405Y009117D01*
X003314Y009146D01*
X003219Y009161D01*
X003171Y009161D01*
X003171Y008121D01*
X003171Y008121D01*
X003171Y009161D01*
X003123Y009161D01*
X003028Y009146D01*
X002937Y009117D01*
X002851Y009073D01*
X002773Y009017D01*
X002706Y008949D01*
X002649Y008871D01*
X002643Y008860D01*
X002227Y009276D01*
X001477Y009276D01*
X001290Y009089D02*
X000662Y009089D01*
X000662Y008930D02*
X001131Y008930D01*
X000973Y008772D02*
X000662Y008772D01*
X000662Y008613D02*
X000947Y008613D01*
X000947Y008455D02*
X000662Y008455D01*
X000662Y008296D02*
X000947Y008296D01*
X000947Y008138D02*
X000662Y008138D01*
X000662Y007979D02*
X000964Y007979D01*
X001123Y007821D02*
X000662Y007821D01*
X000662Y007662D02*
X001281Y007662D01*
X001440Y007504D02*
X000662Y007504D01*
X000662Y007345D02*
X002668Y007345D01*
X002590Y007504D02*
X002264Y007504D01*
X002423Y007662D02*
X002561Y007662D01*
X002827Y007187D02*
X000662Y007187D01*
X000662Y007028D02*
X001371Y007028D01*
X001519Y007176D02*
X001047Y006705D01*
X001047Y006421D01*
X001802Y006421D01*
X001802Y006321D01*
X001902Y006321D01*
X001902Y005566D01*
X002185Y005566D01*
X002657Y006038D01*
X002657Y006321D01*
X001902Y006321D01*
X001902Y006421D01*
X002657Y006421D01*
X002657Y006705D01*
X002185Y007176D01*
X001902Y007176D01*
X001902Y006421D01*
X001802Y006421D01*
X001802Y007176D01*
X001519Y007176D01*
X001802Y007028D02*
X001902Y007028D01*
X001902Y006870D02*
X001802Y006870D01*
X001802Y006711D02*
X001902Y006711D01*
X001902Y006553D02*
X001802Y006553D01*
X001802Y006394D02*
X000662Y006394D01*
X000662Y006236D02*
X001047Y006236D01*
X001047Y006321D02*
X001047Y006038D01*
X001519Y005566D01*
X001802Y005566D01*
X001802Y006321D01*
X001047Y006321D01*
X001047Y006553D02*
X000662Y006553D01*
X000662Y006711D02*
X001054Y006711D01*
X001212Y006870D02*
X000662Y006870D01*
X000662Y006077D02*
X001047Y006077D01*
X001166Y005919D02*
X000662Y005919D01*
X000662Y005760D02*
X001325Y005760D01*
X001483Y005602D02*
X000662Y005602D01*
X000662Y005443D02*
X003318Y005443D01*
X003160Y005285D02*
X000662Y005285D01*
X000662Y005126D02*
X003001Y005126D01*
X002843Y004968D02*
X000662Y004968D01*
X000662Y004809D02*
X002698Y004809D01*
X002656Y004651D02*
X000662Y004651D01*
X000662Y004492D02*
X002656Y004492D01*
X002656Y004334D02*
X000662Y004334D01*
X000662Y004175D02*
X002656Y004175D01*
X002656Y004017D02*
X002356Y004017D01*
X002060Y004017D02*
X000662Y004017D01*
X000662Y003858D02*
X001175Y003858D01*
X001192Y003871D02*
X001136Y003830D01*
X001087Y003781D01*
X001047Y003726D01*
X001015Y003664D01*
X000994Y003599D01*
X000983Y003531D01*
X000983Y003496D01*
X000983Y003462D01*
X000994Y003394D01*
X001015Y003329D01*
X001047Y003267D01*
X001087Y003211D01*
X001136Y003163D01*
X001192Y003122D01*
X001253Y003091D01*
X001318Y003070D01*
X001386Y003059D01*
X001421Y003059D01*
X001421Y003496D01*
X001421Y003496D01*
X000983Y003496D01*
X001421Y003496D01*
X001421Y003496D01*
X001421Y003496D01*
X001421Y003934D01*
X001386Y003934D01*
X001318Y003923D01*
X001253Y003902D01*
X001192Y003871D01*
X001421Y003858D02*
X001421Y003858D01*
X001421Y003700D02*
X001421Y003700D01*
X001421Y003541D02*
X001421Y003541D01*
X001421Y003383D02*
X001421Y003383D01*
X001421Y003224D02*
X001421Y003224D01*
X001421Y003066D02*
X001421Y003066D01*
X001499Y003066D02*
X001879Y003066D01*
X001342Y003066D02*
X000662Y003066D01*
X000662Y003224D02*
X001078Y003224D01*
X000998Y003383D02*
X000662Y003383D01*
X000662Y003541D02*
X000985Y003541D01*
X001034Y003700D02*
X000662Y003700D01*
X001667Y003858D02*
X001810Y003858D01*
X002538Y003066D02*
X002666Y003066D01*
X004264Y003066D02*
X005842Y003066D01*
X005818Y003070D02*
X005886Y003059D01*
X005921Y003059D01*
X005921Y003496D01*
X005921Y003496D01*
X005483Y003496D01*
X005483Y003462D01*
X005494Y003394D01*
X005515Y003329D01*
X005547Y003267D01*
X005587Y003211D01*
X005636Y003163D01*
X005692Y003122D01*
X005753Y003091D01*
X005818Y003070D01*
X005921Y003066D02*
X005921Y003066D01*
X005999Y003066D02*
X006379Y003066D01*
X005921Y003224D02*
X005921Y003224D01*
X005921Y003383D02*
X005921Y003383D01*
X005921Y003496D02*
X005921Y003496D01*
X005483Y003496D01*
X005483Y003531D01*
X005494Y003599D01*
X005515Y003664D01*
X005547Y003726D01*
X005587Y003781D01*
X005636Y003830D01*
X005692Y003871D01*
X005753Y003902D01*
X005818Y003923D01*
X005886Y003934D01*
X005921Y003934D01*
X005921Y003496D01*
X005921Y003496D01*
X005921Y003541D02*
X005921Y003541D01*
X005921Y003700D02*
X005921Y003700D01*
X005921Y003858D02*
X005921Y003858D01*
X006167Y003858D02*
X006310Y003858D01*
X006560Y004017D02*
X004137Y004017D01*
X004137Y004175D02*
X007183Y004175D01*
X007137Y004017D02*
X006856Y004017D01*
X007334Y004334D02*
X004295Y004334D01*
X004454Y004492D02*
X007492Y004492D01*
X008637Y004017D02*
X011060Y004017D01*
X010810Y003858D02*
X010667Y003858D01*
X010421Y003858D02*
X010421Y003858D01*
X010421Y003934D02*
X010421Y003496D01*
X010421Y003496D01*
X010421Y003059D01*
X010386Y003059D01*
X010318Y003070D01*
X010253Y003091D01*
X010192Y003122D01*
X010136Y003163D01*
X010087Y003211D01*
X010047Y003267D01*
X010015Y003329D01*
X009994Y003394D01*
X009983Y003462D01*
X009983Y003496D01*
X010421Y003496D01*
X010421Y003496D01*
X009983Y003496D01*
X009983Y003531D01*
X009994Y003599D01*
X010015Y003664D01*
X010047Y003726D01*
X010087Y003781D01*
X010136Y003830D01*
X010192Y003871D01*
X010253Y003902D01*
X010318Y003923D01*
X010386Y003934D01*
X010421Y003934D01*
X010421Y003700D02*
X010421Y003700D01*
X010421Y003541D02*
X010421Y003541D01*
X010421Y003496D02*
X010421Y003496D01*
X010421Y003383D02*
X010421Y003383D01*
X010421Y003224D02*
X010421Y003224D01*
X010421Y003066D02*
X010421Y003066D01*
X010499Y003066D02*
X010879Y003066D01*
X010342Y003066D02*
X008764Y003066D01*
X008821Y003224D02*
X010078Y003224D01*
X009998Y003383D02*
X008821Y003383D01*
X008821Y003541D02*
X009985Y003541D01*
X010034Y003700D02*
X008821Y003700D01*
X008800Y003858D02*
X010175Y003858D01*
X011356Y004017D02*
X011438Y004017D01*
X011538Y003066D02*
X011666Y003066D01*
X013137Y004017D02*
X015227Y004017D01*
X015227Y004175D02*
X013340Y004175D01*
X013545Y004334D02*
X015227Y004334D01*
X015227Y004492D02*
X013704Y004492D01*
X013862Y004651D02*
X015227Y004651D01*
X015227Y004809D02*
X014021Y004809D01*
X014179Y004968D02*
X015227Y004968D01*
X015227Y005126D02*
X014338Y005126D01*
X014496Y005285D02*
X015227Y005285D01*
X015227Y005443D02*
X014655Y005443D01*
X014813Y005602D02*
X015227Y005602D01*
X015227Y005760D02*
X014924Y005760D01*
X014942Y005919D02*
X015227Y005919D01*
X015227Y006077D02*
X014942Y006077D01*
X014942Y006236D02*
X015227Y006236D01*
X015227Y006394D02*
X014942Y006394D01*
X014942Y006553D02*
X015346Y006553D01*
X015504Y006711D02*
X014942Y006711D01*
X014942Y006870D02*
X015663Y006870D01*
X015821Y007028D02*
X014942Y007028D01*
X014942Y007187D02*
X015980Y007187D01*
X016138Y007345D02*
X014942Y007345D01*
X014942Y007504D02*
X016297Y007504D01*
X016455Y007662D02*
X014942Y007662D01*
X014942Y007821D02*
X016614Y007821D01*
X016772Y007979D02*
X015066Y007979D01*
X015224Y008138D02*
X016931Y008138D01*
X017089Y008296D02*
X015383Y008296D01*
X015541Y008455D02*
X017248Y008455D01*
X017406Y008613D02*
X015700Y008613D01*
X015858Y008772D02*
X017565Y008772D01*
X017723Y008930D02*
X016017Y008930D01*
X016175Y009089D02*
X017882Y009089D01*
X018040Y009247D02*
X016334Y009247D01*
X016492Y009406D02*
X018199Y009406D01*
X017285Y010198D02*
X022749Y010198D01*
X022749Y010040D02*
X017126Y010040D01*
X016968Y009881D02*
X022809Y009881D01*
X022887Y009723D02*
X016809Y009723D01*
X016651Y009564D02*
X022887Y009564D01*
X023942Y009564D02*
X032762Y009564D01*
X032762Y009406D02*
X027380Y009406D01*
X027538Y009247D02*
X032762Y009247D01*
X032762Y009089D02*
X027697Y009089D01*
X027855Y008930D02*
X030005Y008930D01*
X029964Y008914D02*
X029710Y008659D01*
X029572Y008326D01*
X029572Y007966D01*
X029710Y007634D01*
X029964Y007379D01*
X030297Y007241D01*
X030657Y007241D01*
X030990Y007379D01*
X031244Y007634D01*
X031382Y007966D01*
X031382Y008326D01*
X031244Y008659D01*
X030990Y008914D01*
X030657Y009051D01*
X030297Y009051D01*
X029964Y008914D01*
X029823Y008772D02*
X028014Y008772D01*
X028172Y008613D02*
X029691Y008613D01*
X029625Y008455D02*
X028331Y008455D01*
X028489Y008296D02*
X029572Y008296D01*
X029572Y008138D02*
X028648Y008138D01*
X028806Y007979D02*
X029572Y007979D01*
X029632Y007821D02*
X028965Y007821D01*
X029123Y007662D02*
X029698Y007662D01*
X029840Y007504D02*
X029282Y007504D01*
X029440Y007345D02*
X030046Y007345D01*
X029757Y007028D02*
X032762Y007028D01*
X032762Y006870D02*
X029916Y006870D01*
X030074Y006711D02*
X032762Y006711D01*
X032762Y006553D02*
X030233Y006553D01*
X030391Y006394D02*
X032762Y006394D01*
X032762Y006236D02*
X030550Y006236D01*
X030708Y006077D02*
X032762Y006077D01*
X032762Y007187D02*
X029599Y007187D01*
X030908Y007345D02*
X032762Y007345D01*
X032762Y007504D02*
X031114Y007504D01*
X031256Y007662D02*
X032762Y007662D01*
X032762Y007821D02*
X031322Y007821D01*
X031382Y007979D02*
X032762Y007979D01*
X032762Y008138D02*
X031382Y008138D01*
X031382Y008296D02*
X032762Y008296D01*
X032762Y008455D02*
X031329Y008455D01*
X031263Y008613D02*
X032762Y008613D01*
X032762Y008772D02*
X031131Y008772D01*
X030949Y008930D02*
X032762Y008930D01*
X032762Y009723D02*
X023942Y009723D01*
X023942Y009881D02*
X029538Y009881D01*
X029529Y009897D02*
X029553Y009856D01*
X029586Y009822D01*
X029627Y009799D01*
X029673Y009786D01*
X030477Y009786D01*
X031281Y009786D01*
X031326Y009799D01*
X031367Y009822D01*
X031401Y009856D01*
X031425Y009897D01*
X031437Y009943D01*
X031437Y010746D01*
X030477Y010746D01*
X030477Y009786D01*
X030477Y010746D01*
X030477Y010746D01*
X030477Y010746D01*
X029517Y010746D01*
X029517Y009943D01*
X029529Y009897D01*
X029517Y010040D02*
X023942Y010040D01*
X023980Y010198D02*
X029517Y010198D01*
X029517Y010357D02*
X024062Y010357D01*
X024080Y010515D02*
X029517Y010515D01*
X029517Y010674D02*
X024046Y010674D01*
X023942Y010832D02*
X029517Y010832D01*
X029517Y010746D02*
X030477Y010746D01*
X030477Y010746D01*
X031437Y010746D01*
X031437Y011550D01*
X031425Y011596D01*
X031401Y011637D01*
X031367Y011670D01*
X031326Y011694D01*
X031281Y011706D01*
X030477Y011706D01*
X030477Y010746D01*
X030477Y010746D01*
X030477Y011706D01*
X029673Y011706D01*
X029627Y011694D01*
X029586Y011670D01*
X029553Y011637D01*
X029529Y011596D01*
X029517Y011550D01*
X029517Y010746D01*
X029517Y010991D02*
X024775Y010991D01*
X024905Y011149D02*
X029517Y011149D01*
X029517Y011308D02*
X024957Y011308D01*
X024179Y010991D02*
X018077Y010991D01*
X017919Y010832D02*
X023262Y010832D01*
X023158Y010674D02*
X017760Y010674D01*
X017602Y010515D02*
X022945Y010515D01*
X022807Y010357D02*
X017443Y010357D01*
X015082Y010832D02*
X001669Y010832D01*
X001510Y010674D02*
X014924Y010674D01*
X013497Y009247D02*
X005708Y009247D01*
X005674Y009261D02*
X005392Y009261D01*
X005131Y009153D01*
X004931Y008954D01*
X004823Y008693D01*
X004823Y007550D01*
X004931Y007289D01*
X005131Y007090D01*
X005392Y006981D01*
X005674Y006981D01*
X005935Y007090D01*
X006135Y007289D01*
X006243Y007550D01*
X006243Y008693D01*
X006135Y008954D01*
X005935Y009153D01*
X005674Y009261D01*
X005358Y009247D02*
X002256Y009247D01*
X002414Y009089D02*
X002882Y009089D01*
X002692Y008930D02*
X002573Y008930D01*
X003171Y008930D02*
X003171Y008930D01*
X003171Y008772D02*
X003171Y008772D01*
X003171Y008613D02*
X003171Y008613D01*
X003171Y008455D02*
X003171Y008455D01*
X003171Y008296D02*
X003171Y008296D01*
X003171Y008138D02*
X003171Y008138D01*
X003171Y007979D02*
X003171Y007979D01*
X003171Y007821D02*
X003171Y007821D01*
X003171Y007662D02*
X003171Y007662D01*
X003171Y007504D02*
X003171Y007504D01*
X003171Y007345D02*
X003171Y007345D01*
X003171Y007187D02*
X003171Y007187D01*
X003514Y007187D02*
X005033Y007187D01*
X004908Y007345D02*
X003673Y007345D01*
X003751Y007504D02*
X004842Y007504D01*
X004823Y007662D02*
X003781Y007662D01*
X003781Y007821D02*
X004823Y007821D01*
X004823Y007979D02*
X003781Y007979D01*
X003781Y008138D02*
X004823Y008138D01*
X004823Y008296D02*
X003781Y008296D01*
X003781Y008455D02*
X004823Y008455D01*
X004823Y008613D02*
X003779Y008613D01*
X003741Y008772D02*
X004856Y008772D01*
X004922Y008930D02*
X003649Y008930D01*
X003460Y009089D02*
X005066Y009089D01*
X006000Y009089D02*
X013339Y009089D01*
X013185Y008930D02*
X006145Y008930D01*
X006210Y008772D02*
X013137Y008772D01*
X013137Y008613D02*
X006243Y008613D01*
X006243Y008455D02*
X009684Y008455D01*
X009751Y008494D02*
X009507Y008353D01*
X009308Y008154D01*
X009167Y007910D01*
X009094Y007637D01*
X009094Y007356D01*
X009167Y007083D01*
X009308Y006839D01*
X009507Y006640D01*
X009751Y006499D01*
X010024Y006426D01*
X010305Y006426D01*
X010578Y006499D01*
X010822Y006640D01*
X011021Y006839D01*
X011162Y007083D01*
X011235Y007356D01*
X011235Y007637D01*
X011162Y007910D01*
X011021Y008154D01*
X010822Y008353D01*
X010578Y008494D01*
X010305Y008567D01*
X010024Y008567D01*
X009751Y008494D01*
X009450Y008296D02*
X006243Y008296D01*
X006243Y008138D02*
X009299Y008138D01*
X009207Y007979D02*
X006243Y007979D01*
X006243Y007821D02*
X009143Y007821D01*
X009101Y007662D02*
X006243Y007662D01*
X006224Y007504D02*
X009094Y007504D01*
X009097Y007345D02*
X006158Y007345D01*
X006033Y007187D02*
X009139Y007187D01*
X009198Y007028D02*
X005788Y007028D01*
X005278Y007028D02*
X002333Y007028D01*
X002492Y006870D02*
X009290Y006870D01*
X009435Y006711D02*
X005159Y006711D01*
X005179Y006697D02*
X005102Y006753D01*
X005016Y006797D01*
X004925Y006827D01*
X004830Y006842D01*
X004352Y006842D01*
X004352Y006232D01*
X004352Y006232D01*
X004352Y006842D01*
X003874Y006842D01*
X003779Y006827D01*
X003688Y006797D01*
X003602Y006753D01*
X003525Y006697D01*
X003457Y006629D01*
X003400Y006551D01*
X003357Y006466D01*
X003327Y006375D01*
X003312Y006280D01*
X003312Y006232D01*
X004352Y006232D01*
X005392Y006232D01*
X005392Y006280D01*
X005377Y006375D01*
X005347Y006466D01*
X005304Y006551D01*
X005247Y006629D01*
X005179Y006697D01*
X005303Y006553D02*
X009658Y006553D01*
X010671Y006553D02*
X012928Y006553D01*
X013086Y006711D02*
X010893Y006711D01*
X011039Y006870D02*
X013137Y006870D01*
X013137Y007028D02*
X011130Y007028D01*
X011190Y007187D02*
X013137Y007187D01*
X013137Y007345D02*
X011232Y007345D01*
X011235Y007504D02*
X013137Y007504D01*
X013137Y007662D02*
X011228Y007662D01*
X011186Y007821D02*
X013137Y007821D01*
X013137Y007979D02*
X011122Y007979D01*
X011030Y008138D02*
X013137Y008138D01*
X013137Y008296D02*
X010878Y008296D01*
X010645Y008455D02*
X013137Y008455D01*
X012769Y006394D02*
X005370Y006394D01*
X005392Y006236D02*
X012611Y006236D01*
X012329Y006077D02*
X005373Y006077D01*
X005377Y006089D02*
X005392Y006184D01*
X005392Y006232D01*
X004352Y006232D01*
X004352Y006232D01*
X004352Y006232D01*
X003312Y006232D01*
X003312Y006184D01*
X003327Y006089D01*
X003357Y005998D01*
X003400Y005912D01*
X003457Y005834D01*
X003525Y005766D01*
X003602Y005710D01*
X003688Y005666D01*
X003779Y005637D01*
X003874Y005622D01*
X004352Y005622D01*
X004830Y005622D01*
X004925Y005637D01*
X005016Y005666D01*
X005102Y005710D01*
X005179Y005766D01*
X005247Y005834D01*
X005304Y005912D01*
X005347Y005998D01*
X005377Y006089D01*
X005307Y005919D02*
X012098Y005919D01*
X012017Y005760D02*
X005171Y005760D01*
X004352Y005760D02*
X004352Y005760D01*
X004352Y005622D02*
X004352Y006232D01*
X004352Y006232D01*
X004352Y005622D01*
X004352Y005919D02*
X004352Y005919D01*
X004352Y006077D02*
X004352Y006077D01*
X004352Y006236D02*
X004352Y006236D01*
X004352Y006394D02*
X004352Y006394D01*
X004352Y006553D02*
X004352Y006553D01*
X004352Y006711D02*
X004352Y006711D01*
X003545Y006711D02*
X002650Y006711D01*
X002657Y006553D02*
X003401Y006553D01*
X003333Y006394D02*
X001902Y006394D01*
X001902Y006236D02*
X001802Y006236D01*
X001802Y006077D02*
X001902Y006077D01*
X001902Y005919D02*
X001802Y005919D01*
X001802Y005760D02*
X001902Y005760D01*
X001902Y005602D02*
X001802Y005602D01*
X002221Y005602D02*
X011999Y005602D01*
X013300Y003858D02*
X015227Y003858D01*
X015227Y003700D02*
X013321Y003700D01*
X013321Y003541D02*
X015227Y003541D01*
X015227Y003383D02*
X013321Y003383D01*
X013321Y003224D02*
X015227Y003224D01*
X015227Y003066D02*
X013264Y003066D01*
X015227Y002907D02*
X000662Y002907D01*
X000662Y002749D02*
X015227Y002749D01*
X015227Y002590D02*
X000662Y002590D01*
X000662Y002432D02*
X015227Y002432D01*
X015227Y002273D02*
X000662Y002273D01*
X000662Y002115D02*
X015227Y002115D01*
X015227Y001956D02*
X000662Y001956D01*
X000662Y001798D02*
X015227Y001798D01*
X015227Y001639D02*
X000662Y001639D01*
X000662Y001481D02*
X015227Y001481D01*
X015227Y001322D02*
X000662Y001322D01*
X000662Y001164D02*
X015227Y001164D01*
X015227Y001005D02*
X000662Y001005D01*
X004321Y003224D02*
X005578Y003224D01*
X005498Y003383D02*
X004321Y003383D01*
X004321Y003541D02*
X005485Y003541D01*
X005534Y003700D02*
X004321Y003700D01*
X004300Y003858D02*
X005675Y003858D01*
X007038Y003066D02*
X007166Y003066D01*
X003533Y005760D02*
X002379Y005760D01*
X002538Y005919D02*
X003397Y005919D01*
X003331Y006077D02*
X002657Y006077D01*
X002657Y006236D02*
X003312Y006236D01*
X003171Y009089D02*
X003171Y009089D01*
X001152Y011308D02*
X001052Y011308D01*
X001052Y011466D02*
X001152Y011466D01*
X001152Y011625D02*
X001052Y011625D01*
X000750Y011625D02*
X000662Y011625D01*
X004644Y014478D02*
X004978Y014478D01*
X005136Y014636D02*
X004405Y014636D01*
X004527Y015270D02*
X001482Y015270D01*
X001391Y016063D02*
X004669Y016063D01*
X006192Y016063D02*
X015055Y016063D01*
X015213Y015904D02*
X006192Y015904D01*
X006192Y015746D02*
X015372Y015746D01*
X015530Y015587D02*
X006192Y015587D01*
X006192Y015429D02*
X015689Y015429D01*
X015847Y015270D02*
X006192Y015270D01*
X006192Y015112D02*
X016006Y015112D01*
X016164Y014953D02*
X006192Y014953D01*
X006192Y014795D02*
X016323Y014795D01*
X016481Y014636D02*
X006192Y014636D01*
X006192Y014478D02*
X016640Y014478D01*
X016798Y014319D02*
X006192Y014319D01*
X006192Y014161D02*
X016957Y014161D01*
X017115Y014002D02*
X006192Y014002D01*
X006192Y013844D02*
X018149Y013844D01*
X018307Y013685D02*
X006192Y013685D01*
X006181Y013527D02*
X018466Y013527D01*
X018624Y013368D02*
X006080Y013368D01*
X005921Y013210D02*
X018783Y013210D01*
X018941Y013051D02*
X005763Y013051D01*
X005604Y012893D02*
X022850Y012893D01*
X025928Y011466D02*
X029517Y011466D01*
X029546Y011625D02*
X026086Y011625D01*
X026245Y011783D02*
X032709Y011783D01*
X032762Y011625D02*
X031408Y011625D01*
X031437Y011466D02*
X032762Y011466D01*
X032762Y011308D02*
X031437Y011308D01*
X031437Y011149D02*
X032762Y011149D01*
X032762Y010991D02*
X031437Y010991D01*
X031437Y010832D02*
X032762Y010832D01*
X032762Y010674D02*
X031437Y010674D01*
X031437Y010515D02*
X032762Y010515D01*
X032762Y010357D02*
X031437Y010357D01*
X031437Y010198D02*
X032762Y010198D01*
X032762Y010040D02*
X031437Y010040D01*
X031416Y009881D02*
X032762Y009881D01*
X030477Y009881D02*
X030477Y009881D01*
X030477Y010040D02*
X030477Y010040D01*
X030477Y010198D02*
X030477Y010198D01*
X030477Y010357D02*
X030477Y010357D01*
X030477Y010515D02*
X030477Y010515D01*
X030477Y010674D02*
X030477Y010674D01*
X030477Y010832D02*
X030477Y010832D01*
X030477Y010991D02*
X030477Y010991D01*
X030477Y011149D02*
X030477Y011149D01*
X030477Y011308D02*
X030477Y011308D01*
X030477Y011466D02*
X030477Y011466D01*
X030477Y011625D02*
X030477Y011625D01*
X031145Y012734D02*
X033117Y012734D01*
X033117Y012576D02*
X032820Y012576D01*
X033037Y012417D02*
X033117Y012417D01*
X033117Y012893D02*
X032834Y012893D01*
X032937Y013051D02*
X033117Y013051D01*
X033117Y013210D02*
X032937Y013210D01*
X033117Y013368D02*
X032562Y013368D01*
X032562Y013210D02*
X032492Y013210D01*
X032492Y013051D02*
X032562Y013051D01*
X032562Y012893D02*
X032492Y012893D01*
X032492Y013527D02*
X032562Y013527D01*
X032562Y013685D02*
X032492Y013685D01*
X032492Y013844D02*
X032562Y013844D01*
X032844Y013844D02*
X033117Y013844D01*
X033117Y014002D02*
X031101Y014002D01*
X031250Y013844D02*
X031459Y013844D01*
X031838Y014161D02*
X033117Y014161D01*
X033117Y014319D02*
X031988Y014319D01*
X032054Y014478D02*
X033117Y014478D01*
X033117Y014636D02*
X032067Y014636D01*
X032041Y014795D02*
X033117Y014795D01*
X033117Y014953D02*
X031967Y014953D01*
X031786Y015112D02*
X033117Y015112D01*
X033117Y015270D02*
X031806Y015270D01*
X031925Y015429D02*
X033117Y015429D01*
X033117Y015587D02*
X031967Y015587D01*
X031950Y015746D02*
X033117Y015746D01*
X033117Y015904D02*
X031870Y015904D01*
X031637Y016063D02*
X033117Y016063D01*
X033117Y016221D02*
X028567Y016221D01*
X028567Y016063D02*
X030817Y016063D01*
X030839Y016070D02*
X030770Y016048D01*
X030706Y016015D01*
X030647Y015972D01*
X030596Y015921D01*
X030554Y015863D01*
X030521Y015798D01*
X030498Y015729D01*
X030487Y015658D01*
X030487Y015631D01*
X031217Y015631D01*
X031217Y016081D01*
X030911Y016081D01*
X030839Y016070D01*
X030584Y015904D02*
X028567Y015904D01*
X028567Y015746D02*
X030504Y015746D01*
X030487Y015587D02*
X028567Y015587D01*
X028567Y015429D02*
X030529Y015429D01*
X030647Y015270D02*
X028567Y015270D01*
X028567Y015112D02*
X030668Y015112D01*
X030487Y014953D02*
X028567Y014953D01*
X028567Y014795D02*
X030413Y014795D01*
X030387Y014636D02*
X028567Y014636D01*
X028567Y014478D02*
X030400Y014478D01*
X030466Y014319D02*
X028567Y014319D01*
X028567Y014161D02*
X030079Y014161D01*
X029853Y014002D02*
X028567Y014002D01*
X028567Y013844D02*
X029703Y013844D01*
X029638Y013685D02*
X028567Y013685D01*
X028567Y013527D02*
X029572Y013527D01*
X029572Y013368D02*
X028567Y013368D01*
X028567Y013210D02*
X029572Y013210D01*
X029620Y013051D02*
X028566Y013051D01*
X028479Y012893D02*
X029685Y012893D01*
X029809Y012734D02*
X028321Y012734D01*
X027835Y013210D02*
X027317Y013210D01*
X027317Y013368D02*
X027887Y013368D01*
X027887Y013527D02*
X027317Y013527D01*
X027317Y013685D02*
X027887Y013685D01*
X027887Y013844D02*
X027317Y013844D01*
X027317Y014002D02*
X027887Y014002D01*
X027887Y014161D02*
X027317Y014161D01*
X027317Y014319D02*
X027887Y014319D01*
X027887Y014478D02*
X027317Y014478D01*
X027317Y014636D02*
X027887Y014636D01*
X027887Y014795D02*
X027317Y014795D01*
X027317Y014953D02*
X027887Y014953D01*
X027887Y015112D02*
X027317Y015112D01*
X027317Y015270D02*
X027887Y015270D01*
X027887Y015429D02*
X027317Y015429D01*
X027317Y015587D02*
X027887Y015587D01*
X027887Y015746D02*
X027317Y015746D01*
X027317Y015904D02*
X027887Y015904D01*
X027887Y016063D02*
X027317Y016063D01*
X027317Y016221D02*
X027887Y016221D01*
X027887Y016380D02*
X027317Y016380D01*
X027317Y016538D02*
X027887Y016538D01*
X027887Y016697D02*
X027317Y016697D01*
X027317Y016855D02*
X027887Y016855D01*
X027887Y017014D02*
X027286Y017014D01*
X027157Y017172D02*
X027887Y017172D01*
X027887Y017331D02*
X026998Y017331D01*
X026840Y017489D02*
X027878Y017489D01*
X027720Y017648D02*
X026681Y017648D01*
X026523Y017806D02*
X027561Y017806D01*
X027403Y017965D02*
X026364Y017965D01*
X026206Y018123D02*
X027244Y018123D01*
X027086Y018282D02*
X026080Y018282D01*
X026039Y018440D02*
X026927Y018440D01*
X026769Y018599D02*
X025926Y018599D01*
X025904Y018916D02*
X025876Y018916D01*
X026513Y018916D02*
X026602Y019005D01*
X026656Y018951D01*
X026667Y018757D02*
X021107Y018757D01*
X020948Y018599D02*
X025278Y018599D01*
X025165Y018440D02*
X020765Y018440D01*
X021376Y018916D02*
X021404Y018916D01*
X022013Y018916D02*
X022102Y019005D01*
X022191Y018916D01*
X022800Y018916D02*
X024965Y018916D01*
X024883Y019074D02*
X023605Y019074D01*
X023698Y019233D02*
X024883Y019233D01*
X024883Y019391D02*
X023721Y019391D01*
X023683Y019550D02*
X024883Y019550D01*
X024893Y019708D02*
X023563Y019708D01*
X023283Y019233D02*
X023283Y019233D01*
X023283Y019074D02*
X023283Y019074D01*
X022961Y019074D02*
X022954Y019074D01*
X024575Y017648D02*
X016556Y017648D01*
X016398Y017806D02*
X024773Y017806D01*
X025181Y017806D02*
X025415Y017806D01*
X025207Y017965D02*
X016239Y017965D01*
X016192Y018123D02*
X025135Y018123D01*
X025124Y018282D02*
X016118Y018282D01*
X015904Y018440D02*
X017327Y018440D01*
X017144Y018599D02*
X014317Y018599D01*
X014317Y018757D02*
X016985Y018757D01*
X016881Y018916D02*
X016876Y018916D01*
X015965Y018916D02*
X014317Y018916D01*
X014317Y019074D02*
X015883Y019074D01*
X015883Y019233D02*
X014317Y019233D01*
X014317Y019391D02*
X015883Y019391D01*
X015883Y019550D02*
X014317Y019550D01*
X014317Y019708D02*
X015893Y019708D01*
X016006Y019867D02*
X014317Y019867D01*
X014317Y020025D02*
X017684Y020025D01*
X017656Y019867D02*
X017416Y019867D01*
X017000Y019867D02*
X016835Y019867D01*
X017809Y020184D02*
X014317Y020184D01*
X014317Y020342D02*
X017967Y020342D01*
X018937Y019781D02*
X020423Y019781D01*
X020383Y019685D01*
X020383Y019086D01*
X019117Y019086D01*
X019117Y019086D01*
X019157Y019142D01*
X019188Y019204D01*
X019210Y019269D01*
X019221Y019337D01*
X019221Y019371D01*
X018783Y019371D01*
X018783Y019371D01*
X019221Y019371D01*
X019221Y019406D01*
X019210Y019474D01*
X019188Y019539D01*
X019157Y019601D01*
X019117Y019656D01*
X019068Y019705D01*
X019012Y019746D01*
X018951Y019777D01*
X018937Y019781D01*
X019063Y019708D02*
X020393Y019708D01*
X020383Y019550D02*
X019183Y019550D01*
X019221Y019391D02*
X020383Y019391D01*
X020383Y019233D02*
X019198Y019233D01*
X016715Y017489D02*
X024506Y017489D01*
X024497Y017331D02*
X016873Y017331D01*
X017032Y017172D02*
X024540Y017172D01*
X024656Y017014D02*
X017190Y017014D01*
X017349Y016855D02*
X026012Y016855D01*
X026171Y016697D02*
X017507Y016697D01*
X017666Y016538D02*
X026262Y016538D01*
X026262Y016380D02*
X017824Y016380D01*
X017983Y016221D02*
X026262Y016221D01*
X026262Y016063D02*
X018141Y016063D01*
X018300Y015904D02*
X026262Y015904D01*
X025800Y015746D02*
X018458Y015746D01*
X018617Y015587D02*
X025674Y015587D01*
X025624Y015429D02*
X025088Y015429D01*
X025246Y015270D02*
X025626Y015270D01*
X025692Y015112D02*
X025405Y015112D01*
X025563Y014953D02*
X025862Y014953D01*
X027317Y013051D02*
X027511Y013051D01*
X027254Y012734D02*
X027196Y012734D01*
X027247Y012576D02*
X027037Y012576D01*
X026879Y012417D02*
X027292Y012417D01*
X027411Y012259D02*
X026720Y012259D01*
X026562Y012100D02*
X027767Y012100D01*
X027949Y011942D02*
X026403Y011942D01*
X031269Y012893D02*
X031464Y012893D01*
X032937Y013527D02*
X033117Y013527D01*
X033117Y013685D02*
X032937Y013685D01*
X031237Y015746D02*
X031217Y015746D01*
X031217Y015904D02*
X031237Y015904D01*
X031237Y016063D02*
X031217Y016063D01*
X031314Y016499D02*
X031586Y016426D01*
X031868Y016426D01*
X032140Y016499D01*
X032384Y016640D01*
X032584Y016839D01*
X032725Y017083D01*
X032798Y017356D01*
X032798Y017637D01*
X032725Y017910D01*
X032584Y018154D01*
X032384Y018353D01*
X032140Y018494D01*
X031868Y018567D01*
X031586Y018567D01*
X031314Y018494D01*
X031070Y018353D01*
X030870Y018154D01*
X030729Y017910D01*
X030656Y017637D01*
X030656Y017356D01*
X030729Y017083D01*
X030870Y016839D01*
X031070Y016640D01*
X031314Y016499D01*
X031245Y016538D02*
X028567Y016538D01*
X028567Y016380D02*
X033117Y016380D01*
X033117Y016538D02*
X032209Y016538D01*
X032441Y016697D02*
X033117Y016697D01*
X033117Y016855D02*
X032593Y016855D01*
X032685Y017014D02*
X033117Y017014D01*
X033117Y017172D02*
X032748Y017172D01*
X032791Y017331D02*
X033117Y017331D01*
X033117Y017489D02*
X032798Y017489D01*
X032795Y017648D02*
X033117Y017648D01*
X033117Y017806D02*
X032752Y017806D01*
X032693Y017965D02*
X033117Y017965D01*
X033117Y018123D02*
X032601Y018123D01*
X032455Y018282D02*
X033117Y018282D01*
X033117Y018440D02*
X032233Y018440D01*
X031800Y018916D02*
X033117Y018916D01*
X033117Y019074D02*
X032605Y019074D01*
X032698Y019233D02*
X033117Y019233D01*
X033117Y019391D02*
X032721Y019391D01*
X032683Y019550D02*
X033117Y019550D01*
X033117Y019708D02*
X032563Y019708D01*
X032283Y019708D02*
X032283Y019708D01*
X032283Y019809D02*
X032283Y019371D01*
X032283Y019371D01*
X032283Y019809D01*
X032283Y019550D02*
X032283Y019550D01*
X032283Y019391D02*
X032283Y019391D01*
X032283Y019233D02*
X032283Y019233D01*
X032283Y019074D02*
X032283Y019074D01*
X031961Y019074D02*
X031954Y019074D01*
X031191Y018916D02*
X031102Y019005D01*
X031013Y018916D01*
X030404Y018916D02*
X030376Y018916D01*
X031221Y018440D02*
X027889Y018440D01*
X028047Y018282D02*
X030999Y018282D01*
X030853Y018123D02*
X028206Y018123D01*
X028364Y017965D02*
X030761Y017965D01*
X030702Y017806D02*
X030181Y017806D01*
X030322Y017648D02*
X030659Y017648D01*
X030656Y017489D02*
X030388Y017489D01*
X030392Y017331D02*
X030663Y017331D01*
X030705Y017172D02*
X030354Y017172D01*
X030258Y017014D02*
X030769Y017014D01*
X030861Y016855D02*
X030017Y016855D01*
X029687Y016855D02*
X029017Y016855D01*
X029258Y017014D02*
X029446Y017014D01*
X028687Y016855D02*
X028567Y016855D01*
X028567Y016697D02*
X031012Y016697D01*
X029523Y017806D02*
X029181Y017806D01*
X029322Y017648D02*
X029382Y017648D01*
X028523Y017806D02*
X028518Y017806D01*
X027730Y018599D02*
X033117Y018599D01*
X033117Y018757D02*
X027572Y018757D01*
X027413Y018916D02*
X029465Y018916D01*
X029383Y019074D02*
X028105Y019074D01*
X028198Y019233D02*
X029383Y019233D01*
X029383Y019391D02*
X028221Y019391D01*
X028183Y019550D02*
X029383Y019550D01*
X029393Y019708D02*
X028063Y019708D01*
X027783Y019233D02*
X027783Y019233D01*
X027783Y019074D02*
X027783Y019074D01*
X027461Y019074D02*
X027454Y019074D01*
X027005Y020342D02*
X026987Y020342D01*
X025854Y017014D02*
X025298Y017014D01*
X031487Y020342D02*
X033117Y020342D01*
X033117Y020184D02*
X031645Y020184D01*
X031781Y020025D02*
X033117Y020025D01*
X033117Y019867D02*
X031817Y019867D01*
X031919Y019708D02*
X032003Y019708D01*
X033117Y020501D02*
X014317Y020501D01*
X014317Y020659D02*
X033117Y020659D01*
X033117Y020818D02*
X014317Y020818D01*
X014317Y020976D02*
X033117Y020976D01*
X033117Y021135D02*
X014317Y021135D01*
X014317Y021293D02*
X033117Y021293D01*
X033117Y021452D02*
X014317Y021452D01*
X014317Y021610D02*
X033117Y021610D01*
X033117Y021769D02*
X014317Y021769D01*
X014317Y021927D02*
X033117Y021927D01*
X018131Y015112D02*
X017592Y015112D01*
X017434Y015270D02*
X017972Y015270D01*
X017814Y015429D02*
X017275Y015429D01*
X017117Y015587D02*
X017655Y015587D01*
X017497Y015746D02*
X016958Y015746D01*
X016800Y015904D02*
X017338Y015904D01*
X017180Y016063D02*
X016641Y016063D01*
X016483Y016221D02*
X017021Y016221D01*
X016863Y016380D02*
X016324Y016380D01*
X016166Y016538D02*
X016704Y016538D01*
X016546Y016697D02*
X016007Y016697D01*
X015849Y016855D02*
X016387Y016855D01*
X016229Y017014D02*
X015690Y017014D01*
X015532Y017172D02*
X016070Y017172D01*
X015912Y017331D02*
X015373Y017331D01*
X015215Y017489D02*
X015753Y017489D01*
X015399Y017648D02*
X015056Y017648D01*
X014898Y017806D02*
X015288Y017806D01*
X015249Y017965D02*
X014739Y017965D01*
X014581Y018123D02*
X015262Y018123D01*
X015336Y018282D02*
X014422Y018282D01*
X014317Y018440D02*
X015550Y018440D01*
X013945Y017172D02*
X006192Y017172D01*
X006192Y017014D02*
X014104Y017014D01*
X014262Y016855D02*
X006192Y016855D01*
X006192Y016697D02*
X014421Y016697D01*
X014579Y016538D02*
X006192Y016538D01*
X006192Y016380D02*
X014738Y016380D01*
X014896Y016221D02*
X006192Y016221D01*
X006192Y017331D02*
X013787Y017331D01*
X013628Y017489D02*
X006192Y017489D01*
X006192Y017648D02*
X013470Y017648D01*
X013311Y017806D02*
X006192Y017806D01*
X006192Y017965D02*
X013153Y017965D01*
X012994Y018123D02*
X006192Y018123D01*
X006192Y018282D02*
X012836Y018282D01*
X012677Y018440D02*
X006192Y018440D01*
X006192Y018599D02*
X012519Y018599D01*
X012360Y018757D02*
X006192Y018757D01*
X006192Y018916D02*
X012202Y018916D01*
X012043Y019074D02*
X006192Y019074D01*
X006192Y019233D02*
X009010Y019233D01*
X008851Y019391D02*
X006228Y019391D01*
X007511Y019550D02*
X008693Y019550D01*
X008534Y019708D02*
X007670Y019708D01*
X007795Y019833D02*
X007795Y019833D01*
X007515Y019554D02*
X007515Y019554D01*
X003684Y021769D02*
X003422Y021769D01*
X003553Y021610D02*
X003577Y021610D01*
X003120Y021610D02*
X003084Y021610D01*
X003084Y021452D02*
X003120Y021452D01*
X003120Y021769D02*
X003084Y021769D01*
X002632Y020025D02*
X002572Y020025D01*
X002391Y019867D02*
X002812Y019867D01*
D28*
X002602Y020871D03*
X004602Y020871D03*
X004852Y015621D03*
X015727Y017996D03*
X019477Y018121D03*
X020477Y014871D03*
X019977Y014371D03*
X022477Y013996D03*
X023352Y014371D03*
X023477Y013621D03*
X023477Y013121D03*
X026102Y015371D03*
X025602Y018246D03*
X023602Y010496D03*
X023227Y010121D03*
X017102Y005496D03*
X020977Y004121D03*
X023102Y004746D03*
X024352Y004371D03*
X024352Y001621D03*
X018977Y002371D03*
X012477Y005621D03*
X029977Y005246D03*
D29*
X029519Y005230D02*
X027647Y005230D01*
X027647Y005181D02*
X027647Y005812D01*
X027704Y005836D01*
X027777Y005909D01*
X027817Y006005D01*
X027817Y006738D01*
X027777Y006834D01*
X027704Y006907D01*
X027647Y006931D01*
X027647Y006960D01*
X027598Y007078D01*
X025998Y008678D01*
X025908Y008768D01*
X025791Y008816D01*
X024433Y008816D01*
X024363Y008886D01*
X024193Y008956D01*
X024010Y008956D01*
X023922Y008920D01*
X023922Y009121D01*
X027102Y009121D01*
X030602Y005621D01*
X032782Y005621D01*
X032782Y003851D01*
X032761Y003901D01*
X032688Y003974D01*
X032592Y004014D01*
X031974Y004014D01*
X031878Y003974D01*
X031814Y003910D01*
X031789Y003935D01*
X031599Y004014D01*
X031393Y004014D01*
X031203Y003935D01*
X031102Y003835D01*
X031001Y003935D01*
X030811Y004014D01*
X030605Y004014D01*
X030415Y003935D01*
X030270Y003790D01*
X030253Y003750D01*
X030239Y003768D01*
X030193Y003815D01*
X030140Y003854D01*
X030081Y003883D01*
X030019Y003904D01*
X029954Y003914D01*
X029940Y003914D01*
X029940Y003515D01*
X029902Y003515D01*
X029902Y003478D01*
X029503Y003478D01*
X029503Y003464D01*
X029514Y003399D01*
X029534Y003336D01*
X029564Y003278D01*
X029602Y003224D01*
X029649Y003178D01*
X029702Y003139D01*
X029761Y003110D01*
X029823Y003089D01*
X029888Y003079D01*
X029902Y003079D01*
X029902Y003478D01*
X029940Y003478D01*
X029940Y003079D01*
X029954Y003079D01*
X030019Y003089D01*
X030081Y003110D01*
X030140Y003139D01*
X030193Y003178D01*
X030239Y003224D01*
X030253Y003243D01*
X030270Y003203D01*
X030388Y003085D01*
X030388Y002952D01*
X030437Y002834D01*
X030527Y002744D01*
X030796Y002475D01*
X030913Y002426D01*
X032916Y002426D01*
X033033Y002475D01*
X033123Y002565D01*
X033137Y002579D01*
X033137Y000886D01*
X015602Y000886D01*
X015602Y006246D01*
X018477Y009121D01*
X022907Y009121D01*
X022907Y005254D01*
X022831Y005178D01*
X022792Y005084D01*
X022714Y005006D01*
X022644Y004838D01*
X022644Y004655D01*
X022714Y004487D01*
X022842Y004358D01*
X022967Y004306D01*
X022665Y004306D01*
X022551Y004259D01*
X022464Y004172D01*
X022245Y003953D01*
X022203Y003935D01*
X022102Y003835D01*
X022001Y003935D01*
X021811Y004014D01*
X021605Y004014D01*
X021415Y003935D01*
X021382Y003902D01*
X021435Y004030D01*
X021435Y004213D01*
X021365Y004381D01*
X021236Y004510D01*
X021068Y004580D01*
X020886Y004580D01*
X020717Y004510D01*
X020639Y004431D01*
X018165Y004431D01*
X018051Y004384D01*
X017964Y004297D01*
X017733Y004066D01*
X017686Y003952D01*
X017686Y003918D01*
X017602Y003835D01*
X017501Y003935D01*
X017311Y004014D01*
X017105Y004014D01*
X016915Y003935D01*
X016770Y003790D01*
X016753Y003750D01*
X016739Y003768D01*
X016693Y003815D01*
X016640Y003854D01*
X016581Y003883D01*
X016519Y003904D01*
X016454Y003914D01*
X016440Y003914D01*
X016440Y003515D01*
X016402Y003515D01*
X016402Y003478D01*
X016003Y003478D01*
X016003Y003464D01*
X016014Y003399D01*
X016034Y003336D01*
X016064Y003278D01*
X016102Y003224D01*
X016149Y003178D01*
X016202Y003139D01*
X016261Y003110D01*
X016323Y003089D01*
X016388Y003079D01*
X016402Y003079D01*
X016402Y003478D01*
X016440Y003478D01*
X016440Y003079D01*
X016454Y003079D01*
X016519Y003089D01*
X016581Y003110D01*
X016640Y003139D01*
X016693Y003178D01*
X016739Y003224D01*
X016753Y003243D01*
X016770Y003203D01*
X016915Y003058D01*
X017105Y002979D01*
X017311Y002979D01*
X017501Y003058D01*
X017602Y003158D01*
X017703Y003058D01*
X017893Y002979D01*
X018099Y002979D01*
X018289Y003058D01*
X018314Y003083D01*
X018378Y003019D01*
X018473Y002979D01*
X018473Y002504D01*
X018519Y002393D01*
X018519Y002280D01*
X018589Y002112D01*
X018717Y001983D01*
X018886Y001913D01*
X019068Y001913D01*
X019236Y001983D01*
X019365Y002112D01*
X019435Y002280D01*
X019435Y002463D01*
X019365Y002631D01*
X019236Y002760D01*
X019093Y002819D01*
X019093Y002979D01*
X019188Y003019D01*
X019261Y003092D01*
X019301Y003187D01*
X019301Y003806D01*
X019298Y003811D01*
X020639Y003811D01*
X020642Y003808D01*
X019300Y003808D01*
X019301Y003689D02*
X020551Y003689D01*
X020564Y003715D02*
X020534Y003657D01*
X020514Y003594D01*
X020503Y003529D01*
X020503Y003515D01*
X020902Y003515D01*
X020902Y003478D01*
X020503Y003478D01*
X020503Y003464D01*
X020514Y003399D01*
X020534Y003336D01*
X020564Y003278D01*
X020602Y003224D01*
X020649Y003178D01*
X020702Y003139D01*
X020761Y003110D01*
X020823Y003089D01*
X020888Y003079D01*
X020902Y003079D01*
X020902Y003478D01*
X020940Y003478D01*
X020940Y003079D01*
X020954Y003079D01*
X021019Y003089D01*
X021081Y003110D01*
X021140Y003139D01*
X021193Y003178D01*
X021239Y003224D01*
X021253Y003243D01*
X021270Y003203D01*
X021415Y003058D01*
X021605Y002979D01*
X021811Y002979D01*
X022001Y003058D01*
X022102Y003158D01*
X022203Y003058D01*
X022393Y002979D01*
X022599Y002979D01*
X022789Y003058D01*
X022814Y003083D01*
X022878Y003019D01*
X022974Y002979D01*
X023592Y002979D01*
X023688Y003019D01*
X023761Y003092D01*
X023801Y003187D01*
X023801Y003686D01*
X025049Y003686D01*
X025034Y003657D01*
X025014Y003594D01*
X025003Y003529D01*
X025003Y003515D01*
X025402Y003515D01*
X025402Y003478D01*
X025003Y003478D01*
X025003Y003464D01*
X025014Y003399D01*
X025034Y003336D01*
X025064Y003278D01*
X025102Y003224D01*
X025149Y003178D01*
X025202Y003139D01*
X025261Y003110D01*
X025323Y003089D01*
X025388Y003079D01*
X025402Y003079D01*
X025402Y003478D01*
X025440Y003478D01*
X025440Y003079D01*
X025454Y003079D01*
X025519Y003089D01*
X025581Y003110D01*
X025640Y003139D01*
X025693Y003178D01*
X025739Y003224D01*
X025753Y003243D01*
X025770Y003203D01*
X025915Y003058D01*
X026105Y002979D01*
X026311Y002979D01*
X026501Y003058D01*
X026602Y003158D01*
X026686Y003075D01*
X026686Y003041D01*
X026733Y002927D01*
X026964Y002696D01*
X027051Y002609D01*
X027165Y002561D01*
X028664Y002561D01*
X028778Y002609D01*
X029028Y002859D01*
X029115Y002946D01*
X029162Y003060D01*
X029162Y003993D01*
X029957Y004788D01*
X030068Y004788D01*
X030236Y004858D01*
X030365Y004987D01*
X030435Y005155D01*
X030435Y005338D01*
X030365Y005506D01*
X030236Y005635D01*
X030068Y005705D01*
X029886Y005705D01*
X029717Y005635D01*
X029589Y005506D01*
X029519Y005338D01*
X029519Y005227D01*
X028589Y004297D01*
X028542Y004183D01*
X028542Y003250D01*
X028474Y003181D01*
X028298Y003181D01*
X028301Y003187D01*
X028301Y003806D01*
X028261Y003901D01*
X028188Y003974D01*
X028092Y004014D01*
X028066Y004014D01*
X028052Y004047D01*
X027965Y004134D01*
X027840Y004259D01*
X027817Y004269D01*
X027817Y004988D01*
X027777Y005084D01*
X027704Y005157D01*
X027647Y005181D01*
X027750Y005111D02*
X029404Y005111D01*
X029285Y004993D02*
X027815Y004993D01*
X027817Y004874D02*
X029167Y004874D01*
X029048Y004756D02*
X027817Y004756D01*
X027817Y004637D02*
X028930Y004637D01*
X028811Y004519D02*
X027817Y004519D01*
X027817Y004400D02*
X028693Y004400D01*
X028583Y004282D02*
X027817Y004282D01*
X027936Y004163D02*
X028542Y004163D01*
X028542Y004045D02*
X028053Y004045D01*
X028236Y003926D02*
X028542Y003926D01*
X028542Y003808D02*
X028300Y003808D01*
X028301Y003689D02*
X028542Y003689D01*
X028542Y003571D02*
X028301Y003571D01*
X028301Y003452D02*
X028542Y003452D01*
X028542Y003334D02*
X028301Y003334D01*
X028301Y003215D02*
X028508Y003215D01*
X029029Y002860D02*
X030426Y002860D01*
X030388Y002978D02*
X029128Y002978D01*
X029162Y003097D02*
X029799Y003097D01*
X029902Y003097D02*
X029940Y003097D01*
X030042Y003097D02*
X030376Y003097D01*
X030265Y003215D02*
X030230Y003215D01*
X029940Y003215D02*
X029902Y003215D01*
X029902Y003334D02*
X029940Y003334D01*
X029940Y003452D02*
X029902Y003452D01*
X029902Y003515D02*
X029503Y003515D01*
X029503Y003529D01*
X029514Y003594D01*
X029534Y003657D01*
X029564Y003715D01*
X029602Y003768D01*
X029649Y003815D01*
X029702Y003854D01*
X029761Y003883D01*
X029823Y003904D01*
X029888Y003914D01*
X029902Y003914D01*
X029902Y003515D01*
X029902Y003571D02*
X029940Y003571D01*
X029940Y003689D02*
X029902Y003689D01*
X029902Y003808D02*
X029940Y003808D01*
X030200Y003808D02*
X030288Y003808D01*
X030406Y003926D02*
X029162Y003926D01*
X029162Y003808D02*
X029642Y003808D01*
X029551Y003689D02*
X029162Y003689D01*
X029162Y003571D02*
X029510Y003571D01*
X029505Y003452D02*
X029162Y003452D01*
X029162Y003334D02*
X029535Y003334D01*
X029611Y003215D02*
X029162Y003215D01*
X028910Y002741D02*
X030529Y002741D01*
X030648Y002623D02*
X028792Y002623D01*
X027037Y002623D02*
X019369Y002623D01*
X019418Y002504D02*
X030766Y002504D01*
X030977Y002746D02*
X030708Y003015D01*
X030708Y003496D01*
X030708Y003515D01*
X031010Y003926D02*
X031194Y003926D01*
X031797Y003926D02*
X031830Y003926D01*
X032736Y003926D02*
X032782Y003926D01*
X032782Y004045D02*
X029214Y004045D01*
X029332Y004163D02*
X032782Y004163D01*
X032782Y004282D02*
X029451Y004282D01*
X029569Y004400D02*
X032782Y004400D01*
X032782Y004519D02*
X029688Y004519D01*
X029806Y004637D02*
X032782Y004637D01*
X032782Y004756D02*
X029925Y004756D01*
X030253Y004874D02*
X032782Y004874D01*
X032782Y004993D02*
X030368Y004993D01*
X030417Y005111D02*
X032782Y005111D01*
X032782Y005230D02*
X030435Y005230D01*
X030431Y005348D02*
X032782Y005348D01*
X032782Y005467D02*
X030381Y005467D01*
X030286Y005585D02*
X032782Y005585D01*
X030519Y005704D02*
X030070Y005704D01*
X029884Y005704D02*
X027647Y005704D01*
X027647Y005585D02*
X029668Y005585D01*
X029572Y005467D02*
X027647Y005467D01*
X027647Y005348D02*
X029523Y005348D01*
X030282Y005941D02*
X027791Y005941D01*
X027817Y006059D02*
X030164Y006059D01*
X030045Y006178D02*
X027817Y006178D01*
X027817Y006296D02*
X029927Y006296D01*
X029808Y006415D02*
X027817Y006415D01*
X027817Y006533D02*
X029690Y006533D01*
X029571Y006652D02*
X027817Y006652D01*
X027804Y006770D02*
X029453Y006770D01*
X029334Y006889D02*
X027722Y006889D01*
X027627Y007007D02*
X029216Y007007D01*
X029097Y007126D02*
X027550Y007126D01*
X027432Y007244D02*
X028979Y007244D01*
X028860Y007363D02*
X027313Y007363D01*
X027195Y007481D02*
X028742Y007481D01*
X028623Y007600D02*
X027076Y007600D01*
X026958Y007718D02*
X028505Y007718D01*
X028386Y007837D02*
X026839Y007837D01*
X026720Y007955D02*
X028268Y007955D01*
X028149Y008074D02*
X026602Y008074D01*
X026483Y008192D02*
X028031Y008192D01*
X027912Y008311D02*
X026365Y008311D01*
X026246Y008429D02*
X027794Y008429D01*
X027675Y008548D02*
X026128Y008548D01*
X026009Y008666D02*
X027557Y008666D01*
X027438Y008785D02*
X025867Y008785D01*
X025727Y008496D02*
X024102Y008496D01*
X024321Y008903D02*
X027320Y008903D01*
X027201Y009022D02*
X023922Y009022D01*
X022907Y009022D02*
X018377Y009022D01*
X018259Y008903D02*
X022907Y008903D01*
X022907Y008785D02*
X018140Y008785D01*
X018022Y008666D02*
X022907Y008666D01*
X022907Y008548D02*
X017903Y008548D01*
X017785Y008429D02*
X022907Y008429D01*
X022907Y008311D02*
X017666Y008311D01*
X017548Y008192D02*
X022907Y008192D01*
X022907Y008074D02*
X017429Y008074D01*
X017311Y007955D02*
X022907Y007955D01*
X022907Y007837D02*
X017192Y007837D01*
X017074Y007718D02*
X022907Y007718D01*
X022907Y007600D02*
X016955Y007600D01*
X016837Y007481D02*
X022907Y007481D01*
X022907Y007363D02*
X016718Y007363D01*
X016600Y007244D02*
X022907Y007244D01*
X022907Y007126D02*
X016481Y007126D01*
X016363Y007007D02*
X022907Y007007D01*
X022907Y006889D02*
X016244Y006889D01*
X016126Y006770D02*
X022907Y006770D01*
X022907Y006652D02*
X016007Y006652D01*
X015889Y006533D02*
X022907Y006533D01*
X022907Y006415D02*
X015770Y006415D01*
X015652Y006296D02*
X022907Y006296D01*
X022907Y006178D02*
X015602Y006178D01*
X015602Y006059D02*
X022907Y006059D01*
X022907Y005941D02*
X015602Y005941D01*
X015602Y005822D02*
X022907Y005822D01*
X022907Y005704D02*
X015602Y005704D01*
X015602Y005585D02*
X022907Y005585D01*
X022907Y005467D02*
X015602Y005467D01*
X015602Y005348D02*
X022907Y005348D01*
X022883Y005230D02*
X015602Y005230D01*
X015602Y005111D02*
X022803Y005111D01*
X022708Y004993D02*
X015602Y004993D01*
X015602Y004874D02*
X022659Y004874D01*
X022644Y004756D02*
X015602Y004756D01*
X015602Y004637D02*
X022651Y004637D01*
X022700Y004519D02*
X021214Y004519D01*
X021346Y004400D02*
X022800Y004400D01*
X022606Y004282D02*
X021406Y004282D01*
X021435Y004163D02*
X022456Y004163D01*
X022337Y004045D02*
X021435Y004045D01*
X021406Y003926D02*
X021392Y003926D01*
X022010Y003926D02*
X022194Y003926D01*
X021265Y003215D02*
X021230Y003215D01*
X021376Y003097D02*
X021042Y003097D01*
X020940Y003097D02*
X020902Y003097D01*
X020799Y003097D02*
X019263Y003097D01*
X019301Y003215D02*
X020611Y003215D01*
X020535Y003334D02*
X019301Y003334D01*
X019301Y003452D02*
X020505Y003452D01*
X020510Y003571D02*
X019301Y003571D01*
X019093Y002978D02*
X026712Y002978D01*
X026663Y003097D02*
X026541Y003097D01*
X026800Y002860D02*
X019093Y002860D01*
X019255Y002741D02*
X026919Y002741D01*
X025876Y003097D02*
X025542Y003097D01*
X025440Y003097D02*
X025402Y003097D01*
X025299Y003097D02*
X023763Y003097D01*
X023801Y003215D02*
X025111Y003215D01*
X025035Y003334D02*
X023801Y003334D01*
X023801Y003452D02*
X025005Y003452D01*
X025010Y003571D02*
X023801Y003571D01*
X024810Y004306D02*
X024810Y004463D01*
X024740Y004631D01*
X024611Y004760D01*
X024443Y004830D01*
X024346Y004830D01*
X023922Y005254D01*
X023922Y008073D01*
X024010Y008036D01*
X024193Y008036D01*
X024363Y008106D01*
X024433Y008176D01*
X025594Y008176D01*
X026824Y006946D01*
X026445Y006946D01*
X026350Y006907D01*
X026289Y006846D01*
X026182Y006846D01*
X026182Y006426D01*
X026072Y006426D01*
X026072Y006316D01*
X025737Y006316D01*
X025737Y006066D01*
X025433Y006066D01*
X025363Y006136D01*
X025193Y006206D01*
X025010Y006206D01*
X024841Y006136D01*
X024712Y006007D01*
X024642Y005838D01*
X024642Y005655D01*
X024708Y005496D01*
X024642Y005338D01*
X024642Y005155D01*
X024712Y004986D01*
X024841Y004856D01*
X025010Y004786D01*
X025193Y004786D01*
X025363Y004856D01*
X025433Y004926D01*
X025737Y004926D01*
X025737Y004676D01*
X026072Y004676D01*
X026072Y004566D01*
X025737Y004566D01*
X025737Y004306D01*
X024810Y004306D01*
X024810Y004400D02*
X025737Y004400D01*
X025737Y004519D02*
X024787Y004519D01*
X024734Y004637D02*
X026072Y004637D01*
X025737Y004756D02*
X024615Y004756D01*
X024823Y004874D02*
X024302Y004874D01*
X024183Y004993D02*
X024709Y004993D01*
X024660Y005111D02*
X024065Y005111D01*
X023946Y005230D02*
X024642Y005230D01*
X024646Y005348D02*
X023922Y005348D01*
X023922Y005467D02*
X024695Y005467D01*
X024671Y005585D02*
X023922Y005585D01*
X023922Y005704D02*
X024642Y005704D01*
X024642Y005822D02*
X023922Y005822D01*
X023922Y005941D02*
X024685Y005941D01*
X024764Y006059D02*
X023922Y006059D01*
X023922Y006178D02*
X024942Y006178D01*
X025262Y006178D02*
X025737Y006178D01*
X025737Y006296D02*
X023922Y006296D01*
X023922Y006415D02*
X026072Y006415D01*
X026072Y006426D02*
X025737Y006426D01*
X025737Y006708D01*
X025748Y006748D01*
X025769Y006785D01*
X025799Y006814D01*
X025835Y006836D01*
X025876Y006846D01*
X026072Y006846D01*
X026072Y006426D01*
X026072Y006533D02*
X026182Y006533D01*
X026182Y006652D02*
X026072Y006652D01*
X026072Y006770D02*
X026182Y006770D01*
X026332Y006889D02*
X023922Y006889D01*
X023922Y007007D02*
X026763Y007007D01*
X026645Y007126D02*
X023922Y007126D01*
X023922Y007244D02*
X026526Y007244D01*
X026408Y007363D02*
X023922Y007363D01*
X023922Y007481D02*
X026289Y007481D01*
X026171Y007600D02*
X023922Y007600D01*
X023922Y007718D02*
X026052Y007718D01*
X025934Y007837D02*
X023922Y007837D01*
X023922Y007955D02*
X025815Y007955D01*
X025697Y008074D02*
X024284Y008074D01*
X025727Y008496D02*
X027327Y006896D01*
X027327Y006371D01*
X027327Y004621D01*
X026727Y004621D02*
X026727Y005121D01*
X026602Y005246D01*
X025102Y005246D01*
X025381Y004874D02*
X025737Y004874D01*
X025102Y005746D02*
X026602Y005746D01*
X026727Y005871D01*
X026727Y006371D01*
X027671Y005822D02*
X030401Y005822D01*
X033102Y002996D02*
X032852Y002746D01*
X030977Y002746D01*
X033063Y002504D02*
X033137Y002504D01*
X033137Y002386D02*
X019435Y002386D01*
X019430Y002267D02*
X033137Y002267D01*
X033137Y002149D02*
X019381Y002149D01*
X019284Y002030D02*
X033137Y002030D01*
X033137Y001912D02*
X015602Y001912D01*
X015602Y002030D02*
X018670Y002030D01*
X018573Y002149D02*
X015602Y002149D01*
X015602Y002267D02*
X018524Y002267D01*
X018519Y002386D02*
X015602Y002386D01*
X015602Y002504D02*
X018473Y002504D01*
X018473Y002623D02*
X015602Y002623D01*
X015602Y002741D02*
X018473Y002741D01*
X018473Y002860D02*
X015602Y002860D01*
X015602Y002978D02*
X018473Y002978D01*
X017663Y003097D02*
X017541Y003097D01*
X016876Y003097D02*
X016542Y003097D01*
X016440Y003097D02*
X016402Y003097D01*
X016299Y003097D02*
X015602Y003097D01*
X015602Y003215D02*
X016111Y003215D01*
X016035Y003334D02*
X015602Y003334D01*
X015602Y003452D02*
X016005Y003452D01*
X016003Y003515D02*
X016402Y003515D01*
X016402Y003914D01*
X016388Y003914D01*
X016323Y003904D01*
X016261Y003883D01*
X016202Y003854D01*
X016149Y003815D01*
X016102Y003768D01*
X016064Y003715D01*
X016034Y003657D01*
X016014Y003594D01*
X016003Y003529D01*
X016003Y003515D01*
X016010Y003571D02*
X015602Y003571D01*
X015602Y003689D02*
X016051Y003689D01*
X016142Y003808D02*
X015602Y003808D01*
X015602Y003926D02*
X016906Y003926D01*
X016788Y003808D02*
X016700Y003808D01*
X016440Y003808D02*
X016402Y003808D01*
X016402Y003689D02*
X016440Y003689D01*
X016440Y003571D02*
X016402Y003571D01*
X016402Y003452D02*
X016440Y003452D01*
X016440Y003334D02*
X016402Y003334D01*
X016402Y003215D02*
X016440Y003215D01*
X016730Y003215D02*
X016765Y003215D01*
X017510Y003926D02*
X017686Y003926D01*
X017724Y004045D02*
X015602Y004045D01*
X015602Y004163D02*
X017831Y004163D01*
X017949Y004282D02*
X015602Y004282D01*
X015602Y004400D02*
X018090Y004400D01*
X015602Y004519D02*
X020740Y004519D01*
X020642Y003808D02*
X020602Y003768D01*
X020564Y003715D01*
X020902Y003452D02*
X020940Y003452D01*
X020940Y003334D02*
X020902Y003334D01*
X020902Y003215D02*
X020940Y003215D01*
X022041Y003097D02*
X022163Y003097D01*
X023102Y004746D02*
X023102Y004996D01*
X023227Y005121D01*
X023227Y010121D01*
X023602Y010496D02*
X023602Y005121D01*
X024352Y004371D01*
X025402Y003452D02*
X025440Y003452D01*
X025440Y003334D02*
X025402Y003334D01*
X025402Y003215D02*
X025440Y003215D01*
X025730Y003215D02*
X025765Y003215D01*
X025737Y006533D02*
X023922Y006533D01*
X023922Y006652D02*
X025737Y006652D01*
X025761Y006770D02*
X023922Y006770D01*
X024477Y011371D02*
X017977Y011371D01*
X014602Y007996D01*
X014602Y005871D01*
X013227Y004496D01*
X012477Y004496D01*
X011977Y003996D01*
X011940Y003996D01*
X011440Y004496D01*
X007977Y004496D01*
X007477Y003996D01*
X007477Y003496D01*
X007496Y003496D01*
X004352Y004871D02*
X003783Y004303D01*
X003783Y003496D01*
X002996Y003496D02*
X002996Y004640D01*
X003602Y005246D01*
X012727Y005246D01*
X013852Y006371D01*
X013852Y008496D01*
X017477Y012121D01*
X025602Y012121D01*
X026602Y013121D01*
X026602Y016746D01*
X025977Y017371D01*
X024977Y017371D01*
X025602Y018246D02*
X026977Y016871D01*
X026977Y012996D01*
X025727Y011746D01*
X017727Y011746D01*
X014227Y008246D01*
X014227Y006121D01*
X012977Y004871D01*
X004352Y004871D01*
X011977Y003996D02*
X011977Y003496D01*
X011996Y003496D01*
X012477Y005621D02*
X013477Y006621D01*
X013477Y008746D01*
X017227Y012496D01*
X025477Y012496D01*
X026227Y013246D01*
X026227Y015246D01*
X026102Y015371D01*
X025664Y014371D02*
X024789Y015246D01*
X018477Y015246D01*
X015727Y017996D01*
X013977Y018246D02*
X017602Y014621D01*
X018477Y014621D01*
X019477Y013621D01*
X023477Y013621D01*
X023477Y013121D02*
X023102Y013121D01*
X022977Y013246D01*
X019227Y013246D01*
X018227Y014246D01*
X017352Y014246D01*
X012102Y019496D01*
X009227Y019496D01*
X008602Y020121D01*
X008602Y021621D01*
X008352Y021871D01*
X005602Y021871D01*
X005102Y021371D01*
X004477Y022121D02*
X013727Y022121D01*
X013977Y021871D01*
X013977Y018246D01*
X017208Y019015D02*
X017477Y018746D01*
X020615Y018746D01*
X020921Y019053D01*
X020921Y019371D01*
X022227Y020121D02*
X022496Y019853D01*
X022496Y019371D01*
X022496Y019890D01*
X022727Y020121D01*
X026727Y020121D01*
X026996Y019853D01*
X027264Y020121D01*
X031227Y020121D01*
X031477Y019871D01*
X031477Y019371D01*
X031496Y019371D01*
X028227Y017621D02*
X026996Y018853D01*
X026996Y019371D01*
X026996Y019853D01*
X028227Y017621D02*
X028227Y013121D01*
X027727Y012621D01*
X028102Y012246D01*
X032727Y012246D01*
X033102Y011871D01*
X033102Y002996D01*
X033137Y001793D02*
X015602Y001793D01*
X015602Y001675D02*
X033137Y001675D01*
X033137Y001556D02*
X015602Y001556D01*
X015602Y001438D02*
X033137Y001438D01*
X033137Y001319D02*
X015602Y001319D01*
X015602Y001201D02*
X033137Y001201D01*
X033137Y001082D02*
X015602Y001082D01*
X015602Y000964D02*
X033137Y000964D01*
X024477Y012871D02*
X025102Y013496D01*
X025102Y014371D01*
X024352Y014371D02*
X023977Y013996D01*
X023102Y013996D01*
X022602Y014496D01*
X022352Y014496D01*
X022477Y013996D02*
X022102Y013996D01*
X021727Y014371D01*
X019977Y014371D01*
X020477Y014871D02*
X022852Y014871D01*
X023352Y014371D01*
X030477Y013346D02*
X031902Y013346D01*
X031927Y013371D01*
X022227Y020121D02*
X018227Y020121D01*
X017996Y019890D01*
X017996Y019371D01*
X017208Y019371D02*
X017208Y019015D01*
X008102Y021371D02*
X007602Y020871D01*
X007602Y020121D01*
X007227Y019746D01*
X006102Y019746D01*
X005852Y019496D01*
X005852Y013621D01*
X005352Y013121D01*
X003977Y013121D01*
X003977Y014121D02*
X005102Y014121D01*
X005602Y014621D01*
X005602Y019496D01*
X005352Y019746D01*
X004352Y019746D01*
X004102Y019996D01*
X004102Y020371D01*
X004102Y021371D02*
X004102Y021746D01*
X004477Y022121D01*
X001102Y020371D02*
X001102Y019621D01*
X000977Y019496D01*
X000977Y015996D01*
X001352Y015621D01*
X004852Y015621D01*
X001352Y015621D02*
X000977Y015246D01*
X000977Y014121D01*
X000977Y013121D01*
D30*
X010164Y007496D03*
X031727Y017496D03*
D31*
X025664Y014371D03*
X025102Y014371D03*
X024352Y014371D03*
X024477Y012871D03*
X024477Y011371D03*
X027727Y012621D03*
X022352Y014496D03*
X024977Y017371D03*
X024102Y008496D03*
X025102Y005746D03*
X025102Y005246D03*
M02*
