G75*
%MOIN*%
%OFA0B0*%
%FSLAX24Y24*%
%IPPOS*%
%LPD*%
%AMOC8*
5,1,8,0,0,1.08239X$1,22.5*
%
%ADD10R,0.0472X0.0472*%
%ADD11R,0.0512X0.0630*%
%ADD12C,0.0050*%
%ADD13R,0.0594X0.0594*%
%ADD14C,0.0660*%
%ADD15C,0.0594*%
%ADD16C,0.0000*%
%ADD17R,0.0260X0.0800*%
%ADD18C,0.0520*%
%ADD19R,0.0512X0.0591*%
%ADD20R,0.0120X0.0390*%
%ADD21R,0.0591X0.0512*%
%ADD22R,0.1560X0.1560*%
%ADD23C,0.1250*%
%ADD24R,0.0866X0.0236*%
%ADD25C,0.0860*%
%ADD26C,0.0520*%
%ADD27R,0.0630X0.0512*%
%ADD28R,0.0515X0.0515*%
%ADD29C,0.0515*%
%ADD30R,0.0551X0.1181*%
%ADD31R,0.1181X0.0551*%
%ADD32OC8,0.0850*%
%ADD33OC8,0.1250*%
%ADD34R,0.0768X0.0984*%
%ADD35C,0.0560*%
%ADD36C,0.0160*%
%ADD37C,0.0100*%
%ADD38C,0.0396*%
%ADD39C,0.0120*%
%ADD40C,0.0400*%
%ADD41C,0.2480*%
%ADD42C,0.0240*%
%ADD43C,0.0400*%
%ADD44C,0.0320*%
D10*
X007689Y015621D03*
X008515Y015621D03*
D11*
X009353Y015621D03*
X010101Y015621D03*
X005851Y014121D03*
X005103Y014121D03*
X005103Y013121D03*
X005851Y013121D03*
X018728Y007996D03*
X019476Y007996D03*
X019353Y005996D03*
X020101Y005996D03*
X026290Y007496D03*
X027038Y007496D03*
X027038Y008371D03*
X026290Y008371D03*
X025601Y013621D03*
X024853Y013621D03*
D12*
X000157Y022448D02*
X000157Y000401D01*
X033622Y000401D01*
X033622Y022448D01*
X000157Y022448D01*
D13*
X001102Y020371D03*
D14*
X001102Y021371D03*
X003102Y021371D03*
D15*
X004102Y021371D03*
X005102Y021371D03*
X006102Y021371D03*
X007102Y021371D03*
X008102Y021371D03*
X009102Y021371D03*
X010102Y021371D03*
X011102Y021371D03*
X012102Y021371D03*
X013102Y021371D03*
X013102Y020371D03*
X012102Y020371D03*
X011102Y020371D03*
X010102Y020371D03*
X009102Y020371D03*
X008102Y020371D03*
X007102Y020371D03*
X006102Y020371D03*
X005102Y020371D03*
X004102Y020371D03*
X003102Y020371D03*
X002102Y020371D03*
X002102Y021371D03*
D16*
X009573Y007496D02*
X009575Y007544D01*
X009581Y007592D01*
X009591Y007639D01*
X009604Y007685D01*
X009622Y007730D01*
X009642Y007774D01*
X009667Y007816D01*
X009695Y007855D01*
X009725Y007892D01*
X009759Y007926D01*
X009796Y007958D01*
X009834Y007987D01*
X009875Y008012D01*
X009918Y008034D01*
X009963Y008052D01*
X010009Y008066D01*
X010056Y008077D01*
X010104Y008084D01*
X010152Y008087D01*
X010200Y008086D01*
X010248Y008081D01*
X010296Y008072D01*
X010342Y008060D01*
X010387Y008043D01*
X010431Y008023D01*
X010473Y008000D01*
X010513Y007973D01*
X010551Y007943D01*
X010586Y007910D01*
X010618Y007874D01*
X010648Y007836D01*
X010674Y007795D01*
X010696Y007752D01*
X010716Y007708D01*
X010731Y007663D01*
X010743Y007616D01*
X010751Y007568D01*
X010755Y007520D01*
X010755Y007472D01*
X010751Y007424D01*
X010743Y007376D01*
X010731Y007329D01*
X010716Y007284D01*
X010696Y007240D01*
X010674Y007197D01*
X010648Y007156D01*
X010618Y007118D01*
X010586Y007082D01*
X010551Y007049D01*
X010513Y007019D01*
X010473Y006992D01*
X010431Y006969D01*
X010387Y006949D01*
X010342Y006932D01*
X010296Y006920D01*
X010248Y006911D01*
X010200Y006906D01*
X010152Y006905D01*
X010104Y006908D01*
X010056Y006915D01*
X010009Y006926D01*
X009963Y006940D01*
X009918Y006958D01*
X009875Y006980D01*
X009834Y007005D01*
X009796Y007034D01*
X009759Y007066D01*
X009725Y007100D01*
X009695Y007137D01*
X009667Y007176D01*
X009642Y007218D01*
X009622Y007262D01*
X009604Y007307D01*
X009591Y007353D01*
X009581Y007400D01*
X009575Y007448D01*
X009573Y007496D01*
X031136Y017496D02*
X031138Y017544D01*
X031144Y017592D01*
X031154Y017639D01*
X031167Y017685D01*
X031185Y017730D01*
X031205Y017774D01*
X031230Y017816D01*
X031258Y017855D01*
X031288Y017892D01*
X031322Y017926D01*
X031359Y017958D01*
X031397Y017987D01*
X031438Y018012D01*
X031481Y018034D01*
X031526Y018052D01*
X031572Y018066D01*
X031619Y018077D01*
X031667Y018084D01*
X031715Y018087D01*
X031763Y018086D01*
X031811Y018081D01*
X031859Y018072D01*
X031905Y018060D01*
X031950Y018043D01*
X031994Y018023D01*
X032036Y018000D01*
X032076Y017973D01*
X032114Y017943D01*
X032149Y017910D01*
X032181Y017874D01*
X032211Y017836D01*
X032237Y017795D01*
X032259Y017752D01*
X032279Y017708D01*
X032294Y017663D01*
X032306Y017616D01*
X032314Y017568D01*
X032318Y017520D01*
X032318Y017472D01*
X032314Y017424D01*
X032306Y017376D01*
X032294Y017329D01*
X032279Y017284D01*
X032259Y017240D01*
X032237Y017197D01*
X032211Y017156D01*
X032181Y017118D01*
X032149Y017082D01*
X032114Y017049D01*
X032076Y017019D01*
X032036Y016992D01*
X031994Y016969D01*
X031950Y016949D01*
X031905Y016932D01*
X031859Y016920D01*
X031811Y016911D01*
X031763Y016906D01*
X031715Y016905D01*
X031667Y016908D01*
X031619Y016915D01*
X031572Y016926D01*
X031526Y016940D01*
X031481Y016958D01*
X031438Y016980D01*
X031397Y017005D01*
X031359Y017034D01*
X031322Y017066D01*
X031288Y017100D01*
X031258Y017137D01*
X031230Y017176D01*
X031205Y017218D01*
X031185Y017262D01*
X031167Y017307D01*
X031154Y017353D01*
X031144Y017400D01*
X031138Y017448D01*
X031136Y017496D01*
D17*
X028227Y016956D03*
X027727Y016956D03*
X027227Y016956D03*
X026727Y016956D03*
X026727Y014536D03*
X027227Y014536D03*
X027727Y014536D03*
X028227Y014536D03*
D18*
X028852Y017371D03*
X029852Y017371D03*
D19*
X027476Y013371D03*
X026728Y013371D03*
X023101Y008496D03*
X022353Y008496D03*
X020976Y006871D03*
X020228Y006871D03*
X025603Y006371D03*
X026351Y006371D03*
X021601Y018121D03*
X020853Y018121D03*
D20*
X021950Y017520D03*
X022206Y017520D03*
X022462Y017520D03*
X022718Y017520D03*
X022974Y017520D03*
X023230Y017520D03*
X023486Y017520D03*
X023742Y017520D03*
X023998Y017520D03*
X024254Y017520D03*
X024254Y015223D03*
X023998Y015223D03*
X023742Y015223D03*
X023486Y015223D03*
X023230Y015223D03*
X022974Y015223D03*
X022718Y015223D03*
X022462Y015223D03*
X022206Y015223D03*
X021950Y015223D03*
D21*
X021352Y014745D03*
X021352Y013997D03*
X021227Y008745D03*
X021227Y007997D03*
X025352Y007747D03*
X025352Y008495D03*
D22*
X030477Y010746D03*
D23*
X030477Y008146D03*
X030477Y013346D03*
D24*
X024376Y007746D03*
X024376Y007246D03*
X024376Y006746D03*
X024376Y006246D03*
X024376Y005746D03*
X024376Y005246D03*
X024376Y004746D03*
X022328Y004746D03*
X022328Y005246D03*
X022328Y005746D03*
X022328Y006246D03*
X022328Y006746D03*
X022328Y007246D03*
X022328Y007746D03*
D25*
X005533Y007691D02*
X005533Y008551D01*
X003171Y008551D02*
X003171Y007691D01*
X003922Y006232D02*
X004782Y006232D01*
D26*
X004237Y013121D02*
X003717Y013121D01*
X003717Y014121D02*
X004237Y014121D01*
X001237Y014121D02*
X000717Y014121D01*
X000717Y013121D02*
X001237Y013121D01*
D27*
X020352Y008745D03*
X020352Y007997D03*
X020977Y005995D03*
X020977Y005247D03*
X025727Y005495D03*
X026602Y005495D03*
X026602Y004747D03*
X025727Y004747D03*
D28*
X027783Y003496D03*
X032283Y003496D03*
X023283Y003496D03*
X018783Y003496D03*
X012783Y003496D03*
X008283Y003496D03*
X003783Y003496D03*
X016421Y019371D03*
X020921Y019371D03*
X025421Y019371D03*
X029921Y019371D03*
D29*
X030708Y019371D03*
X031496Y019371D03*
X032283Y019371D03*
X027783Y019371D03*
X026996Y019371D03*
X026208Y019371D03*
X023283Y019371D03*
X022496Y019371D03*
X021708Y019371D03*
X018783Y019371D03*
X017996Y019371D03*
X017208Y019371D03*
X017208Y003496D03*
X016421Y003496D03*
X017996Y003496D03*
X020921Y003496D03*
X021708Y003496D03*
X022496Y003496D03*
X025421Y003496D03*
X026208Y003496D03*
X026996Y003496D03*
X029921Y003496D03*
X030708Y003496D03*
X031496Y003496D03*
X011996Y003496D03*
X011208Y003496D03*
X010421Y003496D03*
X007496Y003496D03*
X006708Y003496D03*
X005921Y003496D03*
X002996Y003496D03*
X002208Y003496D03*
X001421Y003496D03*
D30*
X007477Y006177D03*
X007477Y008066D03*
D31*
X003547Y017746D03*
X001657Y017746D03*
D32*
X001102Y011121D03*
X013227Y019371D03*
D33*
X001852Y008371D03*
X001852Y006371D03*
D34*
X024877Y010121D03*
X026077Y010121D03*
D35*
X030947Y014621D02*
X031507Y014621D01*
X031507Y015621D02*
X030947Y015621D01*
D36*
X031217Y015611D02*
X030487Y015611D01*
X030487Y015585D01*
X030498Y015514D01*
X030521Y015445D01*
X030554Y015380D01*
X030596Y015322D01*
X030647Y015271D01*
X030706Y015228D01*
X030770Y015195D01*
X030825Y015177D01*
X030630Y015096D01*
X030472Y014939D01*
X030387Y014733D01*
X030387Y014510D01*
X030472Y014304D01*
X030525Y014251D01*
X030297Y014251D01*
X030138Y014186D01*
X030067Y014259D01*
X030067Y015439D01*
X030015Y015564D01*
X029515Y016064D01*
X029420Y016160D01*
X029295Y016211D01*
X027743Y016211D01*
X027678Y016276D01*
X027913Y016276D01*
X027977Y016303D01*
X028041Y016276D01*
X028413Y016276D01*
X028516Y016319D01*
X028594Y016398D01*
X028594Y016398D01*
X028659Y016333D01*
X028784Y016281D01*
X029545Y016281D01*
X029670Y016333D01*
X030045Y016708D01*
X030140Y016804D01*
X030192Y016929D01*
X030192Y016948D01*
X030310Y017066D01*
X030392Y017264D01*
X030392Y017479D01*
X030310Y017677D01*
X030158Y017829D01*
X029959Y017911D01*
X029745Y017911D01*
X029546Y017829D01*
X029394Y017677D01*
X029352Y017575D01*
X029310Y017677D01*
X029158Y017829D01*
X028959Y017911D01*
X028793Y017911D01*
X028765Y017939D01*
X028670Y018035D01*
X028545Y018086D01*
X027909Y018086D01*
X027784Y018035D01*
X027534Y017785D01*
X027439Y017689D01*
X027416Y017635D01*
X027413Y017636D01*
X027041Y017636D01*
X026938Y017594D01*
X026881Y017536D01*
X026881Y017536D01*
X026727Y017536D01*
X026727Y016956D01*
X026727Y016376D01*
X026881Y016376D01*
X026881Y016377D02*
X026887Y016370D01*
X026887Y016179D01*
X026939Y016054D01*
X027314Y015679D01*
X027409Y015583D01*
X027534Y015531D01*
X029086Y015531D01*
X029387Y015231D01*
X029387Y014124D01*
X029386Y014059D01*
X029387Y014057D01*
X029387Y014054D01*
X029412Y013994D01*
X029436Y013934D01*
X029438Y013932D01*
X029439Y013929D01*
X029485Y013883D01*
X029649Y013713D01*
X029572Y013526D01*
X029572Y013166D01*
X029710Y012834D01*
X029964Y012579D01*
X030297Y012441D01*
X030657Y012441D01*
X030990Y012579D01*
X031244Y012834D01*
X031382Y013166D01*
X031382Y013526D01*
X031310Y013699D01*
X031515Y013904D01*
X031567Y014029D01*
X031567Y014061D01*
X031618Y014061D01*
X031824Y014147D01*
X031982Y014304D01*
X032067Y014510D01*
X032067Y014733D01*
X031982Y014939D01*
X031824Y015096D01*
X031628Y015177D01*
X031684Y015195D01*
X031748Y015228D01*
X031807Y015271D01*
X031858Y015322D01*
X031900Y015380D01*
X031933Y015445D01*
X031956Y015514D01*
X031967Y015585D01*
X031967Y015611D01*
X031237Y015611D01*
X031237Y015631D01*
X031967Y015631D01*
X031967Y015658D01*
X031956Y015729D01*
X031933Y015798D01*
X031900Y015863D01*
X031858Y015921D01*
X031807Y015972D01*
X031748Y016015D01*
X031684Y016048D01*
X031615Y016070D01*
X031543Y016081D01*
X031237Y016081D01*
X031237Y015631D01*
X031217Y015631D01*
X031217Y015611D01*
X031217Y015631D02*
X030487Y015631D01*
X030487Y015658D01*
X030498Y015729D01*
X030521Y015798D01*
X030554Y015863D01*
X030596Y015921D01*
X030647Y015972D01*
X030706Y016015D01*
X030770Y016048D01*
X030839Y016070D01*
X030911Y016081D01*
X031217Y016081D01*
X031217Y015631D01*
X031217Y015746D02*
X031237Y015746D01*
X031237Y015904D02*
X031217Y015904D01*
X031217Y016063D02*
X031237Y016063D01*
X031637Y016063D02*
X033117Y016063D01*
X033117Y016221D02*
X027733Y016221D01*
X027247Y015746D02*
X026442Y015746D01*
X026442Y015711D02*
X026442Y016314D01*
X026390Y016439D01*
X026295Y016535D01*
X025670Y017160D01*
X025545Y017211D01*
X025430Y017211D01*
X025457Y017276D01*
X025457Y017467D01*
X025384Y017643D01*
X025249Y017778D01*
X025072Y017851D01*
X024881Y017851D01*
X024705Y017778D01*
X024570Y017643D01*
X024497Y017467D01*
X024497Y017461D01*
X024494Y017461D01*
X024494Y017520D01*
X024338Y017520D01*
X024338Y017520D01*
X024494Y017520D01*
X024494Y017739D01*
X024481Y017785D01*
X024458Y017826D01*
X024424Y017859D01*
X024383Y017883D01*
X024338Y017895D01*
X024338Y017906D01*
X025266Y017906D01*
X025331Y017841D01*
X025507Y017768D01*
X025697Y017768D01*
X025873Y017841D01*
X026007Y017976D01*
X026080Y018151D01*
X026080Y018342D01*
X026007Y018517D01*
X025993Y018531D01*
X026045Y018531D01*
X026170Y018583D01*
X026208Y018622D01*
X026247Y018583D01*
X026372Y018531D01*
X029795Y018531D01*
X029920Y018583D01*
X030015Y018679D01*
X030113Y018777D01*
X030170Y018834D01*
X030234Y018834D01*
X030337Y018877D01*
X030390Y018930D01*
X030404Y018916D01*
X030601Y018834D01*
X030815Y018834D01*
X031013Y018916D01*
X031191Y018916D01*
X031389Y018834D01*
X031603Y018834D01*
X031800Y018916D01*
X031951Y019067D01*
X031956Y019079D01*
X031998Y019038D01*
X032054Y018997D01*
X032115Y018966D01*
X032181Y018945D01*
X032249Y018934D01*
X032283Y018934D01*
X032283Y019371D01*
X032283Y019371D01*
X032283Y018934D01*
X032318Y018934D01*
X032386Y018945D01*
X032451Y018966D01*
X032512Y018997D01*
X032568Y019038D01*
X032617Y019086D01*
X032657Y019142D01*
X032688Y019204D01*
X032710Y019269D01*
X032721Y019337D01*
X032721Y019371D01*
X032283Y019371D01*
X032283Y019371D01*
X032721Y019371D01*
X032721Y019406D01*
X032710Y019474D01*
X032688Y019539D01*
X032657Y019601D01*
X032617Y019656D01*
X032568Y019705D01*
X032512Y019746D01*
X032451Y019777D01*
X032386Y019798D01*
X032318Y019809D01*
X032283Y019809D01*
X032249Y019809D01*
X032181Y019798D01*
X032115Y019777D01*
X032054Y019746D01*
X031998Y019705D01*
X031956Y019664D01*
X031951Y019676D01*
X031800Y019827D01*
X031603Y019909D01*
X031389Y019909D01*
X031191Y019827D01*
X031102Y019738D01*
X031048Y019792D01*
X031048Y019833D01*
X030997Y019958D01*
X030765Y020189D01*
X030670Y020285D01*
X030545Y020336D01*
X022868Y020336D01*
X022765Y020439D01*
X022670Y020535D01*
X022545Y020586D01*
X016659Y020586D01*
X016534Y020535D01*
X016133Y020133D01*
X016081Y020008D01*
X016081Y019898D01*
X016005Y019866D01*
X015926Y019788D01*
X015883Y019685D01*
X015883Y019058D01*
X015926Y018955D01*
X016005Y018877D01*
X016081Y018845D01*
X016081Y018735D01*
X016133Y018610D01*
X017511Y017232D01*
X017636Y017180D01*
X021647Y017180D01*
X021653Y017167D01*
X021732Y017088D01*
X021835Y017045D01*
X022066Y017045D01*
X022078Y017050D01*
X022091Y017045D01*
X022322Y017045D01*
X022334Y017050D01*
X022347Y017045D01*
X022578Y017045D01*
X022590Y017050D01*
X022602Y017045D01*
X022834Y017045D01*
X022846Y017050D01*
X022858Y017045D01*
X022887Y017045D01*
X022887Y016929D01*
X022939Y016804D01*
X023034Y016708D01*
X023409Y016333D01*
X023534Y016281D01*
X025211Y016281D01*
X025262Y016231D01*
X025262Y015262D01*
X024909Y014910D01*
X024814Y014814D01*
X024777Y014725D01*
X024727Y014675D01*
X024692Y014710D01*
X024692Y014814D01*
X024640Y014939D01*
X024594Y014986D01*
X024594Y015473D01*
X024551Y015576D01*
X024472Y015655D01*
X024369Y015698D01*
X024138Y015698D01*
X024126Y015693D01*
X024113Y015698D01*
X023882Y015698D01*
X023870Y015693D01*
X023857Y015698D01*
X023626Y015698D01*
X023614Y015693D01*
X023602Y015698D01*
X023370Y015698D01*
X023358Y015693D01*
X023346Y015698D01*
X023317Y015698D01*
X023317Y016189D01*
X023265Y016314D01*
X023170Y016410D01*
X022795Y016785D01*
X022670Y016836D01*
X015243Y016836D01*
X013413Y018666D01*
X013519Y018666D01*
X013637Y018784D01*
X013637Y018554D01*
X013689Y018429D01*
X014314Y017804D01*
X014409Y017708D01*
X014534Y017656D01*
X015391Y017656D01*
X015456Y017591D01*
X015632Y017518D01*
X015822Y017518D01*
X015998Y017591D01*
X016132Y017726D01*
X016205Y017901D01*
X016205Y018092D01*
X016132Y018267D01*
X015998Y018402D01*
X015822Y018475D01*
X015632Y018475D01*
X015456Y018402D01*
X015391Y018336D01*
X014743Y018336D01*
X014317Y018762D01*
X014317Y021939D01*
X014315Y021943D01*
X033117Y021943D01*
X033117Y005996D01*
X030789Y005996D01*
X027289Y009496D01*
X026583Y009496D01*
X026605Y009519D01*
X026629Y009560D01*
X026641Y009606D01*
X026641Y010041D01*
X026157Y010041D01*
X026157Y010201D01*
X026641Y010201D01*
X026641Y010637D01*
X026629Y010683D01*
X026605Y010724D01*
X026572Y010758D01*
X026531Y010781D01*
X026485Y010794D01*
X026157Y010794D01*
X026157Y010201D01*
X025997Y010201D01*
X025997Y010794D01*
X025670Y010794D01*
X025624Y010781D01*
X025583Y010758D01*
X025549Y010724D01*
X025531Y010692D01*
X025498Y010772D01*
X025419Y010851D01*
X025316Y010894D01*
X025192Y010894D01*
X025192Y013038D01*
X025227Y013052D01*
X025289Y013026D01*
X025913Y013026D01*
X026015Y013069D01*
X026094Y013148D01*
X026137Y013251D01*
X026137Y013281D01*
X026170Y013281D01*
X026295Y013333D01*
X026381Y013419D01*
X026680Y013419D01*
X026680Y013324D01*
X026292Y013324D01*
X026292Y013052D01*
X026304Y013007D01*
X026328Y012966D01*
X026362Y012932D01*
X026403Y012908D01*
X026448Y012896D01*
X026680Y012896D01*
X026680Y013323D01*
X026776Y013323D01*
X026776Y012896D01*
X027004Y012896D01*
X027061Y012839D01*
X027137Y012808D01*
X027137Y012804D01*
X027189Y012679D01*
X027247Y012621D01*
X027247Y012526D01*
X027320Y012350D01*
X027455Y012215D01*
X027631Y012141D01*
X027822Y012141D01*
X027999Y012215D01*
X028134Y012350D01*
X028207Y012526D01*
X028207Y012717D01*
X028134Y012893D01*
X029685Y012893D01*
X029620Y013051D02*
X028093Y013051D01*
X028045Y013031D02*
X028170Y013083D01*
X028420Y013333D01*
X028468Y013381D01*
X028515Y013429D01*
X028515Y013429D01*
X028515Y013429D01*
X028541Y013491D01*
X028567Y013554D01*
X028567Y013554D01*
X028567Y013554D01*
X028567Y013621D01*
X028567Y013689D01*
X028567Y013689D01*
X028567Y013950D01*
X028594Y013978D01*
X028637Y014081D01*
X028637Y014992D01*
X028594Y015095D01*
X028516Y015174D01*
X028413Y015216D01*
X028041Y015216D01*
X027977Y015190D01*
X027913Y015216D01*
X027556Y015216D01*
X027515Y015314D01*
X027420Y015410D01*
X027170Y015660D01*
X027045Y015711D01*
X026442Y015711D01*
X026442Y015904D02*
X027088Y015904D01*
X026935Y016063D02*
X026442Y016063D01*
X026442Y016221D02*
X026887Y016221D01*
X026881Y016376D02*
X026881Y016377D01*
X026727Y016376D02*
X026727Y016956D01*
X026727Y016956D01*
X026417Y016956D01*
X026417Y016533D01*
X026429Y016487D01*
X026453Y016446D01*
X026486Y016412D01*
X026527Y016389D01*
X026573Y016376D01*
X026727Y016376D01*
X026727Y016380D02*
X026727Y016380D01*
X026727Y016538D02*
X026727Y016538D01*
X026727Y016697D02*
X026727Y016697D01*
X026727Y016855D02*
X026727Y016855D01*
X026727Y016956D02*
X026727Y016956D01*
X026417Y016956D01*
X026417Y017380D01*
X026429Y017426D01*
X026453Y017467D01*
X026486Y017500D01*
X026527Y017524D01*
X026573Y017536D01*
X026727Y017536D01*
X026727Y016956D01*
X026727Y016956D01*
X026727Y017014D02*
X026727Y017014D01*
X026727Y017172D02*
X026727Y017172D01*
X026727Y017331D02*
X026727Y017331D01*
X026727Y017489D02*
X026727Y017489D01*
X026475Y017489D02*
X025448Y017489D01*
X025457Y017331D02*
X026417Y017331D01*
X026417Y017172D02*
X025639Y017172D01*
X025815Y017014D02*
X026417Y017014D01*
X026417Y016855D02*
X025974Y016855D01*
X026132Y016697D02*
X026417Y016697D01*
X026417Y016538D02*
X026291Y016538D01*
X026415Y016380D02*
X026560Y016380D01*
X027242Y015587D02*
X027405Y015587D01*
X027400Y015429D02*
X029189Y015429D01*
X029347Y015270D02*
X027533Y015270D01*
X028577Y015112D02*
X029387Y015112D01*
X029387Y014953D02*
X028637Y014953D01*
X028637Y014795D02*
X029387Y014795D01*
X029387Y014636D02*
X028637Y014636D01*
X028637Y014478D02*
X029387Y014478D01*
X029387Y014319D02*
X028637Y014319D01*
X028637Y014161D02*
X029387Y014161D01*
X029408Y014002D02*
X028605Y014002D01*
X028567Y013844D02*
X029522Y013844D01*
X029638Y013685D02*
X028567Y013685D01*
X028556Y013527D02*
X029572Y013527D01*
X029572Y013368D02*
X028455Y013368D01*
X028420Y013333D02*
X028420Y013333D01*
X028296Y013210D02*
X029572Y013210D01*
X029809Y012734D02*
X028200Y012734D01*
X028207Y012576D02*
X029972Y012576D01*
X029673Y011706D02*
X029627Y011694D01*
X029586Y011670D01*
X029553Y011637D01*
X029529Y011596D01*
X029517Y011550D01*
X029517Y010746D01*
X029517Y009943D01*
X029529Y009897D01*
X029553Y009856D01*
X029586Y009822D01*
X029627Y009799D01*
X029673Y009786D01*
X030477Y009786D01*
X031281Y009786D01*
X031326Y009799D01*
X031367Y009822D01*
X031401Y009856D01*
X031425Y009897D01*
X031437Y009943D01*
X031437Y010746D01*
X030477Y010746D01*
X030477Y009786D01*
X030477Y010746D01*
X030477Y010746D01*
X030477Y010746D01*
X029517Y010746D01*
X030477Y010746D01*
X030477Y010746D01*
X031437Y010746D01*
X031437Y011550D01*
X031425Y011596D01*
X031401Y011637D01*
X031367Y011670D01*
X031326Y011694D01*
X031281Y011706D01*
X030477Y011706D01*
X030477Y010746D01*
X030477Y010746D01*
X030477Y011706D01*
X029673Y011706D01*
X029546Y011625D02*
X025192Y011625D01*
X025192Y011783D02*
X033117Y011783D01*
X033117Y011625D02*
X031408Y011625D01*
X031437Y011466D02*
X033117Y011466D01*
X033117Y011308D02*
X031437Y011308D01*
X031437Y011149D02*
X033117Y011149D01*
X033117Y010991D02*
X031437Y010991D01*
X031437Y010832D02*
X033117Y010832D01*
X033117Y010674D02*
X031437Y010674D01*
X031437Y010515D02*
X033117Y010515D01*
X033117Y010357D02*
X031437Y010357D01*
X031437Y010198D02*
X033117Y010198D01*
X033117Y010040D02*
X031437Y010040D01*
X031416Y009881D02*
X033117Y009881D01*
X033117Y009723D02*
X026641Y009723D01*
X026641Y009881D02*
X029538Y009881D01*
X029517Y010040D02*
X026641Y010040D01*
X026157Y010198D02*
X029517Y010198D01*
X029517Y010357D02*
X026641Y010357D01*
X026641Y010515D02*
X029517Y010515D01*
X029517Y010674D02*
X026631Y010674D01*
X026157Y010674D02*
X025997Y010674D01*
X025997Y010515D02*
X026157Y010515D01*
X026157Y010357D02*
X025997Y010357D01*
X025438Y010832D02*
X029517Y010832D01*
X029517Y010991D02*
X025192Y010991D01*
X025192Y011149D02*
X029517Y011149D01*
X029517Y011308D02*
X025192Y011308D01*
X025192Y011466D02*
X029517Y011466D01*
X030477Y011466D02*
X030477Y011466D01*
X030477Y011308D02*
X030477Y011308D01*
X030477Y011149D02*
X030477Y011149D01*
X030477Y010991D02*
X030477Y010991D01*
X030477Y010832D02*
X030477Y010832D01*
X030477Y010674D02*
X030477Y010674D01*
X030477Y010515D02*
X030477Y010515D01*
X030477Y010357D02*
X030477Y010357D01*
X030477Y010198D02*
X030477Y010198D01*
X030477Y010040D02*
X030477Y010040D01*
X030477Y009881D02*
X030477Y009881D01*
X030657Y009051D02*
X030297Y009051D01*
X029964Y008914D01*
X029710Y008659D01*
X029572Y008326D01*
X029572Y007966D01*
X029710Y007634D01*
X029964Y007379D01*
X030297Y007241D01*
X030657Y007241D01*
X030990Y007379D01*
X031244Y007634D01*
X031382Y007966D01*
X031382Y008326D01*
X031244Y008659D01*
X030990Y008914D01*
X030657Y009051D01*
X030949Y008930D02*
X033117Y008930D01*
X033117Y008772D02*
X031131Y008772D01*
X031263Y008613D02*
X033117Y008613D01*
X033117Y008455D02*
X031329Y008455D01*
X031382Y008296D02*
X033117Y008296D01*
X033117Y008138D02*
X031382Y008138D01*
X031382Y007979D02*
X033117Y007979D01*
X033117Y007821D02*
X031322Y007821D01*
X031256Y007662D02*
X033117Y007662D01*
X033117Y007504D02*
X031114Y007504D01*
X030908Y007345D02*
X033117Y007345D01*
X033117Y007187D02*
X029599Y007187D01*
X029757Y007028D02*
X033117Y007028D01*
X033117Y006870D02*
X029916Y006870D01*
X030074Y006711D02*
X033117Y006711D01*
X033117Y006553D02*
X030233Y006553D01*
X030391Y006394D02*
X033117Y006394D01*
X033117Y006236D02*
X030550Y006236D01*
X030708Y006077D02*
X033117Y006077D01*
X030046Y007345D02*
X029440Y007345D01*
X029282Y007504D02*
X029840Y007504D01*
X029698Y007662D02*
X029123Y007662D01*
X028965Y007821D02*
X029632Y007821D01*
X029572Y007979D02*
X028806Y007979D01*
X028648Y008138D02*
X029572Y008138D01*
X029572Y008296D02*
X028489Y008296D01*
X028331Y008455D02*
X029625Y008455D01*
X029691Y008613D02*
X028172Y008613D01*
X028014Y008772D02*
X029823Y008772D01*
X030005Y008930D02*
X027855Y008930D01*
X027697Y009089D02*
X033117Y009089D01*
X033117Y009247D02*
X027538Y009247D01*
X027380Y009406D02*
X033117Y009406D01*
X033117Y009564D02*
X026630Y009564D01*
X024432Y010891D02*
X024334Y010851D01*
X024255Y010772D01*
X024213Y010669D01*
X024213Y009574D01*
X024245Y009496D01*
X018289Y009496D01*
X015227Y006434D01*
X015227Y003086D01*
X013280Y003086D01*
X013321Y003183D01*
X013321Y003810D01*
X013278Y003913D01*
X013199Y003991D01*
X013096Y004034D01*
X013045Y004034D01*
X012817Y004262D01*
X012817Y005285D01*
X015227Y005285D01*
X015227Y005443D02*
X012921Y005443D01*
X012955Y005526D02*
X012882Y005351D01*
X012817Y005285D01*
X012817Y005126D02*
X015227Y005126D01*
X015227Y004968D02*
X012817Y004968D01*
X012817Y004809D02*
X015227Y004809D01*
X015227Y004651D02*
X012817Y004651D01*
X012817Y004492D02*
X015227Y004492D01*
X015227Y004334D02*
X012817Y004334D01*
X012904Y004175D02*
X015227Y004175D01*
X015227Y004017D02*
X013137Y004017D01*
X013300Y003858D02*
X015227Y003858D01*
X015227Y003700D02*
X013321Y003700D01*
X013321Y003541D02*
X015227Y003541D01*
X015227Y003383D02*
X013321Y003383D01*
X013321Y003224D02*
X015227Y003224D01*
X015227Y002406D02*
X015227Y000906D01*
X000662Y000906D01*
X000662Y010706D01*
X000851Y010516D01*
X001052Y010516D01*
X001052Y011071D01*
X001152Y011071D01*
X001152Y010516D01*
X001353Y010516D01*
X001707Y010871D01*
X001707Y011071D01*
X001152Y011071D01*
X001152Y011171D01*
X001707Y011171D01*
X001707Y011372D01*
X001353Y011726D01*
X001152Y011726D01*
X001152Y011171D01*
X001052Y011171D01*
X001052Y011726D01*
X000851Y011726D01*
X000662Y011537D01*
X000662Y012581D01*
X001344Y012581D01*
X001543Y012664D01*
X001695Y012816D01*
X001777Y013014D01*
X001777Y013229D01*
X001695Y013427D01*
X001543Y013579D01*
X001441Y013621D01*
X001543Y013664D01*
X001695Y013816D01*
X001777Y014014D01*
X001777Y014229D01*
X001695Y014427D01*
X001543Y014579D01*
X001344Y014661D01*
X000662Y014661D01*
X000662Y018689D01*
X001049Y018302D01*
X001011Y018302D01*
X000908Y018259D01*
X000829Y018181D01*
X000787Y018078D01*
X000787Y017415D01*
X000829Y017312D01*
X000908Y017233D01*
X001011Y017191D01*
X001162Y017191D01*
X001162Y015784D01*
X001229Y015622D01*
X001353Y015498D01*
X002037Y014814D01*
X002037Y010179D01*
X001479Y009621D01*
X001412Y009459D01*
X001412Y009211D01*
X000947Y008746D01*
X000947Y007997D01*
X001477Y007466D01*
X002227Y007466D01*
X002561Y007800D01*
X002561Y007643D01*
X002576Y007549D01*
X002606Y007457D01*
X002649Y007372D01*
X002706Y007294D01*
X002773Y007226D01*
X002851Y007170D01*
X002937Y007126D01*
X003028Y007096D01*
X003123Y007081D01*
X003171Y007081D01*
X003219Y007081D01*
X003314Y007096D01*
X003405Y007126D01*
X003491Y007170D01*
X003568Y007226D01*
X003636Y007294D01*
X003693Y007372D01*
X003736Y007457D01*
X003766Y007549D01*
X003781Y007643D01*
X003781Y008121D01*
X003171Y008121D01*
X003171Y007081D01*
X003171Y008121D01*
X003171Y008121D01*
X003171Y008121D01*
X003781Y008121D01*
X003781Y008599D01*
X003766Y008694D01*
X003736Y008786D01*
X003693Y008871D01*
X003636Y008949D01*
X003568Y009017D01*
X003491Y009073D01*
X003405Y009117D01*
X003314Y009146D01*
X003219Y009161D01*
X003171Y009161D01*
X003171Y008121D01*
X003171Y008121D01*
X003171Y009161D01*
X003123Y009161D01*
X003028Y009146D01*
X002937Y009117D01*
X002851Y009073D01*
X002773Y009017D01*
X002706Y008949D01*
X002649Y008871D01*
X002643Y008860D01*
X002303Y009200D01*
X002726Y009623D01*
X002739Y009636D01*
X004828Y009636D01*
X005173Y009291D01*
X005173Y009171D01*
X005131Y009153D01*
X004931Y008954D01*
X004823Y008693D01*
X004823Y007550D01*
X004931Y007289D01*
X005131Y007090D01*
X005173Y007072D01*
X005173Y006869D01*
X005228Y006736D01*
X005922Y006043D01*
X006023Y005941D01*
X006155Y005886D01*
X006921Y005886D01*
X006921Y005530D01*
X006964Y005427D01*
X007043Y005349D01*
X007072Y005336D01*
X006909Y005336D01*
X006784Y005285D01*
X006420Y004920D01*
X006368Y004795D01*
X006368Y003917D01*
X006253Y003801D01*
X006247Y003789D01*
X006206Y003830D01*
X006150Y003871D01*
X006089Y003902D01*
X006023Y003923D01*
X005955Y003934D01*
X005921Y003934D01*
X005921Y003496D01*
X005483Y003496D01*
X005483Y003462D01*
X005494Y003394D01*
X005515Y003329D01*
X005547Y003267D01*
X005587Y003211D01*
X005636Y003163D01*
X005692Y003122D01*
X005753Y003091D01*
X005767Y003086D01*
X004280Y003086D01*
X004321Y003183D01*
X004321Y003810D01*
X004278Y003913D01*
X004199Y003991D01*
X004096Y004034D01*
X003470Y004034D01*
X003367Y003991D01*
X003314Y003938D01*
X003300Y003952D01*
X003103Y004034D01*
X002889Y004034D01*
X002691Y003952D01*
X002602Y003863D01*
X002513Y003952D01*
X002315Y004034D01*
X002101Y004034D01*
X001904Y003952D01*
X001753Y003801D01*
X001747Y003789D01*
X001706Y003830D01*
X001650Y003871D01*
X001589Y003902D01*
X001523Y003923D01*
X001455Y003934D01*
X001421Y003934D01*
X001421Y003496D01*
X001421Y003059D01*
X001455Y003059D01*
X001523Y003070D01*
X001589Y003091D01*
X001650Y003122D01*
X001706Y003163D01*
X001747Y003204D01*
X001753Y003192D01*
X001868Y003076D01*
X001868Y002948D01*
X001920Y002823D01*
X002284Y002458D01*
X002409Y002406D01*
X006545Y002406D01*
X006670Y002458D01*
X006727Y002516D01*
X006784Y002458D01*
X006909Y002406D01*
X011045Y002406D01*
X011170Y002458D01*
X011227Y002516D01*
X011284Y002458D01*
X011409Y002406D01*
X015227Y002406D01*
X015227Y002273D02*
X000662Y002273D01*
X000662Y002115D02*
X015227Y002115D01*
X015227Y001956D02*
X000662Y001956D01*
X000662Y001798D02*
X015227Y001798D01*
X015227Y001639D02*
X000662Y001639D01*
X000662Y001481D02*
X015227Y001481D01*
X015227Y001322D02*
X000662Y001322D01*
X000662Y001164D02*
X015227Y001164D01*
X015227Y001005D02*
X000662Y001005D01*
X000662Y002432D02*
X002348Y002432D01*
X002152Y002590D02*
X000662Y002590D01*
X000662Y002749D02*
X001994Y002749D01*
X001885Y002907D02*
X000662Y002907D01*
X000662Y003066D02*
X001342Y003066D01*
X001318Y003070D02*
X001386Y003059D01*
X001421Y003059D01*
X001421Y003496D01*
X001421Y003496D01*
X000983Y003496D01*
X000983Y003462D01*
X000994Y003394D01*
X001015Y003329D01*
X001047Y003267D01*
X001087Y003211D01*
X001136Y003163D01*
X001192Y003122D01*
X001253Y003091D01*
X001318Y003070D01*
X001421Y003066D02*
X001421Y003066D01*
X001499Y003066D02*
X001868Y003066D01*
X001421Y003224D02*
X001421Y003224D01*
X001421Y003383D02*
X001421Y003383D01*
X001421Y003496D02*
X001421Y003496D01*
X000983Y003496D01*
X000983Y003531D01*
X000994Y003599D01*
X001015Y003664D01*
X001047Y003726D01*
X001087Y003781D01*
X001136Y003830D01*
X001192Y003871D01*
X001253Y003902D01*
X001318Y003923D01*
X001386Y003934D01*
X001421Y003934D01*
X001421Y003496D01*
X001421Y003496D01*
X001421Y003541D02*
X001421Y003541D01*
X001421Y003700D02*
X001421Y003700D01*
X001421Y003858D02*
X001421Y003858D01*
X001667Y003858D02*
X001810Y003858D01*
X002060Y004017D02*
X000662Y004017D01*
X000662Y004175D02*
X006368Y004175D01*
X006368Y004017D02*
X004137Y004017D01*
X004300Y003858D02*
X005675Y003858D01*
X005692Y003871D02*
X005636Y003830D01*
X005587Y003781D01*
X005547Y003726D01*
X005515Y003664D01*
X005494Y003599D01*
X005483Y003531D01*
X005483Y003496D01*
X005921Y003496D01*
X005921Y003496D01*
X005921Y003496D01*
X005921Y003934D01*
X005886Y003934D01*
X005818Y003923D01*
X005753Y003902D01*
X005692Y003871D01*
X005921Y003858D02*
X005921Y003858D01*
X005921Y003700D02*
X005921Y003700D01*
X005921Y003541D02*
X005921Y003541D01*
X006167Y003858D02*
X006310Y003858D01*
X006368Y004334D02*
X000662Y004334D01*
X000662Y004492D02*
X006368Y004492D01*
X006368Y004651D02*
X000662Y004651D01*
X000662Y004809D02*
X006374Y004809D01*
X006468Y004968D02*
X000662Y004968D01*
X000662Y005126D02*
X006626Y005126D01*
X006785Y005285D02*
X000662Y005285D01*
X000662Y005443D02*
X006957Y005443D01*
X006921Y005602D02*
X002221Y005602D01*
X002185Y005566D02*
X002657Y006038D01*
X002657Y006321D01*
X001902Y006321D01*
X001902Y005566D01*
X002185Y005566D01*
X002379Y005760D02*
X003533Y005760D01*
X003525Y005766D02*
X003602Y005710D01*
X003688Y005666D01*
X003779Y005637D01*
X003874Y005622D01*
X004352Y005622D01*
X004830Y005622D01*
X004925Y005637D01*
X005016Y005666D01*
X005102Y005710D01*
X005179Y005766D01*
X005247Y005834D01*
X005304Y005912D01*
X005347Y005998D01*
X005377Y006089D01*
X005392Y006184D01*
X005392Y006232D01*
X005392Y006280D01*
X005377Y006375D01*
X005347Y006466D01*
X005304Y006551D01*
X005247Y006629D01*
X005179Y006697D01*
X005102Y006753D01*
X005016Y006797D01*
X004925Y006827D01*
X004830Y006842D01*
X004352Y006842D01*
X004352Y006232D01*
X004352Y006232D01*
X004352Y006842D01*
X003874Y006842D01*
X003779Y006827D01*
X003688Y006797D01*
X003602Y006753D01*
X003525Y006697D01*
X003457Y006629D01*
X003400Y006551D01*
X003357Y006466D01*
X003327Y006375D01*
X003312Y006280D01*
X003312Y006232D01*
X004352Y006232D01*
X005392Y006232D01*
X004352Y006232D01*
X004352Y006232D01*
X004352Y006232D01*
X003312Y006232D01*
X003312Y006184D01*
X003327Y006089D01*
X003357Y005998D01*
X003400Y005912D01*
X003457Y005834D01*
X003525Y005766D01*
X003397Y005919D02*
X002538Y005919D01*
X002657Y006077D02*
X003331Y006077D01*
X003312Y006236D02*
X002657Y006236D01*
X002657Y006421D02*
X002657Y006705D01*
X002185Y007176D01*
X001902Y007176D01*
X001902Y006421D01*
X002657Y006421D01*
X002657Y006553D02*
X003401Y006553D01*
X003333Y006394D02*
X001902Y006394D01*
X001902Y006421D02*
X001902Y006321D01*
X001802Y006321D01*
X001802Y005566D01*
X001519Y005566D01*
X001047Y006038D01*
X001047Y006321D01*
X001802Y006321D01*
X001802Y006421D01*
X001047Y006421D01*
X001047Y006705D01*
X001519Y007176D01*
X001802Y007176D01*
X001802Y006421D01*
X001902Y006421D01*
X001802Y006394D02*
X000662Y006394D01*
X000662Y006236D02*
X001047Y006236D01*
X001047Y006077D02*
X000662Y006077D01*
X000662Y005919D02*
X001166Y005919D01*
X001325Y005760D02*
X000662Y005760D01*
X000662Y005602D02*
X001483Y005602D01*
X001802Y005602D02*
X001902Y005602D01*
X001902Y005760D02*
X001802Y005760D01*
X001802Y005919D02*
X001902Y005919D01*
X001902Y006077D02*
X001802Y006077D01*
X001802Y006236D02*
X001902Y006236D01*
X001902Y006553D02*
X001802Y006553D01*
X001802Y006711D02*
X001902Y006711D01*
X001902Y006870D02*
X001802Y006870D01*
X001802Y007028D02*
X001902Y007028D01*
X002333Y007028D02*
X005173Y007028D01*
X005173Y006870D02*
X002492Y006870D01*
X002650Y006711D02*
X003545Y006711D01*
X003514Y007187D02*
X005033Y007187D01*
X004908Y007345D02*
X003673Y007345D01*
X003751Y007504D02*
X004842Y007504D01*
X004823Y007662D02*
X003781Y007662D01*
X003781Y007821D02*
X004823Y007821D01*
X004823Y007979D02*
X003781Y007979D01*
X003781Y008138D02*
X004823Y008138D01*
X004823Y008296D02*
X003781Y008296D01*
X003781Y008455D02*
X004823Y008455D01*
X004823Y008613D02*
X003779Y008613D01*
X003741Y008772D02*
X004856Y008772D01*
X004922Y008930D02*
X003649Y008930D01*
X003460Y009089D02*
X005066Y009089D01*
X005173Y009247D02*
X002350Y009247D01*
X002414Y009089D02*
X002882Y009089D01*
X002692Y008930D02*
X002573Y008930D01*
X002509Y009406D02*
X005058Y009406D01*
X004900Y009564D02*
X002667Y009564D01*
X002477Y009996D02*
X004977Y009996D01*
X005533Y009440D01*
X005533Y008121D01*
X005533Y006940D01*
X006227Y006246D01*
X007329Y006246D01*
X007329Y006177D01*
X007477Y006177D01*
X007496Y006177D01*
X008033Y006236D02*
X015227Y006236D01*
X015227Y006394D02*
X008033Y006394D01*
X008033Y006553D02*
X009658Y006553D01*
X009751Y006499D02*
X010024Y006426D01*
X010305Y006426D01*
X010578Y006499D01*
X010822Y006640D01*
X011021Y006839D01*
X011162Y007083D01*
X011235Y007356D01*
X011235Y007637D01*
X011162Y007910D01*
X011021Y008154D01*
X010822Y008353D01*
X010578Y008494D01*
X010305Y008567D01*
X010024Y008567D01*
X009751Y008494D01*
X009507Y008353D01*
X009308Y008154D01*
X009167Y007910D01*
X009094Y007637D01*
X009094Y007356D01*
X009167Y007083D01*
X009308Y006839D01*
X009507Y006640D01*
X009751Y006499D01*
X009435Y006711D02*
X008033Y006711D01*
X008033Y006823D02*
X007990Y006926D01*
X007911Y007004D01*
X007808Y007047D01*
X007146Y007047D01*
X007043Y007004D01*
X006964Y006926D01*
X006921Y006823D01*
X006921Y006606D01*
X006376Y006606D01*
X005905Y007077D01*
X005935Y007090D01*
X006135Y007289D01*
X006243Y007550D01*
X006243Y008693D01*
X006135Y008954D01*
X005935Y009153D01*
X005893Y009171D01*
X005893Y009512D01*
X005838Y009644D01*
X005737Y009746D01*
X005181Y010302D01*
X005049Y010356D01*
X002917Y010356D01*
X002917Y015084D01*
X002850Y015246D01*
X002042Y016054D01*
X002042Y017191D01*
X002303Y017191D01*
X002406Y017233D01*
X002485Y017312D01*
X002528Y017415D01*
X002528Y018078D01*
X002485Y018181D01*
X002406Y018259D01*
X002303Y018302D01*
X002042Y018302D01*
X002042Y018459D01*
X001975Y018621D01*
X000917Y019679D01*
X000917Y019795D01*
X001455Y019795D01*
X001557Y019837D01*
X001636Y019916D01*
X001667Y019991D01*
X001775Y019882D01*
X001987Y019795D01*
X002198Y019795D01*
X002439Y019554D01*
X002534Y019458D01*
X002659Y019406D01*
X002961Y019406D01*
X003564Y018804D01*
X003659Y018708D01*
X003784Y018656D01*
X005211Y018656D01*
X006189Y017679D01*
X006284Y017583D01*
X006409Y017531D01*
X007656Y017531D01*
X007400Y017276D01*
X007349Y017151D01*
X007349Y016118D01*
X007294Y016095D01*
X007215Y016016D01*
X007192Y015961D01*
X005188Y015961D01*
X005123Y016027D01*
X004947Y016100D01*
X004757Y016100D01*
X004581Y016027D01*
X004447Y015892D01*
X004374Y015717D01*
X004374Y015526D01*
X004447Y015351D01*
X004581Y015216D01*
X004757Y015143D01*
X004947Y015143D01*
X005123Y015216D01*
X005188Y015281D01*
X007192Y015281D01*
X007215Y015227D01*
X007294Y015148D01*
X007397Y015105D01*
X007980Y015105D01*
X008083Y015148D01*
X008102Y015166D01*
X008121Y015148D01*
X008223Y015105D01*
X008807Y015105D01*
X008874Y015133D01*
X008938Y015069D01*
X009041Y015026D01*
X009665Y015026D01*
X009767Y015069D01*
X009825Y015126D01*
X010053Y015126D01*
X010053Y015573D01*
X010149Y015573D01*
X010149Y015126D01*
X010381Y015126D01*
X010426Y015139D01*
X010467Y015162D01*
X010501Y015196D01*
X010525Y015237D01*
X010537Y015283D01*
X010537Y015574D01*
X010149Y015574D01*
X010149Y015669D01*
X010537Y015669D01*
X010537Y015960D01*
X010525Y016006D01*
X010501Y016047D01*
X010467Y016080D01*
X010426Y016104D01*
X010381Y016116D01*
X010149Y016116D01*
X010149Y015669D01*
X010053Y015669D01*
X010053Y016116D01*
X009825Y016116D01*
X009767Y016174D01*
X009665Y016216D01*
X009041Y016216D01*
X008938Y016174D01*
X008874Y016110D01*
X008807Y016138D01*
X008223Y016138D01*
X008121Y016095D01*
X008102Y016076D01*
X008083Y016095D01*
X008029Y016118D01*
X008029Y016942D01*
X008243Y017156D01*
X010961Y017156D01*
X014064Y014054D01*
X014159Y013958D01*
X014284Y013906D01*
X019086Y013906D01*
X019314Y013679D01*
X019409Y013583D01*
X019534Y013531D01*
X020170Y013531D01*
X020295Y013583D01*
X020877Y014165D01*
X020877Y014045D01*
X021304Y014045D01*
X021304Y013949D01*
X021304Y013562D01*
X021033Y013562D01*
X020987Y013574D01*
X020946Y013597D01*
X020913Y013631D01*
X020889Y013672D01*
X020877Y013718D01*
X020877Y013949D01*
X021304Y013949D01*
X021400Y013949D01*
X021400Y013562D01*
X021671Y013562D01*
X021717Y013574D01*
X021758Y013597D01*
X021791Y013631D01*
X021815Y013672D01*
X021827Y013718D01*
X021827Y013949D01*
X021400Y013949D01*
X021400Y014045D01*
X021827Y014045D01*
X021827Y014274D01*
X021885Y014331D01*
X021893Y014351D01*
X021945Y014225D01*
X022022Y014148D01*
X021999Y014092D01*
X021999Y013901D01*
X022072Y013726D01*
X022137Y013660D01*
X022137Y010804D01*
X022189Y010679D01*
X022284Y010583D01*
X022749Y010119D01*
X022749Y010026D01*
X022822Y009851D01*
X022956Y009716D01*
X023132Y009643D01*
X023322Y009643D01*
X023498Y009716D01*
X023632Y009851D01*
X023703Y010021D01*
X023873Y010091D01*
X024007Y010226D01*
X024080Y010401D01*
X024080Y010592D01*
X024007Y010767D01*
X023873Y010902D01*
X023697Y010975D01*
X023605Y010975D01*
X023192Y011387D01*
X023192Y012730D01*
X023206Y012716D01*
X023382Y012643D01*
X023572Y012643D01*
X023748Y012716D01*
X023826Y012795D01*
X023920Y012833D01*
X023997Y012911D01*
X023997Y012776D01*
X024070Y012600D01*
X024137Y012533D01*
X024137Y011710D01*
X024070Y011643D01*
X023997Y011467D01*
X023997Y011276D01*
X024070Y011100D01*
X024205Y010965D01*
X024381Y010891D01*
X024432Y010891D01*
X024316Y010832D02*
X023942Y010832D01*
X024046Y010674D02*
X024215Y010674D01*
X024213Y010515D02*
X024080Y010515D01*
X024062Y010357D02*
X024213Y010357D01*
X024213Y010198D02*
X023980Y010198D01*
X023749Y010040D02*
X024213Y010040D01*
X024213Y009881D02*
X023645Y009881D01*
X023505Y009723D02*
X024213Y009723D01*
X024217Y009564D02*
X005871Y009564D01*
X005893Y009406D02*
X018199Y009406D01*
X018040Y009247D02*
X005893Y009247D01*
X006000Y009089D02*
X017882Y009089D01*
X017723Y008930D02*
X006145Y008930D01*
X006210Y008772D02*
X007062Y008772D01*
X007057Y008767D02*
X007034Y008726D01*
X007021Y008681D01*
X007021Y008124D01*
X007419Y008124D01*
X007419Y008009D01*
X007021Y008009D01*
X007021Y007452D01*
X007034Y007406D01*
X007057Y007365D01*
X007091Y007332D01*
X007132Y007308D01*
X007178Y007296D01*
X007419Y007296D01*
X007419Y008009D01*
X007535Y008009D01*
X007535Y008124D01*
X007933Y008124D01*
X007933Y008681D01*
X007920Y008726D01*
X007897Y008767D01*
X007863Y008801D01*
X007822Y008825D01*
X007776Y008837D01*
X007535Y008837D01*
X007535Y008124D01*
X007419Y008124D01*
X007419Y008837D01*
X007178Y008837D01*
X007132Y008825D01*
X007091Y008801D01*
X007057Y008767D01*
X007021Y008613D02*
X006243Y008613D01*
X006243Y008455D02*
X007021Y008455D01*
X007021Y008296D02*
X006243Y008296D01*
X006243Y008138D02*
X007021Y008138D01*
X007021Y007979D02*
X006243Y007979D01*
X006243Y007821D02*
X007021Y007821D01*
X007021Y007662D02*
X006243Y007662D01*
X006224Y007504D02*
X007021Y007504D01*
X007077Y007345D02*
X006158Y007345D01*
X006033Y007187D02*
X009139Y007187D01*
X009097Y007345D02*
X007877Y007345D01*
X007863Y007332D02*
X007897Y007365D01*
X007920Y007406D01*
X007933Y007452D01*
X007933Y008009D01*
X007535Y008009D01*
X007535Y007296D01*
X007776Y007296D01*
X007822Y007308D01*
X007863Y007332D01*
X007933Y007504D02*
X009094Y007504D01*
X009101Y007662D02*
X007933Y007662D01*
X007933Y007821D02*
X009143Y007821D01*
X009207Y007979D02*
X007933Y007979D01*
X007933Y008138D02*
X009299Y008138D01*
X009450Y008296D02*
X007933Y008296D01*
X007933Y008455D02*
X009684Y008455D01*
X010645Y008455D02*
X017248Y008455D01*
X017406Y008613D02*
X007933Y008613D01*
X007892Y008772D02*
X017565Y008772D01*
X017089Y008296D02*
X010878Y008296D01*
X011030Y008138D02*
X016931Y008138D01*
X016772Y007979D02*
X011122Y007979D01*
X011186Y007821D02*
X016614Y007821D01*
X016455Y007662D02*
X011228Y007662D01*
X011235Y007504D02*
X016297Y007504D01*
X016138Y007345D02*
X011232Y007345D01*
X011190Y007187D02*
X015980Y007187D01*
X015821Y007028D02*
X011130Y007028D01*
X011039Y006870D02*
X015663Y006870D01*
X015504Y006711D02*
X010893Y006711D01*
X010671Y006553D02*
X015346Y006553D01*
X015227Y006077D02*
X012625Y006077D01*
X012572Y006100D02*
X012382Y006100D01*
X012206Y006027D01*
X012072Y005892D01*
X011999Y005717D01*
X011999Y005526D01*
X012072Y005351D01*
X012137Y005285D01*
X007817Y005285D01*
X007817Y005310D02*
X007911Y005349D01*
X007990Y005427D01*
X008033Y005530D01*
X008033Y006823D01*
X008013Y006870D02*
X009290Y006870D01*
X009198Y007028D02*
X007853Y007028D01*
X007535Y007345D02*
X007419Y007345D01*
X007419Y007504D02*
X007535Y007504D01*
X007535Y007662D02*
X007419Y007662D01*
X007419Y007821D02*
X007535Y007821D01*
X007535Y007979D02*
X007419Y007979D01*
X007419Y008138D02*
X007535Y008138D01*
X007535Y008296D02*
X007419Y008296D01*
X007419Y008455D02*
X007535Y008455D01*
X007535Y008613D02*
X007419Y008613D01*
X007419Y008772D02*
X007535Y008772D01*
X005760Y009723D02*
X022949Y009723D01*
X022809Y009881D02*
X005601Y009881D01*
X005443Y010040D02*
X022749Y010040D01*
X022669Y010198D02*
X005284Y010198D01*
X003171Y009089D02*
X003171Y009089D01*
X003171Y008930D02*
X003171Y008930D01*
X003171Y008772D02*
X003171Y008772D01*
X003171Y008613D02*
X003171Y008613D01*
X003171Y008455D02*
X003171Y008455D01*
X003171Y008296D02*
X003171Y008296D01*
X003171Y008138D02*
X003171Y008138D01*
X003171Y007979D02*
X003171Y007979D01*
X003171Y007821D02*
X003171Y007821D01*
X003171Y007662D02*
X003171Y007662D01*
X003171Y007504D02*
X003171Y007504D01*
X003171Y007345D02*
X003171Y007345D01*
X003171Y007187D02*
X003171Y007187D01*
X002827Y007187D02*
X000662Y007187D01*
X000662Y007345D02*
X002668Y007345D01*
X002590Y007504D02*
X002264Y007504D01*
X002423Y007662D02*
X002561Y007662D01*
X001440Y007504D02*
X000662Y007504D01*
X000662Y007662D02*
X001281Y007662D01*
X001123Y007821D02*
X000662Y007821D01*
X000662Y007979D02*
X000964Y007979D01*
X000947Y008138D02*
X000662Y008138D01*
X000662Y008296D02*
X000947Y008296D01*
X000947Y008455D02*
X000662Y008455D01*
X000662Y008613D02*
X000947Y008613D01*
X000973Y008772D02*
X000662Y008772D01*
X000662Y008930D02*
X001131Y008930D01*
X001290Y009089D02*
X000662Y009089D01*
X000662Y009247D02*
X001412Y009247D01*
X001412Y009406D02*
X000662Y009406D01*
X000662Y009564D02*
X001456Y009564D01*
X001581Y009723D02*
X000662Y009723D01*
X000662Y009881D02*
X001740Y009881D01*
X001898Y010040D02*
X000662Y010040D01*
X000662Y010198D02*
X002037Y010198D01*
X002037Y010357D02*
X000662Y010357D01*
X000662Y010515D02*
X002037Y010515D01*
X002037Y010674D02*
X001510Y010674D01*
X001669Y010832D02*
X002037Y010832D01*
X002037Y010991D02*
X001707Y010991D01*
X001707Y011308D02*
X002037Y011308D01*
X002037Y011466D02*
X001613Y011466D01*
X001454Y011625D02*
X002037Y011625D01*
X002037Y011783D02*
X000662Y011783D01*
X000662Y011625D02*
X000750Y011625D01*
X001052Y011625D02*
X001152Y011625D01*
X001152Y011466D02*
X001052Y011466D01*
X001052Y011308D02*
X001152Y011308D01*
X001152Y011149D02*
X002037Y011149D01*
X002917Y011149D02*
X022137Y011149D01*
X022137Y010991D02*
X002917Y010991D01*
X002917Y010832D02*
X022137Y010832D01*
X022194Y010674D02*
X002917Y010674D01*
X002917Y010515D02*
X022352Y010515D01*
X022511Y010357D02*
X002917Y010357D01*
X002917Y011308D02*
X022137Y011308D01*
X022137Y011466D02*
X002917Y011466D01*
X002917Y011625D02*
X022137Y011625D01*
X022137Y011783D02*
X002917Y011783D01*
X002917Y011942D02*
X022137Y011942D01*
X022137Y012100D02*
X002917Y012100D01*
X002917Y012259D02*
X022137Y012259D01*
X022137Y012417D02*
X002917Y012417D01*
X002917Y012576D02*
X004682Y012576D01*
X004688Y012569D02*
X004791Y012526D01*
X005415Y012526D01*
X005517Y012569D01*
X005575Y012626D01*
X005803Y012626D01*
X005803Y013073D01*
X005899Y013073D01*
X005899Y012626D01*
X006131Y012626D01*
X006176Y012639D01*
X006217Y012662D01*
X006251Y012696D01*
X006275Y012737D01*
X006287Y012783D01*
X006287Y013074D01*
X005899Y013074D01*
X005899Y013169D01*
X006287Y013169D01*
X006287Y013460D01*
X006275Y013506D01*
X006251Y013547D01*
X006217Y013580D01*
X006176Y013604D01*
X006131Y013616D01*
X005899Y013616D01*
X005899Y013169D01*
X005803Y013169D01*
X005803Y013616D01*
X005575Y013616D01*
X005570Y013621D01*
X005575Y013626D01*
X005803Y013626D01*
X005803Y014073D01*
X005899Y014073D01*
X005899Y013626D01*
X006131Y013626D01*
X006176Y013639D01*
X006217Y013662D01*
X006251Y013696D01*
X006275Y013737D01*
X006287Y013783D01*
X006287Y014074D01*
X005899Y014074D01*
X005899Y014169D01*
X006287Y014169D01*
X006287Y014460D01*
X006275Y014506D01*
X006251Y014547D01*
X006217Y014580D01*
X006176Y014604D01*
X006131Y014616D01*
X005899Y014616D01*
X005899Y014169D01*
X005803Y014169D01*
X005803Y014616D01*
X005575Y014616D01*
X005517Y014674D01*
X005415Y014716D01*
X004791Y014716D01*
X004688Y014674D01*
X004610Y014595D01*
X004585Y014537D01*
X004543Y014579D01*
X004344Y014661D01*
X003610Y014661D01*
X003411Y014579D01*
X003259Y014427D01*
X003177Y014229D01*
X003177Y014014D01*
X003259Y013816D01*
X003411Y013664D01*
X003513Y013621D01*
X003411Y013579D01*
X003259Y013427D01*
X003177Y013229D01*
X003177Y013014D01*
X003259Y012816D01*
X003411Y012664D01*
X003610Y012581D01*
X004344Y012581D01*
X004543Y012664D01*
X004585Y012706D01*
X004610Y012648D01*
X004688Y012569D01*
X005524Y012576D02*
X022137Y012576D01*
X022137Y012734D02*
X006273Y012734D01*
X006287Y012893D02*
X022137Y012893D01*
X022137Y013051D02*
X006287Y013051D01*
X006287Y013210D02*
X022137Y013210D01*
X022137Y013368D02*
X006287Y013368D01*
X006262Y013527D02*
X022137Y013527D01*
X022112Y013685D02*
X021819Y013685D01*
X021827Y013844D02*
X022023Y013844D01*
X021999Y014002D02*
X021400Y014002D01*
X021304Y014002D02*
X020714Y014002D01*
X020555Y013844D02*
X020877Y013844D01*
X020885Y013685D02*
X020397Y013685D01*
X020872Y014161D02*
X020877Y014161D01*
X021304Y013844D02*
X021400Y013844D01*
X021400Y013685D02*
X021304Y013685D01*
X021827Y014161D02*
X022009Y014161D01*
X021906Y014319D02*
X021873Y014319D01*
X023317Y015746D02*
X025262Y015746D01*
X025262Y015904D02*
X023317Y015904D01*
X023317Y016063D02*
X025262Y016063D01*
X025262Y016221D02*
X023304Y016221D01*
X023363Y016380D02*
X023199Y016380D01*
X023204Y016538D02*
X023041Y016538D01*
X023046Y016697D02*
X022882Y016697D01*
X022917Y016855D02*
X015224Y016855D01*
X015065Y017014D02*
X022887Y017014D01*
X021651Y017172D02*
X014907Y017172D01*
X014748Y017331D02*
X017412Y017331D01*
X017253Y017489D02*
X014590Y017489D01*
X014431Y017648D02*
X015399Y017648D01*
X016055Y017648D02*
X017095Y017648D01*
X016936Y017806D02*
X016166Y017806D01*
X016205Y017965D02*
X016778Y017965D01*
X016619Y018123D02*
X016192Y018123D01*
X016118Y018282D02*
X016461Y018282D01*
X016302Y018440D02*
X015904Y018440D01*
X016144Y018599D02*
X014480Y018599D01*
X014322Y018757D02*
X016081Y018757D01*
X015965Y018916D02*
X014317Y018916D01*
X014317Y019074D02*
X015883Y019074D01*
X015883Y019233D02*
X014317Y019233D01*
X014317Y019391D02*
X015883Y019391D01*
X015883Y019550D02*
X014317Y019550D01*
X014317Y019708D02*
X015893Y019708D01*
X016006Y019867D02*
X014317Y019867D01*
X014317Y020025D02*
X016088Y020025D01*
X016184Y020184D02*
X014317Y020184D01*
X014317Y020342D02*
X016342Y020342D01*
X016501Y020501D02*
X014317Y020501D01*
X014317Y020659D02*
X033117Y020659D01*
X033117Y020501D02*
X022703Y020501D01*
X022862Y020342D02*
X033117Y020342D01*
X033117Y020184D02*
X030770Y020184D01*
X030929Y020025D02*
X033117Y020025D01*
X033117Y019867D02*
X031704Y019867D01*
X031919Y019708D02*
X032003Y019708D01*
X032283Y019708D02*
X032283Y019708D01*
X032283Y019809D02*
X032283Y019371D01*
X032283Y019371D01*
X032283Y019809D01*
X032283Y019550D02*
X032283Y019550D01*
X032283Y019391D02*
X032283Y019391D01*
X032283Y019233D02*
X032283Y019233D01*
X032283Y019074D02*
X032283Y019074D01*
X031961Y019074D02*
X031954Y019074D01*
X031800Y018916D02*
X033117Y018916D01*
X033117Y019074D02*
X032605Y019074D01*
X032698Y019233D02*
X033117Y019233D01*
X033117Y019391D02*
X032721Y019391D01*
X032683Y019550D02*
X033117Y019550D01*
X033117Y019708D02*
X032563Y019708D01*
X033117Y018757D02*
X030094Y018757D01*
X030015Y018679D02*
X030015Y018679D01*
X029935Y018599D02*
X033117Y018599D01*
X033117Y018440D02*
X032233Y018440D01*
X032140Y018494D02*
X031868Y018567D01*
X031586Y018567D01*
X031314Y018494D01*
X031070Y018353D01*
X030870Y018154D01*
X030729Y017910D01*
X030656Y017637D01*
X030656Y017356D01*
X030729Y017083D01*
X030870Y016839D01*
X031070Y016640D01*
X031314Y016499D01*
X031586Y016426D01*
X031868Y016426D01*
X032140Y016499D01*
X032384Y016640D01*
X032584Y016839D01*
X032725Y017083D01*
X032798Y017356D01*
X032798Y017637D01*
X032725Y017910D01*
X032584Y018154D01*
X032384Y018353D01*
X032140Y018494D01*
X032455Y018282D02*
X033117Y018282D01*
X033117Y018123D02*
X032601Y018123D01*
X032693Y017965D02*
X033117Y017965D01*
X033117Y017806D02*
X032752Y017806D01*
X032795Y017648D02*
X033117Y017648D01*
X033117Y017489D02*
X032798Y017489D01*
X032791Y017331D02*
X033117Y017331D01*
X033117Y017172D02*
X032748Y017172D01*
X032685Y017014D02*
X033117Y017014D01*
X033117Y016855D02*
X032593Y016855D01*
X032441Y016697D02*
X033117Y016697D01*
X033117Y016538D02*
X032209Y016538D01*
X031870Y015904D02*
X033117Y015904D01*
X033117Y015746D02*
X031950Y015746D01*
X031967Y015587D02*
X033117Y015587D01*
X033117Y015429D02*
X031925Y015429D01*
X031806Y015270D02*
X033117Y015270D01*
X033117Y015112D02*
X031786Y015112D01*
X031967Y014953D02*
X033117Y014953D01*
X033117Y014795D02*
X032041Y014795D01*
X032067Y014636D02*
X033117Y014636D01*
X033117Y014478D02*
X032054Y014478D01*
X031988Y014319D02*
X033117Y014319D01*
X033117Y014161D02*
X031838Y014161D01*
X031556Y014002D02*
X033117Y014002D01*
X033117Y013844D02*
X031455Y013844D01*
X031316Y013685D02*
X033117Y013685D01*
X033117Y013527D02*
X031382Y013527D01*
X031382Y013368D02*
X033117Y013368D01*
X033117Y013210D02*
X031382Y013210D01*
X031334Y013051D02*
X033117Y013051D01*
X033117Y012893D02*
X031269Y012893D01*
X031145Y012734D02*
X033117Y012734D01*
X033117Y012576D02*
X030982Y012576D01*
X030477Y011625D02*
X030477Y011625D01*
X028162Y012417D02*
X033117Y012417D01*
X033117Y012259D02*
X028043Y012259D01*
X027411Y012259D02*
X025192Y012259D01*
X025192Y012417D02*
X027292Y012417D01*
X027247Y012576D02*
X025192Y012576D01*
X025192Y012734D02*
X027166Y012734D01*
X027007Y012893D02*
X025192Y012893D01*
X025225Y013051D02*
X025229Y013051D01*
X025973Y013051D02*
X026292Y013051D01*
X026292Y013210D02*
X026120Y013210D01*
X026330Y013368D02*
X026680Y013368D01*
X026680Y013210D02*
X026776Y013210D01*
X026776Y013051D02*
X026680Y013051D01*
X028010Y013017D02*
X028012Y013020D01*
X028012Y013031D01*
X028045Y013031D01*
X028010Y013017D02*
X028134Y012893D01*
X030067Y014319D02*
X030466Y014319D01*
X030400Y014478D02*
X030067Y014478D01*
X030067Y014636D02*
X030387Y014636D01*
X030413Y014795D02*
X030067Y014795D01*
X030067Y014953D02*
X030487Y014953D01*
X030668Y015112D02*
X030067Y015112D01*
X030067Y015270D02*
X030647Y015270D01*
X030529Y015429D02*
X030067Y015429D01*
X029992Y015587D02*
X030487Y015587D01*
X030504Y015746D02*
X029833Y015746D01*
X029675Y015904D02*
X030584Y015904D01*
X030817Y016063D02*
X029516Y016063D01*
X029716Y016380D02*
X033117Y016380D01*
X031245Y016538D02*
X029875Y016538D01*
X030033Y016697D02*
X031012Y016697D01*
X030861Y016855D02*
X030162Y016855D01*
X030258Y017014D02*
X030769Y017014D01*
X030705Y017172D02*
X030354Y017172D01*
X030392Y017331D02*
X030663Y017331D01*
X030656Y017489D02*
X030388Y017489D01*
X030322Y017648D02*
X030659Y017648D01*
X030702Y017806D02*
X030181Y017806D01*
X030761Y017965D02*
X028739Y017965D01*
X029181Y017806D02*
X029523Y017806D01*
X029382Y017648D02*
X029322Y017648D01*
X027715Y017965D02*
X025997Y017965D01*
X026069Y018123D02*
X030853Y018123D01*
X030999Y018282D02*
X026080Y018282D01*
X026039Y018440D02*
X031221Y018440D01*
X031191Y018916D02*
X031102Y019005D01*
X031013Y018916D01*
X030404Y018916D02*
X030376Y018916D01*
X029383Y019211D02*
X029383Y019656D01*
X028117Y019656D01*
X028117Y019656D01*
X028157Y019601D01*
X028188Y019539D01*
X028210Y019474D01*
X028221Y019406D01*
X028221Y019371D01*
X027783Y019371D01*
X027783Y019371D01*
X028221Y019371D01*
X028221Y019337D01*
X028210Y019269D01*
X028191Y019211D01*
X029383Y019211D01*
X029383Y019233D02*
X028198Y019233D01*
X028221Y019391D02*
X029383Y019391D01*
X029383Y019550D02*
X028183Y019550D01*
X026231Y018599D02*
X026185Y018599D01*
X025789Y017806D02*
X027556Y017806D01*
X027422Y017648D02*
X025379Y017648D01*
X025415Y017806D02*
X025181Y017806D01*
X024773Y017806D02*
X024469Y017806D01*
X024494Y017648D02*
X024575Y017648D01*
X024506Y017489D02*
X024494Y017489D01*
X023961Y019211D02*
X023691Y019211D01*
X023710Y019269D01*
X023721Y019337D01*
X023721Y019371D01*
X023283Y019371D01*
X023283Y019371D01*
X023721Y019371D01*
X023721Y019406D01*
X023710Y019474D01*
X023688Y019539D01*
X023657Y019601D01*
X023617Y019656D01*
X023617Y019656D01*
X024406Y019656D01*
X023961Y019211D01*
X023983Y019233D02*
X023698Y019233D01*
X023721Y019391D02*
X024141Y019391D01*
X024300Y019550D02*
X023683Y019550D01*
X020805Y018169D02*
X020805Y018074D01*
X020417Y018074D01*
X020417Y017860D01*
X017844Y017860D01*
X016830Y018874D01*
X016837Y018877D01*
X016890Y018930D01*
X016904Y018916D01*
X017101Y018834D01*
X017315Y018834D01*
X017513Y018916D01*
X017691Y018916D01*
X017889Y018834D01*
X018103Y018834D01*
X018300Y018916D01*
X018451Y019067D01*
X018456Y019079D01*
X018498Y019038D01*
X018554Y018997D01*
X018615Y018966D01*
X018681Y018945D01*
X018749Y018934D01*
X018783Y018934D01*
X018783Y019371D01*
X018783Y019371D01*
X018783Y018934D01*
X018818Y018934D01*
X018886Y018945D01*
X018951Y018966D01*
X019012Y018997D01*
X019068Y019038D01*
X019117Y019086D01*
X019157Y019142D01*
X019188Y019204D01*
X019210Y019269D01*
X019221Y019337D01*
X019221Y019371D01*
X018783Y019371D01*
X018783Y019371D01*
X019221Y019371D01*
X019221Y019406D01*
X019210Y019474D01*
X019188Y019539D01*
X019157Y019601D01*
X019117Y019656D01*
X019068Y019705D01*
X019012Y019746D01*
X018951Y019777D01*
X018886Y019798D01*
X018818Y019809D01*
X018783Y019809D01*
X018749Y019809D01*
X018681Y019798D01*
X018615Y019777D01*
X018554Y019746D01*
X018498Y019705D01*
X018456Y019664D01*
X018451Y019676D01*
X018300Y019827D01*
X018109Y019906D01*
X020050Y019906D01*
X020012Y019814D01*
X020012Y018804D01*
X020064Y018679D01*
X020159Y018583D01*
X020409Y018333D01*
X020417Y018330D01*
X020417Y018169D01*
X020805Y018169D01*
X020805Y018123D02*
X017581Y018123D01*
X017739Y017965D02*
X020417Y017965D01*
X020417Y018282D02*
X017422Y018282D01*
X017264Y018440D02*
X020302Y018440D01*
X020144Y018599D02*
X017105Y018599D01*
X016947Y018757D02*
X020031Y018757D01*
X020012Y018916D02*
X018300Y018916D01*
X018454Y019074D02*
X018461Y019074D01*
X018783Y019074D02*
X018783Y019074D01*
X018783Y019233D02*
X018783Y019233D01*
X018783Y019371D02*
X018783Y019809D01*
X018783Y019371D01*
X018783Y019371D01*
X018783Y019391D02*
X018783Y019391D01*
X018783Y019550D02*
X018783Y019550D01*
X018783Y019708D02*
X018783Y019708D01*
X018503Y019708D02*
X018419Y019708D01*
X018204Y019867D02*
X020034Y019867D01*
X020012Y019708D02*
X019063Y019708D01*
X019183Y019550D02*
X020012Y019550D01*
X020012Y019391D02*
X019221Y019391D01*
X019198Y019233D02*
X020012Y019233D01*
X020012Y019074D02*
X019105Y019074D01*
X017691Y018916D02*
X017602Y019005D01*
X017513Y018916D01*
X016904Y018916D02*
X016876Y018916D01*
X015550Y018440D02*
X014639Y018440D01*
X014153Y017965D02*
X014114Y017965D01*
X013994Y018123D02*
X013956Y018123D01*
X013836Y018282D02*
X013797Y018282D01*
X013684Y018440D02*
X013639Y018440D01*
X013637Y018599D02*
X013480Y018599D01*
X013610Y018757D02*
X013637Y018757D01*
X014273Y017806D02*
X014311Y017806D01*
X012055Y016063D02*
X010485Y016063D01*
X010537Y015904D02*
X012213Y015904D01*
X012372Y015746D02*
X010537Y015746D01*
X010537Y015429D02*
X012689Y015429D01*
X012847Y015270D02*
X010534Y015270D01*
X010149Y015270D02*
X010053Y015270D01*
X010053Y015429D02*
X010149Y015429D01*
X010149Y015587D02*
X012530Y015587D01*
X013006Y015112D02*
X009810Y015112D01*
X010053Y015746D02*
X010149Y015746D01*
X010149Y015904D02*
X010053Y015904D01*
X010053Y016063D02*
X010149Y016063D01*
X011262Y016855D02*
X008029Y016855D01*
X008029Y016697D02*
X011421Y016697D01*
X011579Y016538D02*
X008029Y016538D01*
X008029Y016380D02*
X011738Y016380D01*
X011896Y016221D02*
X008029Y016221D01*
X007349Y016221D02*
X002042Y016221D01*
X002042Y016063D02*
X004669Y016063D01*
X004459Y015904D02*
X002191Y015904D01*
X002350Y015746D02*
X004386Y015746D01*
X004374Y015587D02*
X002508Y015587D01*
X002667Y015429D02*
X004414Y015429D01*
X004527Y015270D02*
X002825Y015270D01*
X002905Y015112D02*
X007380Y015112D01*
X007197Y015270D02*
X005177Y015270D01*
X005555Y014636D02*
X013481Y014636D01*
X013640Y014478D02*
X006282Y014478D01*
X006287Y014319D02*
X013798Y014319D01*
X013957Y014161D02*
X005899Y014161D01*
X005899Y014319D02*
X005803Y014319D01*
X005803Y014478D02*
X005899Y014478D01*
X005899Y014002D02*
X005803Y014002D01*
X005803Y013844D02*
X005899Y013844D01*
X005899Y013685D02*
X005803Y013685D01*
X005803Y013527D02*
X005899Y013527D01*
X005899Y013368D02*
X005803Y013368D01*
X005803Y013210D02*
X005899Y013210D01*
X005899Y013051D02*
X005803Y013051D01*
X005803Y012893D02*
X005899Y012893D01*
X005899Y012734D02*
X005803Y012734D01*
X006240Y013685D02*
X019307Y013685D01*
X019314Y013679D02*
X019314Y013679D01*
X019149Y013844D02*
X006287Y013844D01*
X006287Y014002D02*
X014115Y014002D01*
X014064Y014054D02*
X014064Y014054D01*
X013323Y014795D02*
X002917Y014795D01*
X002917Y014953D02*
X013164Y014953D01*
X011104Y017014D02*
X008100Y017014D01*
X007614Y017489D02*
X004317Y017489D01*
X004317Y017447D02*
X004317Y017689D01*
X003605Y017689D01*
X003605Y017804D01*
X004317Y017804D01*
X004317Y018046D01*
X004305Y018092D01*
X004281Y018133D01*
X004248Y018166D01*
X004207Y018190D01*
X004161Y018202D01*
X003605Y018202D01*
X003605Y017804D01*
X003489Y017804D01*
X003489Y017689D01*
X002776Y017689D01*
X002776Y017447D01*
X002789Y017401D01*
X002812Y017360D01*
X002846Y017327D01*
X002887Y017303D01*
X002933Y017291D01*
X003489Y017291D01*
X003489Y017689D01*
X003605Y017689D01*
X003605Y017291D01*
X004161Y017291D01*
X004207Y017303D01*
X004248Y017327D01*
X004281Y017360D01*
X004305Y017401D01*
X004317Y017447D01*
X004252Y017331D02*
X007456Y017331D01*
X007358Y017172D02*
X002042Y017172D01*
X002042Y017014D02*
X007349Y017014D01*
X007349Y016855D02*
X002042Y016855D01*
X002042Y016697D02*
X007349Y016697D01*
X007349Y016538D02*
X002042Y016538D01*
X002042Y016380D02*
X007349Y016380D01*
X007262Y016063D02*
X005035Y016063D01*
X003605Y017331D02*
X003489Y017331D01*
X003489Y017489D02*
X003605Y017489D01*
X003605Y017648D02*
X003489Y017648D01*
X003489Y017804D02*
X002776Y017804D01*
X002776Y018046D01*
X002789Y018092D01*
X002812Y018133D01*
X002846Y018166D01*
X002887Y018190D01*
X002933Y018202D01*
X003489Y018202D01*
X003489Y017804D01*
X003489Y017806D02*
X003605Y017806D01*
X003605Y017965D02*
X003489Y017965D01*
X003489Y018123D02*
X003605Y018123D01*
X004287Y018123D02*
X005744Y018123D01*
X005903Y017965D02*
X004317Y017965D01*
X004317Y017806D02*
X006061Y017806D01*
X006220Y017648D02*
X004317Y017648D01*
X005269Y018599D02*
X001984Y018599D01*
X002042Y018440D02*
X005427Y018440D01*
X005586Y018282D02*
X002352Y018282D01*
X002509Y018123D02*
X002807Y018123D01*
X002776Y017965D02*
X002528Y017965D01*
X002528Y017806D02*
X002776Y017806D01*
X002776Y017648D02*
X002528Y017648D01*
X002528Y017489D02*
X002776Y017489D01*
X002842Y017331D02*
X002493Y017331D01*
X001162Y017172D02*
X000662Y017172D01*
X000662Y017014D02*
X001162Y017014D01*
X001162Y016855D02*
X000662Y016855D01*
X000662Y016697D02*
X001162Y016697D01*
X001162Y016538D02*
X000662Y016538D01*
X000662Y016380D02*
X001162Y016380D01*
X001162Y016221D02*
X000662Y016221D01*
X000662Y016063D02*
X001162Y016063D01*
X001162Y015904D02*
X000662Y015904D01*
X000662Y015746D02*
X001178Y015746D01*
X001264Y015587D02*
X000662Y015587D01*
X000662Y015429D02*
X001422Y015429D01*
X001581Y015270D02*
X000662Y015270D01*
X000662Y015112D02*
X001739Y015112D01*
X001898Y014953D02*
X000662Y014953D01*
X000662Y014795D02*
X002037Y014795D01*
X002037Y014636D02*
X001405Y014636D01*
X001644Y014478D02*
X002037Y014478D01*
X002037Y014319D02*
X001739Y014319D01*
X001777Y014161D02*
X002037Y014161D01*
X002037Y014002D02*
X001772Y014002D01*
X001707Y013844D02*
X002037Y013844D01*
X002037Y013685D02*
X001565Y013685D01*
X001595Y013527D02*
X002037Y013527D01*
X002037Y013368D02*
X001719Y013368D01*
X001777Y013210D02*
X002037Y013210D01*
X002037Y013051D02*
X001777Y013051D01*
X001727Y012893D02*
X002037Y012893D01*
X002037Y012734D02*
X001614Y012734D01*
X002037Y012576D02*
X000662Y012576D01*
X000662Y012417D02*
X002037Y012417D01*
X002037Y012259D02*
X000662Y012259D01*
X000662Y012100D02*
X002037Y012100D01*
X002037Y011942D02*
X000662Y011942D01*
X001052Y010991D02*
X001152Y010991D01*
X001152Y010832D02*
X001052Y010832D01*
X001052Y010674D02*
X001152Y010674D01*
X000694Y010674D02*
X000662Y010674D01*
X002917Y012734D02*
X003340Y012734D01*
X003227Y012893D02*
X002917Y012893D01*
X002917Y013051D02*
X003177Y013051D01*
X003177Y013210D02*
X002917Y013210D01*
X002917Y013368D02*
X003235Y013368D01*
X003359Y013527D02*
X002917Y013527D01*
X002917Y013685D02*
X003389Y013685D01*
X003247Y013844D02*
X002917Y013844D01*
X002917Y014002D02*
X003182Y014002D01*
X003177Y014161D02*
X002917Y014161D01*
X002917Y014319D02*
X003215Y014319D01*
X003310Y014478D02*
X002917Y014478D01*
X002917Y014636D02*
X003549Y014636D01*
X004405Y014636D02*
X004651Y014636D01*
X007997Y015112D02*
X008207Y015112D01*
X008824Y015112D02*
X008896Y015112D01*
X003610Y018757D02*
X001838Y018757D01*
X001680Y018916D02*
X003452Y018916D01*
X003293Y019074D02*
X001521Y019074D01*
X001363Y019233D02*
X003135Y019233D01*
X002976Y019391D02*
X001204Y019391D01*
X001046Y019550D02*
X002443Y019550D01*
X002284Y019708D02*
X000917Y019708D01*
X001587Y019867D02*
X001812Y019867D01*
X001667Y020752D02*
X001636Y020827D01*
X001557Y020906D01*
X001516Y020923D01*
X001619Y021026D01*
X001623Y021035D01*
X001775Y020882D01*
X001802Y020871D01*
X001775Y020860D01*
X001667Y020752D01*
X001640Y020818D02*
X001733Y020818D01*
X001681Y020976D02*
X001570Y020976D01*
X002402Y020871D02*
X002429Y020882D01*
X002591Y021045D01*
X002638Y021158D01*
X002666Y021104D01*
X002713Y021039D01*
X002770Y020982D01*
X002835Y020935D01*
X002889Y020908D01*
X002775Y020860D01*
X002613Y020698D01*
X002602Y020672D01*
X002591Y020698D01*
X002429Y020860D01*
X002402Y020871D01*
X002471Y020818D02*
X002733Y020818D01*
X002778Y020976D02*
X002523Y020976D01*
X002628Y021135D02*
X002650Y021135D01*
X002638Y021584D02*
X002591Y021698D01*
X002429Y021860D01*
X002229Y021943D01*
X003975Y021943D01*
X003775Y021860D01*
X003613Y021698D01*
X003566Y021584D01*
X003538Y021639D01*
X003491Y021704D01*
X003434Y021760D01*
X003369Y021808D01*
X003298Y021844D01*
X003221Y021869D01*
X003142Y021881D01*
X003120Y021881D01*
X003120Y021390D01*
X003084Y021390D01*
X003084Y021881D01*
X003062Y021881D01*
X002983Y021869D01*
X002906Y021844D01*
X002835Y021808D01*
X002770Y021760D01*
X002713Y021704D01*
X002666Y021639D01*
X002638Y021584D01*
X002627Y021610D02*
X002651Y021610D01*
X002781Y021769D02*
X002520Y021769D01*
X002267Y021927D02*
X003937Y021927D01*
X003684Y021769D02*
X003422Y021769D01*
X003553Y021610D02*
X003577Y021610D01*
X003120Y021610D02*
X003084Y021610D01*
X003084Y021452D02*
X003120Y021452D01*
X003566Y021158D02*
X003613Y021045D01*
X003775Y020882D01*
X003802Y020871D01*
X003775Y020860D01*
X003613Y020698D01*
X003602Y020672D01*
X003591Y020698D01*
X003429Y020860D01*
X003315Y020908D01*
X003369Y020935D01*
X003434Y020982D01*
X003491Y021039D01*
X003538Y021104D01*
X003566Y021158D01*
X003554Y021135D02*
X003576Y021135D01*
X003681Y020976D02*
X003426Y020976D01*
X003471Y020818D02*
X003733Y020818D01*
X004402Y020871D02*
X004429Y020882D01*
X004591Y021045D01*
X004602Y021071D01*
X004613Y021045D01*
X004775Y020882D01*
X004802Y020871D01*
X004775Y020860D01*
X004613Y020698D01*
X004602Y020672D01*
X004591Y020698D01*
X004429Y020860D01*
X004402Y020871D01*
X004471Y020818D02*
X004733Y020818D01*
X004681Y020976D02*
X004523Y020976D01*
X003120Y021769D02*
X003084Y021769D01*
X000752Y018599D02*
X000662Y018599D01*
X000662Y018440D02*
X000911Y018440D01*
X000962Y018282D02*
X000662Y018282D01*
X000662Y018123D02*
X000805Y018123D01*
X000787Y017965D02*
X000662Y017965D01*
X000662Y017806D02*
X000787Y017806D01*
X000787Y017648D02*
X000662Y017648D01*
X000662Y017489D02*
X000787Y017489D01*
X000821Y017331D02*
X000662Y017331D01*
X014317Y020818D02*
X033117Y020818D01*
X033117Y020976D02*
X014317Y020976D01*
X014317Y021135D02*
X033117Y021135D01*
X033117Y021293D02*
X014317Y021293D01*
X014317Y021452D02*
X033117Y021452D01*
X033117Y021610D02*
X014317Y021610D01*
X014317Y021769D02*
X033117Y021769D01*
X033117Y021927D02*
X014317Y021927D01*
X024540Y015587D02*
X025262Y015587D01*
X025262Y015429D02*
X024594Y015429D01*
X024594Y015270D02*
X025262Y015270D01*
X025112Y015112D02*
X024594Y015112D01*
X024626Y014953D02*
X024953Y014953D01*
X024806Y014795D02*
X024692Y014795D01*
X023997Y012893D02*
X023979Y012893D01*
X024014Y012734D02*
X023766Y012734D01*
X024094Y012576D02*
X023192Y012576D01*
X023192Y012417D02*
X024137Y012417D01*
X024137Y012259D02*
X023192Y012259D01*
X023192Y012100D02*
X024137Y012100D01*
X024137Y011942D02*
X023192Y011942D01*
X023192Y011783D02*
X024137Y011783D01*
X024062Y011625D02*
X023192Y011625D01*
X023192Y011466D02*
X023997Y011466D01*
X023997Y011308D02*
X023271Y011308D01*
X023430Y011149D02*
X024049Y011149D01*
X024179Y010991D02*
X023588Y010991D01*
X025192Y011942D02*
X033117Y011942D01*
X033117Y012100D02*
X025192Y012100D01*
X028576Y016380D02*
X028613Y016380D01*
X031034Y019867D02*
X031287Y019867D01*
X012882Y005892D02*
X012748Y006027D01*
X012572Y006100D01*
X012329Y006077D02*
X008033Y006077D01*
X008033Y005919D02*
X012098Y005919D01*
X012017Y005760D02*
X008033Y005760D01*
X008033Y005602D02*
X011999Y005602D01*
X012033Y005443D02*
X007997Y005443D01*
X007817Y005310D02*
X007817Y005179D01*
X007765Y005054D01*
X007515Y004804D01*
X007420Y004708D01*
X007295Y004656D01*
X007118Y004656D01*
X007048Y004587D01*
X007048Y003917D01*
X007102Y003863D01*
X007191Y003952D01*
X007389Y004034D01*
X007603Y004034D01*
X007800Y003952D01*
X007814Y003938D01*
X007867Y003991D01*
X007970Y004034D01*
X007985Y004034D01*
X007995Y004058D01*
X008251Y004314D01*
X008347Y004410D01*
X008472Y004461D01*
X012137Y004461D01*
X012137Y005285D01*
X012137Y005126D02*
X007795Y005126D01*
X007679Y004968D02*
X012137Y004968D01*
X012137Y004809D02*
X007521Y004809D01*
X007112Y004651D02*
X012137Y004651D01*
X012137Y004492D02*
X007048Y004492D01*
X007048Y004334D02*
X008271Y004334D01*
X008113Y004175D02*
X007048Y004175D01*
X007048Y004017D02*
X007348Y004017D01*
X007644Y004017D02*
X007929Y004017D01*
X008821Y003781D02*
X010087Y003781D01*
X010087Y003781D01*
X010047Y003726D01*
X010015Y003664D01*
X009994Y003599D01*
X009983Y003531D01*
X009983Y003496D01*
X009983Y003462D01*
X009994Y003394D01*
X010015Y003329D01*
X010047Y003267D01*
X010087Y003211D01*
X010136Y003163D01*
X010192Y003122D01*
X010253Y003091D01*
X010267Y003086D01*
X008780Y003086D01*
X008821Y003183D01*
X008821Y003781D01*
X008821Y003700D02*
X010034Y003700D01*
X009985Y003541D02*
X008821Y003541D01*
X008821Y003383D02*
X009998Y003383D01*
X009983Y003496D02*
X010421Y003496D01*
X010421Y003496D01*
X009983Y003496D01*
X010078Y003224D02*
X008821Y003224D01*
X006848Y002432D02*
X006606Y002432D01*
X005578Y003224D02*
X004321Y003224D01*
X004321Y003383D02*
X005498Y003383D01*
X005485Y003541D02*
X004321Y003541D01*
X004321Y003700D02*
X005534Y003700D01*
X003429Y004017D02*
X003144Y004017D01*
X002848Y004017D02*
X002356Y004017D01*
X001175Y003858D02*
X000662Y003858D01*
X000662Y003700D02*
X001034Y003700D01*
X000985Y003541D02*
X000662Y003541D01*
X000662Y003383D02*
X000998Y003383D01*
X001078Y003224D02*
X000662Y003224D01*
X004352Y005622D02*
X004352Y006232D01*
X004352Y005622D01*
X004352Y005760D02*
X004352Y005760D01*
X004352Y005919D02*
X004352Y005919D01*
X004352Y006077D02*
X004352Y006077D01*
X004352Y006232D02*
X004352Y006232D01*
X004352Y006236D02*
X004352Y006236D01*
X004352Y006394D02*
X004352Y006394D01*
X004352Y006553D02*
X004352Y006553D01*
X004352Y006711D02*
X004352Y006711D01*
X005159Y006711D02*
X005253Y006711D01*
X005303Y006553D02*
X005411Y006553D01*
X005370Y006394D02*
X005570Y006394D01*
X005728Y006236D02*
X005392Y006236D01*
X005373Y006077D02*
X005887Y006077D01*
X006077Y005919D02*
X005307Y005919D01*
X005171Y005760D02*
X006921Y005760D01*
X006921Y006711D02*
X006271Y006711D01*
X006113Y006870D02*
X006941Y006870D01*
X007101Y007028D02*
X005954Y007028D01*
X001371Y007028D02*
X000662Y007028D01*
X000662Y006870D02*
X001212Y006870D01*
X001054Y006711D02*
X000662Y006711D01*
X000662Y006553D02*
X001047Y006553D01*
X011106Y002432D02*
X011348Y002432D01*
X012955Y005526D02*
X012955Y005717D01*
X012882Y005892D01*
X012856Y005919D02*
X015227Y005919D01*
X015227Y005760D02*
X012937Y005760D01*
X012955Y005602D02*
X015227Y005602D01*
D37*
X018783Y003496D02*
X018783Y007941D01*
X018728Y007996D01*
X019476Y007996D02*
X020226Y007996D01*
X020352Y007997D01*
X021227Y007997D01*
X021601Y007997D01*
X021852Y007746D01*
X022328Y007746D01*
X021477Y006871D02*
X021602Y006746D01*
X022328Y006746D01*
X021477Y006871D02*
X020976Y006871D01*
X020977Y006870D01*
X020977Y005995D01*
X020102Y005995D01*
X020101Y005996D01*
X020977Y005247D02*
X020977Y004121D01*
X021102Y003996D01*
X023039Y003996D01*
X023283Y003753D01*
X023283Y003496D01*
X025727Y005495D02*
X026602Y005495D01*
X025727Y005495D02*
X025727Y005871D01*
X025602Y005996D01*
X025602Y006370D01*
X025603Y006371D01*
X025102Y006371D01*
X024977Y006246D01*
X024376Y006246D01*
X024376Y007246D02*
X025227Y007246D01*
X025352Y007371D01*
X025352Y007747D01*
X026227Y007745D02*
X026290Y007496D01*
X026289Y007621D01*
X026227Y007745D01*
X026227Y007621D01*
X026289Y007621D02*
X026290Y008371D01*
X027038Y007496D02*
X027727Y007496D01*
X029977Y005246D01*
X030727Y004496D01*
X031977Y004496D01*
X032283Y004190D01*
X032283Y003496D01*
X031496Y003496D02*
X031496Y002640D01*
X031227Y002371D01*
X018977Y002371D01*
X026602Y004747D02*
X027538Y004747D01*
X027789Y004496D01*
X027789Y003503D01*
X027783Y003496D01*
X024877Y010121D02*
X024852Y010121D01*
X024501Y017520D02*
X024254Y017520D01*
X024501Y017520D02*
X024727Y017746D01*
X004602Y020871D02*
X003602Y020871D01*
X002602Y020871D01*
X001602Y020871D01*
X001602Y021996D01*
X002602Y021746D02*
X002602Y020871D01*
X003602Y020871D02*
X003602Y021871D01*
X003977Y021996D02*
X000477Y021996D01*
X001602Y020871D02*
X001602Y019621D01*
D38*
X002602Y020871D03*
X004602Y020871D03*
X004852Y015621D03*
X015727Y017996D03*
X019477Y018121D03*
X020477Y014871D03*
X019977Y014371D03*
X022477Y013996D03*
X023352Y014371D03*
X023477Y013621D03*
X023477Y013121D03*
X026102Y015371D03*
X025602Y018246D03*
X023602Y010496D03*
X023227Y010121D03*
X017102Y005496D03*
X020977Y004121D03*
X023102Y004746D03*
X024352Y004371D03*
X024352Y001621D03*
X018977Y002371D03*
X012477Y005621D03*
X029977Y005246D03*
D39*
X029519Y005230D02*
X027177Y005230D01*
X027177Y005188D02*
X027177Y005803D01*
X027137Y005899D01*
X027064Y005972D01*
X026969Y006011D01*
X026754Y006011D01*
X026756Y006014D01*
X026767Y006055D01*
X026767Y006311D01*
X026411Y006311D01*
X026411Y006431D01*
X026767Y006431D01*
X026767Y006688D01*
X026756Y006728D01*
X026735Y006765D01*
X026705Y006795D01*
X026669Y006816D01*
X026628Y006827D01*
X026411Y006827D01*
X026411Y006431D01*
X026291Y006431D01*
X026291Y006827D01*
X026074Y006827D01*
X026068Y006825D01*
X026006Y006887D01*
X025911Y006927D01*
X025295Y006927D01*
X025200Y006887D01*
X025127Y006814D01*
X025087Y006718D01*
X025087Y006681D01*
X025040Y006681D01*
X024969Y006652D01*
X024969Y006652D01*
X024969Y006746D01*
X024376Y006746D01*
X024376Y006746D01*
X024969Y006746D01*
X024969Y006886D01*
X024961Y006913D01*
X024984Y006936D01*
X025289Y006936D01*
X025403Y006984D01*
X025490Y007071D01*
X025615Y007196D01*
X025630Y007232D01*
X025699Y007232D01*
X025763Y007258D01*
X025775Y007246D01*
X025775Y007130D01*
X025814Y007034D01*
X025887Y006961D01*
X025983Y006921D01*
X026598Y006921D01*
X026664Y006949D01*
X026731Y006921D01*
X027346Y006921D01*
X027442Y006961D01*
X027515Y007034D01*
X027554Y007130D01*
X027554Y007186D01*
X027599Y007186D01*
X029519Y005266D01*
X029519Y005155D01*
X029589Y004987D01*
X029717Y004858D01*
X029886Y004788D01*
X029997Y004788D01*
X030464Y004321D01*
X030551Y004234D01*
X030665Y004186D01*
X031849Y004186D01*
X031973Y004062D01*
X031973Y004014D01*
X031878Y003974D01*
X031814Y003910D01*
X031789Y003935D01*
X031599Y004014D01*
X031393Y004014D01*
X031203Y003935D01*
X031102Y003835D01*
X031001Y003935D01*
X030811Y004014D01*
X030605Y004014D01*
X030415Y003935D01*
X030270Y003790D01*
X030253Y003750D01*
X030239Y003768D01*
X030193Y003815D01*
X030140Y003854D01*
X030081Y003883D01*
X030019Y003904D01*
X029954Y003914D01*
X029940Y003914D01*
X029940Y003515D01*
X029902Y003515D01*
X029902Y003478D01*
X029503Y003478D01*
X029503Y003464D01*
X029514Y003399D01*
X029534Y003336D01*
X029564Y003278D01*
X029602Y003224D01*
X029649Y003178D01*
X029702Y003139D01*
X029761Y003110D01*
X029823Y003089D01*
X029888Y003079D01*
X029902Y003079D01*
X029902Y003478D01*
X029940Y003478D01*
X029940Y003079D01*
X029954Y003079D01*
X030019Y003089D01*
X030081Y003110D01*
X030140Y003139D01*
X030193Y003178D01*
X030239Y003224D01*
X030253Y003243D01*
X030270Y003203D01*
X030375Y003097D01*
X030042Y003097D01*
X029940Y003097D02*
X029902Y003097D01*
X029799Y003097D02*
X028263Y003097D01*
X028261Y003092D02*
X028301Y003187D01*
X028301Y003806D01*
X028261Y003901D01*
X028188Y003974D01*
X028099Y004011D01*
X028099Y004558D01*
X028052Y004672D01*
X027965Y004759D01*
X027714Y005010D01*
X027600Y005057D01*
X027176Y005057D01*
X027149Y005121D01*
X027177Y005188D01*
X027154Y005111D02*
X029537Y005111D01*
X029586Y004993D02*
X027731Y004993D01*
X027850Y004874D02*
X029701Y004874D01*
X030029Y004756D02*
X027968Y004756D01*
X028067Y004637D02*
X030148Y004637D01*
X030266Y004519D02*
X028099Y004519D01*
X028099Y004400D02*
X030385Y004400D01*
X030503Y004282D02*
X028099Y004282D01*
X028099Y004163D02*
X031872Y004163D01*
X031973Y004045D02*
X028099Y004045D01*
X028236Y003926D02*
X030406Y003926D01*
X030288Y003808D02*
X030200Y003808D01*
X029940Y003808D02*
X029902Y003808D01*
X029902Y003914D02*
X029902Y003515D01*
X029503Y003515D01*
X029503Y003529D01*
X029514Y003594D01*
X029534Y003657D01*
X029564Y003715D01*
X029602Y003768D01*
X029649Y003815D01*
X029702Y003854D01*
X029761Y003883D01*
X029823Y003904D01*
X029888Y003914D01*
X029902Y003914D01*
X029902Y003689D02*
X029940Y003689D01*
X029940Y003571D02*
X029902Y003571D01*
X029902Y003452D02*
X029940Y003452D01*
X029940Y003334D02*
X029902Y003334D01*
X029902Y003215D02*
X029940Y003215D01*
X030230Y003215D02*
X030265Y003215D01*
X030375Y003097D02*
X030344Y003066D01*
X028236Y003066D01*
X028261Y003092D01*
X028301Y003215D02*
X029611Y003215D01*
X029535Y003334D02*
X028301Y003334D01*
X028301Y003452D02*
X029505Y003452D01*
X029510Y003571D02*
X028301Y003571D01*
X028301Y003689D02*
X029551Y003689D01*
X029642Y003808D02*
X028300Y003808D01*
X027479Y004014D02*
X027474Y004014D01*
X027378Y003974D01*
X027314Y003910D01*
X027289Y003935D01*
X027099Y004014D01*
X026893Y004014D01*
X026703Y003935D01*
X026602Y003835D01*
X026501Y003935D01*
X026311Y004014D01*
X026105Y004014D01*
X025915Y003935D01*
X025770Y003790D01*
X025753Y003750D01*
X025739Y003768D01*
X025693Y003815D01*
X025640Y003854D01*
X025581Y003883D01*
X025519Y003904D01*
X025454Y003914D01*
X025440Y003914D01*
X025440Y003515D01*
X025402Y003515D01*
X025402Y003478D01*
X025003Y003478D01*
X025003Y003464D01*
X025014Y003399D01*
X025034Y003336D01*
X025064Y003278D01*
X025102Y003224D01*
X025149Y003178D01*
X025202Y003139D01*
X025261Y003110D01*
X025323Y003089D01*
X025388Y003079D01*
X025402Y003079D01*
X025402Y003478D01*
X025440Y003478D01*
X025440Y003079D01*
X025454Y003079D01*
X025519Y003089D01*
X025581Y003110D01*
X025640Y003139D01*
X025693Y003178D01*
X025739Y003224D01*
X025753Y003243D01*
X025770Y003203D01*
X025875Y003097D01*
X025542Y003097D01*
X025440Y003097D02*
X025402Y003097D01*
X025299Y003097D02*
X023763Y003097D01*
X023761Y003092D02*
X023801Y003187D01*
X023801Y003806D01*
X023761Y003901D01*
X023688Y003974D01*
X023592Y004014D01*
X023460Y004014D01*
X023302Y004172D01*
X023215Y004259D01*
X023145Y004288D01*
X023193Y004288D01*
X023361Y004358D01*
X023490Y004487D01*
X023560Y004655D01*
X023560Y004838D01*
X023490Y005006D01*
X023361Y005135D01*
X023331Y005148D01*
X023373Y005190D01*
X023422Y005308D01*
X023422Y007947D01*
X023504Y007981D01*
X023577Y008054D01*
X023617Y008149D01*
X023617Y008176D01*
X023771Y008176D01*
X023841Y008106D01*
X024010Y008036D01*
X024193Y008036D01*
X024363Y008106D01*
X024492Y008236D01*
X024562Y008405D01*
X024562Y008504D01*
X025033Y008975D01*
X025033Y008975D01*
X025123Y009065D01*
X025147Y009121D01*
X027102Y009121D01*
X030602Y005621D01*
X033137Y005621D01*
X033137Y000886D01*
X015602Y000886D01*
X015602Y002426D01*
X017041Y002426D01*
X017158Y002475D01*
X017227Y002544D01*
X017296Y002475D01*
X017413Y002426D01*
X018519Y002426D01*
X018519Y002280D01*
X018589Y002112D01*
X018717Y001983D01*
X018886Y001913D01*
X019068Y001913D01*
X019236Y001983D01*
X019315Y002061D01*
X031289Y002061D01*
X031403Y002109D01*
X031490Y002196D01*
X031758Y002465D01*
X031806Y002578D01*
X031806Y003075D01*
X031814Y003083D01*
X031878Y003019D01*
X031974Y002979D01*
X032592Y002979D01*
X032688Y003019D01*
X032761Y003092D01*
X032801Y003187D01*
X032801Y003806D01*
X032761Y003901D01*
X032688Y003974D01*
X032593Y004014D01*
X032593Y004252D01*
X032546Y004366D01*
X032240Y004672D01*
X032153Y004759D01*
X032039Y004806D01*
X030855Y004806D01*
X030435Y005227D01*
X030435Y005338D01*
X030365Y005506D01*
X030236Y005635D01*
X030068Y005705D01*
X029957Y005705D01*
X027903Y007759D01*
X027789Y007806D01*
X027554Y007806D01*
X027554Y007863D01*
X027515Y007959D01*
X027451Y008023D01*
X027454Y008035D01*
X027454Y008311D01*
X027912Y008311D01*
X027794Y008429D02*
X027098Y008429D01*
X027098Y008431D02*
X027454Y008431D01*
X027454Y008707D01*
X027443Y008748D01*
X027422Y008785D01*
X027438Y008785D01*
X027422Y008785D02*
X027393Y008814D01*
X027356Y008836D01*
X027315Y008846D01*
X027098Y008846D01*
X027098Y008431D01*
X026978Y008431D01*
X026978Y008846D01*
X026762Y008846D01*
X026756Y008845D01*
X026694Y008907D01*
X026598Y008946D01*
X025983Y008946D01*
X025887Y008907D01*
X025814Y008834D01*
X025800Y008800D01*
X025796Y008813D01*
X025775Y008850D01*
X025745Y008879D01*
X025709Y008900D01*
X025668Y008911D01*
X025412Y008911D01*
X025412Y008555D01*
X025292Y008555D01*
X025292Y008435D01*
X024897Y008435D01*
X024897Y008219D01*
X024898Y008213D01*
X024836Y008151D01*
X024797Y008055D01*
X024797Y008025D01*
X024376Y008025D01*
X024376Y007746D01*
X023783Y007746D01*
X023783Y007607D01*
X023790Y007580D01*
X023722Y007512D01*
X023683Y007416D01*
X023683Y007077D01*
X023722Y006981D01*
X023790Y006913D01*
X023783Y006886D01*
X023783Y006746D01*
X023783Y006607D01*
X023790Y006580D01*
X023722Y006512D01*
X023683Y006416D01*
X023683Y006077D01*
X023716Y005996D01*
X023683Y005916D01*
X023683Y005577D01*
X023716Y005496D01*
X023683Y005416D01*
X023683Y005077D01*
X023716Y004996D01*
X023683Y004916D01*
X023683Y004577D01*
X023722Y004481D01*
X023795Y004408D01*
X023891Y004368D01*
X023894Y004368D01*
X023894Y004280D01*
X023964Y004112D01*
X024092Y003983D01*
X024261Y003913D01*
X024443Y003913D01*
X024611Y003983D01*
X024740Y004112D01*
X024810Y004280D01*
X024810Y004368D01*
X024860Y004368D01*
X024956Y004408D01*
X025029Y004481D01*
X025069Y004577D01*
X025069Y004786D01*
X025193Y004786D01*
X025252Y004811D01*
X025252Y004807D01*
X025667Y004807D01*
X025667Y004687D01*
X025787Y004687D01*
X025787Y004332D01*
X026063Y004332D01*
X026076Y004335D01*
X026140Y004271D01*
X026235Y004232D01*
X026969Y004232D01*
X027064Y004271D01*
X027137Y004344D01*
X027176Y004437D01*
X027410Y004437D01*
X027479Y004368D01*
X027479Y004014D01*
X027479Y004045D02*
X024673Y004045D01*
X024762Y004163D02*
X027479Y004163D01*
X027479Y004282D02*
X027075Y004282D01*
X027161Y004400D02*
X027447Y004400D01*
X027330Y003926D02*
X027297Y003926D01*
X026694Y003926D02*
X026510Y003926D01*
X026129Y004282D02*
X024810Y004282D01*
X024938Y004400D02*
X025280Y004400D01*
X025284Y004393D02*
X025314Y004364D01*
X025350Y004342D01*
X025391Y004332D01*
X025667Y004332D01*
X025667Y004687D01*
X025252Y004687D01*
X025252Y004470D01*
X025263Y004430D01*
X025284Y004393D01*
X025252Y004519D02*
X025045Y004519D01*
X025069Y004637D02*
X025252Y004637D01*
X025069Y004756D02*
X025667Y004756D01*
X025667Y004637D02*
X025787Y004637D01*
X025787Y004519D02*
X025667Y004519D01*
X025667Y004400D02*
X025787Y004400D01*
X025906Y003926D02*
X024475Y003926D01*
X024229Y003926D02*
X023736Y003926D01*
X023852Y003871D02*
X023477Y004246D01*
X021602Y004246D01*
X021727Y004371D01*
X021602Y004496D01*
X021602Y006246D01*
X022328Y006246D01*
X022328Y006246D01*
X022328Y006025D01*
X022328Y005746D01*
X021735Y005746D01*
X021735Y005607D01*
X021743Y005580D01*
X021675Y005512D01*
X021635Y005416D01*
X021635Y005077D01*
X021668Y004996D01*
X021635Y004916D01*
X021635Y004577D01*
X021675Y004481D01*
X021748Y004408D01*
X021844Y004368D01*
X022813Y004368D01*
X022827Y004374D01*
X022842Y004358D01*
X022967Y004306D01*
X021396Y004306D01*
X021365Y004381D01*
X021287Y004459D01*
X021287Y004732D01*
X021344Y004732D01*
X021439Y004771D01*
X021512Y004844D01*
X021552Y004940D01*
X021552Y005555D01*
X021524Y005621D01*
X021552Y005688D01*
X021552Y006303D01*
X021512Y006399D01*
X021461Y006450D01*
X021468Y006466D01*
X021540Y006436D01*
X021719Y006436D01*
X021743Y006413D01*
X021735Y006386D01*
X021735Y006246D01*
X021735Y006107D01*
X021746Y006067D01*
X021767Y006030D01*
X021797Y006000D01*
X021804Y005996D01*
X021797Y005993D01*
X021767Y005963D01*
X021746Y005926D01*
X021735Y005886D01*
X021735Y005746D01*
X022328Y005746D01*
X022328Y005746D01*
X022328Y005746D01*
X022328Y006246D01*
X021735Y006246D01*
X022328Y006246D01*
X022328Y006246D01*
X022328Y006178D02*
X022328Y006178D01*
X022328Y006059D02*
X022328Y006059D01*
X022328Y005941D02*
X022328Y005941D01*
X022328Y005822D02*
X022328Y005822D01*
X021755Y005941D02*
X021552Y005941D01*
X021552Y006059D02*
X021750Y006059D01*
X021735Y006178D02*
X021552Y006178D01*
X021552Y006296D02*
X021735Y006296D01*
X021741Y006415D02*
X021496Y006415D01*
X021725Y007062D02*
X021653Y007134D01*
X021539Y007181D01*
X021492Y007181D01*
X021492Y007218D01*
X021452Y007314D01*
X021379Y007387D01*
X021284Y007427D01*
X020668Y007427D01*
X020573Y007387D01*
X020511Y007325D01*
X020505Y007327D01*
X020288Y007327D01*
X020288Y006931D01*
X020168Y006931D01*
X020168Y006811D01*
X019812Y006811D01*
X019812Y006571D01*
X019793Y006571D01*
X019698Y006532D01*
X019636Y006470D01*
X019630Y006471D01*
X019413Y006471D01*
X019413Y006056D01*
X019293Y006056D01*
X019293Y006471D01*
X019093Y006471D01*
X019093Y007445D01*
X019102Y007449D01*
X019168Y007421D01*
X019784Y007421D01*
X019879Y007461D01*
X019925Y007507D01*
X019985Y007482D01*
X020719Y007482D01*
X020799Y007515D01*
X020880Y007482D01*
X021574Y007482D01*
X021648Y007512D01*
X021672Y007488D01*
X021675Y007481D01*
X021743Y007413D01*
X021735Y007386D01*
X021735Y007246D01*
X021735Y007107D01*
X021743Y007080D01*
X021725Y007062D01*
X021735Y007126D02*
X021661Y007126D01*
X021735Y007244D02*
X021481Y007244D01*
X021403Y007363D02*
X021735Y007363D01*
X021735Y007246D02*
X022328Y007246D01*
X021735Y007246D01*
X021675Y007481D02*
X019900Y007481D01*
X019951Y007327D02*
X019910Y007316D01*
X019874Y007295D01*
X019844Y007265D01*
X019823Y007228D01*
X019812Y007188D01*
X019812Y006931D01*
X020168Y006931D01*
X020168Y007327D01*
X019951Y007327D01*
X019832Y007244D02*
X019093Y007244D01*
X019093Y007126D02*
X019812Y007126D01*
X019812Y007007D02*
X019093Y007007D01*
X019093Y006889D02*
X020168Y006889D01*
X020168Y007007D02*
X020288Y007007D01*
X020288Y007126D02*
X020168Y007126D01*
X020168Y007244D02*
X020288Y007244D01*
X020549Y007363D02*
X019093Y007363D01*
X018473Y007363D02*
X016718Y007363D01*
X016600Y007244D02*
X018473Y007244D01*
X018473Y007126D02*
X016481Y007126D01*
X016363Y007007D02*
X018473Y007007D01*
X018473Y006889D02*
X016244Y006889D01*
X016126Y006770D02*
X018473Y006770D01*
X018473Y006652D02*
X016007Y006652D01*
X015889Y006533D02*
X018473Y006533D01*
X018473Y006415D02*
X015770Y006415D01*
X015652Y006296D02*
X018473Y006296D01*
X018473Y006178D02*
X015602Y006178D01*
X015602Y006246D02*
X018477Y009121D01*
X019931Y009121D01*
X019909Y009100D01*
X019888Y009063D01*
X019877Y009022D01*
X018377Y009022D01*
X018259Y008903D02*
X019877Y008903D01*
X019877Y008805D02*
X020292Y008805D01*
X020292Y008685D01*
X019877Y008685D01*
X019877Y008533D01*
X019784Y008571D01*
X019168Y008571D01*
X019102Y008544D01*
X019036Y008571D01*
X018420Y008571D01*
X018325Y008532D01*
X018252Y008459D01*
X018212Y008363D01*
X018212Y007630D01*
X018252Y007534D01*
X018325Y007461D01*
X018420Y007421D01*
X018473Y007421D01*
X018473Y004014D01*
X018378Y003974D01*
X018314Y003910D01*
X018289Y003935D01*
X018099Y004014D01*
X017893Y004014D01*
X017703Y003935D01*
X017602Y003835D01*
X017501Y003935D01*
X017311Y004014D01*
X017105Y004014D01*
X016915Y003935D01*
X016770Y003790D01*
X016753Y003750D01*
X016739Y003768D01*
X016693Y003815D01*
X016640Y003854D01*
X016581Y003883D01*
X016519Y003904D01*
X016454Y003914D01*
X016440Y003914D01*
X016440Y003515D01*
X016402Y003515D01*
X016402Y003478D01*
X016003Y003478D01*
X016003Y003464D01*
X016014Y003399D01*
X016034Y003336D01*
X016064Y003278D01*
X016102Y003224D01*
X016149Y003178D01*
X016202Y003139D01*
X016261Y003110D01*
X016323Y003089D01*
X016388Y003079D01*
X016402Y003079D01*
X016402Y003478D01*
X016440Y003478D01*
X016440Y003079D01*
X016454Y003079D01*
X016519Y003089D01*
X016581Y003110D01*
X016640Y003139D01*
X016693Y003178D01*
X016739Y003224D01*
X016753Y003243D01*
X016770Y003203D01*
X016875Y003097D01*
X016542Y003097D01*
X016440Y003097D02*
X016402Y003097D01*
X016299Y003097D02*
X015602Y003097D01*
X015602Y003066D02*
X015602Y006246D01*
X015602Y006059D02*
X018473Y006059D01*
X018473Y005941D02*
X015602Y005941D01*
X015602Y005822D02*
X018473Y005822D01*
X018473Y005704D02*
X015602Y005704D01*
X015602Y005585D02*
X018473Y005585D01*
X018473Y005467D02*
X015602Y005467D01*
X015602Y005348D02*
X018473Y005348D01*
X018473Y005230D02*
X015602Y005230D01*
X015602Y005111D02*
X018473Y005111D01*
X018473Y004993D02*
X015602Y004993D01*
X015602Y004874D02*
X018473Y004874D01*
X018473Y004756D02*
X015602Y004756D01*
X015602Y004637D02*
X018473Y004637D01*
X018473Y004519D02*
X015602Y004519D01*
X015602Y004400D02*
X018473Y004400D01*
X018473Y004282D02*
X015602Y004282D01*
X015602Y004163D02*
X018473Y004163D01*
X018473Y004045D02*
X015602Y004045D01*
X015602Y003926D02*
X016906Y003926D01*
X016788Y003808D02*
X016700Y003808D01*
X016440Y003808D02*
X016402Y003808D01*
X016402Y003914D02*
X016402Y003515D01*
X016003Y003515D01*
X016003Y003529D01*
X016014Y003594D01*
X016034Y003657D01*
X016064Y003715D01*
X016102Y003768D01*
X016149Y003815D01*
X016202Y003854D01*
X016261Y003883D01*
X016323Y003904D01*
X016388Y003914D01*
X016402Y003914D01*
X016402Y003689D02*
X016440Y003689D01*
X016440Y003571D02*
X016402Y003571D01*
X016402Y003452D02*
X016440Y003452D01*
X016440Y003334D02*
X016402Y003334D01*
X016402Y003215D02*
X016440Y003215D01*
X016730Y003215D02*
X016765Y003215D01*
X016875Y003097D02*
X016844Y003066D01*
X015602Y003066D01*
X015602Y003215D02*
X016111Y003215D01*
X016035Y003334D02*
X015602Y003334D01*
X015602Y003452D02*
X016005Y003452D01*
X016010Y003571D02*
X015602Y003571D01*
X015602Y003689D02*
X016051Y003689D01*
X016142Y003808D02*
X015602Y003808D01*
X017208Y003496D02*
X017227Y003496D01*
X017227Y002996D01*
X017477Y002746D01*
X021477Y002746D01*
X021727Y002996D01*
X021977Y002746D01*
X025977Y002746D01*
X026227Y002996D01*
X026477Y002746D01*
X030477Y002746D01*
X030708Y002978D01*
X030708Y003496D01*
X031010Y003926D02*
X031194Y003926D01*
X031797Y003926D02*
X031830Y003926D01*
X032593Y004045D02*
X033137Y004045D01*
X033137Y004163D02*
X032593Y004163D01*
X032581Y004282D02*
X033137Y004282D01*
X033137Y004400D02*
X032511Y004400D01*
X032393Y004519D02*
X033137Y004519D01*
X033137Y004637D02*
X032274Y004637D01*
X032156Y004756D02*
X033137Y004756D01*
X033137Y004874D02*
X030787Y004874D01*
X030669Y004993D02*
X033137Y004993D01*
X033137Y005111D02*
X030550Y005111D01*
X030435Y005230D02*
X033137Y005230D01*
X033137Y005348D02*
X030431Y005348D01*
X030381Y005467D02*
X033137Y005467D01*
X033137Y005585D02*
X030286Y005585D01*
X030070Y005704D02*
X030519Y005704D01*
X030401Y005822D02*
X029839Y005822D01*
X029721Y005941D02*
X030282Y005941D01*
X030164Y006059D02*
X029602Y006059D01*
X029484Y006178D02*
X030045Y006178D01*
X029927Y006296D02*
X029365Y006296D01*
X029247Y006415D02*
X029808Y006415D01*
X029690Y006533D02*
X029128Y006533D01*
X029010Y006652D02*
X029571Y006652D01*
X029453Y006770D02*
X028891Y006770D01*
X028773Y006889D02*
X029334Y006889D01*
X029216Y007007D02*
X028654Y007007D01*
X028536Y007126D02*
X029097Y007126D01*
X028979Y007244D02*
X028417Y007244D01*
X028299Y007363D02*
X028860Y007363D01*
X028742Y007481D02*
X028180Y007481D01*
X028062Y007600D02*
X028623Y007600D01*
X028505Y007718D02*
X027943Y007718D01*
X028268Y007955D02*
X027516Y007955D01*
X027554Y007837D02*
X028386Y007837D01*
X028149Y008074D02*
X027454Y008074D01*
X027454Y008192D02*
X028031Y008192D01*
X027675Y008548D02*
X027454Y008548D01*
X027454Y008666D02*
X027557Y008666D01*
X027320Y008903D02*
X026697Y008903D01*
X026978Y008785D02*
X027098Y008785D01*
X027098Y008666D02*
X026978Y008666D01*
X026978Y008548D02*
X027098Y008548D01*
X027098Y008431D02*
X027098Y008311D01*
X027454Y008311D01*
X027201Y009022D02*
X025080Y009022D01*
X025036Y008911D02*
X024995Y008900D01*
X024958Y008879D01*
X024929Y008850D01*
X024908Y008813D01*
X024897Y008772D01*
X024897Y008555D01*
X025292Y008555D01*
X025292Y008911D01*
X025036Y008911D01*
X025006Y008903D02*
X024962Y008903D01*
X024900Y008785D02*
X024843Y008785D01*
X024897Y008666D02*
X024725Y008666D01*
X024606Y008548D02*
X025292Y008548D01*
X025292Y008666D02*
X025412Y008666D01*
X025412Y008785D02*
X025292Y008785D01*
X025292Y008903D02*
X025412Y008903D01*
X025698Y008903D02*
X025884Y008903D01*
X024852Y009246D02*
X024852Y010121D01*
X024852Y013371D01*
X024853Y013372D01*
X024853Y013621D01*
X024477Y013621D01*
X024352Y013746D01*
X024352Y014371D01*
X024352Y014746D01*
X024254Y014845D01*
X024254Y015223D01*
X023998Y015223D02*
X023998Y013392D01*
X023727Y013121D01*
X023477Y013121D01*
X023477Y013621D02*
X023742Y013886D01*
X023742Y015223D01*
X023486Y015223D02*
X023486Y014505D01*
X023352Y014371D01*
X022852Y013871D01*
X022852Y011246D01*
X023602Y010496D01*
X023227Y010121D02*
X022477Y010871D01*
X022477Y013996D01*
X023230Y014749D01*
X023230Y015223D01*
X022977Y015226D02*
X022974Y015223D01*
X022977Y015226D02*
X022977Y016121D01*
X022602Y016496D01*
X015102Y016496D01*
X011852Y019746D01*
X008352Y019746D01*
X008102Y019996D01*
X008102Y020371D01*
X007102Y020371D02*
X007102Y019621D01*
X007352Y019371D01*
X011727Y019371D01*
X014977Y016121D01*
X022477Y016121D01*
X022718Y015880D01*
X022718Y015223D01*
X022462Y015223D02*
X022462Y015252D01*
X022462Y015636D01*
X022352Y015746D01*
X014852Y015746D01*
X011602Y018996D01*
X006852Y018996D01*
X006102Y019746D01*
X006102Y020371D01*
X005602Y020996D02*
X005602Y019746D01*
X006727Y018621D01*
X011477Y018621D01*
X014727Y015371D01*
X021602Y015371D01*
X021727Y015246D01*
X021927Y015246D01*
X021950Y015223D01*
X022206Y015223D02*
X022206Y014851D01*
X022102Y014746D01*
X022352Y014496D01*
X022102Y014746D02*
X022101Y014745D01*
X021352Y014745D01*
X020976Y014746D01*
X020977Y014746D01*
X020102Y013871D01*
X019602Y013871D01*
X019227Y014246D01*
X014352Y014246D01*
X011102Y017496D01*
X008102Y017496D01*
X007689Y017083D01*
X007689Y015621D01*
X004852Y015621D01*
X005103Y014121D02*
X003977Y014121D01*
X003977Y013121D02*
X005103Y013121D01*
X008515Y015621D02*
X009353Y015621D01*
X011227Y017871D02*
X006477Y017871D01*
X005352Y018996D01*
X003852Y018996D01*
X003102Y019746D01*
X002727Y019746D01*
X002102Y020371D01*
X003102Y020371D02*
X004102Y019371D01*
X005477Y019371D01*
X006602Y018246D01*
X011352Y018246D01*
X014602Y014996D01*
X020102Y014996D01*
X020227Y014871D01*
X020477Y014871D01*
X019977Y014371D02*
X019727Y014371D01*
X019477Y014621D01*
X014477Y014621D01*
X011227Y017871D01*
X013227Y019371D02*
X012602Y019996D01*
X012602Y020621D01*
X012352Y020871D01*
X011602Y020871D01*
X011102Y021371D01*
X009852Y022121D02*
X013727Y022121D01*
X013977Y021871D01*
X013977Y018621D01*
X014602Y017996D01*
X015727Y017996D01*
X016421Y018803D02*
X017703Y017520D01*
X021950Y017520D01*
X022206Y017520D02*
X022206Y017892D01*
X021977Y018121D01*
X021602Y018121D01*
X021602Y018496D01*
X021477Y018621D01*
X020602Y018621D01*
X020352Y018871D01*
X020352Y019746D01*
X020602Y019996D01*
X022227Y019996D01*
X022496Y019728D01*
X022496Y019371D01*
X021727Y019371D02*
X022611Y018488D01*
X022718Y018488D01*
X023102Y018871D01*
X024102Y018871D01*
X024602Y019371D01*
X025421Y019371D01*
X025977Y018871D02*
X024727Y018871D01*
X024477Y018621D01*
X023227Y018621D01*
X022977Y018371D01*
X022977Y017523D01*
X022974Y017520D01*
X023227Y017517D02*
X023230Y017520D01*
X023227Y017517D02*
X023227Y016996D01*
X023602Y016621D01*
X025352Y016621D01*
X025602Y016371D01*
X025602Y015121D01*
X025102Y014621D01*
X025102Y014371D01*
X025664Y014371D02*
X025852Y014371D01*
X026352Y013871D01*
X027602Y013871D01*
X027727Y013996D01*
X027727Y014536D01*
X028227Y014536D02*
X028226Y014410D01*
X028227Y013621D01*
X027977Y013371D01*
X027476Y013371D01*
X027477Y013495D01*
X027477Y012871D01*
X027727Y012621D01*
X026352Y013871D02*
X026102Y013621D01*
X025601Y013621D01*
X024477Y012871D02*
X024477Y011371D01*
X024852Y009246D02*
X024102Y008496D01*
X023101Y008496D01*
X023102Y008495D01*
X023102Y005371D01*
X022977Y005246D01*
X022328Y005246D01*
X022328Y004746D02*
X023102Y004746D01*
X023560Y004756D02*
X023683Y004756D01*
X023683Y004874D02*
X023545Y004874D01*
X023496Y004993D02*
X023714Y004993D01*
X023683Y005111D02*
X023385Y005111D01*
X023390Y005230D02*
X023683Y005230D01*
X023683Y005348D02*
X023422Y005348D01*
X023422Y005467D02*
X023704Y005467D01*
X023683Y005585D02*
X023422Y005585D01*
X023422Y005704D02*
X023683Y005704D01*
X023683Y005822D02*
X023422Y005822D01*
X023422Y005941D02*
X023693Y005941D01*
X023690Y006059D02*
X023422Y006059D01*
X023422Y006178D02*
X023683Y006178D01*
X023683Y006296D02*
X023422Y006296D01*
X023422Y006415D02*
X023683Y006415D01*
X023744Y006533D02*
X023422Y006533D01*
X023422Y006652D02*
X023783Y006652D01*
X023783Y006746D02*
X024376Y006746D01*
X024376Y006746D01*
X023783Y006746D01*
X023783Y006770D02*
X023422Y006770D01*
X023422Y006889D02*
X023783Y006889D01*
X023711Y007007D02*
X023422Y007007D01*
X023422Y007126D02*
X023683Y007126D01*
X023683Y007244D02*
X023422Y007244D01*
X023422Y007363D02*
X023683Y007363D01*
X023710Y007481D02*
X023422Y007481D01*
X023422Y007600D02*
X023784Y007600D01*
X023783Y007718D02*
X023422Y007718D01*
X023422Y007837D02*
X023783Y007837D01*
X023783Y007886D02*
X023783Y007746D01*
X024376Y007746D01*
X024376Y007746D01*
X024376Y007746D01*
X024376Y008025D01*
X023921Y008025D01*
X023881Y008014D01*
X023844Y007993D01*
X023814Y007963D01*
X023793Y007926D01*
X023783Y007886D01*
X023810Y007955D02*
X023443Y007955D01*
X023586Y008074D02*
X023920Y008074D01*
X024284Y008074D02*
X024805Y008074D01*
X024878Y008192D02*
X024449Y008192D01*
X024523Y008311D02*
X024897Y008311D01*
X024897Y008429D02*
X024562Y008429D01*
X024376Y007955D02*
X024376Y007955D01*
X024376Y007837D02*
X024376Y007837D01*
X025352Y007747D02*
X025726Y007747D01*
X025977Y007496D01*
X026290Y007496D01*
X025775Y007244D02*
X025730Y007244D01*
X025776Y007126D02*
X025545Y007126D01*
X025426Y007007D02*
X025841Y007007D01*
X026002Y006889D02*
X027896Y006889D01*
X027778Y007007D02*
X027488Y007007D01*
X027553Y007126D02*
X027659Y007126D01*
X028015Y006770D02*
X026729Y006770D01*
X026767Y006652D02*
X028133Y006652D01*
X028252Y006533D02*
X026767Y006533D01*
X026767Y006296D02*
X028489Y006296D01*
X028607Y006178D02*
X026767Y006178D01*
X026767Y006059D02*
X028726Y006059D01*
X028844Y005941D02*
X027095Y005941D01*
X027169Y005822D02*
X028963Y005822D01*
X029081Y005704D02*
X027177Y005704D01*
X027177Y005585D02*
X029200Y005585D01*
X029318Y005467D02*
X027177Y005467D01*
X027177Y005348D02*
X029437Y005348D01*
X028370Y006415D02*
X026411Y006415D01*
X026411Y006533D02*
X026291Y006533D01*
X026291Y006652D02*
X026411Y006652D01*
X026411Y006770D02*
X026291Y006770D01*
X025204Y006889D02*
X024968Y006889D01*
X024969Y006770D02*
X025109Y006770D01*
X025102Y005746D02*
X024376Y005746D01*
X024376Y005246D02*
X025102Y005246D01*
X024376Y004746D02*
X024352Y004746D01*
X024352Y004371D01*
X024031Y004045D02*
X023429Y004045D01*
X023311Y004163D02*
X023942Y004163D01*
X023894Y004282D02*
X023160Y004282D01*
X023404Y004400D02*
X023813Y004400D01*
X023706Y004519D02*
X023504Y004519D01*
X023553Y004637D02*
X023683Y004637D01*
X023800Y003808D02*
X025142Y003808D01*
X025149Y003815D02*
X025102Y003768D01*
X025064Y003715D01*
X025034Y003657D01*
X025014Y003594D01*
X025003Y003529D01*
X025003Y003515D01*
X025402Y003515D01*
X025402Y003914D01*
X025388Y003914D01*
X025323Y003904D01*
X025261Y003883D01*
X025202Y003854D01*
X025149Y003815D01*
X025051Y003689D02*
X023801Y003689D01*
X023801Y003571D02*
X025010Y003571D01*
X025005Y003452D02*
X023801Y003452D01*
X023801Y003334D02*
X025035Y003334D01*
X025111Y003215D02*
X023801Y003215D01*
X023761Y003092D02*
X023736Y003066D01*
X025844Y003066D01*
X025875Y003097D01*
X025765Y003215D02*
X025730Y003215D01*
X025440Y003215D02*
X025402Y003215D01*
X025402Y003334D02*
X025440Y003334D01*
X025440Y003452D02*
X025402Y003452D01*
X025402Y003571D02*
X025440Y003571D01*
X025440Y003689D02*
X025402Y003689D01*
X025402Y003808D02*
X025440Y003808D01*
X025700Y003808D02*
X025788Y003808D01*
X026208Y003496D02*
X026227Y003478D01*
X026227Y002996D01*
X021727Y002996D02*
X021727Y003478D01*
X021708Y003496D01*
X021375Y003097D02*
X021270Y003203D01*
X021253Y003243D01*
X021239Y003224D01*
X021193Y003178D01*
X021140Y003139D01*
X021081Y003110D01*
X021019Y003089D01*
X020954Y003079D01*
X020940Y003079D01*
X020940Y003478D01*
X020902Y003478D01*
X020503Y003478D01*
X020503Y003464D01*
X020514Y003399D01*
X020534Y003336D01*
X020564Y003278D01*
X020602Y003224D01*
X020649Y003178D01*
X020702Y003139D01*
X020761Y003110D01*
X020823Y003089D01*
X020888Y003079D01*
X020902Y003079D01*
X020902Y003478D01*
X020902Y003515D01*
X020503Y003515D01*
X020503Y003529D01*
X020514Y003594D01*
X020534Y003657D01*
X020564Y003715D01*
X020602Y003768D01*
X020642Y003808D01*
X019300Y003808D01*
X019301Y003806D02*
X019261Y003901D01*
X019188Y003974D01*
X019093Y004014D01*
X019093Y005521D01*
X019293Y005521D01*
X019293Y005936D01*
X019413Y005936D01*
X019413Y005521D01*
X019630Y005521D01*
X019636Y005523D01*
X019698Y005461D01*
X019793Y005421D01*
X020402Y005421D01*
X020402Y004940D01*
X020442Y004844D01*
X020515Y004771D01*
X020610Y004732D01*
X020667Y004732D01*
X020667Y004459D01*
X020589Y004381D01*
X020519Y004213D01*
X020519Y004030D01*
X020589Y003862D01*
X020642Y003808D01*
X020562Y003926D02*
X019236Y003926D01*
X019301Y003806D02*
X019301Y003187D01*
X019261Y003092D01*
X019236Y003066D01*
X021344Y003066D01*
X021375Y003097D01*
X021042Y003097D01*
X020940Y003097D02*
X020902Y003097D01*
X020799Y003097D02*
X019263Y003097D01*
X019301Y003215D02*
X020611Y003215D01*
X020535Y003334D02*
X019301Y003334D01*
X019301Y003452D02*
X020505Y003452D01*
X020510Y003571D02*
X019301Y003571D01*
X019301Y003689D02*
X020551Y003689D01*
X020519Y004045D02*
X019093Y004045D01*
X019093Y004163D02*
X020519Y004163D01*
X020548Y004282D02*
X019093Y004282D01*
X019093Y004400D02*
X020608Y004400D01*
X020667Y004519D02*
X019093Y004519D01*
X019093Y004637D02*
X020667Y004637D01*
X020551Y004756D02*
X019093Y004756D01*
X019093Y004874D02*
X020429Y004874D01*
X020402Y004993D02*
X019093Y004993D01*
X019093Y005111D02*
X020402Y005111D01*
X020402Y005230D02*
X019093Y005230D01*
X019093Y005348D02*
X020402Y005348D01*
X019692Y005467D02*
X019093Y005467D01*
X019293Y005585D02*
X019413Y005585D01*
X019413Y005704D02*
X019293Y005704D01*
X019293Y005822D02*
X019413Y005822D01*
X019413Y006059D02*
X019293Y006059D01*
X019293Y006178D02*
X019413Y006178D01*
X019413Y006296D02*
X019293Y006296D01*
X019293Y006415D02*
X019413Y006415D01*
X019702Y006533D02*
X019093Y006533D01*
X019093Y006652D02*
X019812Y006652D01*
X019812Y006770D02*
X019093Y006770D01*
X018304Y007481D02*
X016837Y007481D01*
X016955Y007600D02*
X018224Y007600D01*
X018212Y007718D02*
X017074Y007718D01*
X017192Y007837D02*
X018212Y007837D01*
X018212Y007955D02*
X017311Y007955D01*
X017429Y008074D02*
X018212Y008074D01*
X018212Y008192D02*
X017548Y008192D01*
X017666Y008311D02*
X018212Y008311D01*
X018240Y008429D02*
X017785Y008429D01*
X017903Y008548D02*
X018364Y008548D01*
X018140Y008785D02*
X020292Y008785D01*
X020412Y008785D02*
X021167Y008785D01*
X021167Y008805D02*
X021167Y008685D01*
X020827Y008685D01*
X020412Y008685D01*
X020412Y008805D01*
X021167Y008805D01*
X021287Y008805D02*
X021287Y008685D01*
X021682Y008685D01*
X021682Y008469D01*
X021681Y008463D01*
X021743Y008401D01*
X021782Y008305D01*
X021782Y008255D01*
X021912Y008125D01*
X021957Y008125D01*
X021948Y008139D01*
X021937Y008180D01*
X021937Y008436D01*
X022293Y008436D01*
X022293Y008556D01*
X021937Y008556D01*
X021937Y008813D01*
X021948Y008853D01*
X021969Y008890D01*
X021999Y008920D01*
X022035Y008941D01*
X022076Y008952D01*
X022293Y008952D01*
X022293Y008556D01*
X022413Y008556D01*
X022413Y008952D01*
X022630Y008952D01*
X022636Y008950D01*
X022698Y009012D01*
X022793Y009052D01*
X023409Y009052D01*
X023504Y009012D01*
X023577Y008939D01*
X023617Y008843D01*
X023617Y008816D01*
X023771Y008816D01*
X023841Y008886D01*
X024010Y008956D01*
X024109Y008956D01*
X024274Y009121D01*
X021628Y009121D01*
X021650Y009100D01*
X021671Y009063D01*
X021682Y009022D01*
X022722Y009022D01*
X022413Y008903D02*
X022293Y008903D01*
X022293Y008785D02*
X022413Y008785D01*
X022413Y008666D02*
X022293Y008666D01*
X022293Y008548D02*
X021682Y008548D01*
X021682Y008666D02*
X021937Y008666D01*
X021937Y008785D02*
X021287Y008785D01*
X021287Y008805D02*
X021682Y008805D01*
X021682Y009022D01*
X021682Y008903D02*
X021983Y008903D01*
X021937Y008429D02*
X021714Y008429D01*
X021780Y008311D02*
X021937Y008311D01*
X021937Y008192D02*
X021844Y008192D01*
X022328Y007746D02*
X022352Y007746D01*
X022351Y007747D01*
X022328Y007246D02*
X022328Y007246D01*
X021735Y005822D02*
X021552Y005822D01*
X021552Y005704D02*
X021735Y005704D01*
X021741Y005585D02*
X021539Y005585D01*
X021552Y005467D02*
X021656Y005467D01*
X021635Y005348D02*
X021552Y005348D01*
X021552Y005230D02*
X021635Y005230D01*
X021635Y005111D02*
X021552Y005111D01*
X021552Y004993D02*
X021667Y004993D01*
X021635Y004874D02*
X021525Y004874D01*
X021635Y004756D02*
X021403Y004756D01*
X021287Y004637D02*
X021635Y004637D01*
X021659Y004519D02*
X021287Y004519D01*
X021346Y004400D02*
X021766Y004400D01*
X020940Y003452D02*
X020902Y003452D01*
X020902Y003334D02*
X020940Y003334D01*
X020940Y003215D02*
X020902Y003215D01*
X021230Y003215D02*
X021265Y003215D01*
X019284Y002030D02*
X033137Y002030D01*
X033137Y001912D02*
X015602Y001912D01*
X015602Y002030D02*
X018670Y002030D01*
X018573Y002149D02*
X015602Y002149D01*
X015602Y002267D02*
X018524Y002267D01*
X018519Y002386D02*
X015602Y002386D01*
X015602Y001793D02*
X033137Y001793D01*
X033137Y001675D02*
X015602Y001675D01*
X015602Y001556D02*
X033137Y001556D01*
X033137Y001438D02*
X015602Y001438D01*
X015602Y001319D02*
X033137Y001319D01*
X033137Y001201D02*
X015602Y001201D01*
X015602Y001082D02*
X033137Y001082D01*
X033137Y000964D02*
X015602Y000964D01*
X017188Y002504D02*
X017266Y002504D01*
X016977Y002746D02*
X017227Y002996D01*
X016977Y002746D02*
X011477Y002746D01*
X011227Y002996D01*
X011227Y003478D01*
X011208Y003496D01*
X011227Y002996D02*
X010977Y002746D01*
X006977Y002746D01*
X006727Y002996D01*
X006727Y003496D01*
X006708Y003496D01*
X006708Y004728D01*
X006977Y004996D01*
X007227Y004996D01*
X007477Y005246D01*
X007477Y006121D01*
X007422Y006177D01*
X007329Y006177D01*
X008539Y004121D02*
X012477Y004121D01*
X012477Y005621D01*
X012477Y004121D02*
X012783Y003815D01*
X012783Y003496D01*
X008539Y004121D02*
X008283Y003865D01*
X008283Y003496D01*
X006727Y002996D02*
X006477Y002746D01*
X002477Y002746D01*
X002208Y003015D01*
X002208Y003496D01*
X017510Y003926D02*
X017694Y003926D01*
X018297Y003926D02*
X018330Y003926D01*
X019092Y008548D02*
X019112Y008548D01*
X019840Y008548D02*
X019877Y008548D01*
X019877Y008666D02*
X018022Y008666D01*
X019877Y008805D02*
X019877Y009022D01*
X023480Y009022D02*
X024175Y009022D01*
X023883Y008903D02*
X023592Y008903D01*
X029727Y014121D02*
X030477Y013346D01*
X031227Y014096D01*
X031227Y014621D01*
X029727Y014121D02*
X029727Y015371D01*
X029227Y015871D01*
X027602Y015871D01*
X027227Y016246D01*
X027227Y016956D01*
X027727Y016956D02*
X027727Y017496D01*
X027977Y017746D01*
X028477Y017746D01*
X028852Y017371D01*
X028517Y016956D02*
X028852Y016621D01*
X029477Y016621D01*
X029852Y016996D01*
X029852Y017371D01*
X028517Y016956D02*
X028227Y016956D01*
X026102Y016246D02*
X026102Y015371D01*
X026977Y015371D01*
X027227Y015121D01*
X027227Y014536D01*
X026727Y014536D02*
X026187Y014536D01*
X025602Y015121D01*
X026102Y016246D02*
X025477Y016871D01*
X023727Y016871D01*
X023486Y017113D01*
X023486Y017520D01*
X023742Y017520D02*
X023742Y017232D01*
X023852Y017121D01*
X024727Y017121D01*
X024977Y017371D01*
X023998Y017520D02*
X023998Y018142D01*
X024102Y018246D01*
X025602Y018246D01*
X025977Y018871D02*
X026208Y019103D01*
X026440Y018871D01*
X029727Y018871D01*
X029921Y019065D01*
X029921Y019371D01*
X030708Y019371D02*
X030708Y019765D01*
X030477Y019996D01*
X022727Y019996D01*
X022477Y020246D01*
X016727Y020246D01*
X016421Y019940D01*
X016421Y019371D01*
X016421Y018803D01*
X020921Y019053D02*
X021102Y018871D01*
X021721Y018871D01*
X022462Y018130D01*
X022462Y017520D01*
X022718Y017520D02*
X022718Y018488D01*
X021602Y018122D02*
X021601Y018121D01*
X021602Y018121D01*
X020921Y019053D02*
X020921Y019371D01*
X021708Y019371D02*
X021727Y019371D01*
X026208Y019371D02*
X026208Y019103D01*
X009852Y022121D02*
X009102Y021371D01*
X006102Y021371D02*
X005977Y021371D01*
X005602Y020996D01*
X031806Y002978D02*
X033137Y002978D01*
X033137Y002860D02*
X031806Y002860D01*
X031806Y002741D02*
X033137Y002741D01*
X033137Y002623D02*
X031806Y002623D01*
X031775Y002504D02*
X033137Y002504D01*
X033137Y002386D02*
X031680Y002386D01*
X031561Y002267D02*
X033137Y002267D01*
X033137Y002149D02*
X031443Y002149D01*
X032763Y003097D02*
X033137Y003097D01*
X033137Y003215D02*
X032801Y003215D01*
X032801Y003334D02*
X033137Y003334D01*
X033137Y003452D02*
X032801Y003452D01*
X032801Y003571D02*
X033137Y003571D01*
X033137Y003689D02*
X032801Y003689D01*
X032800Y003808D02*
X033137Y003808D01*
X033137Y003926D02*
X032736Y003926D01*
D40*
X023727Y009121D02*
X023727Y009496D01*
D41*
X031727Y017496D03*
X010164Y007496D03*
D42*
X001602Y017691D02*
X001657Y017746D01*
X001602Y017802D01*
D43*
X022352Y014496D03*
X024352Y014371D03*
X025102Y014371D03*
X025664Y014371D03*
X024477Y012871D03*
X024477Y011371D03*
X027727Y012621D03*
X024102Y008496D03*
X025102Y005746D03*
X025102Y005246D03*
X024977Y017371D03*
D44*
X002477Y014996D02*
X002477Y009996D01*
X001852Y009371D01*
X001852Y008371D01*
X002477Y014996D02*
X001602Y015871D01*
X001602Y018371D01*
X000477Y019496D01*
X000477Y021121D01*
X000727Y021371D01*
X001102Y021371D01*
M02*
