G75*
%MOIN*%
%OFA0B0*%
%FSLAX24Y24*%
%IPPOS*%
%LPD*%
%AMOC8*
5,1,8,0,0,1.08239X$1,22.5*
%
%ADD10R,0.0472X0.0472*%
%ADD11R,0.0512X0.0630*%
%ADD12C,0.0050*%
%ADD13C,0.0000*%
%ADD14R,0.0260X0.0800*%
%ADD15R,0.0512X0.0591*%
%ADD16R,0.0120X0.0390*%
%ADD17R,0.0591X0.0512*%
%ADD18R,0.0866X0.0236*%
%ADD19R,0.0630X0.0512*%
%ADD20R,0.0551X0.1181*%
%ADD21R,0.1181X0.0551*%
%ADD22R,0.0768X0.0984*%
D10*
X007689Y015621D03*
X008515Y015621D03*
D11*
X009353Y015621D03*
X010101Y015621D03*
X005851Y014121D03*
X005103Y014121D03*
X005103Y013121D03*
X005851Y013121D03*
X018728Y007996D03*
X019476Y007996D03*
X019353Y005996D03*
X020101Y005996D03*
X026290Y007496D03*
X027038Y007496D03*
X027038Y008371D03*
X026290Y008371D03*
X025601Y013621D03*
X024853Y013621D03*
D12*
X000157Y022448D02*
X000157Y000401D01*
X033622Y000401D01*
X033622Y022448D01*
X000157Y022448D01*
D13*
X009573Y007496D02*
X009575Y007544D01*
X009581Y007592D01*
X009591Y007639D01*
X009604Y007685D01*
X009622Y007730D01*
X009642Y007774D01*
X009667Y007816D01*
X009695Y007855D01*
X009725Y007892D01*
X009759Y007926D01*
X009796Y007958D01*
X009834Y007987D01*
X009875Y008012D01*
X009918Y008034D01*
X009963Y008052D01*
X010009Y008066D01*
X010056Y008077D01*
X010104Y008084D01*
X010152Y008087D01*
X010200Y008086D01*
X010248Y008081D01*
X010296Y008072D01*
X010342Y008060D01*
X010387Y008043D01*
X010431Y008023D01*
X010473Y008000D01*
X010513Y007973D01*
X010551Y007943D01*
X010586Y007910D01*
X010618Y007874D01*
X010648Y007836D01*
X010674Y007795D01*
X010696Y007752D01*
X010716Y007708D01*
X010731Y007663D01*
X010743Y007616D01*
X010751Y007568D01*
X010755Y007520D01*
X010755Y007472D01*
X010751Y007424D01*
X010743Y007376D01*
X010731Y007329D01*
X010716Y007284D01*
X010696Y007240D01*
X010674Y007197D01*
X010648Y007156D01*
X010618Y007118D01*
X010586Y007082D01*
X010551Y007049D01*
X010513Y007019D01*
X010473Y006992D01*
X010431Y006969D01*
X010387Y006949D01*
X010342Y006932D01*
X010296Y006920D01*
X010248Y006911D01*
X010200Y006906D01*
X010152Y006905D01*
X010104Y006908D01*
X010056Y006915D01*
X010009Y006926D01*
X009963Y006940D01*
X009918Y006958D01*
X009875Y006980D01*
X009834Y007005D01*
X009796Y007034D01*
X009759Y007066D01*
X009725Y007100D01*
X009695Y007137D01*
X009667Y007176D01*
X009642Y007218D01*
X009622Y007262D01*
X009604Y007307D01*
X009591Y007353D01*
X009581Y007400D01*
X009575Y007448D01*
X009573Y007496D01*
X031136Y017496D02*
X031138Y017544D01*
X031144Y017592D01*
X031154Y017639D01*
X031167Y017685D01*
X031185Y017730D01*
X031205Y017774D01*
X031230Y017816D01*
X031258Y017855D01*
X031288Y017892D01*
X031322Y017926D01*
X031359Y017958D01*
X031397Y017987D01*
X031438Y018012D01*
X031481Y018034D01*
X031526Y018052D01*
X031572Y018066D01*
X031619Y018077D01*
X031667Y018084D01*
X031715Y018087D01*
X031763Y018086D01*
X031811Y018081D01*
X031859Y018072D01*
X031905Y018060D01*
X031950Y018043D01*
X031994Y018023D01*
X032036Y018000D01*
X032076Y017973D01*
X032114Y017943D01*
X032149Y017910D01*
X032181Y017874D01*
X032211Y017836D01*
X032237Y017795D01*
X032259Y017752D01*
X032279Y017708D01*
X032294Y017663D01*
X032306Y017616D01*
X032314Y017568D01*
X032318Y017520D01*
X032318Y017472D01*
X032314Y017424D01*
X032306Y017376D01*
X032294Y017329D01*
X032279Y017284D01*
X032259Y017240D01*
X032237Y017197D01*
X032211Y017156D01*
X032181Y017118D01*
X032149Y017082D01*
X032114Y017049D01*
X032076Y017019D01*
X032036Y016992D01*
X031994Y016969D01*
X031950Y016949D01*
X031905Y016932D01*
X031859Y016920D01*
X031811Y016911D01*
X031763Y016906D01*
X031715Y016905D01*
X031667Y016908D01*
X031619Y016915D01*
X031572Y016926D01*
X031526Y016940D01*
X031481Y016958D01*
X031438Y016980D01*
X031397Y017005D01*
X031359Y017034D01*
X031322Y017066D01*
X031288Y017100D01*
X031258Y017137D01*
X031230Y017176D01*
X031205Y017218D01*
X031185Y017262D01*
X031167Y017307D01*
X031154Y017353D01*
X031144Y017400D01*
X031138Y017448D01*
X031136Y017496D01*
D14*
X028227Y016956D03*
X027727Y016956D03*
X027227Y016956D03*
X026727Y016956D03*
X026727Y014536D03*
X027227Y014536D03*
X027727Y014536D03*
X028227Y014536D03*
D15*
X027476Y013371D03*
X026728Y013371D03*
X023101Y008496D03*
X022353Y008496D03*
X020976Y006871D03*
X020228Y006871D03*
X025603Y006371D03*
X026351Y006371D03*
X021601Y018121D03*
X020853Y018121D03*
D16*
X021950Y017520D03*
X022206Y017520D03*
X022462Y017520D03*
X022718Y017520D03*
X022974Y017520D03*
X023230Y017520D03*
X023486Y017520D03*
X023742Y017520D03*
X023998Y017520D03*
X024254Y017520D03*
X024254Y015223D03*
X023998Y015223D03*
X023742Y015223D03*
X023486Y015223D03*
X023230Y015223D03*
X022974Y015223D03*
X022718Y015223D03*
X022462Y015223D03*
X022206Y015223D03*
X021950Y015223D03*
D17*
X021352Y014745D03*
X021352Y013997D03*
X021227Y008745D03*
X021227Y007997D03*
X025352Y007747D03*
X025352Y008495D03*
D18*
X024376Y007746D03*
X024376Y007246D03*
X024376Y006746D03*
X024376Y006246D03*
X024376Y005746D03*
X024376Y005246D03*
X024376Y004746D03*
X022328Y004746D03*
X022328Y005246D03*
X022328Y005746D03*
X022328Y006246D03*
X022328Y006746D03*
X022328Y007246D03*
X022328Y007746D03*
D19*
X020352Y007997D03*
X020352Y008745D03*
X020977Y005995D03*
X020977Y005247D03*
X025727Y005495D03*
X026602Y005495D03*
X026602Y004747D03*
X025727Y004747D03*
D20*
X007477Y006177D03*
X007477Y008066D03*
D21*
X003547Y017746D03*
X001657Y017746D03*
D22*
X024877Y010121D03*
X026077Y010121D03*
M02*
