G75*
G70*
%OFA0B0*%
%FSLAX24Y24*%
%IPPOS*%
%LPD*%
%AMOC8*
5,1,8,0,0,1.08239X$1,22.5*
%
%ADD10C,0.0060*%
%ADD11C,0.0040*%
%ADD12C,0.0050*%
%ADD13R,0.0079X0.0079*%
%ADD14C,0.0000*%
%ADD15C,0.0020*%
%ADD16C,0.0160*%
%ADD17R,0.0160X0.0230*%
%ADD18C,0.0039*%
%ADD19R,0.0150X0.0400*%
%ADD20C,0.0030*%
%ADD21C,0.0100*%
%ADD22C,0.0080*%
D10*
X000989Y004401D02*
X000882Y004508D01*
X000989Y004401D02*
X001202Y004401D01*
X001309Y004508D01*
X001309Y004615D01*
X001202Y004722D01*
X000989Y004722D01*
X000882Y004828D01*
X000882Y004935D01*
X000989Y005042D01*
X001202Y005042D01*
X001309Y004935D01*
X001527Y005042D02*
X001527Y004401D01*
X001954Y004401D01*
X002171Y004401D02*
X002171Y005042D01*
X002491Y005042D01*
X002598Y004935D01*
X002598Y004722D01*
X002491Y004615D01*
X002171Y004615D01*
X002385Y004615D02*
X002598Y004401D01*
X002816Y004401D02*
X003029Y004401D01*
X002922Y004401D02*
X002922Y005042D01*
X002816Y005042D02*
X003029Y005042D01*
X003245Y004828D02*
X003459Y005042D01*
X003672Y004828D01*
X003672Y004401D01*
X003890Y004401D02*
X004317Y004401D01*
X003890Y004401D02*
X003890Y005042D01*
X003672Y004722D02*
X003245Y004722D01*
X003245Y004828D02*
X003245Y004401D01*
X001954Y005042D02*
X001527Y005042D01*
X001527Y004722D02*
X001740Y004722D01*
X001452Y005771D02*
X001252Y005771D01*
X001252Y005971D01*
X001252Y006771D02*
X001252Y006971D01*
X001452Y006971D01*
X002252Y006971D02*
X002452Y006971D01*
X002452Y006771D01*
X002452Y005971D02*
X002452Y005771D01*
X002252Y005771D01*
X002252Y007771D02*
X002452Y007771D01*
X002452Y007971D01*
X001452Y007771D02*
X001252Y007771D01*
X001252Y007971D01*
X001252Y008771D02*
X001252Y008971D01*
X001452Y008971D01*
X002252Y008971D02*
X002452Y008971D01*
X002452Y008771D01*
X002635Y010151D02*
X002848Y010365D01*
X002848Y010792D01*
X002421Y010792D02*
X002421Y010365D01*
X002635Y010151D01*
X002204Y010258D02*
X002204Y010472D01*
X002097Y010578D01*
X001990Y010578D01*
X001777Y010472D01*
X001777Y010792D01*
X002204Y010792D01*
X001559Y010472D02*
X001132Y010472D01*
X001345Y010685D02*
X001345Y010258D01*
X001777Y010258D02*
X001883Y010151D01*
X002097Y010151D01*
X002204Y010258D01*
X001827Y012321D02*
X000527Y012321D01*
X000527Y014921D01*
X001827Y014921D01*
X003127Y014921D01*
X003127Y014721D01*
X001827Y014721D01*
X001827Y014921D01*
X001727Y014421D02*
X001727Y013821D01*
X003227Y013821D01*
X003227Y014421D01*
X001727Y014421D01*
X003127Y014921D02*
X004427Y014921D01*
X004427Y012321D01*
X003127Y012321D01*
X001827Y012321D01*
X001827Y012521D01*
X003127Y012521D01*
X003127Y012321D01*
X003227Y012821D02*
X001727Y012821D01*
X001727Y013421D01*
X003227Y013421D01*
X003227Y012821D01*
X008747Y012506D02*
X008737Y012086D01*
X009267Y011986D01*
X009467Y011506D01*
X009167Y011076D01*
X009467Y010786D01*
X009877Y011086D01*
X010077Y010976D01*
X010357Y011716D01*
X010077Y012016D01*
X010087Y012536D01*
X010427Y012886D01*
X010897Y012896D01*
X011287Y012546D01*
X011297Y012036D01*
X010997Y011736D01*
X011307Y010976D01*
X011477Y011056D01*
X011887Y010786D01*
X012187Y011066D01*
X011907Y011496D01*
X012077Y011986D01*
X012597Y012076D01*
X012607Y012486D01*
X012087Y012586D01*
X011867Y013056D01*
X012177Y013496D01*
X011897Y013786D01*
X011447Y013496D01*
X010977Y013666D01*
X010887Y014216D01*
X010477Y014206D01*
X010367Y013666D01*
X009907Y013476D01*
X009477Y013776D01*
X009187Y013516D01*
X009477Y013076D01*
X009287Y012606D01*
X008747Y012506D01*
X008746Y012481D02*
X010086Y012481D01*
X010085Y012423D02*
X008745Y012423D01*
X008744Y012364D02*
X010084Y012364D01*
X010083Y012306D02*
X008742Y012306D01*
X008741Y012247D02*
X010081Y012247D01*
X010080Y012189D02*
X008739Y012189D01*
X008738Y012130D02*
X010079Y012130D01*
X010078Y012072D02*
X008816Y012072D01*
X009126Y012013D02*
X010080Y012013D01*
X010135Y011955D02*
X009280Y011955D01*
X009305Y011896D02*
X010189Y011896D01*
X010244Y011838D02*
X009329Y011838D01*
X009353Y011779D02*
X010299Y011779D01*
X010353Y011721D02*
X009378Y011721D01*
X009402Y011662D02*
X010336Y011662D01*
X010314Y011604D02*
X009427Y011604D01*
X009451Y011545D02*
X010292Y011545D01*
X010270Y011487D02*
X009453Y011487D01*
X009412Y011428D02*
X010248Y011428D01*
X010226Y011370D02*
X009371Y011370D01*
X009331Y011311D02*
X010204Y011311D01*
X010181Y011253D02*
X009290Y011253D01*
X009249Y011194D02*
X010159Y011194D01*
X010137Y011136D02*
X009208Y011136D01*
X009167Y011077D02*
X009864Y011077D01*
X009894Y011077D02*
X010115Y011077D01*
X010093Y011019D02*
X010001Y011019D01*
X009784Y011019D02*
X009227Y011019D01*
X009287Y010960D02*
X009704Y010960D01*
X009624Y010902D02*
X009348Y010902D01*
X009408Y010843D02*
X009544Y010843D01*
X011099Y011487D02*
X011913Y011487D01*
X011924Y011545D02*
X011075Y011545D01*
X011051Y011604D02*
X011944Y011604D01*
X011964Y011662D02*
X011027Y011662D01*
X011003Y011721D02*
X011985Y011721D01*
X012005Y011779D02*
X011040Y011779D01*
X011098Y011838D02*
X012025Y011838D01*
X012046Y011896D02*
X011157Y011896D01*
X011215Y011955D02*
X012066Y011955D01*
X012230Y012013D02*
X011274Y012013D01*
X011296Y012072D02*
X012568Y012072D01*
X012598Y012130D02*
X011295Y012130D01*
X011294Y012189D02*
X012600Y012189D01*
X012601Y012247D02*
X011293Y012247D01*
X011292Y012306D02*
X012603Y012306D01*
X012604Y012364D02*
X011291Y012364D01*
X011289Y012423D02*
X012605Y012423D01*
X012607Y012481D02*
X011288Y012481D01*
X011287Y012540D02*
X012331Y012540D01*
X012082Y012598D02*
X011230Y012598D01*
X011164Y012657D02*
X012054Y012657D01*
X012027Y012715D02*
X011099Y012715D01*
X011034Y012774D02*
X011999Y012774D01*
X011972Y012832D02*
X010969Y012832D01*
X010904Y012891D02*
X011945Y012891D01*
X011917Y012949D02*
X009425Y012949D01*
X009402Y012891D02*
X010617Y012891D01*
X010374Y012832D02*
X009378Y012832D01*
X009354Y012774D02*
X010317Y012774D01*
X010260Y012715D02*
X009331Y012715D01*
X009307Y012657D02*
X010204Y012657D01*
X010147Y012598D02*
X009241Y012598D01*
X008925Y012540D02*
X010090Y012540D01*
X009449Y013008D02*
X011890Y013008D01*
X011874Y013066D02*
X009473Y013066D01*
X009445Y013125D02*
X011915Y013125D01*
X011956Y013183D02*
X009407Y013183D01*
X009368Y013242D02*
X011997Y013242D01*
X012039Y013300D02*
X009330Y013300D01*
X009291Y013359D02*
X012080Y013359D01*
X012121Y013417D02*
X009253Y013417D01*
X009214Y013476D02*
X012162Y013476D01*
X012141Y013534D02*
X011505Y013534D01*
X011596Y013593D02*
X012084Y013593D01*
X012028Y013651D02*
X011687Y013651D01*
X011778Y013710D02*
X011971Y013710D01*
X011915Y013768D02*
X011868Y013768D01*
X011343Y013534D02*
X010046Y013534D01*
X010188Y013593D02*
X011181Y013593D01*
X011020Y013651D02*
X010330Y013651D01*
X010376Y013710D02*
X010970Y013710D01*
X010960Y013768D02*
X010388Y013768D01*
X010400Y013827D02*
X010951Y013827D01*
X010941Y013885D02*
X010411Y013885D01*
X010423Y013944D02*
X010932Y013944D01*
X010922Y014002D02*
X010435Y014002D01*
X010447Y014061D02*
X010912Y014061D01*
X010903Y014119D02*
X010459Y014119D01*
X010471Y014178D02*
X010893Y014178D01*
X009824Y013534D02*
X009207Y013534D01*
X009272Y013593D02*
X009741Y013593D01*
X009657Y013651D02*
X009337Y013651D01*
X009402Y013710D02*
X009573Y013710D01*
X009489Y013768D02*
X009468Y013768D01*
X011123Y011428D02*
X011952Y011428D01*
X011990Y011370D02*
X011147Y011370D01*
X011171Y011311D02*
X012028Y011311D01*
X012066Y011253D02*
X011194Y011253D01*
X011218Y011194D02*
X012104Y011194D01*
X012142Y011136D02*
X011242Y011136D01*
X011266Y011077D02*
X012180Y011077D01*
X012136Y011019D02*
X011535Y011019D01*
X011623Y010960D02*
X012073Y010960D01*
X012010Y010902D02*
X011712Y010902D01*
X011801Y010843D02*
X011948Y010843D01*
X011396Y011019D02*
X011290Y011019D01*
X014132Y011151D02*
X014132Y011852D01*
X014482Y011852D01*
X014599Y011735D01*
X014599Y011502D01*
X014482Y011385D01*
X014132Y011385D01*
X014366Y011385D02*
X014599Y011151D01*
X014832Y011268D02*
X014949Y011385D01*
X015299Y011385D01*
X015299Y011502D02*
X015182Y011619D01*
X014949Y011619D01*
X015299Y011502D02*
X015299Y011151D01*
X014949Y011151D01*
X014832Y011268D01*
X015532Y011151D02*
X015882Y011151D01*
X015999Y011268D01*
X015882Y011385D01*
X015648Y011385D01*
X015532Y011502D01*
X015648Y011619D01*
X015999Y011619D01*
X016231Y011619D02*
X016582Y011619D01*
X016698Y011502D01*
X016698Y011268D01*
X016582Y011151D01*
X016231Y011151D01*
X016231Y010918D02*
X016231Y011619D01*
X016931Y011619D02*
X017048Y011619D01*
X017048Y011151D01*
X016931Y011151D02*
X017165Y011151D01*
X017398Y011268D02*
X017514Y011151D01*
X017748Y011151D01*
X017865Y011268D01*
X017865Y011735D01*
X017748Y011852D01*
X017514Y011852D01*
X017398Y011735D01*
X017398Y011268D01*
X017048Y011852D02*
X017048Y011969D01*
X018097Y011619D02*
X018214Y011735D01*
X018214Y011969D01*
X018447Y011852D02*
X018681Y011619D01*
X018914Y011852D01*
X018914Y011151D01*
X019147Y011151D02*
X019381Y011151D01*
X019264Y011151D02*
X019264Y011619D01*
X019147Y011619D01*
X019264Y011852D02*
X019264Y011969D01*
X019614Y011619D02*
X020081Y011151D01*
X019614Y011151D02*
X020081Y011619D01*
X018447Y011852D02*
X018447Y011151D01*
X021856Y015473D02*
X021856Y017270D01*
X022132Y017901D02*
X022345Y017901D01*
X022239Y017901D02*
X022239Y018542D01*
X022345Y018542D02*
X022132Y018542D01*
X022562Y018435D02*
X022562Y018008D01*
X022668Y017901D01*
X022882Y017901D01*
X022989Y018008D01*
X022989Y018435D01*
X022882Y018542D01*
X022668Y018542D01*
X022562Y018435D01*
X023851Y018328D02*
X024064Y018542D01*
X024064Y017901D01*
X023851Y017901D02*
X024278Y017901D01*
X024348Y017270D02*
X024348Y015473D01*
X026477Y015126D02*
X026477Y016366D01*
X026479Y016389D01*
X026484Y016412D01*
X026493Y016434D01*
X026506Y016454D01*
X026521Y016472D01*
X026539Y016487D01*
X026559Y016500D01*
X026581Y016509D01*
X026604Y016514D01*
X026627Y016516D01*
X028327Y016516D01*
X028350Y016514D01*
X028373Y016509D01*
X028395Y016500D01*
X028415Y016487D01*
X028433Y016472D01*
X028448Y016454D01*
X028461Y016434D01*
X028470Y016412D01*
X028475Y016389D01*
X028477Y016366D01*
X028477Y015126D01*
X028475Y015103D01*
X028470Y015080D01*
X028461Y015058D01*
X028448Y015038D01*
X028433Y015020D01*
X028415Y015005D01*
X028395Y014992D01*
X028373Y014983D01*
X028350Y014978D01*
X028327Y014976D01*
X026627Y014976D01*
X026604Y014978D01*
X026581Y014983D01*
X026559Y014992D01*
X026539Y015005D01*
X026521Y015020D01*
X026506Y015038D01*
X026493Y015058D01*
X026484Y015080D01*
X026479Y015103D01*
X026477Y015126D01*
X028477Y015546D02*
X028450Y015548D01*
X028423Y015553D01*
X028397Y015563D01*
X028373Y015575D01*
X028351Y015591D01*
X028331Y015609D01*
X028314Y015631D01*
X028299Y015654D01*
X028289Y015679D01*
X028281Y015705D01*
X028277Y015732D01*
X028277Y015760D01*
X028281Y015787D01*
X028289Y015813D01*
X028299Y015838D01*
X028314Y015861D01*
X028331Y015883D01*
X028351Y015901D01*
X028373Y015917D01*
X028397Y015929D01*
X028423Y015939D01*
X028450Y015944D01*
X028477Y015946D01*
X029152Y015721D02*
X029352Y015721D01*
X029352Y015921D01*
X029352Y015721D02*
X029552Y015721D01*
X029552Y015571D02*
X029152Y015571D01*
X029152Y015421D01*
X029552Y015421D01*
X029552Y015571D01*
X029552Y015271D02*
X029352Y015271D01*
X029152Y015271D01*
X029352Y015271D02*
X029352Y015071D01*
X029752Y014421D02*
X029750Y014404D01*
X029746Y014387D01*
X029739Y014371D01*
X029729Y014357D01*
X029716Y014344D01*
X029702Y014334D01*
X029686Y014327D01*
X029669Y014323D01*
X029652Y014321D01*
X029052Y014321D01*
X029035Y014323D01*
X029018Y014327D01*
X029002Y014334D01*
X028988Y014344D01*
X028975Y014357D01*
X028965Y014371D01*
X028958Y014387D01*
X028954Y014404D01*
X028952Y014421D01*
X028952Y016571D01*
X029002Y016571D01*
X029702Y016571D01*
X029752Y016571D01*
X029752Y014421D01*
X029702Y016571D02*
X029702Y016721D01*
X029002Y016721D01*
X029002Y016571D01*
X027778Y017776D02*
X027351Y017776D01*
X027778Y018203D01*
X027778Y018310D01*
X027671Y018417D01*
X027458Y018417D01*
X027351Y018310D01*
X026489Y018310D02*
X026489Y017883D01*
X026382Y017776D01*
X026168Y017776D01*
X026062Y017883D01*
X026062Y018310D01*
X026168Y018417D01*
X026382Y018417D01*
X026489Y018310D01*
X025845Y018417D02*
X025632Y018417D01*
X025739Y018417D02*
X025739Y017776D01*
X025845Y017776D02*
X025632Y017776D01*
X028632Y017839D02*
X028845Y017839D01*
X028739Y017839D02*
X028739Y018480D01*
X028845Y018480D02*
X028632Y018480D01*
X029062Y018373D02*
X029062Y017946D01*
X029168Y017839D01*
X029382Y017839D01*
X029489Y017946D01*
X029489Y018373D01*
X029382Y018480D01*
X029168Y018480D01*
X029062Y018373D01*
X030351Y018373D02*
X030458Y018480D01*
X030671Y018480D01*
X030778Y018373D01*
X030778Y018266D01*
X030671Y018159D01*
X030778Y018052D01*
X030778Y017946D01*
X030671Y017839D01*
X030458Y017839D01*
X030351Y017946D01*
X030564Y018159D02*
X030671Y018159D01*
X022026Y015891D02*
X022028Y015917D01*
X022034Y015943D01*
X022043Y015967D01*
X022056Y015990D01*
X022072Y016011D01*
X022091Y016029D01*
X022112Y016045D01*
X022136Y016057D01*
X022160Y016065D01*
X022186Y016070D01*
X022213Y016071D01*
X022239Y016068D01*
X022264Y016061D01*
X022288Y016051D01*
X022311Y016037D01*
X022331Y016021D01*
X022348Y016001D01*
X022363Y015979D01*
X022374Y015955D01*
X022382Y015930D01*
X022386Y015904D01*
X022386Y015878D01*
X022382Y015852D01*
X022374Y015827D01*
X022363Y015803D01*
X022348Y015781D01*
X022331Y015761D01*
X022311Y015745D01*
X022288Y015731D01*
X022264Y015721D01*
X022239Y015714D01*
X022213Y015711D01*
X022186Y015712D01*
X022160Y015717D01*
X022136Y015725D01*
X022112Y015737D01*
X022091Y015753D01*
X022072Y015771D01*
X022056Y015792D01*
X022043Y015815D01*
X022034Y015839D01*
X022028Y015865D01*
X022026Y015891D01*
X018778Y017883D02*
X018671Y017776D01*
X018458Y017776D01*
X018351Y017883D01*
X018778Y018310D01*
X018778Y017883D01*
X018351Y017883D02*
X018351Y018310D01*
X018458Y018417D01*
X018671Y018417D01*
X018778Y018310D01*
X017489Y018310D02*
X017489Y017883D01*
X017382Y017776D01*
X017168Y017776D01*
X017062Y017883D01*
X017062Y018310D01*
X017168Y018417D01*
X017382Y018417D01*
X017489Y018310D01*
X016845Y018417D02*
X016632Y018417D01*
X016739Y018417D02*
X016739Y017776D01*
X016845Y017776D02*
X016632Y017776D01*
X013084Y005042D02*
X013084Y004401D01*
X013297Y004401D02*
X012870Y004401D01*
X012870Y004828D02*
X013084Y005042D01*
X012008Y004935D02*
X011901Y005042D01*
X011688Y005042D01*
X011581Y004935D01*
X011581Y004508D01*
X011688Y004401D01*
X011901Y004401D01*
X012008Y004508D01*
X011364Y004401D02*
X010937Y004401D01*
X011364Y004828D01*
X011364Y004935D01*
X011257Y005042D01*
X011043Y005042D01*
X010937Y004935D01*
X010720Y005042D02*
X010507Y005042D01*
X010614Y005042D02*
X010614Y004401D01*
X010720Y004401D02*
X010507Y004401D01*
X008797Y004508D02*
X008691Y004401D01*
X008477Y004401D01*
X008370Y004508D01*
X008797Y004935D01*
X008797Y004508D01*
X008370Y004508D02*
X008370Y004935D01*
X008477Y005042D01*
X008691Y005042D01*
X008797Y004935D01*
X007508Y004935D02*
X007401Y005042D01*
X007188Y005042D01*
X007081Y004935D01*
X007081Y004508D01*
X007188Y004401D01*
X007401Y004401D01*
X007508Y004508D01*
X006864Y004401D02*
X006437Y004401D01*
X006864Y004828D01*
X006864Y004935D01*
X006757Y005042D01*
X006543Y005042D01*
X006437Y004935D01*
X006220Y005042D02*
X006007Y005042D01*
X006114Y005042D02*
X006114Y004401D01*
X006220Y004401D02*
X006007Y004401D01*
D11*
X006867Y005842D02*
X006197Y006511D01*
X006197Y008401D01*
X007103Y008401D01*
X007851Y008401D02*
X008756Y008401D01*
X008756Y006511D01*
X008087Y005842D01*
X007851Y005842D01*
X007103Y005842D02*
X006867Y005842D01*
X007851Y005960D02*
X007915Y005982D01*
X007978Y006009D01*
X008040Y006039D01*
X008099Y006072D01*
X008157Y006108D01*
X008213Y006148D01*
X008266Y006191D01*
X008317Y006236D01*
X008365Y006284D01*
X008410Y006335D01*
X008453Y006389D01*
X008492Y006445D01*
X008529Y006502D01*
X008562Y006562D01*
X008591Y006624D01*
X008617Y006687D01*
X008640Y006751D01*
X008659Y006817D01*
X008674Y006884D01*
X008685Y006951D01*
X008693Y007019D01*
X008697Y007087D01*
X008697Y007155D01*
X008693Y007223D01*
X008685Y007291D01*
X008674Y007358D01*
X008659Y007425D01*
X008640Y007491D01*
X008617Y007555D01*
X008591Y007618D01*
X008562Y007680D01*
X008529Y007740D01*
X008492Y007797D01*
X008453Y007853D01*
X008410Y007907D01*
X008365Y007958D01*
X008317Y008006D01*
X008266Y008051D01*
X008213Y008094D01*
X008157Y008134D01*
X008099Y008170D01*
X008040Y008203D01*
X007978Y008233D01*
X007915Y008260D01*
X007851Y008282D01*
X007103Y008282D02*
X007039Y008260D01*
X006976Y008233D01*
X006914Y008203D01*
X006855Y008170D01*
X006797Y008134D01*
X006741Y008094D01*
X006688Y008051D01*
X006637Y008006D01*
X006589Y007958D01*
X006544Y007907D01*
X006501Y007853D01*
X006462Y007797D01*
X006425Y007740D01*
X006392Y007680D01*
X006363Y007618D01*
X006337Y007555D01*
X006314Y007491D01*
X006295Y007425D01*
X006280Y007358D01*
X006269Y007291D01*
X006261Y007223D01*
X006257Y007155D01*
X006257Y007087D01*
X006261Y007019D01*
X006269Y006951D01*
X006280Y006884D01*
X006295Y006817D01*
X006314Y006751D01*
X006337Y006687D01*
X006363Y006624D01*
X006392Y006562D01*
X006425Y006502D01*
X006462Y006445D01*
X006501Y006389D01*
X006544Y006335D01*
X006589Y006284D01*
X006637Y006236D01*
X006688Y006191D01*
X006741Y006148D01*
X006797Y006108D01*
X006855Y006072D01*
X006914Y006039D01*
X006976Y006009D01*
X007039Y005982D01*
X007103Y005960D01*
X008959Y009891D02*
X009132Y009891D01*
X009219Y009978D01*
X009388Y009978D02*
X009474Y009891D01*
X009648Y009891D01*
X009735Y009978D01*
X009903Y010152D02*
X010250Y010152D01*
X010419Y010152D02*
X010679Y010152D01*
X010766Y010065D01*
X010766Y009978D01*
X010679Y009891D01*
X010419Y009891D01*
X010419Y010412D01*
X010679Y010412D01*
X010766Y010325D01*
X010766Y010238D01*
X010679Y010152D01*
X010935Y010325D02*
X011108Y010152D01*
X011108Y009891D01*
X011108Y010152D02*
X011281Y010325D01*
X011281Y010412D01*
X011450Y010152D02*
X011797Y010152D01*
X011966Y010238D02*
X011966Y010325D01*
X012053Y010412D01*
X012226Y010412D01*
X012313Y010325D01*
X012481Y010238D02*
X012655Y010412D01*
X012828Y010238D01*
X012828Y009891D01*
X012828Y010152D02*
X012481Y010152D01*
X012481Y010238D02*
X012481Y009891D01*
X012313Y009978D02*
X012226Y009891D01*
X012053Y009891D01*
X011966Y009978D01*
X012053Y010152D02*
X012226Y010152D01*
X012313Y010065D01*
X012313Y009978D01*
X012053Y010152D02*
X011966Y010238D01*
X010935Y010325D02*
X010935Y010412D01*
X009735Y010325D02*
X009648Y010412D01*
X009474Y010412D01*
X009388Y010325D01*
X009388Y009978D01*
X008959Y009891D02*
X008872Y009978D01*
X008872Y010325D01*
X008959Y010412D01*
X009132Y010412D01*
X009219Y010325D01*
X005719Y012141D02*
X005412Y012141D01*
X005719Y012448D01*
X005719Y012525D01*
X005642Y012602D01*
X005488Y012602D01*
X005412Y012525D01*
X005258Y012525D02*
X005181Y012602D01*
X004951Y012602D01*
X004951Y012141D01*
X004951Y012295D02*
X005181Y012295D01*
X005258Y012372D01*
X005258Y012525D01*
X005105Y012295D02*
X005258Y012141D01*
X003282Y011641D02*
X002975Y011641D01*
X003128Y011641D02*
X003128Y012102D01*
X002975Y011948D01*
X002821Y011872D02*
X002821Y012025D01*
X002744Y012102D01*
X002514Y012102D01*
X002514Y011641D01*
X002361Y011641D02*
X002207Y011641D01*
X002284Y011641D02*
X002284Y012102D01*
X002207Y012102D02*
X002361Y012102D01*
X002054Y012025D02*
X001977Y012102D01*
X001747Y012102D01*
X001747Y011641D01*
X001977Y011641D01*
X002054Y011718D01*
X002054Y012025D01*
X002514Y011795D02*
X002744Y011795D01*
X002821Y011872D01*
X004951Y014641D02*
X004951Y015102D01*
X005181Y015102D01*
X005258Y015025D01*
X005258Y014872D01*
X005181Y014795D01*
X004951Y014795D01*
X005105Y014795D02*
X005258Y014641D01*
X005412Y014641D02*
X005719Y014641D01*
X005565Y014641D02*
X005565Y015102D01*
X005412Y014948D01*
X007070Y016141D02*
X007070Y016602D01*
X007300Y016602D01*
X007377Y016525D01*
X007377Y016372D01*
X007300Y016295D01*
X007070Y016295D01*
X007530Y016218D02*
X007607Y016141D01*
X007761Y016141D01*
X007837Y016218D01*
X007837Y016525D01*
X007761Y016602D01*
X007607Y016602D01*
X007530Y016525D01*
X007530Y016218D01*
X007991Y016141D02*
X008144Y016295D01*
X008298Y016141D01*
X008298Y016602D01*
X008451Y016602D02*
X008451Y016141D01*
X008758Y016141D01*
X008912Y016141D02*
X008912Y016602D01*
X009142Y016602D01*
X009218Y016525D01*
X009218Y016372D01*
X009142Y016295D01*
X008912Y016295D01*
X009065Y016295D02*
X009218Y016141D01*
X008758Y016602D02*
X008451Y016602D01*
X008451Y016372D02*
X008605Y016372D01*
X007991Y016602D02*
X007991Y016141D01*
X010491Y015852D02*
X010491Y015391D01*
X010491Y015545D02*
X010721Y015545D01*
X010798Y015622D01*
X010798Y015775D01*
X010721Y015852D01*
X010491Y015852D01*
X010951Y015698D02*
X011105Y015852D01*
X011105Y015391D01*
X011258Y015391D02*
X010951Y015391D01*
X010798Y015391D02*
X010644Y015545D01*
X011412Y015622D02*
X011719Y015622D01*
X011642Y015852D02*
X011642Y015391D01*
X011412Y015622D02*
X011642Y015852D01*
X018474Y010738D02*
X018647Y010912D01*
X018647Y010391D01*
X018474Y010391D02*
X018821Y010391D01*
X018989Y010391D02*
X019076Y010391D01*
X019076Y010478D01*
X018989Y010478D01*
X018989Y010391D01*
X019247Y010478D02*
X019594Y010825D01*
X019594Y010478D01*
X019507Y010391D01*
X019334Y010391D01*
X019247Y010478D01*
X019247Y010825D01*
X019334Y010912D01*
X019507Y010912D01*
X019594Y010825D01*
X020021Y010738D02*
X020194Y010912D01*
X020194Y010391D01*
X020021Y010391D02*
X020367Y010391D01*
X019849Y010391D02*
X019763Y010391D01*
X019763Y010478D01*
X019849Y010478D01*
X019849Y010391D01*
X019727Y009602D02*
X019497Y009602D01*
X019497Y009141D01*
X019497Y009295D02*
X019727Y009295D01*
X019804Y009372D01*
X019804Y009525D01*
X019727Y009602D01*
X019957Y009525D02*
X020034Y009602D01*
X020188Y009602D01*
X020264Y009525D01*
X020264Y009448D01*
X019957Y009141D01*
X020264Y009141D01*
X020418Y009141D02*
X020725Y009141D01*
X020571Y009141D02*
X020571Y009602D01*
X020418Y009448D01*
X020951Y009525D02*
X020951Y009218D01*
X021028Y009141D01*
X021181Y009141D01*
X021258Y009218D01*
X021412Y009141D02*
X021719Y009141D01*
X021565Y009141D02*
X021565Y009602D01*
X021412Y009448D01*
X021258Y009525D02*
X021181Y009602D01*
X021028Y009602D01*
X020951Y009525D01*
X021997Y009400D02*
X021997Y009093D01*
X022074Y009016D01*
X022227Y009016D01*
X022304Y009093D01*
X022457Y009016D02*
X022764Y009323D01*
X022764Y009400D01*
X022688Y009477D01*
X022534Y009477D01*
X022457Y009400D01*
X022304Y009400D02*
X022227Y009477D01*
X022074Y009477D01*
X021997Y009400D01*
X022457Y009016D02*
X022764Y009016D01*
X022918Y009093D02*
X022918Y009170D01*
X022994Y009247D01*
X023148Y009247D01*
X023225Y009170D01*
X023225Y009093D01*
X023148Y009016D01*
X022994Y009016D01*
X022918Y009093D01*
X022994Y009247D02*
X022918Y009323D01*
X022918Y009400D01*
X022994Y009477D01*
X023148Y009477D01*
X023225Y009400D01*
X023225Y009323D01*
X023148Y009247D01*
X023622Y008652D02*
X023775Y008652D01*
X023699Y008652D02*
X023699Y008191D01*
X023775Y008191D02*
X023622Y008191D01*
X023929Y008268D02*
X024006Y008191D01*
X024159Y008191D01*
X024236Y008268D01*
X024389Y008191D02*
X024696Y008191D01*
X024543Y008191D02*
X024543Y008652D01*
X024389Y008498D01*
X024236Y008575D02*
X024159Y008652D01*
X024006Y008652D01*
X023929Y008575D01*
X023929Y008268D01*
X024826Y009093D02*
X024903Y009016D01*
X025056Y009016D01*
X025133Y009093D01*
X025287Y009093D02*
X025363Y009016D01*
X025517Y009016D01*
X025594Y009093D01*
X025594Y009247D01*
X025517Y009323D01*
X025440Y009323D01*
X025287Y009247D01*
X025287Y009477D01*
X025594Y009477D01*
X025866Y009414D02*
X026096Y009414D01*
X026173Y009338D01*
X026173Y009184D01*
X026096Y009107D01*
X025866Y009107D01*
X025866Y008954D02*
X025866Y009414D01*
X026019Y009107D02*
X026173Y008954D01*
X026326Y008954D02*
X026633Y009261D01*
X026633Y009338D01*
X026556Y009414D01*
X026403Y009414D01*
X026326Y009338D01*
X026326Y008954D02*
X026633Y008954D01*
X026787Y008954D02*
X026787Y009031D01*
X027094Y009338D01*
X027094Y009414D01*
X026787Y009414D01*
X025133Y009400D02*
X025056Y009477D01*
X024903Y009477D01*
X024826Y009400D01*
X024826Y009093D01*
X025296Y010762D02*
X025449Y010762D01*
X025526Y010838D01*
X025679Y010838D02*
X025679Y010992D01*
X025909Y010992D01*
X025986Y010915D01*
X025986Y010838D01*
X025909Y010762D01*
X025756Y010762D01*
X025679Y010838D01*
X025679Y010992D02*
X025833Y011145D01*
X025986Y011222D01*
X025526Y011145D02*
X025449Y011222D01*
X025296Y011222D01*
X025219Y011145D01*
X025219Y010838D01*
X025296Y010762D01*
X026403Y012391D02*
X026556Y012391D01*
X026633Y012468D01*
X026787Y012468D02*
X026787Y012391D01*
X026787Y012468D02*
X027094Y012775D01*
X027094Y012852D01*
X026787Y012852D01*
X026633Y012775D02*
X026556Y012852D01*
X026403Y012852D01*
X026326Y012775D01*
X026326Y012468D01*
X026403Y012391D01*
X025975Y012718D02*
X025975Y013025D01*
X025898Y013102D01*
X025744Y013102D01*
X025668Y013025D01*
X025668Y012948D01*
X025744Y012872D01*
X025975Y012872D01*
X025975Y012718D02*
X025898Y012641D01*
X025744Y012641D01*
X025668Y012718D01*
X025514Y012641D02*
X025207Y012641D01*
X025054Y012641D02*
X024900Y012795D01*
X024977Y012795D02*
X024747Y012795D01*
X024747Y012641D02*
X024747Y013102D01*
X024977Y013102D01*
X025054Y013025D01*
X025054Y012872D01*
X024977Y012795D01*
X025207Y012948D02*
X025361Y013102D01*
X025361Y012641D01*
X021725Y013093D02*
X021648Y013016D01*
X021494Y013016D01*
X021418Y013093D01*
X021725Y013400D01*
X021725Y013093D01*
X021725Y013400D02*
X021648Y013477D01*
X021494Y013477D01*
X021418Y013400D01*
X021418Y013093D01*
X021264Y013093D02*
X021188Y013016D01*
X021034Y013016D01*
X020957Y013093D01*
X020804Y013093D02*
X020727Y013016D01*
X020574Y013016D01*
X020497Y013093D01*
X020497Y013400D01*
X020574Y013477D01*
X020727Y013477D01*
X020804Y013400D01*
X020957Y013400D02*
X021034Y013477D01*
X021188Y013477D01*
X021264Y013400D01*
X021264Y013323D01*
X021188Y013247D01*
X021264Y013170D01*
X021264Y013093D01*
X021188Y013247D02*
X021111Y013247D01*
X017789Y010738D02*
X017616Y010391D01*
X017442Y010738D01*
X017274Y010652D02*
X017274Y010565D01*
X016927Y010565D01*
X016927Y010652D02*
X017013Y010738D01*
X017187Y010738D01*
X017274Y010652D01*
X017187Y010391D02*
X017013Y010391D01*
X016927Y010478D01*
X016927Y010652D01*
X016757Y010738D02*
X016670Y010738D01*
X016497Y010565D01*
X016497Y010738D02*
X016497Y010391D01*
X018497Y008977D02*
X018727Y008977D01*
X018804Y008900D01*
X018804Y008747D01*
X018727Y008670D01*
X018497Y008670D01*
X018650Y008670D02*
X018804Y008516D01*
X018957Y008516D02*
X019264Y008823D01*
X019264Y008900D01*
X019188Y008977D01*
X019034Y008977D01*
X018957Y008900D01*
X018957Y008516D02*
X019264Y008516D01*
X019418Y008593D02*
X019725Y008900D01*
X019725Y008593D01*
X019648Y008516D01*
X019494Y008516D01*
X019418Y008593D01*
X019418Y008900D01*
X019494Y008977D01*
X019648Y008977D01*
X019725Y008900D01*
X019804Y009141D02*
X019650Y009295D01*
X018497Y008977D02*
X018497Y008516D01*
X018903Y007102D02*
X018826Y007025D01*
X018826Y006718D01*
X018903Y006641D01*
X019056Y006641D01*
X019133Y006718D01*
X019287Y006718D02*
X019363Y006641D01*
X019517Y006641D01*
X019594Y006718D01*
X019594Y006795D01*
X019517Y006872D01*
X019440Y006872D01*
X019517Y006872D02*
X019594Y006948D01*
X019594Y007025D01*
X019517Y007102D01*
X019363Y007102D01*
X019287Y007025D01*
X019133Y007025D02*
X019056Y007102D01*
X018903Y007102D01*
X018773Y006227D02*
X018850Y006150D01*
X018850Y006073D01*
X018773Y005997D01*
X018850Y005920D01*
X018850Y005843D01*
X018773Y005766D01*
X018619Y005766D01*
X018543Y005843D01*
X018389Y005766D02*
X018082Y005766D01*
X018389Y006073D01*
X018389Y006150D01*
X018313Y006227D01*
X018159Y006227D01*
X018082Y006150D01*
X017929Y006150D02*
X017929Y005997D01*
X017852Y005920D01*
X017622Y005920D01*
X017775Y005920D02*
X017929Y005766D01*
X017622Y005766D02*
X017622Y006227D01*
X017852Y006227D01*
X017929Y006150D01*
X018543Y006150D02*
X018619Y006227D01*
X018773Y006227D01*
X018773Y005997D02*
X018696Y005997D01*
X017310Y004713D02*
X017003Y004406D01*
X017080Y004329D01*
X017233Y004329D01*
X017310Y004406D01*
X017310Y004713D01*
X017233Y004789D01*
X017080Y004789D01*
X017003Y004713D01*
X017003Y004406D01*
X016389Y004329D02*
X016389Y004789D01*
X016082Y004789D02*
X016389Y004329D01*
X016082Y004329D02*
X016082Y004789D01*
X015929Y004636D02*
X015929Y004329D01*
X015929Y004559D02*
X015622Y004559D01*
X015622Y004636D02*
X015622Y004329D01*
X015622Y004636D02*
X015775Y004789D01*
X015929Y004636D01*
X020122Y004636D02*
X020122Y004329D01*
X020122Y004559D02*
X020429Y004559D01*
X020429Y004636D02*
X020429Y004329D01*
X020582Y004329D02*
X020582Y004789D01*
X020889Y004329D01*
X020889Y004789D01*
X020429Y004636D02*
X020275Y004789D01*
X020122Y004636D01*
X021503Y004636D02*
X021657Y004789D01*
X021657Y004329D01*
X021810Y004329D02*
X021503Y004329D01*
X026872Y006218D02*
X026949Y006141D01*
X027102Y006141D01*
X027179Y006218D01*
X027332Y006372D02*
X027639Y006372D01*
X027563Y006602D02*
X027563Y006141D01*
X027332Y006372D02*
X027563Y006602D01*
X027179Y006525D02*
X027102Y006602D01*
X026949Y006602D01*
X026872Y006525D01*
X026872Y006218D01*
X027428Y007266D02*
X027428Y007727D01*
X027658Y007727D01*
X027735Y007650D01*
X027735Y007497D01*
X027658Y007420D01*
X027428Y007420D01*
X027582Y007420D02*
X027735Y007266D01*
X027889Y007266D02*
X028196Y007573D01*
X028196Y007650D01*
X028119Y007727D01*
X027965Y007727D01*
X027889Y007650D01*
X027889Y007266D02*
X028196Y007266D01*
X028349Y007343D02*
X028426Y007266D01*
X028579Y007266D01*
X028656Y007343D01*
X028656Y007420D01*
X028579Y007497D01*
X028349Y007497D01*
X028349Y007343D01*
X028349Y007497D02*
X028503Y007650D01*
X028656Y007727D01*
X028671Y004789D02*
X028517Y004789D01*
X028441Y004713D01*
X028671Y004789D02*
X028748Y004713D01*
X028748Y004636D01*
X028441Y004329D01*
X028748Y004329D01*
X027827Y004329D02*
X027827Y004789D01*
X027520Y004789D02*
X027827Y004329D01*
X027520Y004329D02*
X027520Y004789D01*
X027366Y004636D02*
X027366Y004329D01*
X027366Y004559D02*
X027059Y004559D01*
X027059Y004636D02*
X027059Y004329D01*
X027059Y004636D02*
X027213Y004789D01*
X027366Y004636D01*
X031622Y004636D02*
X031622Y004329D01*
X031622Y004559D02*
X031929Y004559D01*
X031929Y004636D02*
X031929Y004329D01*
X032082Y004329D02*
X032082Y004789D01*
X032389Y004329D01*
X032389Y004789D01*
X031929Y004636D02*
X031775Y004789D01*
X031622Y004636D01*
X033003Y004713D02*
X033080Y004789D01*
X033233Y004789D01*
X033310Y004713D01*
X033310Y004636D01*
X033233Y004559D01*
X033310Y004482D01*
X033310Y004406D01*
X033233Y004329D01*
X033080Y004329D01*
X033003Y004406D01*
X033157Y004559D02*
X033233Y004559D01*
X021594Y017141D02*
X021287Y017141D01*
X021440Y017141D02*
X021440Y017602D01*
X021287Y017448D01*
X021133Y017448D02*
X021056Y017372D01*
X021133Y017295D01*
X021133Y017218D01*
X021056Y017141D01*
X020903Y017141D01*
X020826Y017218D01*
X020673Y017218D02*
X020596Y017141D01*
X020443Y017141D01*
X020366Y017218D01*
X020366Y017525D01*
X020443Y017602D01*
X020596Y017602D01*
X020673Y017525D01*
X020826Y017525D02*
X020903Y017602D01*
X021056Y017602D01*
X021133Y017525D01*
X021133Y017448D01*
X021056Y017372D02*
X020980Y017372D01*
X003881Y017372D02*
X003881Y016467D01*
X001992Y016467D01*
X001322Y017136D01*
X001322Y017372D01*
X001322Y018120D02*
X001322Y018357D01*
X001992Y019026D01*
X003881Y019026D01*
X003881Y018120D01*
X003763Y018120D02*
X003741Y018184D01*
X003714Y018247D01*
X003684Y018309D01*
X003651Y018368D01*
X003615Y018426D01*
X003575Y018482D01*
X003532Y018535D01*
X003487Y018586D01*
X003439Y018634D01*
X003388Y018679D01*
X003334Y018722D01*
X003278Y018761D01*
X003221Y018798D01*
X003161Y018831D01*
X003099Y018860D01*
X003036Y018886D01*
X002972Y018909D01*
X002906Y018928D01*
X002839Y018943D01*
X002772Y018954D01*
X002704Y018962D01*
X002636Y018966D01*
X002568Y018966D01*
X002500Y018962D01*
X002432Y018954D01*
X002365Y018943D01*
X002298Y018928D01*
X002232Y018909D01*
X002168Y018886D01*
X002105Y018860D01*
X002043Y018831D01*
X001983Y018798D01*
X001926Y018761D01*
X001870Y018722D01*
X001816Y018679D01*
X001765Y018634D01*
X001717Y018586D01*
X001672Y018535D01*
X001629Y018482D01*
X001589Y018426D01*
X001553Y018368D01*
X001520Y018309D01*
X001490Y018247D01*
X001463Y018184D01*
X001441Y018120D01*
X001441Y017372D02*
X001463Y017308D01*
X001490Y017245D01*
X001520Y017183D01*
X001553Y017124D01*
X001589Y017066D01*
X001629Y017010D01*
X001672Y016957D01*
X001717Y016906D01*
X001765Y016858D01*
X001816Y016813D01*
X001870Y016770D01*
X001926Y016731D01*
X001983Y016694D01*
X002043Y016661D01*
X002105Y016632D01*
X002168Y016606D01*
X002232Y016583D01*
X002298Y016564D01*
X002365Y016549D01*
X002432Y016538D01*
X002500Y016530D01*
X002568Y016526D01*
X002636Y016526D01*
X002704Y016530D01*
X002772Y016538D01*
X002839Y016549D01*
X002906Y016564D01*
X002972Y016583D01*
X003036Y016606D01*
X003099Y016632D01*
X003161Y016661D01*
X003221Y016694D01*
X003278Y016731D01*
X003334Y016770D01*
X003388Y016813D01*
X003439Y016858D01*
X003487Y016906D01*
X003532Y016957D01*
X003575Y017010D01*
X003615Y017066D01*
X003651Y017124D01*
X003684Y017183D01*
X003714Y017245D01*
X003741Y017308D01*
X003763Y017372D01*
X003205Y015602D02*
X003282Y015525D01*
X002975Y015218D01*
X003051Y015141D01*
X003205Y015141D01*
X003282Y015218D01*
X003282Y015525D01*
X003205Y015602D02*
X003051Y015602D01*
X002975Y015525D01*
X002975Y015218D01*
X002821Y015372D02*
X002744Y015295D01*
X002514Y015295D01*
X002514Y015141D02*
X002514Y015602D01*
X002744Y015602D01*
X002821Y015525D01*
X002821Y015372D01*
X002361Y015602D02*
X002207Y015602D01*
X002284Y015602D02*
X002284Y015141D01*
X002207Y015141D02*
X002361Y015141D01*
X002054Y015218D02*
X002054Y015525D01*
X001977Y015602D01*
X001747Y015602D01*
X001747Y015141D01*
X001977Y015141D01*
X002054Y015218D01*
D12*
X000157Y022448D02*
X000157Y000401D01*
X033622Y000401D01*
X033622Y022448D01*
X000157Y022448D01*
X000551Y021858D02*
X000551Y019889D01*
X013622Y019889D01*
X013622Y021858D01*
X000551Y021858D01*
X000738Y020736D02*
X000738Y020007D01*
X001466Y020007D01*
X001466Y020736D02*
X000738Y020736D01*
X001014Y019363D02*
X000863Y019212D01*
X001014Y019363D02*
X001014Y018912D01*
X001164Y018912D02*
X000863Y018912D01*
X015633Y018978D02*
X015633Y019765D01*
X020133Y019765D02*
X020133Y018978D01*
X001466Y020007D02*
X001466Y020735D01*
X020594Y016451D02*
X020744Y016451D01*
X020669Y016451D02*
X020669Y016001D01*
X020594Y016001D02*
X020744Y016001D01*
X020901Y016076D02*
X020976Y016001D01*
X021126Y016001D01*
X021201Y016076D01*
X021362Y016076D02*
X021437Y016001D01*
X021587Y016001D01*
X021662Y016076D01*
X021662Y016151D01*
X021587Y016226D01*
X021512Y016226D01*
X021587Y016226D02*
X021662Y016301D01*
X021662Y016376D01*
X021587Y016451D01*
X021437Y016451D01*
X021362Y016376D01*
X021201Y016376D02*
X021126Y016451D01*
X020976Y016451D01*
X020901Y016376D01*
X020901Y016076D01*
X024633Y018978D02*
X024633Y019765D01*
X029133Y019765D02*
X029133Y018978D01*
X026320Y016172D02*
X026244Y016247D01*
X026094Y016247D01*
X026019Y016172D01*
X025859Y016172D02*
X025784Y016247D01*
X025634Y016247D01*
X025559Y016172D01*
X025559Y015872D01*
X025634Y015796D01*
X025784Y015796D01*
X025859Y015872D01*
X026019Y015796D02*
X026320Y016097D01*
X026320Y016172D01*
X026320Y015796D02*
X026019Y015796D01*
X025402Y015796D02*
X025252Y015796D01*
X025327Y015796D02*
X025327Y016247D01*
X025252Y016247D02*
X025402Y016247D01*
X029927Y015822D02*
X029927Y015522D01*
X030002Y015446D01*
X030152Y015446D01*
X030227Y015522D01*
X030227Y015822D01*
X030152Y015897D01*
X030002Y015897D01*
X029927Y015822D01*
X030077Y015597D02*
X030227Y015446D01*
X030387Y015522D02*
X030387Y015672D01*
X030613Y015672D01*
X030688Y015597D01*
X030688Y015522D01*
X030613Y015446D01*
X030462Y015446D01*
X030387Y015522D01*
X030387Y015672D02*
X030537Y015822D01*
X030688Y015897D01*
X031123Y013720D02*
X029831Y013720D01*
X029831Y013369D01*
X029031Y013369D01*
X027855Y012253D01*
X027855Y009180D01*
X028971Y008124D01*
X029871Y008124D01*
X029871Y007772D01*
X031123Y007772D01*
X031123Y008124D01*
X032696Y008124D01*
X032696Y008846D01*
X031811Y009589D01*
X031811Y011946D01*
X032696Y012846D01*
X032696Y013369D01*
X031123Y013369D01*
X031123Y013720D01*
X032707Y012494D02*
X032809Y012596D01*
X033216Y012189D01*
X033317Y012290D01*
X033317Y012494D01*
X033216Y012596D01*
X032809Y012596D01*
X032707Y012494D02*
X032707Y012290D01*
X032809Y012189D01*
X033216Y012189D01*
X033317Y011988D02*
X033317Y011581D01*
X032910Y011988D01*
X032809Y011988D01*
X032707Y011886D01*
X032707Y011683D01*
X032809Y011581D01*
X032809Y011380D02*
X032707Y011279D01*
X032707Y011075D01*
X032809Y010973D01*
X032707Y010569D02*
X033317Y010569D01*
X033317Y010366D02*
X033317Y010773D01*
X033317Y010973D02*
X032910Y011380D01*
X032809Y011380D01*
X033317Y011380D02*
X033317Y010973D01*
X032910Y010366D02*
X032707Y010569D01*
X032809Y010165D02*
X032707Y010063D01*
X032707Y009758D01*
X033317Y009758D01*
X033114Y009758D02*
X033114Y010063D01*
X033012Y010165D01*
X032809Y010165D01*
X033114Y009961D02*
X033317Y010165D01*
X033216Y009557D02*
X033317Y009455D01*
X033317Y009252D01*
X033216Y009150D01*
X032809Y009150D01*
X032707Y009252D01*
X032707Y009455D01*
X032809Y009557D01*
X029602Y006371D02*
X028977Y006371D01*
X028977Y005371D01*
X028414Y005371D01*
X028414Y005684D01*
X027039Y005309D01*
X028414Y005684D02*
X028414Y006371D01*
X028977Y006371D01*
X029602Y006371D02*
X029602Y005371D01*
X028977Y005371D01*
X028570Y003890D02*
X028570Y003103D01*
X024070Y003103D02*
X024070Y003890D01*
X019570Y003890D02*
X019570Y003103D01*
X013570Y003103D02*
X013570Y003890D01*
X009070Y003890D02*
X009070Y003103D01*
X004570Y003103D02*
X004570Y003890D01*
X033070Y003890D02*
X033070Y003103D01*
D13*
X008063Y015621D03*
D14*
X009573Y007496D02*
X009575Y007544D01*
X009581Y007592D01*
X009591Y007639D01*
X009604Y007685D01*
X009622Y007730D01*
X009642Y007774D01*
X009667Y007816D01*
X009695Y007855D01*
X009725Y007892D01*
X009759Y007926D01*
X009796Y007958D01*
X009834Y007987D01*
X009875Y008012D01*
X009918Y008034D01*
X009963Y008052D01*
X010009Y008066D01*
X010056Y008077D01*
X010104Y008084D01*
X010152Y008087D01*
X010200Y008086D01*
X010248Y008081D01*
X010296Y008072D01*
X010342Y008060D01*
X010387Y008043D01*
X010431Y008023D01*
X010473Y008000D01*
X010513Y007973D01*
X010551Y007943D01*
X010586Y007910D01*
X010618Y007874D01*
X010648Y007836D01*
X010674Y007795D01*
X010696Y007752D01*
X010716Y007708D01*
X010731Y007663D01*
X010743Y007616D01*
X010751Y007568D01*
X010755Y007520D01*
X010755Y007472D01*
X010751Y007424D01*
X010743Y007376D01*
X010731Y007329D01*
X010716Y007284D01*
X010696Y007240D01*
X010674Y007197D01*
X010648Y007156D01*
X010618Y007118D01*
X010586Y007082D01*
X010551Y007049D01*
X010513Y007019D01*
X010473Y006992D01*
X010431Y006969D01*
X010387Y006949D01*
X010342Y006932D01*
X010296Y006920D01*
X010248Y006911D01*
X010200Y006906D01*
X010152Y006905D01*
X010104Y006908D01*
X010056Y006915D01*
X010009Y006926D01*
X009963Y006940D01*
X009918Y006958D01*
X009875Y006980D01*
X009834Y007005D01*
X009796Y007034D01*
X009759Y007066D01*
X009725Y007100D01*
X009695Y007137D01*
X009667Y007176D01*
X009642Y007218D01*
X009622Y007262D01*
X009604Y007307D01*
X009591Y007353D01*
X009581Y007400D01*
X009575Y007448D01*
X009573Y007496D01*
X031136Y017496D02*
X031138Y017544D01*
X031144Y017592D01*
X031154Y017639D01*
X031167Y017685D01*
X031185Y017730D01*
X031205Y017774D01*
X031230Y017816D01*
X031258Y017855D01*
X031288Y017892D01*
X031322Y017926D01*
X031359Y017958D01*
X031397Y017987D01*
X031438Y018012D01*
X031481Y018034D01*
X031526Y018052D01*
X031572Y018066D01*
X031619Y018077D01*
X031667Y018084D01*
X031715Y018087D01*
X031763Y018086D01*
X031811Y018081D01*
X031859Y018072D01*
X031905Y018060D01*
X031950Y018043D01*
X031994Y018023D01*
X032036Y018000D01*
X032076Y017973D01*
X032114Y017943D01*
X032149Y017910D01*
X032181Y017874D01*
X032211Y017836D01*
X032237Y017795D01*
X032259Y017752D01*
X032279Y017708D01*
X032294Y017663D01*
X032306Y017616D01*
X032314Y017568D01*
X032318Y017520D01*
X032318Y017472D01*
X032314Y017424D01*
X032306Y017376D01*
X032294Y017329D01*
X032279Y017284D01*
X032259Y017240D01*
X032237Y017197D01*
X032211Y017156D01*
X032181Y017118D01*
X032149Y017082D01*
X032114Y017049D01*
X032076Y017019D01*
X032036Y016992D01*
X031994Y016969D01*
X031950Y016949D01*
X031905Y016932D01*
X031859Y016920D01*
X031811Y016911D01*
X031763Y016906D01*
X031715Y016905D01*
X031667Y016908D01*
X031619Y016915D01*
X031572Y016926D01*
X031526Y016940D01*
X031481Y016958D01*
X031438Y016980D01*
X031397Y017005D01*
X031359Y017034D01*
X031322Y017066D01*
X031288Y017100D01*
X031258Y017137D01*
X031230Y017176D01*
X031205Y017218D01*
X031185Y017262D01*
X031167Y017307D01*
X031154Y017353D01*
X031144Y017400D01*
X031138Y017448D01*
X031136Y017496D01*
D15*
X028477Y016376D02*
X026477Y016376D01*
D16*
X029152Y016921D02*
X029152Y017071D01*
X029552Y017071D02*
X029552Y016871D01*
D17*
X029552Y016856D03*
X029152Y016856D03*
D18*
X005631Y009696D02*
X005631Y009047D01*
X005435Y009047D02*
X005435Y009696D01*
X005631Y009696D01*
X005435Y009696D02*
X004844Y009696D01*
X004844Y007047D01*
X005435Y007196D02*
X005435Y006547D01*
X005631Y006547D01*
X005631Y007196D01*
X003663Y007098D02*
X003663Y006862D01*
X003269Y006862D01*
X002876Y006862D02*
X002482Y006862D01*
X002088Y006862D02*
X001694Y006862D01*
X001301Y006862D02*
X000907Y006862D01*
X000513Y006862D02*
X000120Y006862D01*
X000120Y009381D01*
X000513Y009381D01*
X000120Y009381D02*
X000120Y009893D01*
X004844Y009893D01*
X004844Y009696D01*
X001498Y009696D01*
X001498Y009893D01*
X001498Y009696D02*
X001498Y006350D01*
X000120Y006350D02*
X003344Y006350D01*
X003663Y007492D02*
X003663Y007728D01*
X003663Y008515D01*
X003663Y008751D01*
X003663Y009145D02*
X003663Y009381D01*
X003269Y009381D01*
X002876Y009381D02*
X002482Y009381D01*
X002088Y009381D02*
X001694Y009381D01*
X001301Y009381D02*
X000907Y009381D01*
X000907Y008515D02*
X000868Y008513D01*
X000830Y008507D01*
X000793Y008498D01*
X000756Y008485D01*
X000721Y008468D01*
X000688Y008449D01*
X000657Y008426D01*
X000628Y008400D01*
X000602Y008371D01*
X000579Y008340D01*
X000560Y008307D01*
X000543Y008272D01*
X000530Y008235D01*
X000521Y008198D01*
X000515Y008160D01*
X000513Y008121D01*
X000515Y008082D01*
X000521Y008044D01*
X000530Y008007D01*
X000543Y007970D01*
X000560Y007935D01*
X000579Y007902D01*
X000602Y007871D01*
X000628Y007842D01*
X000657Y007816D01*
X000688Y007793D01*
X000721Y007774D01*
X000756Y007757D01*
X000793Y007744D01*
X000830Y007735D01*
X000868Y007729D01*
X000907Y007727D01*
X000120Y006862D02*
X000120Y006350D01*
D19*
X001902Y013121D03*
X002152Y013121D03*
X002402Y013121D03*
X002402Y014121D03*
X002152Y014121D03*
X001902Y014121D03*
D20*
X002631Y016968D02*
X002754Y016968D01*
X002816Y017029D01*
X002938Y017029D02*
X002999Y016968D01*
X003123Y016968D01*
X003185Y017029D01*
X003185Y017276D01*
X003123Y017338D01*
X002999Y017338D01*
X002938Y017276D01*
X002938Y017215D01*
X002999Y017153D01*
X003185Y017153D01*
X002816Y017276D02*
X002754Y017338D01*
X002631Y017338D01*
X002569Y017276D01*
X002569Y017029D01*
X002631Y016968D01*
X008115Y009025D02*
X008053Y008964D01*
X008053Y008717D01*
X008115Y008655D01*
X008238Y008655D01*
X008300Y008717D01*
X008421Y008717D02*
X008421Y008779D01*
X008483Y008840D01*
X008606Y008840D01*
X008668Y008779D01*
X008668Y008717D01*
X008606Y008655D01*
X008483Y008655D01*
X008421Y008717D01*
X008483Y008840D02*
X008421Y008902D01*
X008421Y008964D01*
X008483Y009025D01*
X008606Y009025D01*
X008668Y008964D01*
X008668Y008902D01*
X008606Y008840D01*
X008300Y008964D02*
X008238Y009025D01*
X008115Y009025D01*
X019679Y005457D02*
X019679Y005136D01*
X019679Y005243D02*
X019840Y005243D01*
X019893Y005297D01*
X019893Y005403D01*
X019840Y005457D01*
X019679Y005457D01*
X019786Y005243D02*
X019893Y005136D01*
X020002Y005136D02*
X020215Y005350D01*
X020215Y005403D01*
X020162Y005457D01*
X020055Y005457D01*
X020002Y005403D01*
X020002Y005136D02*
X020215Y005136D01*
X020324Y005136D02*
X020538Y005350D01*
X020538Y005403D01*
X020484Y005457D01*
X020377Y005457D01*
X020324Y005403D01*
X020324Y005136D02*
X020538Y005136D01*
X028554Y005357D02*
X028554Y005517D01*
X028608Y005571D01*
X028714Y005571D01*
X028768Y005517D01*
X028768Y005357D01*
X028874Y005357D02*
X028554Y005357D01*
X028768Y005464D02*
X028874Y005571D01*
X028874Y005679D02*
X028661Y005893D01*
X028608Y005893D01*
X028554Y005840D01*
X028554Y005733D01*
X028608Y005679D01*
X028874Y005679D02*
X028874Y005893D01*
X028714Y006002D02*
X028554Y006162D01*
X028874Y006162D01*
X028714Y006215D02*
X028714Y006002D01*
X029117Y006002D02*
X029117Y006215D01*
X029223Y006162D02*
X029277Y006215D01*
X029384Y006215D01*
X029437Y006162D01*
X029437Y006055D01*
X029384Y006002D01*
X029277Y006002D02*
X029223Y006108D01*
X029223Y006162D01*
X029277Y006002D02*
X029117Y006002D01*
X029170Y005893D02*
X029117Y005840D01*
X029117Y005733D01*
X029170Y005679D01*
X029170Y005571D02*
X029277Y005571D01*
X029330Y005517D01*
X029330Y005357D01*
X029330Y005464D02*
X029437Y005571D01*
X029437Y005679D02*
X029223Y005893D01*
X029170Y005893D01*
X029437Y005893D02*
X029437Y005679D01*
X029170Y005571D02*
X029117Y005517D01*
X029117Y005357D01*
X029437Y005357D01*
D21*
X029133Y004087D02*
X033070Y004087D01*
X033070Y002867D01*
X029133Y002867D01*
X029133Y000189D01*
X030000Y000189D01*
X030000Y000583D01*
X032204Y000583D01*
X032204Y000189D01*
X033070Y000189D01*
X033070Y002867D01*
X029133Y002867D02*
X029133Y004087D01*
X028570Y004087D02*
X024633Y004087D01*
X024633Y002867D01*
X028570Y002867D01*
X028570Y004087D01*
X028570Y002867D02*
X028570Y000189D01*
X027704Y000189D01*
X027704Y000583D01*
X025500Y000583D01*
X025500Y000189D01*
X024633Y000189D01*
X024633Y002867D01*
X024070Y002867D02*
X020133Y002867D01*
X020133Y000189D01*
X021000Y000189D01*
X021000Y000583D01*
X023204Y000583D01*
X023204Y000189D01*
X024070Y000189D01*
X024070Y002867D01*
X024070Y004087D01*
X020133Y004087D01*
X020133Y002867D01*
X019570Y002867D02*
X015633Y002867D01*
X015633Y000189D01*
X016500Y000189D01*
X016500Y000583D01*
X018704Y000583D01*
X018704Y000189D01*
X019570Y000189D01*
X019570Y002867D01*
X019570Y004087D01*
X015633Y004087D01*
X015633Y002867D01*
X013570Y002867D02*
X009633Y002867D01*
X009633Y000189D01*
X010500Y000189D01*
X010500Y000583D01*
X012704Y000583D01*
X012704Y000189D01*
X013570Y000189D01*
X013570Y002867D01*
X013570Y004087D01*
X009633Y004087D01*
X009633Y002867D01*
X009070Y002867D02*
X005133Y002867D01*
X005133Y000189D01*
X006000Y000189D01*
X006000Y000583D01*
X008204Y000583D01*
X008204Y000189D01*
X009070Y000189D01*
X009070Y002867D01*
X009070Y004087D01*
X005133Y004087D01*
X005133Y002867D01*
X004570Y002867D02*
X000633Y002867D01*
X000633Y000189D01*
X001500Y000189D01*
X001500Y000583D01*
X003704Y000583D01*
X003704Y000189D01*
X004570Y000189D01*
X004570Y002867D01*
X004570Y004087D01*
X000633Y004087D01*
X000633Y002867D01*
X015633Y018781D02*
X019570Y018781D01*
X019570Y020001D01*
X015633Y020001D01*
X015633Y018781D01*
X015633Y020001D02*
X015633Y022679D01*
X016500Y022679D01*
X016500Y022285D01*
X018704Y022285D01*
X018704Y022679D01*
X019570Y022679D01*
X019570Y020001D01*
X020133Y020001D02*
X024070Y020001D01*
X024070Y022679D01*
X023204Y022679D01*
X023204Y022285D01*
X021000Y022285D01*
X021000Y022679D01*
X020133Y022679D01*
X020133Y020001D01*
X020133Y018781D01*
X024070Y018781D01*
X024070Y020001D01*
X024633Y020001D02*
X028570Y020001D01*
X028570Y022679D01*
X027704Y022679D01*
X027704Y022285D01*
X025500Y022285D01*
X025500Y022679D01*
X024633Y022679D01*
X024633Y020001D01*
X024633Y018781D01*
X028570Y018781D01*
X028570Y020001D01*
X029133Y020001D02*
X033070Y020001D01*
X033070Y022679D01*
X032204Y022679D01*
X032204Y022285D01*
X030000Y022285D01*
X030000Y022679D01*
X029133Y022679D01*
X029133Y020001D01*
X029133Y018781D01*
X033070Y018781D01*
X033070Y020001D01*
D22*
X012627Y012516D02*
X012627Y012066D01*
X012107Y011966D01*
X011927Y011506D02*
X012217Y011076D01*
X011897Y010756D01*
X011477Y011036D01*
X011297Y010936D01*
X010967Y011736D01*
X010397Y011736D02*
X010067Y010936D01*
X009887Y011036D01*
X009467Y010746D01*
X009137Y011076D01*
X009437Y011506D01*
X009247Y011966D02*
X008727Y012066D01*
X008727Y012516D01*
X009257Y012616D01*
X009447Y013056D02*
X009137Y013506D01*
X009467Y013826D01*
X009917Y013516D01*
X010347Y013696D02*
X010447Y014236D01*
X010907Y014236D01*
X011007Y013696D01*
X011437Y013516D02*
X011897Y013826D01*
X012217Y013506D01*
X011907Y013056D01*
X012097Y012616D02*
X012627Y012516D01*
X010967Y011736D02*
X011009Y011760D01*
X011048Y011788D01*
X011085Y011819D01*
X011120Y011853D01*
X011152Y011889D01*
X011180Y011928D01*
X011206Y011969D01*
X011228Y012012D01*
X011246Y012057D01*
X011261Y012103D01*
X011273Y012150D01*
X011280Y012197D01*
X011284Y012245D01*
X011283Y012294D01*
X011279Y012342D01*
X011271Y012389D01*
X011259Y012436D01*
X011244Y012482D01*
X011225Y012526D01*
X011202Y012569D01*
X011176Y012610D01*
X011147Y012648D01*
X011115Y012684D01*
X011080Y012718D01*
X011042Y012748D01*
X011003Y012775D01*
X010961Y012800D01*
X010917Y012820D01*
X010872Y012837D01*
X010826Y012851D01*
X010778Y012860D01*
X010730Y012866D01*
X010682Y012868D01*
X010634Y012866D01*
X010586Y012860D01*
X010538Y012851D01*
X010492Y012837D01*
X010447Y012820D01*
X010403Y012800D01*
X010361Y012775D01*
X010322Y012748D01*
X010284Y012718D01*
X010249Y012684D01*
X010217Y012648D01*
X010188Y012610D01*
X010162Y012569D01*
X010139Y012526D01*
X010120Y012482D01*
X010105Y012436D01*
X010093Y012389D01*
X010085Y012342D01*
X010081Y012294D01*
X010080Y012245D01*
X010084Y012197D01*
X010091Y012150D01*
X010103Y012103D01*
X010118Y012057D01*
X010136Y012012D01*
X010158Y011969D01*
X010184Y011928D01*
X010212Y011889D01*
X010244Y011853D01*
X010279Y011819D01*
X010316Y011788D01*
X010355Y011760D01*
X010397Y011736D01*
X009917Y013516D02*
X009975Y013549D01*
X010034Y013579D01*
X010095Y013606D01*
X010156Y013630D01*
X010219Y013652D01*
X010283Y013671D01*
X010347Y013686D01*
X009447Y013056D02*
X009411Y012998D01*
X009378Y012937D01*
X009347Y012875D01*
X009320Y012812D01*
X009296Y012748D01*
X009275Y012682D01*
X009257Y012616D01*
X011007Y013686D02*
X011081Y013667D01*
X011153Y013644D01*
X011224Y013617D01*
X011294Y013587D01*
X011361Y013553D01*
X011427Y013516D01*
X011907Y013056D02*
X011943Y012997D01*
X011976Y012937D01*
X012006Y012875D01*
X012033Y012812D01*
X012058Y012748D01*
X012079Y012682D01*
X012097Y012616D01*
X012107Y011967D02*
X012091Y011897D01*
X012072Y011829D01*
X012049Y011762D01*
X012024Y011696D01*
X011995Y011631D01*
X011962Y011568D01*
X011927Y011506D01*
X009437Y011506D02*
X009402Y011568D01*
X009369Y011631D01*
X009340Y011696D01*
X009315Y011762D01*
X009292Y011829D01*
X009273Y011897D01*
X009257Y011967D01*
M02*
