G75*
G70*
%OFA0B0*%
%FSLAX24Y24*%
%IPPOS*%
%LPD*%
%AMOC8*
5,1,8,0,0,1.08239X$1,22.5*
%
%ADD10C,0.0050*%
%ADD11R,0.0594X0.0594*%
%ADD12C,0.0660*%
%ADD13C,0.0594*%
%ADD14C,0.0000*%
%ADD15C,0.0520*%
%ADD16R,0.1560X0.1560*%
%ADD17C,0.1250*%
%ADD18C,0.0860*%
%ADD19C,0.0520*%
%ADD20R,0.0515X0.0515*%
%ADD21C,0.0515*%
%ADD22OC8,0.0850*%
%ADD23OC8,0.1250*%
%ADD24R,0.0460X0.0630*%
%ADD25C,0.0100*%
%ADD26C,0.0160*%
%ADD27C,0.0396*%
%ADD28C,0.0120*%
%ADD29C,0.0400*%
%ADD30C,0.2480*%
D10*
X000157Y000401D02*
X000157Y022448D01*
X033622Y022448D01*
X033622Y000401D01*
X000157Y000401D01*
D11*
X001102Y020371D03*
D12*
X001102Y021371D03*
X003102Y021371D03*
D13*
X004102Y021371D03*
X005102Y021371D03*
X006102Y021371D03*
X007102Y021371D03*
X008102Y021371D03*
X009102Y021371D03*
X010102Y021371D03*
X011102Y021371D03*
X012102Y021371D03*
X013102Y021371D03*
X013102Y020371D03*
X012102Y020371D03*
X011102Y020371D03*
X010102Y020371D03*
X009102Y020371D03*
X008102Y020371D03*
X007102Y020371D03*
X006102Y020371D03*
X005102Y020371D03*
X004102Y020371D03*
X003102Y020371D03*
X002102Y020371D03*
X002102Y021371D03*
D14*
X009573Y007496D02*
X009575Y007544D01*
X009581Y007592D01*
X009591Y007639D01*
X009604Y007685D01*
X009622Y007730D01*
X009642Y007774D01*
X009667Y007816D01*
X009695Y007855D01*
X009725Y007892D01*
X009759Y007926D01*
X009796Y007958D01*
X009834Y007987D01*
X009875Y008012D01*
X009918Y008034D01*
X009963Y008052D01*
X010009Y008066D01*
X010056Y008077D01*
X010104Y008084D01*
X010152Y008087D01*
X010200Y008086D01*
X010248Y008081D01*
X010296Y008072D01*
X010342Y008060D01*
X010387Y008043D01*
X010431Y008023D01*
X010473Y008000D01*
X010513Y007973D01*
X010551Y007943D01*
X010586Y007910D01*
X010618Y007874D01*
X010648Y007836D01*
X010674Y007795D01*
X010696Y007752D01*
X010716Y007708D01*
X010731Y007663D01*
X010743Y007616D01*
X010751Y007568D01*
X010755Y007520D01*
X010755Y007472D01*
X010751Y007424D01*
X010743Y007376D01*
X010731Y007329D01*
X010716Y007284D01*
X010696Y007240D01*
X010674Y007197D01*
X010648Y007156D01*
X010618Y007118D01*
X010586Y007082D01*
X010551Y007049D01*
X010513Y007019D01*
X010473Y006992D01*
X010431Y006969D01*
X010387Y006949D01*
X010342Y006932D01*
X010296Y006920D01*
X010248Y006911D01*
X010200Y006906D01*
X010152Y006905D01*
X010104Y006908D01*
X010056Y006915D01*
X010009Y006926D01*
X009963Y006940D01*
X009918Y006958D01*
X009875Y006980D01*
X009834Y007005D01*
X009796Y007034D01*
X009759Y007066D01*
X009725Y007100D01*
X009695Y007137D01*
X009667Y007176D01*
X009642Y007218D01*
X009622Y007262D01*
X009604Y007307D01*
X009591Y007353D01*
X009581Y007400D01*
X009575Y007448D01*
X009573Y007496D01*
X031136Y017496D02*
X031138Y017544D01*
X031144Y017592D01*
X031154Y017639D01*
X031167Y017685D01*
X031185Y017730D01*
X031205Y017774D01*
X031230Y017816D01*
X031258Y017855D01*
X031288Y017892D01*
X031322Y017926D01*
X031359Y017958D01*
X031397Y017987D01*
X031438Y018012D01*
X031481Y018034D01*
X031526Y018052D01*
X031572Y018066D01*
X031619Y018077D01*
X031667Y018084D01*
X031715Y018087D01*
X031763Y018086D01*
X031811Y018081D01*
X031859Y018072D01*
X031905Y018060D01*
X031950Y018043D01*
X031994Y018023D01*
X032036Y018000D01*
X032076Y017973D01*
X032114Y017943D01*
X032149Y017910D01*
X032181Y017874D01*
X032211Y017836D01*
X032237Y017795D01*
X032259Y017752D01*
X032279Y017708D01*
X032294Y017663D01*
X032306Y017616D01*
X032314Y017568D01*
X032318Y017520D01*
X032318Y017472D01*
X032314Y017424D01*
X032306Y017376D01*
X032294Y017329D01*
X032279Y017284D01*
X032259Y017240D01*
X032237Y017197D01*
X032211Y017156D01*
X032181Y017118D01*
X032149Y017082D01*
X032114Y017049D01*
X032076Y017019D01*
X032036Y016992D01*
X031994Y016969D01*
X031950Y016949D01*
X031905Y016932D01*
X031859Y016920D01*
X031811Y016911D01*
X031763Y016906D01*
X031715Y016905D01*
X031667Y016908D01*
X031619Y016915D01*
X031572Y016926D01*
X031526Y016940D01*
X031481Y016958D01*
X031438Y016980D01*
X031397Y017005D01*
X031359Y017034D01*
X031322Y017066D01*
X031288Y017100D01*
X031258Y017137D01*
X031230Y017176D01*
X031205Y017218D01*
X031185Y017262D01*
X031167Y017307D01*
X031154Y017353D01*
X031144Y017400D01*
X031138Y017448D01*
X031136Y017496D01*
D15*
X029852Y017371D03*
X028852Y017371D03*
D16*
X030477Y010746D03*
D17*
X030477Y008146D03*
X030477Y013346D03*
D18*
X005533Y008551D02*
X005533Y007691D01*
X004782Y006232D02*
X003922Y006232D01*
X003171Y007691D02*
X003171Y008551D01*
D19*
X003717Y013121D02*
X004237Y013121D01*
X004237Y014121D02*
X003717Y014121D01*
X001237Y014121D02*
X000717Y014121D01*
X000717Y013121D02*
X001237Y013121D01*
D20*
X003783Y003496D03*
X008283Y003496D03*
X012783Y003496D03*
X018783Y003496D03*
X023283Y003496D03*
X027783Y003496D03*
X032283Y003496D03*
X029921Y019371D03*
X025421Y019371D03*
X020921Y019371D03*
X016421Y019371D03*
D21*
X017208Y019371D03*
X017996Y019371D03*
X018783Y019371D03*
X021708Y019371D03*
X022496Y019371D03*
X023283Y019371D03*
X026208Y019371D03*
X026996Y019371D03*
X027783Y019371D03*
X030708Y019371D03*
X031496Y019371D03*
X032283Y019371D03*
X031496Y003496D03*
X030708Y003496D03*
X029921Y003496D03*
X026996Y003496D03*
X026208Y003496D03*
X025421Y003496D03*
X022496Y003496D03*
X021708Y003496D03*
X020921Y003496D03*
X017996Y003496D03*
X017208Y003496D03*
X016421Y003496D03*
X011996Y003496D03*
X011208Y003496D03*
X010421Y003496D03*
X007496Y003496D03*
X006708Y003496D03*
X005921Y003496D03*
X002996Y003496D03*
X002208Y003496D03*
X001421Y003496D03*
D22*
X001102Y011121D03*
D23*
X001852Y008371D03*
X001852Y006371D03*
D24*
X026127Y006371D03*
X026727Y006371D03*
X027327Y006371D03*
X027327Y004621D03*
X026727Y004621D03*
X026127Y004621D03*
D25*
X004602Y019996D02*
X004602Y020871D01*
X002602Y020871D01*
X002602Y021621D01*
X002602Y020871D02*
X001602Y020871D01*
X001602Y021621D02*
X001602Y019996D01*
X002602Y019996D02*
X002602Y020871D01*
X003602Y021621D02*
X003602Y019996D01*
X004602Y020871D02*
X004852Y020871D01*
D26*
X004802Y020871D02*
X004775Y020860D01*
X004613Y020698D01*
X004602Y020672D01*
X004591Y020698D01*
X004429Y020860D01*
X004402Y020871D01*
X004429Y020882D01*
X004591Y021045D01*
X004602Y021071D01*
X004613Y021045D01*
X004775Y020882D01*
X004802Y020871D01*
X004733Y020818D02*
X004471Y020818D01*
X004523Y020976D02*
X004681Y020976D01*
X003775Y021860D02*
X003613Y021698D01*
X003566Y021584D01*
X003538Y021639D01*
X003491Y021704D01*
X003434Y021760D01*
X003369Y021808D01*
X003298Y021844D01*
X003221Y021869D01*
X003142Y021881D01*
X003120Y021881D01*
X003120Y021390D01*
X003084Y021390D01*
X003084Y021881D01*
X003062Y021881D01*
X002983Y021869D01*
X002906Y021844D01*
X002835Y021808D01*
X002770Y021760D01*
X002713Y021704D01*
X002666Y021639D01*
X002638Y021584D01*
X002591Y021698D01*
X002429Y021860D01*
X002229Y021943D01*
X003818Y021943D01*
X003814Y021939D01*
X003782Y021863D01*
X003775Y021860D01*
X003809Y021927D02*
X002267Y021927D01*
X002520Y021769D02*
X002781Y021769D01*
X002651Y021610D02*
X002627Y021610D01*
X002638Y021158D02*
X002666Y021104D01*
X002713Y021039D01*
X002770Y020982D01*
X002835Y020935D01*
X002889Y020908D01*
X002775Y020860D01*
X002613Y020698D01*
X002602Y020672D01*
X002591Y020698D01*
X002429Y020860D01*
X002402Y020871D01*
X002429Y020882D01*
X002591Y021045D01*
X002638Y021158D01*
X002628Y021135D02*
X002650Y021135D01*
X002523Y020976D02*
X002778Y020976D01*
X002733Y020818D02*
X002471Y020818D01*
X001802Y020871D02*
X001775Y020860D01*
X001667Y020752D01*
X001636Y020827D01*
X001557Y020906D01*
X001516Y020923D01*
X001619Y021026D01*
X001623Y021035D01*
X001775Y020882D01*
X001802Y020871D01*
X001733Y020818D02*
X001640Y020818D01*
X001681Y020976D02*
X001570Y020976D01*
X001667Y019991D02*
X001775Y019882D01*
X001987Y019795D01*
X002217Y019795D01*
X002429Y019882D01*
X002591Y020045D01*
X002602Y020071D01*
X002613Y020045D01*
X002775Y019882D01*
X002987Y019795D01*
X003217Y019795D01*
X003429Y019882D01*
X003591Y020045D01*
X003602Y020071D01*
X003613Y020045D01*
X003775Y019882D01*
X003987Y019795D01*
X004217Y019795D01*
X004429Y019882D01*
X004591Y020045D01*
X004602Y020071D01*
X004613Y020045D01*
X004775Y019882D01*
X004987Y019795D01*
X005217Y019795D01*
X005262Y019813D01*
X005262Y016131D01*
X005257Y016142D01*
X005123Y016277D01*
X004947Y016350D01*
X004757Y016350D01*
X004581Y016277D01*
X004516Y016211D01*
X001493Y016211D01*
X001317Y016387D01*
X001317Y019356D01*
X001390Y019429D01*
X001442Y019554D01*
X001442Y019795D01*
X001455Y019795D01*
X001557Y019837D01*
X001636Y019916D01*
X001667Y019991D01*
X001587Y019867D02*
X001812Y019867D01*
X001442Y019708D02*
X005262Y019708D01*
X005262Y019550D02*
X001440Y019550D01*
X001353Y019391D02*
X005262Y019391D01*
X005262Y019233D02*
X001317Y019233D01*
X001317Y019074D02*
X005262Y019074D01*
X005262Y018916D02*
X001317Y018916D01*
X001317Y018757D02*
X005262Y018757D01*
X005262Y018599D02*
X001317Y018599D01*
X001317Y018440D02*
X005262Y018440D01*
X005262Y018282D02*
X001317Y018282D01*
X001317Y018123D02*
X005262Y018123D01*
X005262Y017965D02*
X001317Y017965D01*
X001317Y017806D02*
X005262Y017806D01*
X005262Y017648D02*
X001317Y017648D01*
X001317Y017489D02*
X005262Y017489D01*
X005262Y017331D02*
X001317Y017331D01*
X001317Y017172D02*
X005262Y017172D01*
X005262Y017014D02*
X001317Y017014D01*
X001317Y016855D02*
X005262Y016855D01*
X005262Y016697D02*
X001317Y016697D01*
X001317Y016538D02*
X005262Y016538D01*
X005262Y016380D02*
X001324Y016380D01*
X001483Y016221D02*
X004526Y016221D01*
X005178Y016221D02*
X005262Y016221D01*
X006192Y016221D02*
X014896Y016221D01*
X015055Y016063D02*
X006192Y016063D01*
X006192Y015904D02*
X015213Y015904D01*
X015372Y015746D02*
X006192Y015746D01*
X006192Y015587D02*
X015530Y015587D01*
X015689Y015429D02*
X006192Y015429D01*
X006192Y015270D02*
X015847Y015270D01*
X016006Y015112D02*
X006192Y015112D01*
X006192Y014953D02*
X016164Y014953D01*
X016323Y014795D02*
X006192Y014795D01*
X006192Y014636D02*
X016481Y014636D01*
X016640Y014478D02*
X006192Y014478D01*
X006192Y014319D02*
X016798Y014319D01*
X016957Y014161D02*
X006192Y014161D01*
X006192Y014002D02*
X017115Y014002D01*
X017274Y013844D02*
X006192Y013844D01*
X006192Y013685D02*
X017432Y013685D01*
X017591Y013527D02*
X006181Y013527D01*
X006192Y013554D02*
X006192Y018981D01*
X006493Y019281D01*
X007170Y019281D01*
X007295Y019333D01*
X007390Y019429D01*
X007824Y019862D01*
X007987Y019795D01*
X008217Y019795D01*
X008380Y019862D01*
X008409Y019833D01*
X009034Y019208D01*
X009159Y019156D01*
X011961Y019156D01*
X018159Y012958D01*
X018284Y012906D01*
X022836Y012906D01*
X022906Y012836D01*
X017159Y012836D01*
X017034Y012785D01*
X016939Y012689D01*
X013001Y008752D01*
X012949Y008627D01*
X012949Y006575D01*
X012336Y005961D01*
X011188Y005961D01*
X011123Y006027D01*
X010947Y006100D01*
X010785Y006100D01*
X011098Y006280D01*
X011381Y006563D01*
X011581Y006910D01*
X011685Y007296D01*
X011685Y007697D01*
X011581Y008083D01*
X011381Y008430D01*
X011098Y008713D01*
X010751Y008913D01*
X010365Y009017D01*
X009964Y009017D01*
X009578Y008913D01*
X009231Y008713D01*
X008948Y008430D01*
X008748Y008083D01*
X008644Y007697D01*
X008644Y007296D01*
X008748Y006910D01*
X008948Y006563D01*
X009231Y006280D01*
X009578Y006080D01*
X009964Y005976D01*
X010365Y005976D01*
X010633Y006048D01*
X010581Y006027D01*
X010447Y005892D01*
X010374Y005717D01*
X010374Y005586D01*
X002409Y005586D01*
X002284Y005535D01*
X002189Y005439D01*
X001133Y004383D01*
X001081Y004258D01*
X001081Y003917D01*
X000965Y003801D01*
X000883Y003603D01*
X000883Y003390D01*
X000965Y003192D01*
X001116Y003041D01*
X001314Y002959D01*
X001528Y002959D01*
X001725Y003041D01*
X001815Y003130D01*
X001904Y003041D01*
X002101Y002959D01*
X002315Y002959D01*
X002513Y003041D01*
X002602Y003130D01*
X002617Y003115D01*
X002617Y002925D01*
X002672Y002793D01*
X003023Y002441D01*
X003155Y002386D01*
X007299Y002386D01*
X007431Y002441D01*
X007477Y002487D01*
X007523Y002441D01*
X007655Y002386D01*
X011799Y002386D01*
X011931Y002441D01*
X011977Y002487D01*
X012023Y002441D01*
X012155Y002386D01*
X015227Y002386D01*
X015227Y000906D01*
X000662Y000906D01*
X000662Y010706D01*
X000851Y010516D01*
X001052Y010516D01*
X001052Y011071D01*
X001152Y011071D01*
X001152Y010516D01*
X001353Y010516D01*
X001707Y010871D01*
X001707Y011071D01*
X001152Y011071D01*
X001152Y011171D01*
X001707Y011171D01*
X001707Y011372D01*
X001353Y011726D01*
X001152Y011726D01*
X001152Y011171D01*
X001052Y011171D01*
X001052Y011726D01*
X000851Y011726D01*
X000662Y011537D01*
X000662Y012581D01*
X001344Y012581D01*
X001543Y012664D01*
X001695Y012816D01*
X001777Y013014D01*
X001777Y013229D01*
X001695Y013427D01*
X001543Y013579D01*
X001441Y013621D01*
X001543Y013664D01*
X001695Y013816D01*
X001777Y014014D01*
X001777Y014229D01*
X001695Y014427D01*
X001543Y014579D01*
X001344Y014661D01*
X001317Y014661D01*
X001317Y015356D01*
X001493Y015531D01*
X004516Y015531D01*
X004581Y015466D01*
X004592Y015461D01*
X004284Y015461D01*
X004159Y015410D01*
X004064Y015314D01*
X003689Y014939D01*
X003637Y014814D01*
X003637Y014661D01*
X003610Y014661D01*
X003411Y014579D01*
X003259Y014427D01*
X003177Y014229D01*
X003177Y014014D01*
X003259Y013816D01*
X003411Y013664D01*
X003513Y013621D01*
X003411Y013579D01*
X003259Y013427D01*
X003177Y013229D01*
X003177Y013014D01*
X003259Y012816D01*
X003411Y012664D01*
X003610Y012581D01*
X004344Y012581D01*
X004543Y012664D01*
X004661Y012781D01*
X005420Y012781D01*
X005545Y012833D01*
X005640Y012929D01*
X006140Y013429D01*
X006192Y013554D01*
X006080Y013368D02*
X017749Y013368D01*
X017908Y013210D02*
X005921Y013210D01*
X005763Y013051D02*
X018066Y013051D01*
X016984Y012734D02*
X004614Y012734D01*
X005604Y012893D02*
X022850Y012893D01*
X024957Y011406D02*
X025795Y011406D01*
X025920Y011458D01*
X027170Y012708D01*
X027265Y012804D01*
X027317Y012929D01*
X027317Y017314D01*
X027265Y017439D01*
X026140Y018564D01*
X026045Y018660D01*
X025920Y018711D01*
X023659Y018711D01*
X023534Y018660D01*
X023474Y018600D01*
X023382Y018600D01*
X023206Y018527D01*
X023072Y018392D01*
X022999Y018217D01*
X022999Y018026D01*
X023072Y017851D01*
X023206Y017716D01*
X023382Y017643D01*
X023572Y017643D01*
X023748Y017716D01*
X023882Y017851D01*
X023955Y018026D01*
X023955Y018031D01*
X024999Y018031D01*
X024999Y017901D01*
X025072Y017726D01*
X025206Y017591D01*
X025382Y017518D01*
X025474Y017518D01*
X026262Y016731D01*
X026262Y015823D01*
X026197Y015850D01*
X026007Y015850D01*
X025831Y015777D01*
X025697Y015642D01*
X025624Y015467D01*
X025624Y015276D01*
X025697Y015101D01*
X025831Y014966D01*
X025887Y014943D01*
X025887Y014799D01*
X025760Y014851D01*
X025665Y014851D01*
X024982Y015535D01*
X024857Y015586D01*
X018618Y015586D01*
X016205Y017999D01*
X016205Y018092D01*
X016132Y018267D01*
X015998Y018402D01*
X015822Y018475D01*
X015632Y018475D01*
X015456Y018402D01*
X015322Y018267D01*
X015249Y018092D01*
X015249Y017901D01*
X015322Y017726D01*
X015456Y017591D01*
X015632Y017518D01*
X015724Y017518D01*
X018189Y015054D01*
X018284Y014958D01*
X018409Y014906D01*
X019249Y014906D01*
X019249Y014850D01*
X019132Y014850D01*
X018956Y014777D01*
X018822Y014642D01*
X018749Y014467D01*
X018749Y014276D01*
X018822Y014101D01*
X018956Y013966D01*
X018967Y013961D01*
X018743Y013961D01*
X014317Y018387D01*
X014317Y021939D01*
X014315Y021943D01*
X033117Y021943D01*
X033117Y020116D01*
X032931Y020302D01*
X032799Y020356D01*
X030905Y020356D01*
X030773Y020302D01*
X030727Y020256D01*
X030681Y020302D01*
X030549Y020356D01*
X026405Y020356D01*
X026273Y020302D01*
X026227Y020256D01*
X026181Y020302D01*
X026049Y020356D01*
X021868Y020356D01*
X021736Y020302D01*
X021708Y020274D01*
X021681Y020302D01*
X021549Y020356D01*
X017405Y020356D01*
X017273Y020302D01*
X017172Y020200D01*
X016903Y019932D01*
X016848Y019799D01*
X016848Y019772D01*
X016819Y019743D01*
X016789Y019773D01*
X016748Y019797D01*
X016702Y019809D01*
X016421Y019809D01*
X016421Y019371D01*
X016421Y018934D01*
X016702Y018934D01*
X016748Y018946D01*
X016789Y018970D01*
X016819Y019000D01*
X016904Y018916D01*
X017101Y018834D01*
X017315Y018834D01*
X017513Y018916D01*
X017691Y018916D01*
X017889Y018834D01*
X018103Y018834D01*
X018300Y018916D01*
X018389Y019005D01*
X018479Y018916D01*
X018676Y018834D01*
X018890Y018834D01*
X019088Y018916D01*
X021404Y018916D01*
X021601Y018834D01*
X021815Y018834D01*
X022013Y018916D01*
X022191Y018916D01*
X022389Y018834D01*
X022603Y018834D01*
X022800Y018916D01*
X022889Y019005D01*
X022979Y018916D01*
X023176Y018834D01*
X023390Y018834D01*
X023588Y018916D01*
X025904Y018916D01*
X026101Y018834D01*
X026315Y018834D01*
X026513Y018916D01*
X026691Y018916D01*
X026889Y018834D01*
X027103Y018834D01*
X027300Y018916D01*
X027389Y019005D01*
X027479Y018916D01*
X027676Y018834D01*
X027890Y018834D01*
X028088Y018916D01*
X028300Y018916D01*
X028284Y018910D02*
X028034Y018660D01*
X027939Y018564D01*
X027887Y018439D01*
X027887Y013262D01*
X027726Y013101D01*
X027631Y013101D01*
X027455Y013028D01*
X027320Y012893D01*
X027302Y012893D01*
X027320Y012893D02*
X027247Y012717D01*
X027247Y012526D01*
X027320Y012350D01*
X027455Y012215D01*
X027631Y012141D01*
X027822Y012141D01*
X027999Y012215D01*
X028134Y012350D01*
X028207Y012526D01*
X028207Y012621D01*
X028515Y012929D01*
X028567Y013054D01*
X028567Y016905D01*
X028745Y016831D01*
X028959Y016831D01*
X029158Y016914D01*
X029310Y017066D01*
X029352Y017167D01*
X029394Y017066D01*
X029546Y016914D01*
X029745Y016831D01*
X029959Y016831D01*
X030158Y016914D01*
X030277Y017033D01*
X030310Y016910D01*
X030511Y016563D01*
X030794Y016280D01*
X031140Y016080D01*
X031527Y015976D01*
X031927Y015976D01*
X032314Y016080D01*
X032660Y016280D01*
X032742Y016362D01*
X032742Y005996D01*
X030789Y005996D01*
X027289Y009496D01*
X023942Y009496D01*
X023942Y010160D01*
X024007Y010226D01*
X024080Y010401D01*
X024080Y010592D01*
X024007Y010767D01*
X023873Y010902D01*
X023697Y010975D01*
X023507Y010975D01*
X023331Y010902D01*
X023197Y010767D01*
X023126Y010597D01*
X022956Y010527D01*
X022822Y010392D01*
X022749Y010217D01*
X022749Y010026D01*
X022822Y009851D01*
X022887Y009785D01*
X022887Y009496D01*
X018289Y009496D01*
X015227Y006434D01*
X015227Y003106D01*
X013163Y003106D01*
X013185Y003128D01*
X013208Y003169D01*
X013221Y003215D01*
X013221Y003496D01*
X012783Y003496D01*
X012783Y003496D01*
X013221Y003496D01*
X013221Y003778D01*
X013208Y003823D01*
X013185Y003864D01*
X013151Y003898D01*
X013110Y003922D01*
X013064Y003934D01*
X012783Y003934D01*
X012502Y003934D01*
X012456Y003922D01*
X012415Y003898D01*
X012385Y003868D01*
X012300Y003952D01*
X012103Y004034D01*
X011889Y004034D01*
X011691Y003952D01*
X011602Y003863D01*
X011588Y003877D01*
X011868Y004156D01*
X013295Y004156D01*
X013420Y004208D01*
X014795Y005583D01*
X014890Y005679D01*
X014942Y005804D01*
X014942Y007856D01*
X018118Y011031D01*
X024138Y011031D01*
X024205Y010965D01*
X024381Y010891D01*
X024572Y010891D01*
X024749Y010965D01*
X024884Y011100D01*
X024957Y011276D01*
X024957Y011406D01*
X024957Y011308D02*
X029517Y011308D01*
X029517Y011466D02*
X025928Y011466D01*
X026086Y011625D02*
X029546Y011625D01*
X029553Y011637D02*
X029529Y011596D01*
X029517Y011550D01*
X029517Y010746D01*
X029517Y009943D01*
X029529Y009897D01*
X029553Y009856D01*
X029586Y009822D01*
X029627Y009799D01*
X029673Y009786D01*
X030477Y009786D01*
X031281Y009786D01*
X031326Y009799D01*
X031367Y009822D01*
X031401Y009856D01*
X031425Y009897D01*
X031437Y009943D01*
X031437Y010746D01*
X030477Y010746D01*
X030477Y009786D01*
X030477Y010746D01*
X030477Y010746D01*
X030477Y010746D01*
X029517Y010746D01*
X030477Y010746D01*
X030477Y010746D01*
X031437Y010746D01*
X031437Y011550D01*
X031425Y011596D01*
X031401Y011637D01*
X031367Y011670D01*
X031326Y011694D01*
X031281Y011706D01*
X030477Y011706D01*
X030477Y010746D01*
X030477Y010746D01*
X030477Y011706D01*
X029673Y011706D01*
X029627Y011694D01*
X029586Y011670D01*
X029553Y011637D01*
X029517Y011149D02*
X024905Y011149D01*
X024775Y010991D02*
X029517Y010991D01*
X029517Y010832D02*
X023942Y010832D01*
X024046Y010674D02*
X029517Y010674D01*
X029517Y010515D02*
X024080Y010515D01*
X024062Y010357D02*
X029517Y010357D01*
X029517Y010198D02*
X023980Y010198D01*
X023942Y010040D02*
X029517Y010040D01*
X029538Y009881D02*
X023942Y009881D01*
X023942Y009723D02*
X032742Y009723D01*
X032742Y009881D02*
X031416Y009881D01*
X031437Y010040D02*
X032742Y010040D01*
X032742Y010198D02*
X031437Y010198D01*
X031437Y010357D02*
X032742Y010357D01*
X032742Y010515D02*
X031437Y010515D01*
X031437Y010674D02*
X032742Y010674D01*
X032742Y010832D02*
X031437Y010832D01*
X031437Y010991D02*
X032742Y010991D01*
X032742Y011149D02*
X031437Y011149D01*
X031437Y011308D02*
X032742Y011308D01*
X032742Y011466D02*
X031437Y011466D01*
X031408Y011625D02*
X032742Y011625D01*
X032742Y011783D02*
X026245Y011783D01*
X026403Y011942D02*
X032742Y011942D01*
X032742Y012100D02*
X026562Y012100D01*
X026720Y012259D02*
X027411Y012259D01*
X027292Y012417D02*
X026879Y012417D01*
X027037Y012576D02*
X027247Y012576D01*
X027254Y012734D02*
X027196Y012734D01*
X027317Y013051D02*
X027511Y013051D01*
X027317Y013210D02*
X027835Y013210D01*
X027887Y013368D02*
X027317Y013368D01*
X027317Y013527D02*
X027887Y013527D01*
X027887Y013685D02*
X027317Y013685D01*
X027317Y013844D02*
X027887Y013844D01*
X027887Y014002D02*
X027317Y014002D01*
X027317Y014161D02*
X027887Y014161D01*
X027887Y014319D02*
X027317Y014319D01*
X027317Y014478D02*
X027887Y014478D01*
X027887Y014636D02*
X027317Y014636D01*
X027317Y014795D02*
X027887Y014795D01*
X027887Y014953D02*
X027317Y014953D01*
X027317Y015112D02*
X027887Y015112D01*
X027887Y015270D02*
X027317Y015270D01*
X027317Y015429D02*
X027887Y015429D01*
X027887Y015587D02*
X027317Y015587D01*
X027317Y015746D02*
X027887Y015746D01*
X027887Y015904D02*
X027317Y015904D01*
X027317Y016063D02*
X027887Y016063D01*
X027887Y016221D02*
X027317Y016221D01*
X027317Y016380D02*
X027887Y016380D01*
X027887Y016538D02*
X027317Y016538D01*
X027317Y016697D02*
X027887Y016697D01*
X027887Y016855D02*
X027317Y016855D01*
X027317Y017014D02*
X027887Y017014D01*
X027887Y017172D02*
X027317Y017172D01*
X027310Y017331D02*
X027887Y017331D01*
X027887Y017489D02*
X027215Y017489D01*
X027056Y017648D02*
X027887Y017648D01*
X027887Y017806D02*
X026898Y017806D01*
X026739Y017965D02*
X027887Y017965D01*
X027887Y018123D02*
X026581Y018123D01*
X026422Y018282D02*
X027887Y018282D01*
X027888Y018440D02*
X026264Y018440D01*
X026105Y018599D02*
X027974Y018599D01*
X028132Y018757D02*
X014317Y018757D01*
X014317Y018599D02*
X023380Y018599D01*
X023120Y018440D02*
X015904Y018440D01*
X016118Y018282D02*
X023026Y018282D01*
X022999Y018123D02*
X016192Y018123D01*
X016239Y017965D02*
X023024Y017965D01*
X023116Y017806D02*
X016398Y017806D01*
X016556Y017648D02*
X023371Y017648D01*
X023583Y017648D02*
X025149Y017648D01*
X025038Y017806D02*
X023838Y017806D01*
X023930Y017965D02*
X024999Y017965D01*
X025503Y017489D02*
X016715Y017489D01*
X016873Y017331D02*
X025662Y017331D01*
X025820Y017172D02*
X017032Y017172D01*
X017190Y017014D02*
X025979Y017014D01*
X026137Y016855D02*
X017349Y016855D01*
X017507Y016697D02*
X026262Y016697D01*
X026262Y016538D02*
X017666Y016538D01*
X017824Y016380D02*
X026262Y016380D01*
X026262Y016221D02*
X017983Y016221D01*
X018141Y016063D02*
X026262Y016063D01*
X026262Y015904D02*
X018300Y015904D01*
X018458Y015746D02*
X025800Y015746D01*
X025674Y015587D02*
X018617Y015587D01*
X018131Y015112D02*
X017592Y015112D01*
X017434Y015270D02*
X017972Y015270D01*
X017814Y015429D02*
X017275Y015429D01*
X017117Y015587D02*
X017655Y015587D01*
X017497Y015746D02*
X016958Y015746D01*
X016800Y015904D02*
X017338Y015904D01*
X017180Y016063D02*
X016641Y016063D01*
X016483Y016221D02*
X017021Y016221D01*
X016863Y016380D02*
X016324Y016380D01*
X016166Y016538D02*
X016704Y016538D01*
X016546Y016697D02*
X016007Y016697D01*
X015849Y016855D02*
X016387Y016855D01*
X016229Y017014D02*
X015690Y017014D01*
X015532Y017172D02*
X016070Y017172D01*
X015912Y017331D02*
X015373Y017331D01*
X015215Y017489D02*
X015753Y017489D01*
X015399Y017648D02*
X015056Y017648D01*
X014898Y017806D02*
X015288Y017806D01*
X015249Y017965D02*
X014739Y017965D01*
X014581Y018123D02*
X015262Y018123D01*
X015336Y018282D02*
X014422Y018282D01*
X014317Y018440D02*
X015550Y018440D01*
X016053Y018970D02*
X016094Y018946D01*
X016140Y018934D01*
X016421Y018934D01*
X016421Y019371D01*
X016421Y019371D01*
X015983Y019371D01*
X015983Y019090D01*
X015996Y019044D01*
X016019Y019003D01*
X016053Y018970D01*
X015988Y019074D02*
X014317Y019074D01*
X014317Y018916D02*
X016904Y018916D01*
X017513Y018916D02*
X017602Y019005D01*
X017691Y018916D01*
X018300Y018916D02*
X018478Y018916D01*
X019088Y018916D02*
X019239Y019067D01*
X019321Y019265D01*
X019321Y019478D01*
X019255Y019636D01*
X020483Y019636D01*
X020483Y019371D01*
X020483Y019090D01*
X020496Y019044D01*
X020519Y019003D01*
X020553Y018970D01*
X020594Y018946D01*
X020640Y018934D01*
X020921Y018934D01*
X021202Y018934D01*
X021248Y018946D01*
X021289Y018970D01*
X021319Y019000D01*
X021404Y018916D01*
X020921Y018934D02*
X020921Y019371D01*
X020921Y019371D01*
X020921Y018934D01*
X020921Y019074D02*
X020921Y019074D01*
X020921Y019233D02*
X020921Y019233D01*
X020921Y019371D02*
X020483Y019371D01*
X020921Y019371D01*
X020921Y019371D01*
X020483Y019391D02*
X019321Y019391D01*
X019307Y019233D02*
X020483Y019233D01*
X020488Y019074D02*
X019242Y019074D01*
X019291Y019550D02*
X020483Y019550D01*
X021477Y019996D02*
X021708Y019765D01*
X021940Y019996D01*
X025977Y019996D01*
X026208Y019765D01*
X026208Y019728D01*
X026477Y019996D01*
X030477Y019996D01*
X030708Y019765D01*
X030708Y019371D01*
X030708Y019728D01*
X030977Y019996D01*
X032727Y019996D01*
X033102Y019621D01*
X033102Y002996D01*
X032852Y002746D01*
X031764Y002746D01*
X031496Y003015D01*
X031227Y002746D01*
X027227Y002746D01*
X026977Y002996D01*
X026727Y002746D01*
X022727Y002746D01*
X022477Y002996D01*
X022227Y002746D01*
X018264Y002746D01*
X017996Y003015D01*
X017727Y002746D01*
X012227Y002746D01*
X011996Y002978D01*
X011996Y003496D01*
X011996Y003015D01*
X011727Y002746D01*
X007727Y002746D01*
X007496Y002978D01*
X007496Y003496D01*
X007496Y003015D01*
X007227Y002746D01*
X003227Y002746D01*
X002977Y002996D01*
X002977Y003621D01*
X002996Y003496D01*
X002602Y003863D02*
X002548Y003917D01*
X002548Y003962D01*
X003118Y004531D01*
X006656Y004531D01*
X006420Y004295D01*
X006368Y004170D01*
X006368Y003917D01*
X006315Y003863D01*
X006225Y003952D01*
X006028Y004034D01*
X005814Y004034D01*
X005616Y003952D01*
X005465Y003801D01*
X005383Y003603D01*
X005383Y003390D01*
X005465Y003192D01*
X005551Y003106D01*
X004163Y003106D01*
X004185Y003128D01*
X004208Y003169D01*
X004221Y003215D01*
X004221Y003496D01*
X003783Y003496D01*
X003783Y003496D01*
X004221Y003496D01*
X004221Y003778D01*
X004208Y003823D01*
X004185Y003864D01*
X004151Y003898D01*
X004110Y003922D01*
X004064Y003934D01*
X003783Y003934D01*
X003502Y003934D01*
X003456Y003922D01*
X003415Y003898D01*
X003385Y003868D01*
X003300Y003952D01*
X003103Y004034D01*
X002889Y004034D01*
X002691Y003952D01*
X002602Y003863D01*
X002603Y004017D02*
X002848Y004017D01*
X002762Y004175D02*
X006370Y004175D01*
X006368Y004017D02*
X006069Y004017D01*
X005773Y004017D02*
X003144Y004017D01*
X002920Y004334D02*
X006459Y004334D01*
X006617Y004492D02*
X003079Y004492D01*
X003783Y003934D02*
X003783Y003496D01*
X003783Y003496D01*
X003783Y003934D01*
X003783Y003858D02*
X003783Y003858D01*
X003783Y003700D02*
X003783Y003700D01*
X003783Y003541D02*
X003783Y003541D01*
X004221Y003541D02*
X005383Y003541D01*
X005386Y003383D02*
X004221Y003383D01*
X004221Y003224D02*
X005452Y003224D01*
X005423Y003700D02*
X004221Y003700D01*
X004188Y003858D02*
X005523Y003858D01*
X007048Y003917D02*
X007048Y003962D01*
X007243Y004156D01*
X010549Y004156D01*
X010828Y003877D01*
X010815Y003863D01*
X010725Y003952D01*
X010528Y004034D01*
X010314Y004034D01*
X010116Y003952D01*
X009965Y003801D01*
X009883Y003603D01*
X009883Y003390D01*
X009965Y003192D01*
X010051Y003106D01*
X008663Y003106D01*
X008685Y003128D01*
X008708Y003169D01*
X008721Y003215D01*
X008721Y003496D01*
X008283Y003496D01*
X008283Y003496D01*
X008721Y003496D01*
X008721Y003778D01*
X008708Y003823D01*
X008685Y003864D01*
X008651Y003898D01*
X008610Y003922D01*
X008564Y003934D01*
X008283Y003934D01*
X008002Y003934D01*
X007956Y003922D01*
X007915Y003898D01*
X007885Y003868D01*
X007800Y003952D01*
X007603Y004034D01*
X007389Y004034D01*
X007191Y003952D01*
X007102Y003863D01*
X007048Y003917D01*
X007103Y004017D02*
X007348Y004017D01*
X007644Y004017D02*
X010273Y004017D01*
X010569Y004017D02*
X010688Y004017D01*
X010023Y003858D02*
X008688Y003858D01*
X008721Y003700D02*
X009923Y003700D01*
X009883Y003541D02*
X008721Y003541D01*
X008721Y003383D02*
X009886Y003383D01*
X009952Y003224D02*
X008721Y003224D01*
X008283Y003496D02*
X008283Y003496D01*
X008283Y003934D01*
X008283Y003496D01*
X008283Y003541D02*
X008283Y003541D01*
X008283Y003700D02*
X008283Y003700D01*
X008283Y003858D02*
X008283Y003858D01*
X007546Y002432D02*
X007408Y002432D01*
X003046Y002432D02*
X000662Y002432D01*
X000662Y002590D02*
X002874Y002590D01*
X002715Y002749D02*
X000662Y002749D01*
X000662Y002907D02*
X002624Y002907D01*
X002617Y003066D02*
X002538Y003066D01*
X001879Y003066D02*
X001750Y003066D01*
X001091Y003066D02*
X000662Y003066D01*
X000662Y003224D02*
X000952Y003224D01*
X000886Y003383D02*
X000662Y003383D01*
X000662Y003541D02*
X000883Y003541D01*
X000923Y003700D02*
X000662Y003700D01*
X000662Y003858D02*
X001023Y003858D01*
X001081Y004017D02*
X000662Y004017D01*
X000662Y004175D02*
X001081Y004175D01*
X001112Y004334D02*
X000662Y004334D01*
X000662Y004492D02*
X001242Y004492D01*
X001401Y004651D02*
X000662Y004651D01*
X000662Y004809D02*
X001559Y004809D01*
X001718Y004968D02*
X000662Y004968D01*
X000662Y005126D02*
X001876Y005126D01*
X002035Y005285D02*
X000662Y005285D01*
X000662Y005443D02*
X002193Y005443D01*
X002185Y005566D02*
X001902Y005566D01*
X001902Y006321D01*
X001802Y006321D01*
X001802Y005566D01*
X001519Y005566D01*
X001047Y006038D01*
X001047Y006321D01*
X001802Y006321D01*
X001802Y006421D01*
X001047Y006421D01*
X001047Y006705D01*
X001519Y007176D01*
X001802Y007176D01*
X001802Y006421D01*
X001902Y006421D01*
X002657Y006421D01*
X002657Y006705D01*
X002185Y007176D01*
X001902Y007176D01*
X001902Y006421D01*
X001902Y006321D01*
X002657Y006321D01*
X002657Y006038D01*
X002185Y005566D01*
X002221Y005602D02*
X010374Y005602D01*
X010392Y005760D02*
X005171Y005760D01*
X005179Y005766D02*
X005247Y005834D01*
X005304Y005912D01*
X005347Y005998D01*
X005377Y006089D01*
X005392Y006184D01*
X005392Y006232D01*
X005392Y006280D01*
X005377Y006375D01*
X005347Y006466D01*
X005304Y006551D01*
X005247Y006629D01*
X005179Y006697D01*
X005102Y006753D01*
X005016Y006797D01*
X004925Y006827D01*
X004830Y006842D01*
X004352Y006842D01*
X004352Y006232D01*
X004352Y006232D01*
X004352Y006842D01*
X003874Y006842D01*
X003779Y006827D01*
X003688Y006797D01*
X003602Y006753D01*
X003525Y006697D01*
X003457Y006629D01*
X003400Y006551D01*
X003357Y006466D01*
X003327Y006375D01*
X003312Y006280D01*
X003312Y006232D01*
X004352Y006232D01*
X005392Y006232D01*
X004352Y006232D01*
X004352Y006232D01*
X004352Y006232D01*
X003312Y006232D01*
X003312Y006184D01*
X003327Y006089D01*
X003357Y005998D01*
X003400Y005912D01*
X003457Y005834D01*
X003525Y005766D01*
X003602Y005710D01*
X003688Y005666D01*
X003779Y005637D01*
X003874Y005622D01*
X004352Y005622D01*
X004830Y005622D01*
X004925Y005637D01*
X005016Y005666D01*
X005102Y005710D01*
X005179Y005766D01*
X005307Y005919D02*
X010473Y005919D01*
X011000Y006077D02*
X012452Y006077D01*
X012611Y006236D02*
X011022Y006236D01*
X011212Y006394D02*
X012769Y006394D01*
X012928Y006553D02*
X011371Y006553D01*
X011467Y006711D02*
X012949Y006711D01*
X012949Y006870D02*
X011558Y006870D01*
X011613Y007028D02*
X012949Y007028D01*
X012949Y007187D02*
X011655Y007187D01*
X011685Y007345D02*
X012949Y007345D01*
X012949Y007504D02*
X011685Y007504D01*
X011685Y007662D02*
X012949Y007662D01*
X012949Y007821D02*
X011651Y007821D01*
X011609Y007979D02*
X012949Y007979D01*
X012949Y008138D02*
X011549Y008138D01*
X011458Y008296D02*
X012949Y008296D01*
X012949Y008455D02*
X011356Y008455D01*
X011197Y008613D02*
X012949Y008613D01*
X013022Y008772D02*
X010996Y008772D01*
X010686Y008930D02*
X013180Y008930D01*
X013339Y009089D02*
X006000Y009089D01*
X005935Y009153D02*
X005674Y009261D01*
X005392Y009261D01*
X005131Y009153D01*
X004931Y008954D01*
X004823Y008693D01*
X004823Y007550D01*
X004931Y007289D01*
X005131Y007090D01*
X005392Y006981D01*
X005674Y006981D01*
X005935Y007090D01*
X006135Y007289D01*
X006243Y007550D01*
X006243Y008693D01*
X006135Y008954D01*
X005935Y009153D01*
X005708Y009247D02*
X013497Y009247D01*
X013656Y009406D02*
X000662Y009406D01*
X000662Y009564D02*
X013814Y009564D01*
X013973Y009723D02*
X000662Y009723D01*
X000662Y009881D02*
X014131Y009881D01*
X014290Y010040D02*
X000662Y010040D01*
X000662Y010198D02*
X014448Y010198D01*
X014607Y010357D02*
X000662Y010357D01*
X000662Y010515D02*
X014765Y010515D01*
X014924Y010674D02*
X001510Y010674D01*
X001669Y010832D02*
X015082Y010832D01*
X015241Y010991D02*
X001707Y010991D01*
X001707Y011308D02*
X015558Y011308D01*
X015716Y011466D02*
X001613Y011466D01*
X001454Y011625D02*
X015875Y011625D01*
X016033Y011783D02*
X000662Y011783D01*
X000662Y011625D02*
X000750Y011625D01*
X001052Y011625D02*
X001152Y011625D01*
X001152Y011466D02*
X001052Y011466D01*
X001052Y011308D02*
X001152Y011308D01*
X001152Y011149D02*
X015399Y011149D01*
X016192Y011942D02*
X000662Y011942D01*
X000662Y012100D02*
X016350Y012100D01*
X016509Y012259D02*
X000662Y012259D01*
X000662Y012417D02*
X016667Y012417D01*
X016826Y012576D02*
X000662Y012576D01*
X001614Y012734D02*
X003340Y012734D01*
X003227Y012893D02*
X001727Y012893D01*
X001777Y013051D02*
X003177Y013051D01*
X003177Y013210D02*
X001777Y013210D01*
X001719Y013368D02*
X003235Y013368D01*
X003359Y013527D02*
X001595Y013527D01*
X001565Y013685D02*
X003389Y013685D01*
X003247Y013844D02*
X001707Y013844D01*
X001772Y014002D02*
X003182Y014002D01*
X003177Y014161D02*
X001777Y014161D01*
X001739Y014319D02*
X003215Y014319D01*
X003310Y014478D02*
X001644Y014478D01*
X001405Y014636D02*
X003549Y014636D01*
X003637Y014795D02*
X001317Y014795D01*
X001317Y014953D02*
X003703Y014953D01*
X003862Y015112D02*
X001317Y015112D01*
X001317Y015270D02*
X004020Y015270D01*
X004064Y015314D02*
X004064Y015314D01*
X004206Y015429D02*
X001390Y015429D01*
X006192Y016380D02*
X014738Y016380D01*
X014579Y016538D02*
X006192Y016538D01*
X006192Y016697D02*
X014421Y016697D01*
X014262Y016855D02*
X006192Y016855D01*
X006192Y017014D02*
X014104Y017014D01*
X013945Y017172D02*
X006192Y017172D01*
X006192Y017331D02*
X013787Y017331D01*
X013628Y017489D02*
X006192Y017489D01*
X006192Y017648D02*
X013470Y017648D01*
X013311Y017806D02*
X006192Y017806D01*
X006192Y017965D02*
X013153Y017965D01*
X012994Y018123D02*
X006192Y018123D01*
X006192Y018282D02*
X012836Y018282D01*
X012677Y018440D02*
X006192Y018440D01*
X006192Y018599D02*
X012519Y018599D01*
X012360Y018757D02*
X006192Y018757D01*
X006192Y018916D02*
X012202Y018916D01*
X012043Y019074D02*
X006286Y019074D01*
X006444Y019233D02*
X009010Y019233D01*
X008851Y019391D02*
X007353Y019391D01*
X007511Y019550D02*
X008693Y019550D01*
X008534Y019708D02*
X007670Y019708D01*
X004812Y019867D02*
X004391Y019867D01*
X004572Y020025D02*
X004632Y020025D01*
X003812Y019867D02*
X003391Y019867D01*
X003572Y020025D02*
X003632Y020025D01*
X002812Y019867D02*
X002391Y019867D01*
X002572Y020025D02*
X002632Y020025D01*
X003084Y021452D02*
X003120Y021452D01*
X003120Y021610D02*
X003084Y021610D01*
X003084Y021769D02*
X003120Y021769D01*
X003422Y021769D02*
X003684Y021769D01*
X003577Y021610D02*
X003553Y021610D01*
X014317Y021610D02*
X033117Y021610D01*
X033117Y021452D02*
X014317Y021452D01*
X014317Y021293D02*
X033117Y021293D01*
X033117Y021135D02*
X014317Y021135D01*
X014317Y020976D02*
X033117Y020976D01*
X033117Y020818D02*
X014317Y020818D01*
X014317Y020659D02*
X033117Y020659D01*
X033117Y020501D02*
X014317Y020501D01*
X014317Y020342D02*
X017372Y020342D01*
X017155Y020184D02*
X014317Y020184D01*
X014317Y020025D02*
X016997Y020025D01*
X016876Y019867D02*
X014317Y019867D01*
X014317Y019708D02*
X016001Y019708D01*
X015996Y019698D02*
X015983Y019653D01*
X015983Y019371D01*
X016421Y019371D01*
X016421Y019371D01*
X016421Y019371D01*
X016421Y019809D01*
X016140Y019809D01*
X016094Y019797D01*
X016053Y019773D01*
X016019Y019739D01*
X015996Y019698D01*
X015983Y019550D02*
X014317Y019550D01*
X014317Y019391D02*
X015983Y019391D01*
X015983Y019233D02*
X014317Y019233D01*
X016421Y019233D02*
X016421Y019233D01*
X016421Y019391D02*
X016421Y019391D01*
X016421Y019550D02*
X016421Y019550D01*
X016421Y019708D02*
X016421Y019708D01*
X017208Y019728D02*
X017208Y019371D01*
X017208Y019728D02*
X017477Y019996D01*
X021477Y019996D01*
X021708Y019765D02*
X021708Y019371D01*
X022102Y019005D02*
X022191Y018916D01*
X022102Y019005D02*
X022013Y018916D01*
X022800Y018916D02*
X022978Y018916D01*
X023588Y018916D02*
X023739Y019067D01*
X023821Y019265D01*
X023821Y019478D01*
X023755Y019636D01*
X024983Y019636D01*
X024983Y019371D01*
X024983Y019090D01*
X024996Y019044D01*
X025019Y019003D01*
X025053Y018970D01*
X025094Y018946D01*
X025140Y018934D01*
X025421Y018934D01*
X025702Y018934D01*
X025748Y018946D01*
X025789Y018970D01*
X025819Y019000D01*
X025904Y018916D01*
X025421Y018934D02*
X025421Y019371D01*
X025421Y019371D01*
X025421Y018934D01*
X025421Y019074D02*
X025421Y019074D01*
X025421Y019233D02*
X025421Y019233D01*
X025421Y019371D02*
X024983Y019371D01*
X025421Y019371D01*
X025421Y019371D01*
X024983Y019391D02*
X023821Y019391D01*
X023807Y019233D02*
X024983Y019233D01*
X024988Y019074D02*
X023742Y019074D01*
X023791Y019550D02*
X024983Y019550D01*
X026208Y019728D02*
X026208Y019371D01*
X026602Y019005D02*
X026691Y018916D01*
X026602Y019005D02*
X026513Y018916D01*
X027300Y018916D02*
X027478Y018916D01*
X028088Y018916D02*
X028239Y019067D01*
X028321Y019265D01*
X028321Y019478D01*
X028255Y019636D01*
X029483Y019636D01*
X029483Y019371D01*
X029483Y019090D01*
X029496Y019044D01*
X029519Y019003D01*
X029553Y018970D01*
X029568Y018961D01*
X028409Y018961D01*
X028284Y018910D01*
X028242Y019074D02*
X029488Y019074D01*
X029483Y019233D02*
X028307Y019233D01*
X028321Y019391D02*
X029483Y019391D01*
X029483Y019371D02*
X029921Y019371D01*
X029483Y019371D01*
X029483Y019550D02*
X028291Y019550D01*
X029921Y019371D02*
X029921Y019371D01*
X030582Y020342D02*
X030872Y020342D01*
X032832Y020342D02*
X033117Y020342D01*
X033117Y020184D02*
X033049Y020184D01*
X033117Y021769D02*
X014317Y021769D01*
X014317Y021927D02*
X033117Y021927D01*
X026372Y020342D02*
X026082Y020342D01*
X021834Y020342D02*
X021582Y020342D01*
X016421Y019074D02*
X016421Y019074D01*
X017751Y014953D02*
X018296Y014953D01*
X018068Y014636D02*
X018819Y014636D01*
X018754Y014478D02*
X018226Y014478D01*
X018385Y014319D02*
X018749Y014319D01*
X018797Y014161D02*
X018543Y014161D01*
X018702Y014002D02*
X018920Y014002D01*
X019000Y014795D02*
X017909Y014795D01*
X016939Y012689D02*
X016939Y012689D01*
X018077Y010991D02*
X024179Y010991D01*
X023262Y010832D02*
X017919Y010832D01*
X017760Y010674D02*
X023158Y010674D01*
X022945Y010515D02*
X017602Y010515D01*
X017443Y010357D02*
X022807Y010357D01*
X022749Y010198D02*
X017285Y010198D01*
X017126Y010040D02*
X022749Y010040D01*
X022809Y009881D02*
X016968Y009881D01*
X016809Y009723D02*
X022887Y009723D01*
X022887Y009564D02*
X016651Y009564D01*
X016492Y009406D02*
X018199Y009406D01*
X018040Y009247D02*
X016334Y009247D01*
X016175Y009089D02*
X017882Y009089D01*
X017723Y008930D02*
X016017Y008930D01*
X015858Y008772D02*
X017565Y008772D01*
X017406Y008613D02*
X015700Y008613D01*
X015541Y008455D02*
X017248Y008455D01*
X017089Y008296D02*
X015383Y008296D01*
X015224Y008138D02*
X016931Y008138D01*
X016772Y007979D02*
X015066Y007979D01*
X014942Y007821D02*
X016614Y007821D01*
X016455Y007662D02*
X014942Y007662D01*
X014942Y007504D02*
X016297Y007504D01*
X016138Y007345D02*
X014942Y007345D01*
X014942Y007187D02*
X015980Y007187D01*
X015821Y007028D02*
X014942Y007028D01*
X014942Y006870D02*
X015663Y006870D01*
X015504Y006711D02*
X014942Y006711D01*
X014942Y006553D02*
X015346Y006553D01*
X015227Y006394D02*
X014942Y006394D01*
X014942Y006236D02*
X015227Y006236D01*
X015227Y006077D02*
X014942Y006077D01*
X014942Y005919D02*
X015227Y005919D01*
X015227Y005760D02*
X014924Y005760D01*
X014813Y005602D02*
X015227Y005602D01*
X015227Y005443D02*
X014655Y005443D01*
X014496Y005285D02*
X015227Y005285D01*
X015227Y005126D02*
X014338Y005126D01*
X014179Y004968D02*
X015227Y004968D01*
X015227Y004809D02*
X014021Y004809D01*
X013862Y004651D02*
X015227Y004651D01*
X015227Y004492D02*
X013704Y004492D01*
X013545Y004334D02*
X015227Y004334D01*
X015227Y004175D02*
X013340Y004175D01*
X013188Y003858D02*
X015227Y003858D01*
X015227Y003700D02*
X013221Y003700D01*
X013221Y003541D02*
X015227Y003541D01*
X015227Y003383D02*
X013221Y003383D01*
X013221Y003224D02*
X015227Y003224D01*
X015227Y004017D02*
X012144Y004017D01*
X011848Y004017D02*
X011728Y004017D01*
X012783Y003934D02*
X012783Y003496D01*
X012783Y003496D01*
X012783Y003934D01*
X012783Y003858D02*
X012783Y003858D01*
X012783Y003700D02*
X012783Y003700D01*
X012783Y003541D02*
X012783Y003541D01*
X012046Y002432D02*
X011908Y002432D01*
X015227Y002273D02*
X000662Y002273D01*
X000662Y002115D02*
X015227Y002115D01*
X015227Y001956D02*
X000662Y001956D01*
X000662Y001798D02*
X015227Y001798D01*
X015227Y001639D02*
X000662Y001639D01*
X000662Y001481D02*
X015227Y001481D01*
X015227Y001322D02*
X000662Y001322D01*
X000662Y001164D02*
X015227Y001164D01*
X015227Y001005D02*
X000662Y001005D01*
X000662Y005602D02*
X001483Y005602D01*
X001325Y005760D02*
X000662Y005760D01*
X000662Y005919D02*
X001166Y005919D01*
X001047Y006077D02*
X000662Y006077D01*
X000662Y006236D02*
X001047Y006236D01*
X001047Y006553D02*
X000662Y006553D01*
X000662Y006711D02*
X001054Y006711D01*
X001212Y006870D02*
X000662Y006870D01*
X000662Y007028D02*
X001371Y007028D01*
X001802Y007028D02*
X001902Y007028D01*
X001902Y006870D02*
X001802Y006870D01*
X001802Y006711D02*
X001902Y006711D01*
X001902Y006553D02*
X001802Y006553D01*
X001802Y006394D02*
X000662Y006394D01*
X000662Y007187D02*
X002827Y007187D01*
X002851Y007170D02*
X002937Y007126D01*
X003028Y007096D01*
X003123Y007081D01*
X003171Y007081D01*
X003219Y007081D01*
X003314Y007096D01*
X003405Y007126D01*
X003491Y007170D01*
X003568Y007226D01*
X003636Y007294D01*
X003693Y007372D01*
X003736Y007457D01*
X003766Y007549D01*
X003781Y007643D01*
X003781Y008121D01*
X003171Y008121D01*
X003171Y007081D01*
X003171Y008121D01*
X003171Y008121D01*
X003171Y008121D01*
X003781Y008121D01*
X003781Y008599D01*
X003766Y008694D01*
X003736Y008786D01*
X003693Y008871D01*
X003636Y008949D01*
X003568Y009017D01*
X003491Y009073D01*
X003405Y009117D01*
X003314Y009146D01*
X003219Y009161D01*
X003171Y009161D01*
X003171Y008121D01*
X003171Y008121D01*
X003171Y009161D01*
X003123Y009161D01*
X003028Y009146D01*
X002937Y009117D01*
X002851Y009073D01*
X002773Y009017D01*
X002706Y008949D01*
X002649Y008871D01*
X002643Y008860D01*
X002227Y009276D01*
X001477Y009276D01*
X000947Y008746D01*
X000947Y007997D01*
X001477Y007466D01*
X002227Y007466D01*
X002561Y007800D01*
X002561Y007643D01*
X002576Y007549D01*
X002606Y007457D01*
X002649Y007372D01*
X002706Y007294D01*
X002773Y007226D01*
X002851Y007170D01*
X002668Y007345D02*
X000662Y007345D01*
X000662Y007504D02*
X001440Y007504D01*
X001281Y007662D02*
X000662Y007662D01*
X000662Y007821D02*
X001123Y007821D01*
X000964Y007979D02*
X000662Y007979D01*
X000662Y008138D02*
X000947Y008138D01*
X000947Y008296D02*
X000662Y008296D01*
X000662Y008455D02*
X000947Y008455D01*
X000947Y008613D02*
X000662Y008613D01*
X000662Y008772D02*
X000973Y008772D01*
X001131Y008930D02*
X000662Y008930D01*
X000662Y009089D02*
X001290Y009089D01*
X001448Y009247D02*
X000662Y009247D01*
X002256Y009247D02*
X005358Y009247D01*
X005066Y009089D02*
X003460Y009089D01*
X003649Y008930D02*
X004922Y008930D01*
X004856Y008772D02*
X003741Y008772D01*
X003779Y008613D02*
X004823Y008613D01*
X004823Y008455D02*
X003781Y008455D01*
X003781Y008296D02*
X004823Y008296D01*
X004823Y008138D02*
X003781Y008138D01*
X003781Y007979D02*
X004823Y007979D01*
X004823Y007821D02*
X003781Y007821D01*
X003781Y007662D02*
X004823Y007662D01*
X004842Y007504D02*
X003751Y007504D01*
X003673Y007345D02*
X004908Y007345D01*
X005033Y007187D02*
X003514Y007187D01*
X003171Y007187D02*
X003171Y007187D01*
X003171Y007345D02*
X003171Y007345D01*
X003171Y007504D02*
X003171Y007504D01*
X003171Y007662D02*
X003171Y007662D01*
X003171Y007821D02*
X003171Y007821D01*
X003171Y007979D02*
X003171Y007979D01*
X003171Y008138D02*
X003171Y008138D01*
X003171Y008296D02*
X003171Y008296D01*
X003171Y008455D02*
X003171Y008455D01*
X003171Y008613D02*
X003171Y008613D01*
X003171Y008772D02*
X003171Y008772D01*
X003171Y008930D02*
X003171Y008930D01*
X003171Y009089D02*
X003171Y009089D01*
X002882Y009089D02*
X002414Y009089D01*
X002573Y008930D02*
X002692Y008930D01*
X002561Y007662D02*
X002423Y007662D01*
X002264Y007504D02*
X002590Y007504D01*
X002333Y007028D02*
X005278Y007028D01*
X005159Y006711D02*
X008862Y006711D01*
X008771Y006870D02*
X002492Y006870D01*
X002650Y006711D02*
X003545Y006711D01*
X003401Y006553D02*
X002657Y006553D01*
X002657Y006236D02*
X003312Y006236D01*
X003331Y006077D02*
X002657Y006077D01*
X002538Y005919D02*
X003397Y005919D01*
X003533Y005760D02*
X002379Y005760D01*
X001902Y005760D02*
X001802Y005760D01*
X001802Y005602D02*
X001902Y005602D01*
X001902Y005919D02*
X001802Y005919D01*
X001802Y006077D02*
X001902Y006077D01*
X001902Y006236D02*
X001802Y006236D01*
X001902Y006394D02*
X003333Y006394D01*
X004352Y006394D02*
X004352Y006394D01*
X004352Y006236D02*
X004352Y006236D01*
X004352Y006232D02*
X004352Y005622D01*
X004352Y006232D01*
X004352Y006232D01*
X004352Y006077D02*
X004352Y006077D01*
X004352Y005919D02*
X004352Y005919D01*
X004352Y005760D02*
X004352Y005760D01*
X004352Y006553D02*
X004352Y006553D01*
X004352Y006711D02*
X004352Y006711D01*
X005303Y006553D02*
X008958Y006553D01*
X009117Y006394D02*
X005370Y006394D01*
X005392Y006236D02*
X009307Y006236D01*
X009587Y006077D02*
X005373Y006077D01*
X005788Y007028D02*
X008716Y007028D01*
X008674Y007187D02*
X006033Y007187D01*
X006158Y007345D02*
X008644Y007345D01*
X008644Y007504D02*
X006224Y007504D01*
X006243Y007662D02*
X008644Y007662D01*
X008678Y007821D02*
X006243Y007821D01*
X006243Y007979D02*
X008720Y007979D01*
X008780Y008138D02*
X006243Y008138D01*
X006243Y008296D02*
X008871Y008296D01*
X008973Y008455D02*
X006243Y008455D01*
X006243Y008613D02*
X009132Y008613D01*
X009333Y008772D02*
X006210Y008772D01*
X006145Y008930D02*
X009643Y008930D01*
X001152Y010674D02*
X001052Y010674D01*
X001052Y010832D02*
X001152Y010832D01*
X001152Y010991D02*
X001052Y010991D01*
X000694Y010674D02*
X000662Y010674D01*
X017996Y003496D02*
X017996Y003015D01*
X022477Y002996D02*
X022477Y003496D01*
X022496Y003515D01*
X022496Y003496D01*
X026977Y003496D02*
X026977Y002996D01*
X026977Y003496D02*
X026996Y003515D01*
X026996Y003496D01*
X030708Y006077D02*
X032742Y006077D01*
X032742Y006236D02*
X030550Y006236D01*
X030391Y006394D02*
X032742Y006394D01*
X032742Y006553D02*
X030233Y006553D01*
X030074Y006711D02*
X032742Y006711D01*
X032742Y006870D02*
X029916Y006870D01*
X029757Y007028D02*
X032742Y007028D01*
X032742Y007187D02*
X029599Y007187D01*
X029440Y007345D02*
X030046Y007345D01*
X029964Y007379D02*
X029710Y007634D01*
X029572Y007966D01*
X029572Y008326D01*
X029710Y008659D01*
X029964Y008914D01*
X030297Y009051D01*
X030657Y009051D01*
X030990Y008914D01*
X031244Y008659D01*
X031382Y008326D01*
X031382Y007966D01*
X031244Y007634D01*
X030990Y007379D01*
X030657Y007241D01*
X030297Y007241D01*
X029964Y007379D01*
X029840Y007504D02*
X029282Y007504D01*
X029123Y007662D02*
X029698Y007662D01*
X029632Y007821D02*
X028965Y007821D01*
X028806Y007979D02*
X029572Y007979D01*
X029572Y008138D02*
X028648Y008138D01*
X028489Y008296D02*
X029572Y008296D01*
X029625Y008455D02*
X028331Y008455D01*
X028172Y008613D02*
X029691Y008613D01*
X029823Y008772D02*
X028014Y008772D01*
X027855Y008930D02*
X030005Y008930D01*
X030949Y008930D02*
X032742Y008930D01*
X032742Y008772D02*
X031131Y008772D01*
X031263Y008613D02*
X032742Y008613D01*
X032742Y008455D02*
X031329Y008455D01*
X031382Y008296D02*
X032742Y008296D01*
X032742Y008138D02*
X031382Y008138D01*
X031382Y007979D02*
X032742Y007979D01*
X032742Y007821D02*
X031322Y007821D01*
X031256Y007662D02*
X032742Y007662D01*
X032742Y007504D02*
X031114Y007504D01*
X030908Y007345D02*
X032742Y007345D01*
X032742Y009089D02*
X027697Y009089D01*
X027538Y009247D02*
X032742Y009247D01*
X032742Y009406D02*
X027380Y009406D01*
X030477Y009881D02*
X030477Y009881D01*
X030477Y010040D02*
X030477Y010040D01*
X030477Y010198D02*
X030477Y010198D01*
X030477Y010357D02*
X030477Y010357D01*
X030477Y010515D02*
X030477Y010515D01*
X030477Y010674D02*
X030477Y010674D01*
X030477Y010832D02*
X030477Y010832D01*
X030477Y010991D02*
X030477Y010991D01*
X030477Y011149D02*
X030477Y011149D01*
X030477Y011308D02*
X030477Y011308D01*
X030477Y011466D02*
X030477Y011466D01*
X030477Y011625D02*
X030477Y011625D01*
X030297Y012441D02*
X030657Y012441D01*
X030990Y012579D01*
X031244Y012834D01*
X031382Y013166D01*
X031382Y013526D01*
X031244Y013859D01*
X030990Y014114D01*
X030657Y014251D01*
X030297Y014251D01*
X029964Y014114D01*
X029710Y013859D01*
X029572Y013526D01*
X029572Y013166D01*
X029710Y012834D01*
X029964Y012579D01*
X030297Y012441D01*
X029972Y012576D02*
X028207Y012576D01*
X028162Y012417D02*
X032742Y012417D01*
X032742Y012259D02*
X028043Y012259D01*
X028321Y012734D02*
X029809Y012734D01*
X029685Y012893D02*
X028479Y012893D01*
X028566Y013051D02*
X029620Y013051D01*
X029572Y013210D02*
X028567Y013210D01*
X028567Y013368D02*
X029572Y013368D01*
X029572Y013527D02*
X028567Y013527D01*
X028567Y013685D02*
X029638Y013685D01*
X029703Y013844D02*
X028567Y013844D01*
X028567Y014002D02*
X029853Y014002D01*
X030079Y014161D02*
X028567Y014161D01*
X028567Y014319D02*
X032742Y014319D01*
X032742Y014161D02*
X030875Y014161D01*
X031101Y014002D02*
X032742Y014002D01*
X032742Y013844D02*
X031250Y013844D01*
X031316Y013685D02*
X032742Y013685D01*
X032742Y013527D02*
X031382Y013527D01*
X031382Y013368D02*
X032742Y013368D01*
X032742Y013210D02*
X031382Y013210D01*
X031334Y013051D02*
X032742Y013051D01*
X032742Y012893D02*
X031269Y012893D01*
X031145Y012734D02*
X032742Y012734D01*
X032742Y012576D02*
X030982Y012576D01*
X032742Y014478D02*
X028567Y014478D01*
X028567Y014636D02*
X032742Y014636D01*
X032742Y014795D02*
X028567Y014795D01*
X028567Y014953D02*
X032742Y014953D01*
X032742Y015112D02*
X028567Y015112D01*
X028567Y015270D02*
X032742Y015270D01*
X032742Y015429D02*
X028567Y015429D01*
X028567Y015587D02*
X032742Y015587D01*
X032742Y015746D02*
X028567Y015746D01*
X028567Y015904D02*
X032742Y015904D01*
X032742Y016063D02*
X032251Y016063D01*
X032559Y016221D02*
X032742Y016221D01*
X031203Y016063D02*
X028567Y016063D01*
X028567Y016221D02*
X030895Y016221D01*
X030694Y016380D02*
X028567Y016380D01*
X028567Y016538D02*
X030535Y016538D01*
X030433Y016697D02*
X028567Y016697D01*
X028567Y016855D02*
X028687Y016855D01*
X029017Y016855D02*
X029687Y016855D01*
X029446Y017014D02*
X029258Y017014D01*
X030017Y016855D02*
X030342Y016855D01*
X030282Y017014D02*
X030258Y017014D01*
X025862Y014953D02*
X025563Y014953D01*
X025692Y015112D02*
X025405Y015112D01*
X025246Y015270D02*
X025626Y015270D01*
X025624Y015429D02*
X025088Y015429D01*
X023942Y009564D02*
X032742Y009564D01*
X031496Y003496D02*
X031496Y003015D01*
D27*
X024352Y004371D03*
X023102Y004746D03*
X024352Y001621D03*
X023227Y010121D03*
X023602Y010496D03*
X023477Y013121D03*
X023477Y013621D03*
X023352Y014371D03*
X022477Y013996D03*
X019727Y014871D03*
X019227Y014371D03*
X015727Y017996D03*
X023477Y018121D03*
X025477Y017996D03*
X026102Y015371D03*
X010852Y005621D03*
X004852Y015871D03*
X004602Y020871D03*
X002602Y020871D03*
D28*
X001102Y020371D02*
X001102Y019621D01*
X000977Y019496D01*
X000977Y016246D01*
X001352Y015871D01*
X004852Y015871D01*
X005602Y015621D02*
X005102Y015121D01*
X004352Y015121D01*
X003977Y014746D01*
X003977Y014121D01*
X003977Y013121D02*
X005352Y013121D01*
X005852Y013621D01*
X005852Y019121D01*
X006352Y019621D01*
X007102Y019621D01*
X007602Y020121D01*
X007602Y020871D01*
X008102Y021371D01*
X008602Y021621D02*
X008352Y021871D01*
X005602Y021871D01*
X005102Y021371D01*
X005602Y020871D02*
X005602Y015621D01*
X001352Y015871D02*
X000977Y015496D01*
X000977Y014121D01*
X000977Y013121D01*
X008602Y020121D02*
X009227Y019496D01*
X012102Y019496D01*
X018352Y013246D01*
X022977Y013246D01*
X023102Y013121D01*
X023477Y013121D01*
X023477Y013621D02*
X018602Y013621D01*
X013977Y018246D01*
X013977Y021871D01*
X013727Y022121D01*
X004477Y022121D01*
X004102Y021746D01*
X004102Y021371D01*
X005602Y020871D02*
X006102Y021371D01*
X008602Y021621D02*
X008602Y020121D01*
X015727Y017996D02*
X018477Y015246D01*
X024789Y015246D01*
X025664Y014371D01*
X025102Y014371D02*
X025102Y013496D01*
X024477Y012871D01*
X025477Y012496D02*
X026227Y013246D01*
X026227Y015246D01*
X026102Y015371D01*
X024352Y014371D02*
X023977Y013996D01*
X023102Y013996D01*
X022602Y014496D01*
X022352Y014496D01*
X022477Y013996D02*
X022102Y013996D01*
X021727Y014371D01*
X019227Y014371D01*
X019727Y014871D02*
X022852Y014871D01*
X023352Y014371D01*
X025477Y012496D02*
X017227Y012496D01*
X013289Y008559D01*
X013289Y006434D01*
X012477Y005621D01*
X010852Y005621D01*
X010690Y004496D02*
X011208Y003978D01*
X011727Y004496D01*
X013227Y004496D01*
X014602Y005871D01*
X014602Y007996D01*
X017977Y011371D01*
X024477Y011371D01*
X023602Y010496D02*
X023602Y005121D01*
X024352Y004371D01*
X024810Y004400D02*
X025737Y004400D01*
X025737Y004285D02*
X025737Y004566D01*
X026072Y004566D01*
X026182Y004566D01*
X026182Y004146D01*
X026289Y004146D01*
X026350Y004086D01*
X026445Y004046D01*
X027009Y004046D01*
X027027Y004054D01*
X027045Y004046D01*
X027609Y004046D01*
X027704Y004086D01*
X027777Y004159D01*
X027817Y004255D01*
X027817Y004988D01*
X027777Y005084D01*
X027704Y005157D01*
X027647Y005181D01*
X027647Y005812D01*
X027704Y005836D01*
X027777Y005909D01*
X027817Y006005D01*
X027817Y006738D01*
X027777Y006834D01*
X027704Y006907D01*
X027647Y006931D01*
X027647Y006960D01*
X027598Y007078D01*
X025998Y008678D01*
X025908Y008768D01*
X025791Y008816D01*
X024433Y008816D01*
X024363Y008886D01*
X024193Y008956D01*
X024010Y008956D01*
X023922Y008920D01*
X023922Y009121D01*
X027102Y009121D01*
X030602Y005621D01*
X032762Y005621D01*
X032762Y003137D01*
X032711Y003086D01*
X032590Y003086D01*
X032602Y003090D01*
X032639Y003111D01*
X032669Y003141D01*
X032690Y003177D01*
X032701Y003218D01*
X032701Y003478D01*
X032302Y003478D01*
X032302Y003515D01*
X032701Y003515D01*
X032701Y003775D01*
X032690Y003816D01*
X032669Y003852D01*
X032639Y003882D01*
X032602Y003903D01*
X032562Y003914D01*
X032302Y003914D01*
X032302Y003515D01*
X032264Y003515D01*
X032264Y003914D01*
X032005Y003914D01*
X031964Y003903D01*
X031927Y003882D01*
X031898Y003852D01*
X031888Y003836D01*
X031789Y003935D01*
X031599Y004014D01*
X031393Y004014D01*
X031203Y003935D01*
X031102Y003835D01*
X031001Y003935D01*
X030811Y004014D01*
X030605Y004014D01*
X030415Y003935D01*
X030315Y003835D01*
X030214Y003935D01*
X030024Y004014D01*
X029818Y004014D01*
X029628Y003935D01*
X029482Y003790D01*
X029403Y003599D01*
X029403Y003394D01*
X029482Y003203D01*
X029599Y003086D01*
X028090Y003086D01*
X028102Y003090D01*
X028139Y003111D01*
X028169Y003141D01*
X028190Y003177D01*
X028201Y003218D01*
X028201Y003478D01*
X027802Y003478D01*
X027802Y003515D01*
X028201Y003515D01*
X028201Y003775D01*
X028190Y003816D01*
X028169Y003852D01*
X028139Y003882D01*
X028102Y003903D01*
X028062Y003914D01*
X027802Y003914D01*
X027802Y003515D01*
X027764Y003515D01*
X027764Y003914D01*
X027505Y003914D01*
X027464Y003903D01*
X027427Y003882D01*
X027398Y003852D01*
X027388Y003836D01*
X027289Y003935D01*
X027099Y004014D01*
X026893Y004014D01*
X026703Y003935D01*
X026602Y003835D01*
X026501Y003935D01*
X026311Y004014D01*
X026105Y004014D01*
X025915Y003935D01*
X025815Y003835D01*
X025714Y003935D01*
X025524Y004014D01*
X025318Y004014D01*
X025128Y003935D01*
X024982Y003790D01*
X024903Y003599D01*
X024903Y003394D01*
X024982Y003203D01*
X025099Y003086D01*
X023590Y003086D01*
X023602Y003090D01*
X023639Y003111D01*
X023669Y003141D01*
X023690Y003177D01*
X023701Y003218D01*
X023701Y003478D01*
X023302Y003478D01*
X023302Y003515D01*
X023701Y003515D01*
X023701Y003775D01*
X023690Y003816D01*
X023669Y003852D01*
X023639Y003882D01*
X023602Y003903D01*
X023562Y003914D01*
X023302Y003914D01*
X023302Y003515D01*
X023264Y003515D01*
X023264Y003914D01*
X023005Y003914D01*
X022964Y003903D01*
X022927Y003882D01*
X022898Y003852D01*
X022888Y003836D01*
X022789Y003935D01*
X022599Y004014D01*
X022393Y004014D01*
X022203Y003935D01*
X022102Y003835D01*
X022001Y003935D01*
X021811Y004014D01*
X021605Y004014D01*
X021415Y003935D01*
X021315Y003835D01*
X021214Y003935D01*
X021024Y004014D01*
X020818Y004014D01*
X020628Y003935D01*
X020482Y003790D01*
X020403Y003599D01*
X020403Y003394D01*
X020482Y003203D01*
X020599Y003086D01*
X019090Y003086D01*
X019102Y003090D01*
X019139Y003111D01*
X019169Y003141D01*
X019190Y003177D01*
X019201Y003218D01*
X019201Y003478D01*
X018802Y003478D01*
X018802Y003515D01*
X019201Y003515D01*
X019201Y003775D01*
X019190Y003816D01*
X019169Y003852D01*
X019139Y003882D01*
X019102Y003903D01*
X019062Y003914D01*
X018802Y003914D01*
X018802Y003515D01*
X018764Y003515D01*
X018764Y003914D01*
X018505Y003914D01*
X018464Y003903D01*
X018427Y003882D01*
X018398Y003852D01*
X018388Y003836D01*
X018289Y003935D01*
X018099Y004014D01*
X017893Y004014D01*
X017703Y003935D01*
X017602Y003835D01*
X017501Y003935D01*
X017311Y004014D01*
X017105Y004014D01*
X016915Y003935D01*
X016815Y003835D01*
X016714Y003935D01*
X016524Y004014D01*
X016318Y004014D01*
X016128Y003935D01*
X015982Y003790D01*
X015903Y003599D01*
X015903Y003394D01*
X015982Y003203D01*
X016099Y003086D01*
X015602Y003086D01*
X015602Y006246D01*
X018477Y009121D01*
X022907Y009121D01*
X022907Y005254D01*
X022831Y005178D01*
X022792Y005084D01*
X022714Y005006D01*
X022644Y004838D01*
X022644Y004655D01*
X022714Y004487D01*
X022842Y004358D01*
X023011Y004288D01*
X023193Y004288D01*
X023361Y004358D01*
X023490Y004487D01*
X023560Y004655D01*
X023560Y004711D01*
X023894Y004377D01*
X023894Y004280D01*
X023964Y004112D01*
X024092Y003983D01*
X024261Y003913D01*
X024443Y003913D01*
X024611Y003983D01*
X024740Y004112D01*
X024810Y004280D01*
X024810Y004463D01*
X024740Y004631D01*
X024611Y004760D01*
X024443Y004830D01*
X024346Y004830D01*
X023922Y005254D01*
X023922Y008073D01*
X024010Y008036D01*
X024193Y008036D01*
X024363Y008106D01*
X024433Y008176D01*
X025594Y008176D01*
X026824Y006946D01*
X026445Y006946D01*
X026350Y006907D01*
X026289Y006846D01*
X026182Y006846D01*
X026182Y006426D01*
X026072Y006426D01*
X026072Y006316D01*
X025737Y006316D01*
X025737Y006066D01*
X025433Y006066D01*
X025363Y006136D01*
X025193Y006206D01*
X025010Y006206D01*
X024841Y006136D01*
X024712Y006007D01*
X024642Y005838D01*
X024642Y005655D01*
X024708Y005496D01*
X024642Y005338D01*
X024642Y005155D01*
X024712Y004986D01*
X024841Y004856D01*
X025010Y004786D01*
X025193Y004786D01*
X025363Y004856D01*
X025433Y004926D01*
X025737Y004926D01*
X025737Y004676D01*
X026072Y004676D01*
X026072Y004566D01*
X026072Y004146D01*
X025876Y004146D01*
X025835Y004157D01*
X025799Y004178D01*
X025769Y004208D01*
X025748Y004245D01*
X025737Y004285D01*
X025738Y004282D02*
X024810Y004282D01*
X024762Y004163D02*
X025825Y004163D01*
X026072Y004163D02*
X026182Y004163D01*
X026182Y004282D02*
X026072Y004282D01*
X026072Y004400D02*
X026182Y004400D01*
X026182Y004519D02*
X026072Y004519D01*
X026072Y004637D02*
X024734Y004637D01*
X024787Y004519D02*
X025737Y004519D01*
X025737Y004756D02*
X024615Y004756D01*
X024823Y004874D02*
X024302Y004874D01*
X024183Y004993D02*
X024709Y004993D01*
X024660Y005111D02*
X024065Y005111D01*
X023946Y005230D02*
X024642Y005230D01*
X024646Y005348D02*
X023922Y005348D01*
X023922Y005467D02*
X024695Y005467D01*
X024671Y005585D02*
X023922Y005585D01*
X023922Y005704D02*
X024642Y005704D01*
X024642Y005822D02*
X023922Y005822D01*
X023922Y005941D02*
X024685Y005941D01*
X024764Y006059D02*
X023922Y006059D01*
X023922Y006178D02*
X024942Y006178D01*
X025262Y006178D02*
X025737Y006178D01*
X025737Y006296D02*
X023922Y006296D01*
X023922Y006415D02*
X026072Y006415D01*
X026072Y006426D02*
X025737Y006426D01*
X025737Y006708D01*
X025748Y006748D01*
X025769Y006785D01*
X025799Y006814D01*
X025835Y006836D01*
X025876Y006846D01*
X026072Y006846D01*
X026072Y006426D01*
X026072Y006533D02*
X026182Y006533D01*
X026182Y006652D02*
X026072Y006652D01*
X026072Y006770D02*
X026182Y006770D01*
X026332Y006889D02*
X023922Y006889D01*
X023922Y007007D02*
X026763Y007007D01*
X026645Y007126D02*
X023922Y007126D01*
X023922Y007244D02*
X026526Y007244D01*
X026408Y007363D02*
X023922Y007363D01*
X023922Y007481D02*
X026289Y007481D01*
X026171Y007600D02*
X023922Y007600D01*
X023922Y007718D02*
X026052Y007718D01*
X025934Y007837D02*
X023922Y007837D01*
X023922Y007955D02*
X025815Y007955D01*
X025697Y008074D02*
X024284Y008074D01*
X024102Y008496D02*
X025727Y008496D01*
X027327Y006896D01*
X027327Y006371D01*
X027327Y004621D01*
X026727Y004621D02*
X026727Y005121D01*
X026602Y005246D01*
X025102Y005246D01*
X025381Y004874D02*
X025737Y004874D01*
X025723Y003926D02*
X025906Y003926D01*
X026510Y003926D02*
X026694Y003926D01*
X027297Y003926D02*
X029619Y003926D01*
X029501Y003808D02*
X028192Y003808D01*
X028201Y003689D02*
X029441Y003689D01*
X029403Y003571D02*
X028201Y003571D01*
X028201Y003452D02*
X029403Y003452D01*
X029428Y003334D02*
X028201Y003334D01*
X028200Y003215D02*
X029477Y003215D01*
X029589Y003097D02*
X028115Y003097D01*
X027802Y003571D02*
X027764Y003571D01*
X027764Y003689D02*
X027802Y003689D01*
X027802Y003808D02*
X027764Y003808D01*
X027779Y004163D02*
X032762Y004163D01*
X032762Y004045D02*
X024673Y004045D01*
X024475Y003926D02*
X025119Y003926D01*
X025001Y003808D02*
X023692Y003808D01*
X023701Y003689D02*
X024941Y003689D01*
X024903Y003571D02*
X023701Y003571D01*
X023701Y003452D02*
X024903Y003452D01*
X024928Y003334D02*
X023701Y003334D01*
X023700Y003215D02*
X024977Y003215D01*
X025089Y003097D02*
X023615Y003097D01*
X023302Y003571D02*
X023264Y003571D01*
X023264Y003689D02*
X023302Y003689D01*
X023302Y003808D02*
X023264Y003808D01*
X022797Y003926D02*
X024229Y003926D01*
X024031Y004045D02*
X015602Y004045D01*
X015602Y004163D02*
X023942Y004163D01*
X023894Y004282D02*
X015602Y004282D01*
X015602Y004400D02*
X022800Y004400D01*
X022700Y004519D02*
X015602Y004519D01*
X015602Y004637D02*
X022651Y004637D01*
X022644Y004756D02*
X015602Y004756D01*
X015602Y004874D02*
X022659Y004874D01*
X022708Y004993D02*
X015602Y004993D01*
X015602Y005111D02*
X022803Y005111D01*
X022883Y005230D02*
X015602Y005230D01*
X015602Y005348D02*
X022907Y005348D01*
X022907Y005467D02*
X015602Y005467D01*
X015602Y005585D02*
X022907Y005585D01*
X022907Y005704D02*
X015602Y005704D01*
X015602Y005822D02*
X022907Y005822D01*
X022907Y005941D02*
X015602Y005941D01*
X015602Y006059D02*
X022907Y006059D01*
X022907Y006178D02*
X015602Y006178D01*
X015652Y006296D02*
X022907Y006296D01*
X022907Y006415D02*
X015770Y006415D01*
X015889Y006533D02*
X022907Y006533D01*
X022907Y006652D02*
X016007Y006652D01*
X016126Y006770D02*
X022907Y006770D01*
X022907Y006889D02*
X016244Y006889D01*
X016363Y007007D02*
X022907Y007007D01*
X022907Y007126D02*
X016481Y007126D01*
X016600Y007244D02*
X022907Y007244D01*
X022907Y007363D02*
X016718Y007363D01*
X016837Y007481D02*
X022907Y007481D01*
X022907Y007600D02*
X016955Y007600D01*
X017074Y007718D02*
X022907Y007718D01*
X022907Y007837D02*
X017192Y007837D01*
X017311Y007955D02*
X022907Y007955D01*
X022907Y008074D02*
X017429Y008074D01*
X017548Y008192D02*
X022907Y008192D01*
X022907Y008311D02*
X017666Y008311D01*
X017785Y008429D02*
X022907Y008429D01*
X022907Y008548D02*
X017903Y008548D01*
X018022Y008666D02*
X022907Y008666D01*
X022907Y008785D02*
X018140Y008785D01*
X018259Y008903D02*
X022907Y008903D01*
X022907Y009022D02*
X018377Y009022D01*
X017727Y011746D02*
X025727Y011746D01*
X026977Y012996D01*
X026977Y017246D01*
X025852Y018371D01*
X023727Y018371D01*
X023477Y018121D01*
X025477Y017996D02*
X026602Y016871D01*
X026602Y013121D01*
X025602Y012121D01*
X017477Y012121D01*
X013727Y008371D01*
X013727Y006246D01*
X012727Y005246D01*
X002477Y005246D01*
X001421Y004190D01*
X001421Y003496D01*
X002208Y003496D02*
X002208Y004103D01*
X002977Y004871D01*
X012977Y004871D01*
X014164Y006059D01*
X014164Y008184D01*
X017727Y011746D01*
X023227Y010121D02*
X023227Y005121D01*
X023102Y004996D01*
X023102Y004746D01*
X023404Y004400D02*
X023870Y004400D01*
X023752Y004519D02*
X023504Y004519D01*
X023553Y004637D02*
X023633Y004637D01*
X022194Y003926D02*
X022010Y003926D01*
X021406Y003926D02*
X021223Y003926D01*
X020619Y003926D02*
X018297Y003926D01*
X018764Y003808D02*
X018802Y003808D01*
X018802Y003689D02*
X018764Y003689D01*
X018764Y003571D02*
X018802Y003571D01*
X019201Y003571D02*
X020403Y003571D01*
X020403Y003452D02*
X019201Y003452D01*
X019201Y003334D02*
X020428Y003334D01*
X020477Y003215D02*
X019200Y003215D01*
X019115Y003097D02*
X020589Y003097D01*
X020441Y003689D02*
X019201Y003689D01*
X019192Y003808D02*
X020501Y003808D01*
X022295Y002406D02*
X022420Y002458D01*
X022477Y002516D01*
X022534Y002458D01*
X022659Y002406D01*
X026795Y002406D01*
X026920Y002458D01*
X026977Y002516D01*
X027034Y002458D01*
X027159Y002406D01*
X031295Y002406D01*
X031420Y002458D01*
X031496Y002534D01*
X031572Y002458D01*
X031697Y002406D01*
X032920Y002406D01*
X033045Y002458D01*
X033137Y002550D01*
X033137Y000886D01*
X015602Y000886D01*
X015602Y002406D01*
X017795Y002406D01*
X017920Y002458D01*
X017996Y002534D01*
X018072Y002458D01*
X018197Y002406D01*
X022295Y002406D01*
X022466Y002504D02*
X022488Y002504D01*
X018026Y002504D02*
X017966Y002504D01*
X016089Y003097D02*
X015602Y003097D01*
X015602Y003215D02*
X015977Y003215D01*
X015928Y003334D02*
X015602Y003334D01*
X015602Y003452D02*
X015903Y003452D01*
X015903Y003571D02*
X015602Y003571D01*
X015602Y003689D02*
X015941Y003689D01*
X016001Y003808D02*
X015602Y003808D01*
X015602Y003926D02*
X016119Y003926D01*
X016723Y003926D02*
X016906Y003926D01*
X017510Y003926D02*
X017694Y003926D01*
X015602Y002386D02*
X033137Y002386D01*
X033137Y002504D02*
X033091Y002504D01*
X033137Y002267D02*
X015602Y002267D01*
X015602Y002149D02*
X033137Y002149D01*
X033137Y002030D02*
X015602Y002030D01*
X015602Y001912D02*
X033137Y001912D01*
X033137Y001793D02*
X015602Y001793D01*
X015602Y001675D02*
X033137Y001675D01*
X033137Y001556D02*
X015602Y001556D01*
X015602Y001438D02*
X033137Y001438D01*
X033137Y001319D02*
X015602Y001319D01*
X015602Y001201D02*
X033137Y001201D01*
X033137Y001082D02*
X015602Y001082D01*
X015602Y000964D02*
X033137Y000964D01*
X031526Y002504D02*
X031466Y002504D01*
X032615Y003097D02*
X032722Y003097D01*
X032700Y003215D02*
X032762Y003215D01*
X032762Y003334D02*
X032701Y003334D01*
X032701Y003452D02*
X032762Y003452D01*
X032762Y003571D02*
X032701Y003571D01*
X032701Y003689D02*
X032762Y003689D01*
X032762Y003808D02*
X032692Y003808D01*
X032762Y003926D02*
X031797Y003926D01*
X032264Y003808D02*
X032302Y003808D01*
X032302Y003689D02*
X032264Y003689D01*
X032264Y003571D02*
X032302Y003571D01*
X032762Y004282D02*
X027817Y004282D01*
X027817Y004400D02*
X032762Y004400D01*
X032762Y004519D02*
X027817Y004519D01*
X027817Y004637D02*
X032762Y004637D01*
X032762Y004756D02*
X027817Y004756D01*
X027817Y004874D02*
X032762Y004874D01*
X032762Y004993D02*
X027815Y004993D01*
X027750Y005111D02*
X032762Y005111D01*
X032762Y005230D02*
X027647Y005230D01*
X027647Y005348D02*
X032762Y005348D01*
X032762Y005467D02*
X027647Y005467D01*
X027647Y005585D02*
X032762Y005585D01*
X030519Y005704D02*
X027647Y005704D01*
X027671Y005822D02*
X030401Y005822D01*
X030282Y005941D02*
X027791Y005941D01*
X027817Y006059D02*
X030164Y006059D01*
X030045Y006178D02*
X027817Y006178D01*
X027817Y006296D02*
X029927Y006296D01*
X029808Y006415D02*
X027817Y006415D01*
X027817Y006533D02*
X029690Y006533D01*
X029571Y006652D02*
X027817Y006652D01*
X027804Y006770D02*
X029453Y006770D01*
X029334Y006889D02*
X027722Y006889D01*
X027627Y007007D02*
X029216Y007007D01*
X029097Y007126D02*
X027550Y007126D01*
X027432Y007244D02*
X028979Y007244D01*
X028860Y007363D02*
X027313Y007363D01*
X027195Y007481D02*
X028742Y007481D01*
X028623Y007600D02*
X027076Y007600D01*
X026958Y007718D02*
X028505Y007718D01*
X028386Y007837D02*
X026839Y007837D01*
X026720Y007955D02*
X028268Y007955D01*
X028149Y008074D02*
X026602Y008074D01*
X026483Y008192D02*
X028031Y008192D01*
X027912Y008311D02*
X026365Y008311D01*
X026246Y008429D02*
X027794Y008429D01*
X027675Y008548D02*
X026128Y008548D01*
X026009Y008666D02*
X027557Y008666D01*
X027438Y008785D02*
X025867Y008785D01*
X027201Y009022D02*
X023922Y009022D01*
X024321Y008903D02*
X027320Y008903D01*
X025761Y006770D02*
X023922Y006770D01*
X023922Y006652D02*
X025737Y006652D01*
X025737Y006533D02*
X023922Y006533D01*
X025102Y005746D02*
X026602Y005746D01*
X026727Y005871D01*
X026727Y006371D01*
X030223Y003926D02*
X030406Y003926D01*
X031010Y003926D02*
X031194Y003926D01*
X026988Y002504D02*
X026966Y002504D01*
X027727Y012621D02*
X028227Y013121D01*
X028227Y018371D01*
X028477Y018621D01*
X030477Y018621D01*
X030708Y018853D01*
X030708Y019371D01*
X010690Y004496D02*
X007102Y004496D01*
X006708Y004103D01*
X006708Y003496D01*
X011208Y003496D02*
X011208Y003978D01*
D29*
X024102Y008496D03*
X024477Y011371D03*
X024477Y012871D03*
X024352Y014371D03*
X025102Y014371D03*
X025664Y014371D03*
X027727Y012621D03*
X022352Y014496D03*
X025102Y005746D03*
X025102Y005246D03*
D30*
X010164Y007496D03*
X031727Y017496D03*
M02*
